<svg width="60" height="60" viewBox="0 0 60 60" fill="none" xmlns="http://www.w3.org/2000/svg">
<g clip-path="url(#clip0_3186_3113)">
<mask id="mask0_3186_3113" style="mask-type:luminance" maskUnits="userSpaceOnUse" x="0" y="0" width="60" height="60">
<path d="M0 0.000175476H59.9998V60H0V0.000175476Z" fill="white"/>
</mask>
<g mask="url(#mask0_3186_3113)">
<path d="M58.255 58.22H1.74511V53.1679C1.74524 53.0262 1.80158 52.8904 1.90176 52.7902C2.00195 52.69 2.1378 52.6337 2.27949 52.6335H43.6026C43.8357 52.6335 44.0593 52.5409 44.2241 52.3761C44.3889 52.2113 44.4815 51.9877 44.4815 51.7546C44.4815 51.5215 44.3889 51.298 44.2241 51.1332C44.0593 50.9683 43.8357 50.8757 43.6026 50.8757H38.3833V28.9157H51.6343V50.8757H47.3481C47.115 50.8757 46.8915 50.9683 46.7267 51.1332C46.5618 51.298 46.4692 51.5215 46.4692 51.7546C46.4692 51.9877 46.5618 52.2113 46.7267 52.3761C46.8915 52.5409 47.115 52.6335 47.3481 52.6335H57.7206C57.8623 52.6337 57.9981 52.69 58.0983 52.7902C58.1985 52.8904 58.2549 53.0262 58.255 53.1679V58.22ZM8.36584 35.6656H21.6168V50.8756H8.36584V35.6656ZM57.7206 50.8757H53.3921V28.7917C53.3921 27.8908 52.6592 27.1579 51.7584 27.1579H38.3833V20.7905C38.3833 19.8896 37.6504 19.1567 36.7495 19.1567H23.2506C22.3497 19.1567 21.6169 19.8896 21.6169 20.7905V27.019C21.6169 27.2521 21.7095 27.4757 21.8743 27.6405C22.0391 27.8053 22.2627 27.8979 22.4958 27.8979C22.7289 27.8979 22.9524 27.8053 23.1173 27.6405C23.2821 27.4757 23.3747 27.2521 23.3747 27.019V20.9145H36.6255V50.8757H23.3747V30.7645C23.3747 30.5314 23.2821 30.3079 23.1173 30.1431C22.9524 29.9782 22.7289 29.8856 22.4958 29.8856C22.2627 29.8856 22.0391 29.9782 21.8743 30.1431C21.7095 30.3079 21.6169 30.5314 21.6169 30.7645V33.9077H8.24185C7.34092 33.9077 6.60803 34.6407 6.60803 35.5416V50.8757H2.27949C1.01562 50.8757 -0.0126953 51.9039 -0.0126953 53.1679V59.0989C-0.0126953 59.332 0.0799016 59.5555 0.244728 59.7204C0.409554 59.8852 0.633109 59.9778 0.866208 59.9778H59.1339C59.367 59.9778 59.5905 59.8852 59.7554 59.7204C59.9202 59.5555 60.0128 59.332 60.0128 59.0989V53.1679C60.0128 51.9039 58.9846 50.8757 57.7206 50.8757Z" fill="#005AAB"/>
<path d="M27.1219 6.31802C27.3734 6.28147 27.6123 6.1843 27.818 6.03488C28.0237 5.88546 28.1899 5.68828 28.3024 5.46032L30.0003 2.01982L31.6984 5.46032C31.8109 5.6883 31.9771 5.8855 32.1828 6.03492C32.3885 6.18434 32.6274 6.2815 32.879 6.31802L36.6758 6.86973L33.9283 9.54793C33.7463 9.72533 33.6101 9.94436 33.5315 10.1861C33.453 10.4279 33.4344 10.6851 33.4774 10.9357L34.126 14.7172L30.7302 12.9318C30.5051 12.8135 30.2547 12.7516 30.0004 12.7516C29.7462 12.7516 29.4957 12.8135 29.2707 12.9318L25.8747 14.7172L26.5235 10.9357C26.5665 10.6851 26.5478 10.4278 26.4693 10.1861C26.3907 9.94429 26.2545 9.72524 26.0724 9.54781L23.325 6.86973L27.1219 6.31802ZM24.774 10.7369L24.0773 14.7991C24.0266 15.0875 24.0582 15.3843 24.1685 15.6555C24.2788 15.9268 24.4633 16.1614 24.7009 16.3326C25.1872 16.686 25.8198 16.7317 26.3523 16.4521L30.0003 14.5341L33.6485 16.4521C33.8738 16.5712 34.1248 16.6335 34.3797 16.6338C34.7034 16.6338 35.025 16.5324 35.2999 16.3326C35.5374 16.1615 35.7219 15.9268 35.8322 15.6556C35.9425 15.3844 35.9741 15.0876 35.9234 14.7992L35.2268 10.7369L38.1783 7.85996C38.3888 7.65634 38.5375 7.39757 38.6077 7.1133C38.6778 6.82902 38.6665 6.53074 38.5749 6.25262C38.4855 5.97381 38.3194 5.72582 38.0955 5.53709C37.8717 5.34835 37.5992 5.22651 37.3093 5.18552L33.2305 4.59279L31.4065 0.896937C31.1404 0.357759 30.6016 0.0228386 30.0003 0.0228386C29.3992 0.0228386 28.8603 0.357759 28.5943 0.89682L26.7703 4.59279L22.6915 5.18552C22.4016 5.22651 22.1291 5.34835 21.9052 5.53709C21.6814 5.72582 21.5152 5.97381 21.4259 6.25262C21.3343 6.53074 21.3229 6.82903 21.393 7.11331C21.4632 7.3976 21.612 7.65637 21.8224 7.85996L24.774 10.7369Z" fill="#005AAB"/>
<path d="M42.7236 8.32825C42.7236 8.56135 42.8162 8.7849 42.9811 8.94973C43.1459 9.11455 43.3694 9.20715 43.6025 9.20715H44.8612C45.0943 9.20715 45.3179 9.11455 45.4827 8.94973C45.6475 8.7849 45.7401 8.56135 45.7401 8.32825C45.7401 8.09515 45.6475 7.8716 45.4827 7.70677C45.3179 7.54194 45.0943 7.44935 44.8612 7.44935H43.6025C43.3694 7.44935 43.1459 7.54194 42.9811 7.70677C42.8162 7.8716 42.7236 8.09515 42.7236 8.32825Z" fill="#005AAB"/>
<path d="M42.0881 3.06738C42.2095 3.06738 42.333 3.04207 42.4508 2.98863L43.597 2.46832C43.8082 2.37135 43.9725 2.19464 44.0537 1.97687C44.135 1.7591 44.1267 1.51799 44.0307 1.30632C43.9346 1.09465 43.7586 0.929657 43.5412 0.847446C43.3237 0.765236 43.0826 0.772505 42.8705 0.867662L41.7243 1.38786C41.5412 1.47077 41.3921 1.61393 41.3018 1.79347C41.2114 1.97301 41.1854 2.17809 41.2279 2.37452C41.2705 2.57095 41.379 2.74686 41.5356 2.87294C41.6921 2.99902 41.8871 3.06765 42.0881 3.06738Z" fill="#005AAB"/>
<path d="M41.7246 15.2685L42.8708 15.7887C42.9846 15.8406 43.1083 15.8675 43.2335 15.8676C43.4024 15.8676 43.5678 15.819 43.7099 15.7275C43.8519 15.636 43.9645 15.5055 44.0343 15.3516C44.1306 15.1393 44.1387 14.8975 44.0567 14.6793C43.9748 14.4611 43.8095 14.2844 43.5972 14.188L42.451 13.6678C42.3459 13.6201 42.2325 13.5936 42.1171 13.5898C42.0018 13.5859 41.8868 13.6048 41.7788 13.6454C41.6707 13.686 41.5717 13.7475 41.4875 13.8263C41.4032 13.9052 41.3353 13.9998 41.2876 14.1049C41.1912 14.3172 41.1831 14.559 41.2651 14.7772C41.347 14.9954 41.5123 15.1721 41.7246 15.2685Z" fill="#005AAB"/>
<path d="M15.2559 9.20715H16.5146C16.7477 9.20715 16.9712 9.11455 17.136 8.94973C17.3009 8.7849 17.3935 8.56135 17.3935 8.32825C17.3935 8.09515 17.3009 7.8716 17.136 7.70677C16.9712 7.54194 16.7477 7.44935 16.5146 7.44935H15.2559C15.0228 7.44935 14.7992 7.54194 14.6344 7.70677C14.4696 7.8716 14.377 8.09515 14.377 8.32825C14.377 8.56135 14.4696 8.7849 14.6344 8.94973C14.7992 9.11455 15.0228 9.20715 15.2559 9.20715Z" fill="#005AAB"/>
<path d="M16.5205 2.46844L17.6667 2.98864C17.7805 3.04056 17.9042 3.06746 18.0294 3.0675C18.1983 3.06758 18.3637 3.01895 18.5058 2.92744C18.6478 2.83593 18.7604 2.70541 18.8302 2.55153C18.9265 2.33927 18.9346 2.09743 18.8526 1.87923C18.7707 1.66102 18.6054 1.48431 18.3931 1.38798L17.2469 0.867785C17.1418 0.820058 17.0284 0.793505 16.913 0.789644C16.7976 0.785782 16.6827 0.804688 16.5746 0.845281C16.4666 0.885873 16.3676 0.947357 16.2833 1.02622C16.199 1.10508 16.1311 1.19978 16.0835 1.30489C15.9871 1.51714 15.979 1.75896 16.061 1.97717C16.1429 2.19537 16.3082 2.37209 16.5205 2.46844Z" fill="#005AAB"/>
<path d="M17.6668 13.6678L16.5206 14.188C16.4155 14.2357 16.3208 14.3036 16.242 14.3879C16.1631 14.4722 16.1016 14.5712 16.061 14.6792C15.9791 14.8975 15.9871 15.1393 16.0834 15.3516C16.1798 15.5639 16.3565 15.7292 16.5747 15.8112C16.7929 15.8931 17.0348 15.8851 17.2471 15.7887L18.3933 15.2684C18.6045 15.1715 18.7688 14.9948 18.85 14.777C18.9313 14.5592 18.923 14.3181 18.827 14.1064C18.7309 13.8948 18.5549 13.7298 18.3375 13.6476C18.12 13.5654 17.8789 13.5726 17.6668 13.6678Z" fill="#005AAB"/>
</g>
</g>
<defs>
<clipPath id="clip0_3186_3113">
<rect width="60" height="60" fill="white"/>
</clipPath>
</defs>
</svg>
