<svg width="88" height="88" viewBox="0 0 88 88" fill="none" xmlns="http://www.w3.org/2000/svg">
<circle cx="63" cy="63" r="25" fill="#005AAB" fill-opacity="0.1"/>
<g clip-path="url(#clip0_3056_798)">
<path d="M34.7539 58.6172C35.638 58.6172 36.3555 57.8997 36.3555 57.0156C36.3555 56.1316 35.638 55.4141 34.7539 55.4141C33.8698 55.4141 33.1523 56.1316 33.1523 57.0156C33.1523 57.8997 33.8698 58.6172 34.7539 58.6172Z" fill="#005AAB"/>
<path d="M0.629337 62.312L19.8481 81.5307C19.9968 81.6795 20.1733 81.7975 20.3676 81.878C20.5618 81.9585 20.7701 81.9999 20.9804 81.9999C21.1907 81.9999 21.3989 81.9585 21.5932 81.878C21.7875 81.7975 21.964 81.6795 22.1127 81.5307L32.683 70.9604C32.8318 70.8118 32.9497 70.6352 33.0303 70.441C33.1108 70.2467 33.1522 70.0384 33.1522 69.8281C33.1522 69.6178 33.1108 69.4096 33.0303 69.2153C32.9497 69.021 32.8318 68.8445 32.683 68.6958L32.2138 68.2266H55.3003C57.3279 68.2266 59.2627 67.4665 60.7549 66.0813L80.1844 47.8717C82.0443 46.1444 82.6606 43.4004 81.7171 41.0444C81.3821 40.2038 80.8663 39.4473 80.2061 38.8286C79.5459 38.2098 78.7576 37.7439 77.8972 37.4641C77.0374 37.1818 76.1261 37.0922 75.2278 37.2017C74.3295 37.3112 73.4664 37.6172 72.6996 38.0978C72.6896 38.1041 68.386 40.9281 68.386 40.9281C68.3567 32.2465 63.1097 22.9887 55.8869 18.8209C56.309 18.3355 56.6295 17.7705 56.8298 17.1593C57.6562 14.6448 56.2824 11.9235 53.7644 11.0921C53.6854 11.0658 53.6066 11.0426 53.5278 11.0183L57.6506 3.61232C57.7677 3.4021 57.8359 3.16815 57.8501 2.9279C57.8643 2.68765 57.8242 2.44729 57.7326 2.22473C57.6412 2.00202 57.5008 1.8028 57.3218 1.64193C57.1427 1.48107 56.9296 1.3627 56.6984 1.29566C53.7424 0.436105 50.67 0 47.5663 0C44.4633 0 41.3904 0.436106 38.4342 1.29502C38.203 1.36213 37.9899 1.48053 37.8107 1.6414C37.6316 1.80226 37.4911 2.00146 37.3996 2.22416C37.3081 2.44686 37.268 2.68733 37.2822 2.92767C37.2965 3.16801 37.3648 3.40203 37.4821 3.61232L41.6048 11.0183C41.5248 11.0433 41.4447 11.0671 41.3646 11.0934C38.8503 11.9235 37.4771 14.6442 38.3035 17.1604C38.505 17.7712 38.8269 18.3354 39.2501 18.8196C31.9197 23.0494 26.746 32.4022 26.746 41C26.746 41.2346 26.7516 41.4661 26.7592 41.6957C23.8908 42.4782 21.2238 43.9041 18.981 45.8678L14.1137 50.1263L13.4643 49.4771C13.3156 49.3283 13.1391 49.2103 12.9448 49.1298C12.7505 49.0493 12.5423 49.0079 12.332 49.0079C12.1217 49.0079 11.9134 49.0493 11.7191 49.1298C11.5248 49.2103 11.3483 49.3283 11.1996 49.4771L0.629337 60.0474C0.480594 60.1961 0.362599 60.3726 0.282095 60.5669C0.201592 60.7611 0.160156 60.9694 0.160156 61.1797C0.160156 61.39 0.201592 61.5982 0.282095 61.7925C0.362599 61.9868 0.480594 62.1633 0.629337 62.312ZM41.2933 3.87322C43.3454 3.42766 45.4475 3.20312 47.5663 3.20312C49.6852 3.20312 51.7872 3.42766 53.84 3.87322L50.2709 10.2836C48.4768 10.0328 46.6565 10.0328 44.8624 10.2836L41.2933 3.87322ZM42.3645 14.1364C45.6509 13.0609 49.2336 12.9795 52.7639 14.1351C53.6041 14.4121 54.0627 15.3205 53.7868 16.159C53.6878 16.464 53.4989 16.7321 53.2449 16.928C52.9909 17.1239 52.6837 17.2385 52.3635 17.2568C49.2054 16.2527 45.9252 16.2509 42.7685 17.2536H42.7679C42.1096 17.2125 41.551 16.782 41.3459 16.1594C41.0699 15.3199 41.5284 14.4115 42.3645 14.1364ZM43.2501 20.4705C46.0272 19.4702 48.9044 19.4465 51.6884 20.4031C59.1296 22.9616 65.1835 32.2015 65.1835 41C65.1835 41.7457 65.1366 42.4565 65.044 43.1208L57.3458 48.1713C56.1544 46.6952 54.348 45.8047 52.371 45.8047H49.1679V43.9278C51.0321 43.2665 52.371 41.4861 52.371 39.3984C52.371 36.749 50.2158 34.5938 47.5663 34.5938C46.6835 34.5938 45.9648 33.8756 45.9648 32.9922C45.9648 32.1088 46.6835 31.3906 47.5663 31.3906C48.1338 31.3906 48.7324 31.6803 49.2986 32.2278C49.9344 32.8428 50.9483 32.8258 51.5633 32.1909C52.1783 31.5551 52.1614 30.541 51.5259 29.926C50.7131 29.139 49.8998 28.6944 49.1679 28.4514V26.5859C49.1679 25.7014 48.4509 24.9844 47.5663 24.9844C46.6818 24.9844 45.9648 25.7014 45.9648 26.5859V28.4628C44.101 29.1241 42.7616 30.9046 42.7616 32.9922C42.7616 35.6417 44.9169 37.7969 47.5663 37.7969C48.4497 37.7969 49.1679 38.515 49.1679 39.3984C49.1679 40.2819 48.4497 41 47.5663 41C46.882 41 46.1437 40.5695 45.4869 39.7883C44.9175 39.1113 43.9071 39.0237 43.2303 39.5929C42.5533 40.1624 42.4657 41.1726 43.035 41.8495C43.8909 42.8681 44.8981 43.5776 45.9648 43.9353V45.8047H45.4318C44.6448 45.8047 44.2913 45.2917 43.737 44.9333C40.3529 42.397 36.1616 41 31.9335 41C31.2724 41 30.6098 41.0344 29.9504 41.1014C29.9504 41.0676 29.9491 41.0344 29.9491 41C29.9491 32.3247 35.9162 23.1157 43.2501 20.4705ZM21.0907 48.2777C24.0998 45.6426 27.9664 44.2031 31.9335 44.2031C35.4731 44.2031 38.9821 45.3723 41.8137 47.4951C42.2221 47.7341 43.3595 49.0078 45.431 49.0078H52.371C54.1941 49.0078 55.5741 50.4899 55.5741 52.2109C55.5741 53.977 54.1371 55.4141 52.371 55.4141H41.1601C40.2755 55.4141 39.5585 56.1311 39.5585 57.0156C39.5585 57.9002 40.2755 58.6172 41.1601 58.6172H52.371C55.9033 58.6172 58.7773 55.7432 58.7773 52.2109C58.7773 51.8437 58.7448 51.4814 58.6834 51.1249L74.4108 40.806C74.7793 40.5778 75.1933 40.4329 75.6237 40.3815C76.0541 40.33 76.4905 40.3733 76.9025 40.5082C77.3171 40.6433 77.6969 40.868 78.015 41.1663C78.333 41.4646 78.5816 41.8292 78.743 42.2343C79.2054 43.3879 78.915 44.6799 77.9992 45.53L58.5702 63.739C57.6821 64.5657 56.5135 65.0248 55.3001 65.0234H29.0108L16.3841 52.3961L21.0907 48.2777ZM12.3321 52.8741L29.2861 69.8281L20.9804 78.1338L4.02625 61.1797L12.3321 52.8741Z" fill="#005AAB"/>
</g>
<defs>
<clipPath id="clip0_3056_798">
<rect width="82" height="82" fill="white"/>
</clipPath>
</defs>
</svg>
