<svg width="118" height="100" viewBox="0 0 118 100" fill="none" xmlns="http://www.w3.org/2000/svg">
<path d="M35.1915 58.9974C46.4686 59.2382 49.8878 42.8433 50.1877 34.6158C45.8688 49.305 36.3912 52.7766 32.1922 52.6762H7.44839V6.02014C44.0393 4.66561 47.3384 4.66561 53.7868 23.7796C57.9883 36.2333 62.0348 49.0641 70.8826 58.9974C74.9615 55.3853 82.7796 40.1343 86.1787 32.9603C86.8986 38.86 95.5764 52.1746 99.8253 58.0944C117.221 41.5992 118.871 12.4918 117.521 0L111.522 4.66561C113.322 26.6993 105.174 43.4453 100.875 49.0641C94.0368 43.2848 87.6284 21.4718 85.279 11.2878C83.2395 27.4217 74.8316 43.1945 70.8826 49.0641C67.2835 44.6995 63.8343 37.7764 58.4357 19.716C53.7868 4.16393 45.6888 0 33.8418 0H1V58.9974C7.69833 58.897 23.9143 58.7566 35.1915 58.9974Z" fill="url(#paint0_radial_3072_834)"/>
<path d="M12.74 98.7774C12.215 98.7774 11.7075 98.7599 11.2175 98.7249C10.7275 98.7016 10.2083 98.6433 9.66 98.5499C9.12333 98.4683 8.51667 98.3458 7.84 98.1824C8.06167 97.7741 8.32417 97.4124 8.6275 97.0974C8.9425 96.7708 9.30417 96.5258 9.7125 96.3624C10.1325 96.1991 10.605 96.1408 11.13 96.1874C11.5033 96.2224 11.7892 96.2458 11.9875 96.2574C12.1858 96.2574 12.425 96.2574 12.705 96.2574C13.825 96.2574 14.8692 95.9774 15.8375 95.4174C16.8058 94.8574 17.6517 94.0874 18.375 93.1074C19.0983 92.1274 19.6642 90.9958 20.0725 89.7124C20.4808 88.4174 20.685 87.0408 20.685 85.5824C20.685 83.3308 20.3 81.4174 19.53 79.8424C18.7717 78.2674 17.6283 77.0716 16.1 76.2549C14.5717 75.4266 12.6583 75.0124 10.36 75.0124C9.66 75.0124 8.97167 75.0358 8.295 75.0824C7.61833 75.1291 7 75.1874 6.44 75.2574V98.3574H3.115V73.2974C4.22333 73.0291 5.45417 72.8249 6.8075 72.6849C8.16083 72.5333 9.345 72.4574 10.36 72.4574C13.3233 72.4574 15.8375 72.9824 17.9025 74.0324C19.9792 75.0824 21.5542 76.5874 22.6275 78.5474C23.7125 80.5074 24.255 82.8524 24.255 85.5824C24.255 87.4841 23.9517 89.2399 23.345 90.8499C22.7383 92.4599 21.8983 93.8599 20.825 95.0499C19.7633 96.2283 18.5383 97.1441 17.15 97.7974C15.7733 98.4508 14.3033 98.7774 12.74 98.7774ZM26.5262 88.8024V86.5624H37.0962V88.8024H26.5262ZM45.6362 98.3574L38.8112 72.9124H42.1712L47.3512 93.5624L47.6312 95.2774L48.0162 93.5624L53.4412 73.2624H57.0112L62.2962 93.5974L62.6462 95.3124L62.9612 93.6674L68.1062 72.9124H71.3962L64.5712 98.3574H60.6512L55.4362 78.5474L55.1562 77.0774L54.8762 78.4774L49.6962 98.3574H45.6362ZM75.2 98.3574V72.9124H89.69V75.4324H78.525V95.8374H90.215V98.3574H75.2ZM79.855 86.2474C80.0183 85.8041 80.2283 85.3958 80.485 85.0224C80.7416 84.6491 81.0625 84.3516 81.4475 84.1299C81.8325 83.9083 82.305 83.7974 82.865 83.7974H88.5V86.2474H79.855ZM104.955 98.7774C104.29 98.7774 103.567 98.7308 102.785 98.6374C102.003 98.5558 101.093 98.3924 100.055 98.1474C100.288 97.7391 100.563 97.3658 100.878 97.0274C101.193 96.6774 101.554 96.4149 101.963 96.2399C102.383 96.0649 102.855 96.0241 103.38 96.1174C103.66 96.1524 103.911 96.1816 104.133 96.2049C104.366 96.2166 104.64 96.2224 104.955 96.2224C105.772 96.2224 106.524 96.0066 107.213 95.5749C107.901 95.1316 108.455 94.5424 108.875 93.8074C109.295 93.0608 109.505 92.2324 109.505 91.3224C109.505 90.1558 109.196 89.1991 108.578 88.4524C107.971 87.7058 107.148 87.1516 106.11 86.7899C105.083 86.4283 103.94 86.2474 102.68 86.2474H98.6552V98.3574H95.3302V73.2274C96.2052 73.0524 97.0452 72.9124 97.8502 72.8074C98.6552 72.6908 99.4485 72.6033 100.23 72.5449C101.023 72.4866 101.84 72.4574 102.68 72.4574C104.663 72.4574 106.308 72.7608 107.615 73.3674C108.933 73.9624 109.913 74.7733 110.555 75.7999C111.208 76.8149 111.535 77.9524 111.535 79.2124C111.535 80.0524 111.313 80.9741 110.87 81.9774C110.427 82.9691 109.773 83.7391 108.91 84.2874L107.895 84.7774L108.875 85.0224C109.75 85.4424 110.497 85.9558 111.115 86.5624C111.745 87.1574 112.223 87.8458 112.55 88.6274C112.877 89.3974 113.04 90.2491 113.04 91.1824C113.04 92.0808 112.853 92.9791 112.48 93.8774C112.118 94.7758 111.588 95.5983 110.888 96.3449C110.199 97.0799 109.353 97.6691 108.35 98.1124C107.358 98.5558 106.227 98.7774 104.955 98.7774ZM98.6552 83.8324H102.68C103.847 83.8324 104.827 83.6283 105.62 83.2199C106.425 82.8116 107.032 82.2574 107.44 81.5574C107.86 80.8574 108.07 80.0758 108.07 79.2124C108.07 78.4191 107.866 77.7074 107.458 77.0774C107.049 76.4474 106.443 75.9516 105.638 75.5899C104.844 75.2283 103.858 75.0474 102.68 75.0474C102.05 75.0474 101.379 75.0649 100.668 75.0999C99.956 75.1349 99.2852 75.1874 98.6552 75.2574V83.8324Z" fill="#2EAFB8"/>
<defs>
<radialGradient id="paint0_radial_3072_834" cx="0" cy="0" r="1" gradientUnits="userSpaceOnUse" gradientTransform="translate(59.4434 29.5) rotate(89.9311) scale(34.9155 69.1723)">
<stop stop-color="#CBEAF2"/>
<stop offset="1" stop-color="#2EAFB8"/>
</radialGradient>
</defs>
</svg>
