<svg width="85" height="71" viewBox="0 0 85 71" fill="none" xmlns="http://www.w3.org/2000/svg">
<circle cx="61.3844" cy="46.0035" r="23.1422" fill="#005AAB" fill-opacity="0.1"/>
<path d="M64.9179 50.7372C64.9412 50.7326 64.964 50.7263 64.9869 50.7204C65.0065 50.7154 65.0262 50.7112 65.0454 50.7053C65.0678 50.6985 65.0896 50.6901 65.1115 50.6822C65.1309 50.6752 65.1504 50.6689 65.1696 50.6609C65.1902 50.6523 65.2101 50.6422 65.2302 50.6327C65.2497 50.6234 65.2696 50.6148 65.2888 50.6044C65.308 50.5942 65.3261 50.5825 65.3448 50.5714C65.3639 50.5599 65.3833 50.5492 65.4019 50.5366C65.4218 50.5234 65.4403 50.5087 65.4595 50.4943C65.4756 50.4823 65.4921 50.471 65.5079 50.4581C65.5369 50.4343 65.5645 50.4088 65.5914 50.3826C65.5963 50.378 65.6015 50.374 65.6063 50.3692C65.6113 50.3642 65.6156 50.3586 65.6205 50.3534C65.6463 50.3269 65.6714 50.2996 65.6951 50.2709C65.7089 50.2541 65.7209 50.2365 65.7338 50.2191C65.7471 50.2012 65.761 50.1838 65.7734 50.1652C65.7867 50.1453 65.7983 50.1246 65.8105 50.1042C65.8207 50.087 65.8317 50.0701 65.8412 50.0524C65.8523 50.0318 65.8616 50.0104 65.8715 49.9895C65.8803 49.9708 65.8896 49.9524 65.8976 49.9332C65.9062 49.9126 65.9131 49.8916 65.9206 49.8706C65.9279 49.8502 65.9358 49.8299 65.9421 49.8091C65.9486 49.788 65.9532 49.7665 65.9586 49.7449C65.9638 49.7238 65.9699 49.703 65.974 49.6817C65.979 49.6564 65.9821 49.6309 65.9857 49.6055C65.9882 49.5875 65.9916 49.5698 65.9934 49.5517C65.9979 49.507 66.0002 49.4624 66.0002 49.4176V20.6781C66.0002 19.9353 65.3984 19.3335 64.6556 19.3335H22.3015C22.2896 19.3335 22.2782 19.3349 22.2663 19.3353C22.2205 19.3365 22.1748 19.34 22.1294 19.3459C22.0631 19.354 21.9977 19.3674 21.9336 19.3858C21.8914 19.3979 21.8498 19.412 21.809 19.428C21.7493 19.4512 21.6915 19.4788 21.636 19.5108C21.5981 19.5326 21.5612 19.5561 21.5254 19.5813C21.4886 19.6072 21.4532 19.6351 21.4194 19.6648C21.4032 19.6789 21.3873 19.6933 21.3717 19.7082C21.3541 19.7253 21.3369 19.7429 21.3201 19.7609C21.3117 19.7699 21.3027 19.7777 21.2946 19.7869C21.2898 19.7923 21.286 19.7982 21.2814 19.8036C21.2647 19.8233 21.2485 19.8435 21.233 19.8642C21.2215 19.8792 21.2097 19.8943 21.1989 19.9097C21.1849 19.9298 21.172 19.9504 21.1591 19.9712C21.1485 19.9882 21.1376 20.0051 21.1279 20.0225C21.1166 20.0425 21.1068 20.0632 21.0965 20.0838C21.0872 20.1026 21.0775 20.1214 21.0691 20.1406C21.0603 20.1609 21.0526 20.1818 21.0449 20.2025C21.0372 20.2227 21.0293 20.2428 21.0227 20.2632C21.0161 20.2838 21.0107 20.3048 21.0049 20.3258C20.9992 20.3473 20.9931 20.3686 20.9883 20.3903C20.9838 20.4106 20.9807 20.4312 20.9771 20.4516C20.9732 20.475 20.9693 20.4983 20.9664 20.5216C20.9641 20.5409 20.963 20.5606 20.9616 20.5804C20.9598 20.6055 20.9581 20.6306 20.9578 20.6558C20.9576 20.6632 20.9567 20.6704 20.9567 20.6777V28.9696C20.9567 29.7124 21.5585 30.3142 22.3013 30.3142C23.044 30.3142 23.6459 29.7124 23.6459 28.9696V23.6639L35.6002 34.2479C35.5366 34.2921 35.477 34.3417 35.4218 34.3962L23.6457 46.1723V37.3361C23.6457 36.5934 23.0439 35.9915 22.3011 35.9915C21.5584 35.9915 20.9565 36.5934 20.9565 37.3361V38.979H14.0096C13.2668 38.979 12.665 39.5808 12.665 40.3236C12.665 41.0663 13.2668 41.6682 14.0096 41.6682H20.9565V49.4185C20.9565 50.1612 21.5584 50.7631 22.3011 50.7631H64.6553C64.6995 50.7631 64.7438 50.7607 64.7879 50.7564C64.8085 50.7544 64.8284 50.7505 64.8487 50.7476C64.872 50.7444 64.895 50.7417 64.9179 50.7372ZM63.3109 46.1725L51.5345 34.3963C51.527 34.3888 51.5189 34.3825 51.5112 34.3754L60.3644 26.8642C60.6339 26.6328 60.8008 26.3041 60.8288 25.95C60.8567 25.5959 60.7434 25.2451 60.5136 24.9742C60.2838 24.7034 59.9561 24.5345 59.6022 24.5044C59.2482 24.4744 58.8968 24.5856 58.6246 24.8138L43.497 37.6482L25.8483 22.0228H63.3109V46.1725ZM37.3236 36.2981C37.4169 36.2048 37.496 36.0981 37.5581 35.9817L42.587 40.434C42.8328 40.6519 43.1499 40.7722 43.4784 40.772C43.7971 40.7722 44.1055 40.659 44.3484 40.4527L49.4734 36.1045C49.52 36.1726 49.5725 36.2377 49.6329 36.2981L61.4091 48.0743H25.5475L37.3236 36.2981Z" fill="#005AAB"/>
<path d="M5.34458 34.6467H28.053C28.7958 34.6467 29.3976 34.0449 29.3976 33.3021C29.3976 32.5594 28.7958 31.9575 28.053 31.9575H5.34458C4.60183 31.9575 4 32.5594 4 33.3021C4 34.0449 4.60183 34.6467 5.34458 34.6467ZM7.69758 27.237H17.894C18.6367 27.237 19.2385 26.6352 19.2385 25.8924C19.2385 25.1497 18.6367 24.5479 17.894 24.5479H7.69758C6.95484 24.5479 6.35301 25.1497 6.35301 25.8924C6.35301 26.6352 6.95484 27.237 7.69758 27.237ZM15.2048 44.6564H5.34458C4.60183 44.6564 4 45.2583 4 46.001C4 46.7438 4.60183 47.3456 5.34458 47.3456H15.2048C15.9475 47.3456 16.5494 46.7438 16.5494 46.001C16.5494 45.2583 15.9475 44.6564 15.2048 44.6564Z" fill="#005AAB"/>
</svg>
