<svg width="50" height="50" viewBox="0 0 50 50" fill="none" xmlns="http://www.w3.org/2000/svg">
<path d="M49.0234 15.3842H44.5313V10.8921C44.5313 10.3528 44.094 9.9155 43.5547 9.9155H42.7139C40.3777 5.98661 36.141 3.56396 31.5526 3.56396C28.028 3.56396 24.7021 4.97724 22.2656 7.47625C19.8292 4.97724 16.5033 3.56396 12.9787 3.56396C5.82224 3.56396 0 9.38621 0 16.5426C0 19.1682 0.570701 21.6917 1.69628 24.0431C2.05771 24.7974 2.47301 25.5246 2.93895 26.2192C3.92215 27.6844 4.63201 29.2396 5.04871 30.8416L7.90759 41.8361C8.61178 44.5443 11.058 46.4359 13.8562 46.4359C16.5411 46.4359 18.8942 44.7174 19.7112 42.1598L22.1166 34.6304C22.1279 34.5952 22.1514 34.5217 22.2656 34.5217C22.3799 34.5217 22.4033 34.5952 22.4147 34.6304L24.8201 42.1598C25.6371 44.7174 27.9901 46.4359 30.6751 46.4359C33.4733 46.4359 35.9195 44.5444 36.6237 41.8361L39.4826 30.8417C39.7083 29.9737 40.0236 29.1122 40.4207 28.2748H43.5547C44.094 28.2748 44.5313 27.8375 44.5313 27.2982V22.8061H49.0234C49.5627 22.8061 50 22.3688 50 21.8295V16.3608C50 15.8215 49.5627 15.3842 49.0234 15.3842ZM37.5924 30.3501L34.7336 41.3446C34.2531 43.1923 32.5841 44.4827 30.6751 44.4827C28.8432 44.4827 27.2381 43.3104 26.6806 41.5655L24.2751 34.0361C23.9903 33.1446 23.2016 32.5685 22.2656 32.5685C21.3297 32.5685 20.5409 33.1446 20.2562 34.0361L17.8507 41.5655C17.2932 43.3104 15.688 44.4827 13.8562 44.4827C11.9471 44.4827 10.2782 43.1923 9.79772 41.3446L6.93884 30.3501C6.46677 28.5349 5.66668 26.779 4.56072 25.131C4.14721 24.5146 3.77864 23.8692 3.4579 23.1998C2.45946 21.1138 1.95312 18.874 1.95312 16.5426C1.95312 10.4631 6.89909 5.51708 12.9787 5.51708C16.0156 5.51708 18.8789 6.75223 20.9566 8.9326C19.8157 10.0414 18.3174 10.664 16.74 10.664C16.2007 10.664 15.7634 11.1013 15.7634 11.6406C15.7634 12.1798 16.2007 12.6172 16.74 12.6172C19.1717 12.6172 21.4607 11.5012 23.0159 9.56492C25.1213 6.99618 28.2358 5.51708 31.5525 5.51708C35.0453 5.51708 38.2975 7.1704 40.3643 9.9155H38.0859C37.5466 9.9155 37.1093 10.3528 37.1093 10.8921V15.3842H32.6172C32.0779 15.3842 31.6406 15.8215 31.6406 16.3608V21.8295C31.6406 22.3688 32.0779 22.8061 32.6172 22.8061H37.1093V27.2982C37.1093 27.8375 37.5466 28.2748 38.0859 28.2748H38.2864C38.0089 28.9503 37.777 29.6436 37.5924 30.3501ZM48.0469 20.853H43.5547C43.0155 20.853 42.5782 21.2903 42.5782 21.8295V26.3217H39.0625V21.8295C39.0625 21.2903 38.6252 20.853 38.086 20.853H33.5938V17.3373H38.086C38.6252 17.3373 39.0625 16.9 39.0625 16.3608V11.8686H42.5782V16.3608C42.5782 16.9 43.0155 17.3373 43.5547 17.3373H48.0469V20.853Z" fill="#005AAB"/>
</svg>
