<svg width="88" height="88" viewBox="0 0 88 88" fill="none" xmlns="http://www.w3.org/2000/svg">
<circle cx="63" cy="63" r="25" fill="#005AAB" fill-opacity="0.1"/>
<path d="M79.6123 0.507812C81.2191 0.588606 82.7385 1.26557 83.873 2.40625L83.875 2.4082C85.0152 3.54231 85.6922 5.06085 85.7734 6.66699C85.8546 8.2732 85.3336 9.85238 84.3135 11.0957V11.0967L73.1338 24.7959L73.0215 24.9336V70.0625C73.0213 73.5802 70.1578 76.4433 66.6387 76.4434H46.5771V83.3438H51.4131C52.5606 83.3438 53.4911 84.2744 53.4912 85.4219C53.4912 86.5694 52.5606 87.5 51.4131 87.5H23.8271C22.6796 87.5 21.749 86.5694 21.749 85.4219C21.7491 84.2744 22.6796 83.3438 23.8271 83.3438H28.6631V76.4434H8.60156C5.08252 76.4433 2.21897 73.5802 2.21875 70.0625V28.5771C2.21901 25.0595 5.08255 22.1963 8.60156 22.1963H50.4209L50.5596 22.084L75.1826 1.9707L75.1836 1.96973C76.4267 0.948696 78.0056 0.427088 79.6123 0.507812ZM32.8184 83.3447H42.4219V76.4434H32.8184V83.3447ZM6.375 70.0625C6.37522 71.2902 7.37381 72.2871 8.60156 72.2871H66.6387C67.8665 72.287 68.866 71.2902 68.8662 70.0625V67.3623H6.375V70.0625ZM8.60156 26.3525C7.37384 26.3526 6.37526 27.3495 6.375 28.5771V63.207H68.8662V30.0264L67.9785 31.1143L61.8096 38.6738C60.0073 40.8769 57.3455 42.2205 54.5059 42.3623C54.3392 42.3706 54.1723 42.375 54.0059 42.375C53.8214 42.375 53.6354 42.3688 53.4473 42.3584L52.8525 42.3252L52.9229 42.916C53.302 46.1316 52.2638 49.4811 49.8047 51.9404C47.7304 54.0147 44.6861 55.0249 40.6709 54.8633C35.1981 54.6437 32.8596 56.4161 32.5195 56.7031L32.5176 56.7012L32.5029 56.7158C32.5036 56.7151 32.5047 56.715 32.5049 56.7148C32.5045 56.7152 32.5029 56.7159 32.501 56.7178L32.4844 56.7334L32.4824 56.7363C32.0966 57.1054 31.5828 57.3112 31.0488 57.3105H31.0479C30.7752 57.3109 30.5049 57.2567 30.2529 57.1523C30.001 57.048 29.7717 56.8952 29.5791 56.7021V56.7012L29.4385 56.5459C28.7809 55.742 28.8163 54.5607 29.5449 53.7979L29.5439 53.7969L29.582 53.7598L29.5781 53.7559C29.8732 53.4048 31.6363 51.0663 31.417 45.6094C31.2557 41.5952 32.2666 38.5497 34.3408 36.4756C36.4064 34.4101 39.1502 33.2737 42.0713 33.2734C42.507 33.2744 42.9424 33.3005 43.375 33.3525L43.9658 33.4238L43.9346 32.8291C43.9157 32.48 43.9146 32.1289 43.9326 31.7773C44.0176 30.1142 44.5174 28.5134 45.3584 27.1094L45.8115 26.3525H8.60156ZM42.0723 37.4287C40.2625 37.4287 38.5579 38.1354 37.2783 39.415C35.991 40.7027 35.4623 42.7771 35.5693 45.4424C35.6473 47.384 35.5105 49.0426 35.2588 50.4404L35.1309 51.1494L35.8389 51.0215C37.2368 50.7695 38.8945 50.6328 40.8369 50.7109H40.8379C43.5032 50.8178 45.5776 50.2886 46.8652 49.001C49.5084 46.3576 49.5086 42.0585 46.8652 39.415C45.5856 38.1352 43.882 37.4287 42.0723 37.4287ZM54.5518 24.1895L50.2617 27.6924C48.9434 28.7663 48.1694 30.2946 48.083 31.9893C47.9964 33.684 48.6116 35.2835 49.8115 36.4834C50.9345 37.6062 52.4069 38.2181 53.9824 38.2197L54.2988 38.2119C55.9908 38.1275 57.5181 37.3561 58.5908 36.0449L58.5918 36.0439L62.1035 31.7402L62.3887 31.3906L62.0693 31.0703L55.2207 24.2227L54.9014 23.9033L54.5518 24.1895ZM79.4033 4.66406C78.8977 4.63867 78.3996 4.77916 77.9834 5.06055L77.8105 5.18945L58.5645 20.9111L58.1357 21.2607L58.5273 21.6514L64.6387 27.7627L65.0293 28.1543L65.3789 27.7256L81.0928 8.46973L81.0918 8.46875C81.4584 8.02158 81.6464 7.45448 81.6172 6.87695C81.5879 6.29917 81.3438 5.75264 80.9336 5.34473C80.5257 4.93594 79.9802 4.69307 79.4033 4.66406Z" fill="#005AAB" stroke="white"/>
</svg>
