<svg width="77" height="75" viewBox="0 0 77 75" fill="none" xmlns="http://www.w3.org/2000/svg">
<circle cx="53.3844" cy="50.9549" r="23.1422" fill="#005AAB" fill-opacity="0.1"/>
<path d="M63.3233 0.506836C64.5759 0.569882 65.7601 1.09707 66.6446 1.98633L66.6465 1.98828C67.5355 2.8725 68.0627 4.05634 68.126 5.30859C68.1893 6.56066 67.7844 7.79147 66.9893 8.76074L66.9883 8.76172L58.0957 19.6592L57.9834 19.7969V55.7314C57.9833 58.4732 55.7508 60.7051 53.0078 60.7051H36.9483V66.3984H40.8965C41.7528 66.3984 42.4472 67.0929 42.4473 67.9492C42.4473 68.8056 41.7529 69.5 40.8965 69.5H18.9532C18.0969 69.4999 17.4024 68.8055 17.4024 67.9492C17.4024 67.093 18.097 66.3986 18.9532 66.3984H22.9024V60.7051H6.84183C4.09918 60.7049 1.86734 58.473 1.86722 55.7314V22.7324C1.86722 19.9907 4.09911 17.759 6.84183 17.7588H40.1446L40.2823 17.6455L59.8692 1.64648L59.8701 1.64551C60.8394 0.849549 62.0707 0.443852 63.3233 0.506836ZM26.0039 66.3984H33.8467V60.7051H26.0039V66.3984ZM4.96878 55.7314C4.96891 56.7645 5.80896 57.6033 6.84183 57.6035H53.0078C54.041 57.6035 54.8817 56.7647 54.8819 55.7314V53.4814H4.96878V55.7314ZM6.84183 20.8604C5.80889 20.8606 4.96878 21.6992 4.96878 22.7324V50.3809H54.8819V23.5977L53.9951 24.6855L49.0879 30.6982C47.6726 32.4285 45.5816 33.4844 43.3516 33.5957C43.2207 33.6022 43.0897 33.6055 42.959 33.6055C42.8147 33.6055 42.6688 33.6 42.5205 33.5918L41.9258 33.5586L41.9961 34.1494C42.2757 36.5196 41.5757 38.9817 39.8946 40.873L39.545 41.2432C37.921 42.8671 35.5306 43.6668 32.3555 43.5391C27.9403 43.362 26.0606 44.8054 25.795 45.0322L25.794 45.0312L25.7803 45.0449L25.7686 45.0557L25.7676 45.0566C25.4798 45.3321 25.0966 45.4858 24.6983 45.4854H24.6973C24.4938 45.4856 24.2915 45.446 24.1035 45.3682C23.9156 45.2903 23.7453 45.1753 23.6016 45.0312H23.6006C23.0412 44.4716 22.9991 43.5906 23.4737 42.9824L23.5752 42.8643L23.5909 42.8486C23.5908 42.8487 23.5898 42.8487 23.5889 42.8496L23.6035 42.835L23.6016 42.832C23.8381 42.5533 25.2694 40.6725 25.0928 36.2764C24.9653 33.1022 25.7648 30.7107 27.3887 29.0869C29.0126 27.463 31.1693 26.5696 33.4659 26.5693C33.8084 26.5701 34.1511 26.5909 34.4912 26.6318L35.0821 26.7031L35.0498 26.1084C35.0351 25.8344 35.0338 25.559 35.0479 25.2832V25.2822C35.1146 23.9766 35.5076 22.7198 36.168 21.6172L36.6211 20.8604H6.84183ZM33.4668 29.6709C32.0001 29.6709 30.6181 30.2432 29.5811 31.2803C28.5272 32.3342 28.1058 34.0196 28.1914 36.1514C28.2532 37.6888 28.1452 39.0011 27.9463 40.1055L27.8184 40.8135L28.5264 40.6855C29.6309 40.4865 30.9424 40.3785 32.4805 40.4404C34.612 40.5259 36.2976 40.1046 37.3516 39.0508C39.4941 36.9081 39.4943 33.4229 37.3516 31.2803C36.3146 30.2432 34.9334 29.671 33.4668 29.6709ZM43.3282 19.1621L39.917 21.9482C38.8457 22.8207 38.2159 24.0634 38.1455 25.4404C38.0752 26.8173 38.5751 28.1179 39.5498 29.0928C40.4623 30.0053 41.66 30.5026 42.9405 30.5039L43.1973 30.498C44.4863 30.4337 45.6579 29.8779 46.5176 28.9307L46.6856 28.7363L49.4795 25.3125L49.7657 24.9629L49.4453 24.6436L43.9981 19.1953L43.6787 18.876L43.3282 19.1621ZM63.167 3.6084C62.6819 3.58401 62.2046 3.7406 61.8291 4.04883L46.5205 16.5547L46.0918 16.9043L46.4834 17.2949L51.3448 22.1562L51.7354 22.5479L52.086 22.1191L64.585 6.80176L64.584 6.80078C64.8916 6.42548 65.0499 5.94948 65.0254 5.46484C65.0039 5.04049 64.8444 4.63623 64.5742 4.3125L64.4512 4.17969C64.1088 3.83649 63.6513 3.63275 63.167 3.6084Z" fill="#005AAB" stroke="#F6F6F6"/>
</svg>
