<svg width="60" height="60" viewBox="0 0 60 60" fill="none" xmlns="http://www.w3.org/2000/svg">
<path d="M10 25.465H23C23.2652 25.465 23.5196 25.3596 23.7071 25.1721C23.8946 24.9845 24 24.7302 24 24.465C24 24.1997 23.8946 23.9454 23.7071 23.7579C23.5196 23.5703 23.2652 23.465 23 23.465H10C9.73478 23.465 9.48043 23.5703 9.29289 23.7579C9.10536 23.9454 9 24.1997 9 24.465C9 24.7302 9.10536 24.9845 9.29289 25.1721C9.48043 25.3596 9.73478 25.465 10 25.465ZM36 29.465H10C9.73478 29.465 9.48043 29.5703 9.29289 29.7579C9.10536 29.9454 9 30.1997 9 30.465C9 30.7302 9.10536 30.9845 9.29289 31.1721C9.48043 31.3596 9.73478 31.465 10 31.465H36C36.2652 31.465 36.5196 31.3596 36.7071 31.1721C36.8946 30.9845 37 30.7302 37 30.465C37 30.1997 36.8946 29.9454 36.7071 29.7579C36.5196 29.5703 36.2652 29.465 36 29.465ZM36 35.465H10C9.73478 35.465 9.48043 35.5703 9.29289 35.7579C9.10536 35.9454 9 36.1998 9 36.465C9 36.7302 9.10536 36.9845 9.29289 37.1721C9.48043 37.3596 9.73478 37.465 10 37.465H36C36.2652 37.465 36.5196 37.3596 36.7071 37.1721C36.8946 36.9845 37 36.7302 37 36.465C37 36.1998 36.8946 35.9454 36.7071 35.7579C36.5196 35.5703 36.2652 35.465 36 35.465Z" fill="#005AAB"/>
<path d="M54.072 2.53497L19.93 2.46497C16.66 2.46497 14 5.12497 14 8.39497V13.519L5.93 13.536C2.66 13.536 0 16.196 0 19.466V40.607C0 43.877 2.66 46.536 5.93 46.536H12V56.536C11.9999 56.7378 12.0609 56.935 12.175 57.1016C12.2891 57.2681 12.451 57.3962 12.6393 57.469C12.8275 57.5419 13.0335 57.556 13.2299 57.5096C13.4264 57.4632 13.6042 57.3584 13.74 57.209L23.444 46.534L40.07 46.466C43.34 46.466 46 43.806 46 40.537V40.424L51.26 46.21C51.3962 46.3583 51.574 46.4622 51.7701 46.508C51.9663 46.5538 52.1716 46.5394 52.3595 46.4668C52.5473 46.3941 52.7089 46.2665 52.8232 46.1007C52.9374 45.9348 52.999 45.7384 53 45.537V35.537H54.07C57.34 35.537 60 32.877 60 29.608V8.46497C59.9981 6.89315 59.3731 5.38621 58.2618 4.27457C57.1506 3.16294 55.6438 2.53735 54.072 2.53497ZM44 40.536C43.9987 41.5785 43.5836 42.5778 42.846 43.3145C42.1084 44.0512 41.1085 44.465 40.066 44.465L22.996 44.535C22.8574 44.5355 22.7203 44.5648 22.5936 44.6211C22.4669 44.6774 22.3533 44.7594 22.26 44.862L14 53.949V45.535C14 45.2698 13.8946 45.0154 13.7071 44.8279C13.5196 44.6403 13.2652 44.535 13 44.535H5.93C4.8882 44.5339 3.88935 44.1197 3.15259 43.3831C2.41583 42.6465 2.00132 41.6478 2 40.606V19.465C2.00132 18.4227 2.41608 17.4236 3.15324 16.6868C3.8904 15.95 4.88976 15.5358 5.932 15.535L15 15.516H15.002L40.07 15.464C41.112 15.465 42.111 15.8794 42.8478 16.6162C43.5845 17.353 43.9989 18.352 44 19.394V40.536ZM58 29.606C57.9987 30.6478 57.5842 31.6465 56.8474 32.3831C56.1106 33.1197 55.1118 33.5339 54.07 33.535H52C51.7348 33.535 51.4804 33.6403 51.2929 33.8279C51.1054 34.0154 51 34.2698 51 34.535V42.949L46 37.449V19.395C46 16.125 43.34 13.465 40.068 13.465L16 13.514V8.39397C16.0011 7.35234 16.4152 6.35364 17.1515 5.61691C17.8879 4.88018 18.8864 4.46555 19.928 4.46397L54.069 4.53397H54.071C55.113 4.53502 56.112 4.94942 56.8488 5.68621C57.5855 6.42299 57.9999 7.42199 58.001 8.46397L58 29.606Z" fill="#005AAB"/>
</svg>
