<svg width="44" height="44" viewBox="0 0 44 44" fill="none" xmlns="http://www.w3.org/2000/svg">
<g clip-path="url(#clip0_3129_1238)">
<path d="M42.3387 18.1748L24.3915 18.174C23.599 18.174 22.9566 18.8162 22.9566 19.6088V25.3421C22.9566 26.1344 23.599 26.7769 24.3914 26.7769H34.4982C33.3914 29.649 31.3259 32.0543 28.6905 33.5826L33 41.0428C39.913 37.0447 44 30.0297 44 22.1769C44 21.0588 43.9176 20.2595 43.7528 19.3595C43.6275 18.6757 43.0338 18.1748 42.3387 18.1748Z" fill="#167EE6"/>
<path d="M22 35.3913C17.0539 35.3913 12.7361 32.6889 10.4171 28.6899L2.95718 32.9897C6.75347 39.5693 13.8651 44 22 44C25.9907 44 29.7562 42.9255 33 41.053V41.0428L28.6905 33.5825C26.7192 34.7258 24.4381 35.3913 22 35.3913Z" fill="#12B347"/>
<path d="M33 41.053V41.0428L28.6905 33.5825C26.7193 34.7257 24.4383 35.3912 22 35.3912V44C25.9907 44 29.7564 42.9255 33 41.053Z" fill="#0F993E"/>
<path d="M8.6087 22C8.6087 19.5621 9.27403 17.2812 10.4171 15.3101L2.9572 11.0103C1.07439 14.2438 0 17.9991 0 22C0 26.0009 1.07439 29.7562 2.9572 32.9898L10.4171 28.69C9.27403 26.7189 8.6087 24.438 8.6087 22Z" fill="#FFD500"/>
<path d="M22 8.6087C25.2253 8.6087 28.1879 9.75476 30.502 11.6611C31.0728 12.1314 31.9026 12.0974 32.4255 11.5745L36.4878 7.51223C37.0811 6.91891 37.0388 5.94773 36.405 5.39791C32.5279 2.0344 27.4834 0 22 0C13.8651 0 6.75347 4.43068 2.95718 11.0102L10.4171 15.31C12.7361 11.3111 17.0539 8.6087 22 8.6087Z" fill="#FF4B26"/>
<path d="M30.502 11.6611C31.0729 12.1314 31.9027 12.0974 32.4255 11.5745L36.4878 7.51223C37.081 6.91891 37.0387 5.94773 36.405 5.39791C32.5279 2.03431 27.4834 0 22 0V8.6087C25.2252 8.6087 28.1879 9.75477 30.502 11.6611Z" fill="#D93F21"/>
</g>
<defs>
<clipPath id="clip0_3129_1238">
<rect width="44" height="44" fill="white"/>
</clipPath>
</defs>
</svg>
