<svg width="304" height="249" viewBox="0 0 304 249" fill="none" xmlns="http://www.w3.org/2000/svg">
<g clip-path="url(#clip0_3184_3024)">
<path d="M290.78 249H13.22C9.70108 248.982 6.33299 247.568 3.85463 245.068C1.37628 242.568 -0.00995216 239.186 5.37939e-05 235.664V13.3354C-0.00985138 9.8139 1.37642 6.43224 3.85477 3.93225C6.33311 1.43226 9.70115 0.0181071 13.22 0L290.78 0C294.299 0.0181071 297.667 1.43226 300.145 3.93225C302.623 6.43224 304.01 9.8139 304 13.3354V235.664C304.01 239.186 302.623 242.567 300.145 245.067C297.667 247.567 294.299 248.982 290.78 249Z" fill="#DDDDDD"/>
<path d="M279 237.595H14.6385C11.3005 237.591 8.10016 236.262 5.73964 233.9C3.37912 231.539 2.0511 228.336 2.04688 224.995V14.9065C2.0506 11.5656 3.37839 8.36265 5.73897 6.00026C8.09955 3.63788 11.3001 2.309 14.6385 2.30518H279C282.339 2.309 285.539 3.63782 287.9 6.00013C290.26 8.36244 291.588 11.5653 291.592 14.9061V224.995C291.588 228.336 290.26 231.539 287.899 233.9C285.539 236.262 282.338 237.591 279 237.595Z" fill="white"/>
<path d="M83.6406 138.164L91.5696 130.229H117.587V187.472L109.251 195.815L83.6406 138.164Z" fill="#E6E6E6"/>
<path d="M127.095 109.675L140.303 101.879H161.127V185.826L153.708 196.017L127.095 109.675Z" fill="#E6E6E6"/>
<path d="M171.767 84.2225L178.624 77.3601H205.158V186.216L199.069 196.67L171.767 84.2225Z" fill="#E6E6E6"/>
<path d="M113.164 132.121H84.9473V195.375H113.164V132.121Z" fill="#005AAB"/>
<path d="M156.618 104.447H128.401V195.938H156.618V104.447Z" fill="#005AAB"/>
<path d="M200.636 79.5984H172.419V195.939H200.636V79.5984Z" fill="#005AAB"/>
<path d="M81.9082 107.682L178.391 55.6139L171.066 43.2285L211.73 44.4922L188.494 74.5708L181.169 60.9229L83.9288 111.492L81.9082 107.682Z" fill="#005AAB"/>
</g>
<defs>
<clipPath id="clip0_3184_3024">
<rect width="304" height="249" fill="white"/>
</clipPath>
</defs>
</svg>
