<svg width="75" height="75" viewBox="0 0 75 75" fill="none" xmlns="http://www.w3.org/2000/svg">
<path fill-rule="evenodd" clip-rule="evenodd" d="M28.9866 0.379385C29.2296 0.136465 29.5591 0 29.9027 0C30.2463 0 30.5758 0.136465 30.8188 0.379385L45.0723 14.6329C45.2535 14.8141 45.3769 15.045 45.4268 15.2963C45.4768 15.5476 45.4511 15.8081 45.3531 16.0448C45.255 16.2816 45.089 16.4839 44.876 16.6263C44.6629 16.7687 44.4125 16.8447 44.1562 16.8448H37.0295V23.3237C37.0295 23.6673 36.8929 23.9969 36.6499 24.2399C36.4069 24.4829 36.0773 24.6194 35.7337 24.6194C35.39 24.6194 35.0604 24.4829 34.8174 24.2399C34.5744 23.9969 34.4379 23.6673 34.4379 23.3237V15.549C34.4379 15.2054 34.5744 14.8758 34.8174 14.6328C35.0604 14.3898 35.39 14.2532 35.7337 14.2532H41.0282L29.9027 3.12772L18.7772 14.2532H24.3957C24.7393 14.2532 25.0689 14.3898 25.3119 14.6328C25.5549 14.8758 25.6914 15.2054 25.6914 15.549V34.0138C25.6914 34.3575 25.5549 34.687 25.3119 34.93C25.0689 35.173 24.7393 35.3096 24.3957 35.3096C24.052 35.3096 23.7224 35.173 23.4794 34.93C23.2364 34.687 23.0999 34.3575 23.0999 34.0138V16.8448H15.6492C15.3929 16.8447 15.1425 16.7687 14.9294 16.6263C14.7164 16.4839 14.5504 16.2816 14.4523 16.0448C14.3542 15.8081 14.3286 15.5476 14.3786 15.2963C14.4285 15.045 14.5519 14.8141 14.7331 14.6329L28.9866 0.379385ZM48.3675 17.8166C48.7111 17.8167 49.0406 17.9533 49.2836 18.1963L67.7484 36.6611C67.9292 36.8424 68.0523 37.0732 68.1021 37.3244C68.1519 37.5757 68.1262 37.836 68.0282 38.0726C67.9302 38.3092 67.7643 38.5115 67.5515 38.6539C67.3386 38.7964 67.0884 38.8726 66.8323 38.8729H56.79V56.6898C56.79 57.0335 56.6535 57.3631 56.4105 57.6061C56.1675 57.8491 55.8379 57.9856 55.4942 57.9856C55.1506 57.9856 54.821 57.8491 54.578 57.6061C54.335 57.3631 54.1985 57.0335 54.1985 56.6898V37.5772C54.1985 37.2335 54.335 36.9039 54.578 36.6609C54.821 36.4179 55.1506 36.2814 55.4942 36.2814H63.7043L48.3675 20.9446L33.0307 36.2814H40.2689C40.6126 36.2814 40.9421 36.4179 41.1851 36.6609C41.4281 36.9039 41.5647 37.2335 41.5647 37.5772V62.1969C41.5647 62.5405 41.4281 62.8701 41.1851 63.1131C40.9421 63.3561 40.6126 63.4927 40.2689 63.4927C39.9252 63.4927 39.5956 63.3561 39.3526 63.1131C39.1096 62.8701 38.9731 62.5405 38.9731 62.1969V38.8729H29.9027C29.6465 38.8729 29.396 38.7969 29.1829 38.6545C28.9699 38.5121 28.8039 38.3097 28.7058 38.073C28.6078 37.8363 28.5821 37.5758 28.6321 37.3245C28.6821 37.0731 28.8054 36.8423 28.9866 36.6611L47.4514 18.1963C47.6943 17.9533 48.0238 17.8167 48.3675 17.8166ZM15.0019 42.9585C14.2699 42.9585 13.5679 43.2493 13.0503 43.7669C12.5327 44.2845 12.2419 44.9865 12.2419 45.7185C12.2419 46.4505 12.5327 47.1525 13.0503 47.6701C13.5679 48.1877 14.2699 48.4785 15.0019 48.4785C15.7339 48.4785 16.436 48.1877 16.9536 47.6701C17.4712 47.1525 17.7619 46.4505 17.7619 45.7185C17.7619 44.9865 17.4712 44.2845 16.9536 43.7669C16.436 43.2493 15.7339 42.9585 15.0019 42.9585ZM9.65039 45.7185C9.65039 45.0157 9.78881 44.3199 10.0578 43.6706C10.3267 43.0213 10.7209 42.4313 11.2178 41.9344C11.7148 41.4375 12.3047 41.0433 12.954 40.7743C13.6033 40.5054 14.2992 40.367 15.0019 40.367C15.7047 40.367 16.4006 40.5054 17.0499 40.7743C17.6992 41.0433 18.2891 41.4375 18.7861 41.9344C19.283 42.4313 19.6772 43.0213 19.9461 43.6706C20.2151 44.3199 20.3535 45.0157 20.3535 45.7185C20.3535 47.1378 19.7897 48.499 18.7861 49.5026C17.7824 50.5062 16.4213 51.0701 15.0019 51.0701C13.5826 51.0701 12.2214 50.5062 11.2178 49.5026C10.2142 48.499 9.65039 47.1378 9.65039 45.7185ZM30.8557 40.7227C30.9947 40.8209 31.1129 40.9456 31.2037 41.0895C31.2944 41.2335 31.356 41.3939 31.3847 41.5617C31.4135 41.7294 31.4089 41.9012 31.3713 42.0671C31.3337 42.2331 31.2637 42.39 31.1654 42.529L15.0998 65.2212C15.0015 65.3601 14.8768 65.4783 14.7328 65.569C14.5888 65.6597 14.4284 65.7211 14.2606 65.7498C14.0929 65.7785 13.9211 65.7739 13.7552 65.7362C13.5893 65.6986 13.4324 65.6286 13.2935 65.5303C13.1546 65.4319 13.0364 65.3072 12.9457 65.1633C12.855 65.0193 12.7935 64.8588 12.7648 64.6911C12.7361 64.5234 12.7408 64.3516 12.7784 64.1857C12.8161 64.0197 12.8861 63.8628 12.9844 63.724L29.0501 41.0311C29.2487 40.7506 29.5506 40.5606 29.8894 40.5028C30.2281 40.4449 30.5753 40.524 30.8557 40.7227ZM48.0435 40.8166C48.3872 40.8166 48.7168 40.9531 48.9598 41.1961C49.2028 41.4391 49.3393 41.7687 49.3393 42.1124V56.042C49.3393 56.3856 49.2028 56.7152 48.9598 56.9582C48.7168 57.2012 48.3872 57.3377 48.0435 57.3377C47.6999 57.3377 47.3703 57.2012 47.1273 56.9582C46.8843 56.7152 46.7478 56.3856 46.7478 56.042V42.1124C46.7478 41.7687 46.8843 41.4391 47.1273 41.1961C47.3703 40.9531 47.6999 40.8166 48.0435 40.8166ZM29.4129 58.2513C28.6809 58.2513 27.9789 58.542 27.4613 59.0596C26.9437 59.5772 26.6529 60.2792 26.6529 61.0112C26.6529 61.7432 26.9437 62.4453 27.4613 62.9629C27.9789 63.4805 28.6809 63.7712 29.4129 63.7712C30.1449 63.7712 30.8469 63.4805 31.3645 62.9629C31.8821 62.4453 32.1729 61.7432 32.1729 61.0112C32.1729 60.2792 31.8821 59.5772 31.3645 59.0596C30.8469 58.542 30.1449 58.2513 29.4129 58.2513ZM24.0613 61.0112C24.0613 59.5919 24.6252 58.2307 25.6288 57.2271C26.6324 56.2235 27.9936 55.6597 29.4129 55.6597C30.8322 55.6597 32.1934 56.2235 33.197 57.2271C34.2006 58.2307 34.7644 59.5919 34.7644 61.0112C34.7644 62.4306 34.2006 63.7918 33.197 64.7954C32.1934 65.799 30.8322 66.3628 29.4129 66.3628C27.9936 66.3628 26.6324 65.799 25.6288 64.7954C24.6252 63.7918 24.0613 62.4306 24.0613 61.0112ZM48.0435 59.9293C48.3872 59.9293 48.7168 60.0658 48.9598 60.3088C49.2028 60.5518 49.3393 60.8814 49.3393 61.225V65.7603C49.3393 66.1039 49.2028 66.4335 48.9598 66.6765C48.7168 66.9195 48.3872 67.056 48.0435 67.056C47.6999 67.056 47.3703 66.9195 47.1273 66.6765C46.8843 66.4335 46.7478 66.1039 46.7478 65.7603V61.225C46.7478 60.8814 46.8843 60.5518 47.1273 60.3088C47.3703 60.0658 47.6999 59.9293 48.0435 59.9293ZM48.0435 68.9997C48.3872 68.9997 48.7168 69.1362 48.9598 69.3792C49.2028 69.6222 49.3393 69.9518 49.3393 70.2955V72.2391C49.3393 72.5828 49.2028 72.9124 48.9598 73.1554C48.7168 73.3984 48.3872 73.5349 48.0435 73.5349C47.6999 73.5349 47.3703 73.3984 47.1273 73.1554C46.8843 72.9124 46.7478 72.5828 46.7478 72.2391V70.2955C46.7478 69.9518 46.8843 69.6222 47.1273 69.3792C47.3703 69.1362 47.6999 68.9997 48.0435 68.9997Z" fill="#005AAB"/>
</svg>
