<svg width="60" height="60" viewBox="0 0 60 60" fill="none" xmlns="http://www.w3.org/2000/svg">
<path d="M59.8245 28.416L53.2509 10.7174C52.991 10.0175 52.4723 9.46012 51.7906 9.14758C51.1086 8.83563 50.3483 8.80633 49.6483 9.06578L45.2484 10.6997C43.7999 11.2379 43.0591 12.8542 43.597 14.3027L43.6683 14.4948C42.6274 14.89 41.4656 14.4584 39.6897 13.7146C37.0381 12.6045 33.4417 11.1139 28.8762 13.9694C25.1708 11.663 22.2632 12.232 19.6883 12.7447C18.3803 13.0046 17.1345 13.2493 15.8479 13.1161C15.8117 12.778 15.719 12.4449 15.559 12.1323C15.217 11.4646 14.6374 10.9706 13.9272 10.7414L9.4606 9.30063C8.75009 9.07153 7.99107 9.13387 7.32357 9.47512C6.65607 9.81719 6.16201 10.3968 5.93314 11.107L0.135522 29.0751C-0.338736 30.5457 0.471733 32.1279 1.94244 32.6022L6.40892 34.0435C6.68649 34.1335 6.97646 34.1794 7.26826 34.1796C7.70689 34.1796 8.14294 34.0751 8.54572 33.869C8.79451 33.7415 9.00955 33.5717 9.20537 33.3837C9.23291 33.5196 9.26982 33.6541 9.3031 33.7891L8.1849 35.8796C7.70537 36.7766 7.61244 37.8644 7.93048 38.8635C8.24009 39.8364 8.89306 40.6134 9.74947 41.0412C10.4682 41.4267 11.292 41.5701 12.0987 41.4503C11.8757 42.1899 11.8799 43.0009 12.1217 43.761C12.4313 44.7339 13.0843 45.5111 13.9407 45.9389C14.8365 46.418 15.8676 46.518 16.8447 46.2224C17.2291 46.1064 17.5929 45.9309 17.9228 45.7022C18.2364 46.66 18.8843 47.4244 19.731 47.8475C20.6266 48.3265 21.6577 48.4265 22.6348 48.1309C22.8494 48.0659 23.058 47.9825 23.2583 47.8816C23.552 49.0611 24.3908 50.1115 25.4362 50.6707C25.9355 50.9376 26.5236 51.1096 27.134 51.1096C28.2433 51.1096 29.4262 50.5411 30.2819 48.9416L30.4488 48.6295L30.6379 48.7286L31.0842 48.9613C31.6307 49.2427 32.165 49.3667 32.6672 49.3667C33.9203 49.3667 34.9729 48.5944 35.511 47.5688C35.8816 46.8631 36.012 46.024 35.8322 45.2096C36.2844 45.233 36.7415 45.1792 37.1883 45.0439C38.1918 44.7398 39.0153 44.0661 39.507 43.1467C39.9043 42.404 40.0481 41.5703 39.9283 40.7481C40.7676 41.0965 41.6958 41.1419 42.5811 40.8738C43.5932 40.5671 44.4238 39.8871 44.9198 38.96C45.3251 38.2016 45.469 37.3495 45.3402 36.5107C46.7082 37.056 48.0281 36.8066 48.9445 35.8026C49.8735 34.785 50.186 33.2261 49.8385 31.835L50.064 31.754L50.0769 31.7494L50.1706 32.0016C50.5898 33.1294 51.6626 33.828 52.8006 33.828C53.1327 33.8279 53.462 33.7686 53.7732 33.6528L58.1729 32.0188C59.6215 31.4807 60.3624 29.8647 59.8245 28.416ZM8.39326 31.7391C8.29693 32.0373 8.08869 32.2812 7.8065 32.4256C7.52384 32.57 7.20451 32.5966 6.90673 32.5006L2.44001 31.0589C1.82033 30.8591 1.47873 30.1925 1.67853 29.5728L7.47638 11.6048C7.57247 11.3068 7.78072 11.0629 8.06279 10.9185C8.22978 10.8324 8.41488 10.7872 8.60279 10.7868C8.72495 10.7869 8.84634 10.8061 8.96255 10.8438L13.4293 12.2848C13.7273 12.3809 13.9711 12.5891 14.1155 12.8712C14.2599 13.1534 14.2865 13.4727 14.1905 13.771L9.56197 28.1168C9.54169 28.156 9.52212 28.1961 9.50818 28.2394C9.46751 28.3648 9.43611 28.4917 9.40037 28.6179L8.39326 31.7391ZM10.4944 39.6011C10.013 39.3606 9.65115 38.9241 9.47572 38.3719C9.28962 37.7873 9.34037 37.1576 9.61482 36.6445L10.8781 34.2825C10.8783 34.2823 10.8787 34.2821 10.8788 34.2817L11.4822 33.1534C12.0444 32.103 13.3469 31.697 14.4039 32.2305C15.0973 32.7153 16.1374 33.7462 15.3482 35.2213L14.9183 36.0252L13.4793 38.7155C12.9084 39.7786 11.5792 40.1819 10.4944 39.6011ZM17.6723 43.61C17.3978 44.1236 16.9367 44.5002 16.374 44.6707C15.8116 44.8413 15.2187 44.7837 14.6856 44.4989C14.2042 44.2585 13.8424 43.8217 13.6669 43.2695C13.4808 42.6852 13.5318 42.0555 13.8063 41.5424L14.9092 39.4806L16.3482 36.7904C16.6226 36.277 17.0838 35.9004 17.6461 35.7299C18.2089 35.5589 18.8011 35.6167 19.315 35.8914C19.8284 36.1659 20.2049 36.627 20.3754 37.1897C20.546 37.7521 20.4884 38.345 20.2136 38.8586L19.8095 39.6145C19.8093 39.6153 19.8087 39.616 19.8083 39.6168L18.1666 42.6861L18.1663 42.6865L17.6723 43.61ZM22.1643 46.5791C21.6016 46.7496 21.0093 46.6921 20.476 46.4073C19.9946 46.1669 19.6329 45.7304 19.4573 45.1783C19.2718 44.5945 19.3219 43.9661 19.5953 43.4533L19.5966 43.4509L21.2383 40.3817L21.2386 40.3806L21.2396 40.3791C21.5144 39.8668 21.9749 39.4913 22.5365 39.321C23.0986 39.1497 23.6915 39.2076 24.205 39.4825C25.2707 40.0526 25.6741 41.3836 25.1042 42.4493L24.2834 43.9841L23.5558 45.3445L23.555 45.346L23.4626 45.5186C23.1882 46.0318 22.7268 46.4086 22.1643 46.5791ZM26.201 49.2408C25.1381 48.6723 24.3775 47.2463 24.9858 46.109L25.7135 44.7487L25.7143 44.7468C25.998 44.2179 26.5024 43.793 27.0986 43.5812C27.6938 43.3696 28.2913 43.3979 28.7817 43.6601C29.8501 44.2313 30.0224 44.7311 30.0588 45.0573C30.1142 45.5506 29.9054 46.2065 29.3826 47.1838L29.3817 47.1862L28.8519 48.1768C27.9544 49.8561 26.8061 49.5641 26.201 49.2408ZM34.0752 46.8156C33.6929 47.5454 32.8493 48.0463 31.8263 47.52L31.3919 47.2933C31.3201 47.2553 31.253 47.2202 31.1908 47.1877C31.5192 46.4574 31.7585 45.6638 31.6703 44.877C31.571 43.9898 31.0786 43.2498 30.1854 42.6258L33.3787 44.3406C34.4458 45.0899 34.4422 46.1166 34.0752 46.8156ZM47.7468 34.7095C47.2247 35.2819 46.5081 35.3304 45.6163 34.853L43.3038 33.6162L43.299 33.6139C43.2753 33.6012 43.2506 33.5939 43.2263 33.5839L35.7693 29.5361C35.3766 29.322 34.8838 29.4682 34.6701 29.862C34.6193 29.9556 34.5874 30.0582 34.5763 30.1641C34.5652 30.27 34.5751 30.377 34.6053 30.4791C34.6356 30.5812 34.6857 30.6763 34.7527 30.759C34.8197 30.8417 34.9024 30.9104 34.996 30.9612L42.6107 35.0947C43.1147 35.3902 43.489 35.8551 43.6613 36.4227C43.8424 37.0203 43.7814 37.6497 43.4895 38.1953C43.1978 38.7408 42.708 39.141 42.1104 39.3221C41.5118 39.5029 40.8829 39.4422 40.3379 39.1505L38.0386 37.9207C37.9982 37.8874 37.9546 37.8581 37.9085 37.8332L32.3596 34.8664C32.2657 34.8161 32.1629 34.7849 32.0569 34.7744C31.951 34.7639 31.844 34.7745 31.7421 34.8054C31.6402 34.8363 31.5454 34.887 31.4631 34.9545C31.3808 35.0221 31.3127 35.1052 31.2625 35.1992C31.2123 35.2931 31.181 35.3959 31.1706 35.5019C31.1601 35.6078 31.1707 35.7148 31.2016 35.8167C31.2325 35.9186 31.2832 36.0134 31.3507 36.0957C31.4183 36.178 31.5014 36.2461 31.5953 36.2963L37.0047 39.1886C37.0448 39.2214 37.0883 39.2513 37.1357 39.2766C37.6734 39.5641 38.0677 40.0465 38.2461 40.6356C38.4244 41.2245 38.3643 41.8447 38.0769 42.3821C37.7894 42.9197 37.3067 43.3137 36.7178 43.4924C36.1293 43.6705 35.5088 43.6107 34.9714 43.3232L33.7976 42.6955C33.7398 42.6655 33.6785 42.6426 33.6152 42.6272L28.8777 40.0834C28.4832 39.8702 27.9915 40.0193 27.7801 40.4141C27.7297 40.5079 27.6982 40.6107 27.6876 40.7166C27.6769 40.8226 27.6872 40.9296 27.7179 41.0315C27.7487 41.1335 27.7992 41.2283 27.8666 41.3108C27.934 41.3932 28.0169 41.4615 28.1108 41.5118L29.1064 42.0464C28.4304 41.7973 27.6901 41.7502 26.9492 41.9347C27.1585 40.3996 26.4134 38.8245 24.9697 38.0522C24.0826 37.5777 23.0617 37.4745 22.0928 37.7609C22.0856 37.4077 22.0298 37.0572 21.9271 36.7192C21.631 35.7419 20.9746 34.9401 20.0793 34.4613C19.1793 33.9803 18.1711 33.8975 17.2587 34.1519C17.2431 32.7745 16.3688 31.6289 15.3276 30.8979C15.2917 30.8703 15.2536 30.8457 15.2136 30.8243C13.6591 29.9932 11.7803 30.3524 10.6288 31.5823C10.6102 30.7391 10.7255 29.8925 10.9598 29.0638L15.5874 14.7209C17.1517 14.902 18.5991 14.615 20.0041 14.3349C22.3399 13.8704 24.5582 13.4288 27.4247 14.9913C26.8002 15.4885 26.1721 16.0559 25.5476 16.6867C25.0533 17.1866 24.545 17.6857 24.049 18.1727C22.2411 19.9484 20.6797 21.482 20.2332 22.5705C20.1801 22.6998 20.1614 22.8406 20.1788 22.9793C20.1962 23.118 20.2492 23.2498 20.3327 23.362C23.5598 27.702 27.4707 26.2293 30.6119 25.0464C32.9669 24.1593 35.0008 23.3929 36.621 24.675C36.6516 24.6993 36.6838 24.7212 36.7176 24.7408C37.4914 25.1891 38.5572 25.7154 39.7913 26.3249C42.775 27.7987 46.8615 29.817 47.9174 31.422C48.627 32.4998 48.4019 33.9918 47.7468 34.7095ZM49.1461 30.3611C47.7306 28.4414 43.7405 26.4668 40.5098 24.8714C39.3279 24.2876 38.3036 23.782 37.5788 23.3657C35.2515 21.567 32.6029 22.5641 30.0407 23.5291C27.0039 24.6721 24.3633 25.6661 21.9513 22.7964C22.5179 21.9497 23.8708 20.6211 25.1854 19.33C25.6868 18.8375 26.2005 18.3329 26.7004 17.8277C27.5667 16.9527 28.4335 16.2168 29.2786 15.6352C33.3631 12.8264 36.391 14.092 39.0632 15.2103C40.3127 15.7334 41.588 16.2673 42.8495 16.2673C43.3129 16.2673 43.7738 16.1827 44.2315 16.0117L49.5121 30.2294L49.1461 30.3611ZM57.6086 30.4987L53.2089 32.1326C52.5966 32.3586 51.9169 32.0471 51.6905 31.4369L45.1171 13.7377C45.0081 13.4443 45.0208 13.1241 45.1527 12.8358C45.2849 12.5477 45.5193 12.3289 45.8129 12.2198L50.2126 10.5858C50.3428 10.5373 50.4807 10.5123 50.6198 10.5122C50.7882 10.5122 50.9563 10.5489 51.1149 10.6214C51.4028 10.7534 51.6216 10.988 51.7306 11.2818L58.3042 28.9805C58.531 29.5911 58.2188 30.2719 57.6086 30.4987Z" fill="#005AAB"/>
</svg>
