<svg width="50" height="50" viewBox="0 0 50 50" fill="none" xmlns="http://www.w3.org/2000/svg">
<path d="M25.0011 46.4397C24.8014 46.4394 24.6046 46.392 24.4267 46.3012C24.2924 46.2336 21.091 44.5941 16.9089 41.5523C13.0495 38.7403 7.59953 34.1553 3.58047 28.2568C2.99158 27.3954 2.46105 26.4954 1.99245 25.5631C1.89596 25.3699 1.85044 25.1553 1.8602 24.9396C1.86996 24.7239 1.93467 24.5143 2.0482 24.3307C2.16168 24.1469 2.32028 23.9951 2.50893 23.8898C2.69757 23.7846 2.91 23.7293 3.12603 23.7293H11.2756L13.3409 20.7728C13.4654 20.5943 13.6338 20.4509 13.8299 20.3564C14.0259 20.2618 14.243 20.2194 14.4602 20.2332C14.6774 20.2469 14.8874 20.3164 15.07 20.4349C15.2525 20.5534 15.4015 20.7169 15.5025 20.9097L17.9808 25.64L22.1502 16.7115C22.262 16.4709 22.4465 16.2715 22.6777 16.1413C22.9089 16.0112 23.1751 15.9569 23.4388 15.9861C23.7025 16.0153 23.9503 16.1265 24.1474 16.3041C24.3445 16.4817 24.4809 16.7167 24.5373 16.9759L27.139 28.8185L30.8084 20.9629C30.9082 20.7488 31.0659 20.567 31.2636 20.4378C31.4614 20.3086 31.6912 20.2373 31.9274 20.2319C32.1635 20.2264 32.3964 20.2871 32.5999 20.407C32.8034 20.5269 32.9693 20.7013 33.0789 20.9105L35.7777 26.0631L37.027 24.2724C37.1438 24.1052 37.2993 23.9686 37.4801 23.8744C37.661 23.7801 37.862 23.7309 38.066 23.7309H46.077C48.492 18.3494 47.7411 12.9907 44.0101 9.27737C39.7469 5.03278 32.8103 5.03278 28.5463 9.27737C27.8232 9.99705 26.9126 10.8494 25.9488 11.7523L25.8686 11.8267C25.6338 12.0464 25.3243 12.1686 25.0028 12.1686C24.6812 12.1686 24.3717 12.0464 24.137 11.8267L24.0525 11.7481C23.0887 10.8417 22.1798 9.99705 21.4576 9.27484C17.1944 5.03109 10.2569 5.03109 5.99376 9.27484C3.17248 12.0826 2.0237 15.882 2.74845 19.9712C2.80744 20.302 2.73264 20.6426 2.54049 20.9183C2.34834 21.1939 2.05459 21.3819 1.72383 21.441C1.55999 21.4702 1.392 21.4668 1.22946 21.4311C1.06692 21.3953 0.913009 21.3279 0.776522 21.2327C0.640036 21.1375 0.523646 21.0163 0.434002 20.8761C0.344357 20.7359 0.283214 20.5794 0.254064 20.4155C-0.180953 17.9752 -0.0567834 15.6092 0.622351 13.3834C1.30761 11.1481 2.53911 9.11887 4.20554 7.47902C9.45532 2.25374 17.996 2.25374 23.2458 7.47902C23.745 7.97654 24.349 8.55009 25.0011 9.16334C25.6532 8.55009 26.2571 7.98077 26.7572 7.47902C32.0061 2.25374 40.5477 2.25374 45.7966 7.47902C48.0521 9.69977 49.4928 12.6162 49.8858 15.757C50.2836 18.9213 49.6324 22.311 48.0097 25.5614C47.902 25.777 47.735 25.9573 47.5284 26.0814C47.3218 26.2054 47.0841 26.2679 46.8432 26.2616H38.7282L36.6621 29.2181C36.5381 29.3972 36.3701 29.5414 36.1741 29.6367C35.9782 29.7319 35.761 29.7751 35.5436 29.7619C35.3261 29.7487 35.1157 29.6797 34.9327 29.5615C34.7497 29.4433 34.6003 29.28 34.4988 29.0872L32.0205 24.3569L27.8511 33.2811C27.7388 33.5207 27.5543 33.7191 27.3235 33.8486C27.0927 33.978 26.8271 34.0319 26.5641 34.0028C26.3011 33.9736 26.0538 33.8628 25.857 33.686C25.6601 33.5091 25.5236 33.2751 25.4665 33.0167L22.8648 21.1741L19.1955 29.0297C19.0955 29.2435 18.9379 29.4252 18.7402 29.5542C18.5426 29.6832 18.3128 29.7544 18.0769 29.7599C17.8409 29.7653 17.6081 29.7047 17.4048 29.585C17.2014 29.4652 17.0355 29.2911 16.9258 29.0821L14.227 23.9294L12.976 25.7194C12.8593 25.8865 12.704 26.0229 12.5232 26.1172C12.3425 26.2114 12.1417 26.2607 11.9379 26.2608H5.30111C5.4219 26.4509 5.54692 26.6392 5.67447 26.8267C9.47813 32.4085 14.6738 36.7849 18.3626 39.4769C20.486 41.0315 22.7027 42.4544 25.0002 43.7375C27.3155 42.4595 36.1375 37.279 42.52 29.2781C42.6224 29.144 42.7504 29.0317 42.8967 28.9478C43.043 28.8638 43.2046 28.8099 43.372 28.7893C43.5394 28.7686 43.7092 28.7816 43.8715 28.8274C44.0338 28.8732 44.1854 28.951 44.3172 29.0561C44.4491 29.1613 44.5586 29.2917 44.6394 29.4398C44.7202 29.5878 44.7707 29.7505 44.7878 29.9183C44.8049 30.0861 44.7883 30.2556 44.739 30.4169C44.6898 30.5782 44.6088 30.728 44.5008 30.8576C40.4615 35.9258 35.5386 39.8477 32.1202 42.2492C28.4162 44.8508 25.6903 46.2471 25.5755 46.3037C25.3974 46.3936 25.2006 46.4402 25.0011 46.4397Z" fill="#005AAB"/>
</svg>
