<svg width="50" height="50" viewBox="0 0 50 50" fill="none" xmlns="http://www.w3.org/2000/svg">
<g clip-path="url(#clip0_3268_8)">
<path d="M25 0.00439453L0 25.0045L2.07119 27.0757L4.76719 24.3797V49.9958H45.2327V24.3797L47.9287 27.0757L50 25.0045L25 0.00439453ZM23.5354 33.8107H21.6026C18.7112 33.8107 16.3589 31.4584 16.3589 28.567V26.6342H18.2917C21.1831 26.6342 23.5354 28.9865 23.5354 31.8779V33.8107ZM42.3036 47.0665H26.4646V36.7399H28.3974C32.9039 36.7399 36.5703 33.0735 36.5703 28.567V23.7051H31.7084C28.9331 23.7051 26.478 25.0968 25.0001 27.2177C23.5222 25.0968 21.0671 23.7051 18.2918 23.7051H13.4297V28.567C13.4297 33.0735 17.0961 36.7399 21.6026 36.7399H23.5354V47.0666H7.69639V21.4505L25 4.14697L42.3036 21.4506V47.0665ZM26.4646 33.8107V31.878C26.4646 28.9866 28.8169 26.6343 31.7083 26.6343H33.6411V28.5671C33.6411 31.4585 31.2888 33.8108 28.3974 33.8108L26.4646 33.8107Z" fill="#005AAB"/>
</g>
<defs>
<clipPath id="clip0_3268_8">
<rect width="50" height="50" fill="white"/>
</clipPath>
</defs>
</svg>
