<svg width="88" height="88" viewBox="0 0 88 88" fill="none" xmlns="http://www.w3.org/2000/svg">
<circle cx="63" cy="63" r="25" fill="#005AAB" fill-opacity="0.1"/>
<g clip-path="url(#clip0_3056_803)">
<path d="M44.001 7.83398C63.9427 7.83416 80.167 24.0592 80.167 44.001C80.1668 63.9426 63.9426 80.1668 44.001 80.167C24.0592 80.167 7.83416 63.9427 7.83398 44.001C7.83398 24.0591 24.0591 7.83398 44.001 7.83398ZM44.001 12.334C26.5392 12.334 12.334 26.5392 12.334 44.001C12.3342 61.4626 26.5393 75.667 44.001 75.667C61.4625 75.6668 75.6668 61.4625 75.667 44.001C75.667 26.5393 61.4626 12.3342 44.001 12.334Z" fill="#005AAB" stroke="white"/>
<path d="M44 70.167C44.5966 70.167 45.1689 70.4034 45.5908 70.8252C46.0128 71.2471 46.25 71.8203 46.25 72.417V85.25C46.25 85.8467 46.0128 86.4189 45.5908 86.8408C45.1689 87.2628 44.5967 87.5 44 87.5C43.4033 87.5 42.8311 87.2628 42.4092 86.8408C41.9872 86.4189 41.75 85.8467 41.75 85.25V72.417C41.75 71.8203 41.9872 71.2472 42.4092 70.8252C42.8311 70.4034 43.4034 70.167 44 70.167ZM44 33.5C49.7885 33.5 54.5 38.2115 54.5 44C54.5 49.7885 49.7885 54.5 44 54.5C38.2115 54.5 33.5 49.7885 33.5 44C33.5 38.2115 38.2115 33.5 44 33.5ZM44 38C40.6915 38 38 40.6915 38 44C38 47.3085 40.6915 50 44 50C47.3085 50 50 47.3085 50 44C50 40.6915 47.3085 38 44 38ZM2.75 41.75H15.583C16.1797 41.75 16.7528 41.9872 17.1748 42.4092C17.5966 42.8311 17.833 43.4034 17.833 44C17.833 44.5966 17.5966 45.1689 17.1748 45.5908C16.7528 46.0128 16.1797 46.25 15.583 46.25H2.75C2.15326 46.25 1.58114 46.0128 1.15918 45.5908C0.737223 45.1689 0.5 44.5967 0.5 44C0.5 43.4033 0.737223 42.8311 1.15918 42.4092C1.58114 41.9872 2.15326 41.75 2.75 41.75ZM72.417 41.75H85.25C85.8467 41.75 86.4189 41.9872 86.8408 42.4092C87.2628 42.8311 87.5 43.4033 87.5 44C87.5 44.5967 87.2628 45.1689 86.8408 45.5908C86.4189 46.0128 85.8467 46.25 85.25 46.25H72.417C71.8203 46.25 71.2471 46.0128 70.8252 45.5908C70.4034 45.1689 70.167 44.5966 70.167 44C70.167 43.4034 70.4034 42.8311 70.8252 42.4092C71.2472 41.9872 71.8203 41.75 72.417 41.75ZM44 0.5C44.5967 0.5 45.1689 0.737223 45.5908 1.15918C46.0128 1.58114 46.25 2.15326 46.25 2.75V15.583C46.25 16.1797 46.0128 16.7528 45.5908 17.1748C45.1689 17.5966 44.5966 17.833 44 17.833C43.4034 17.833 42.8311 17.5966 42.4092 17.1748C41.9872 16.7528 41.75 16.1797 41.75 15.583V2.75C41.75 2.15326 41.9872 1.58114 42.4092 1.15918C42.8311 0.737223 43.4033 0.5 44 0.5Z" fill="#005AAB" stroke="white"/>
</g>
<defs>
<clipPath id="clip0_3056_803">
<rect width="88" height="88" fill="white"/>
</clipPath>
</defs>
</svg>
