<svg width="28" height="28" viewBox="0 0 28 28" fill="none" xmlns="http://www.w3.org/2000/svg">
<path d="M25.2008 25.2008V16.9968C25.2008 12.9648 24.3328 9.88478 19.6288 9.88478C17.3608 9.88478 15.8488 11.1168 15.2328 12.2928H15.1768V10.2488H10.7248V25.2008H15.3728V17.7808C15.3728 15.8208 15.7368 13.9448 18.1448 13.9448C20.5248 13.9448 20.5528 16.1568 20.5528 17.8928V25.1728H25.2008V25.2008ZM3.16478 10.2488H7.81278V25.2008H3.16478V10.2488ZM5.48878 2.80078C4.00478 2.80078 2.80078 4.00478 2.80078 5.48878C2.80078 6.97278 4.00478 8.20478 5.48878 8.20478C6.97278 8.20478 8.17678 6.97278 8.17678 5.48878C8.17678 4.00478 6.97278 2.80078 5.48878 2.80078Z" fill="#005AAB"/>
</svg>
