<?xml version="1.0" encoding="utf-8"?>
<!-- Generator: Adobe Illustrator 13.0.0, SVG Export Plug-In . SVG Version: 6.00 Build 14948)  -->
<!DOCTYPE svg PUBLIC "-//W3C//DTD SVG 1.1//EN" "http://www.w3.org/Graphics/SVG/1.1/DTD/svg11.dtd">
<svg version="1.1" id="Layer_1" xmlns="http://www.w3.org/2000/svg" xmlns:xlink="http://www.w3.org/1999/xlink" x="0px" y="0px"
	 width="300px" height="196.667px" viewBox="0 0 300 196.667" enable-background="new 0 0 300 196.667" xml:space="preserve">
<path fill-rule="evenodd" clip-rule="evenodd" fill="#F5821F" d="M129.703,8.33C182.917,4.4,237.174,19.378,262.877,47.575
	c7.821,8.57,20.139,30.931,6.552,42.206c-7.932,6.582-18.624,1.143-30.334,1.788c-6.692,0.364-13.423,3.792-19.611,3.562
	c-7.895-0.29-15.137-5.669-21.415-5.94c-11.82-0.523-21.503,7.387-33.283,6.541c-9.531-0.683-18.017-10.036-27.948-11.297
	c-18.547-2.356-44.313,5.302-61.235,7.728c-27.162,3.888-61.287,5.713-59.454-24.375c0.423-7.112,4.407-15.382,10.106-21.997
	C43.836,25.389,89.226,11.323,129.703,8.33"/>
<path fill="none" stroke="#F5821F" stroke-width="0.42" d="M129.703,8.33C182.917,4.4,237.174,19.378,262.877,47.575
	c7.821,8.57,20.139,30.931,6.552,42.206c-7.932,6.582-18.624,1.143-30.334,1.788c-6.692,0.364-13.423,3.792-19.611,3.562
	c-7.895-0.29-15.137-5.669-21.415-5.94c-11.82-0.523-21.503,7.387-33.283,6.541c-9.531-0.683-18.017-10.036-27.948-11.297
	c-18.547-2.356-44.313,5.302-61.235,7.728c-27.162,3.888-61.287,5.713-59.454-24.375c0.423-7.112,4.407-15.382,10.106-21.997
	C43.836,25.389,89.226,11.323,129.703,8.33z"/>
<path fill-rule="evenodd" clip-rule="evenodd" fill="#002764" d="M18.875,80.05c0,0,1.559-40.645,76.658-55.399
	c15.508-2.623,104.622-17.938,159.005,31.017c0,0,12.272,11.846,12.451,19.314c0.133,3.414,0.007,11.943-9.291,11.694
	c-9.29-0.252-14.113-6.496-18.357-6.496c-6.626,0-8.778,8.548-17.912,8.548c-9.142,0-11.294-14.195-20.881-14.195
	c-9.602,0-19.774,13.972-33.751,13.972c-13.972,0-11.363-20.81-29.061-20.81c-17.69,0-49.467,18.547-82.167,18.547
	C22.871,86.242,19.171,82.665,18.875,80.05"/>
<path fill="#F5821F" d="M58.165,59.306c1.792,0,4.842,1.885,4.842,5.328c0,3.706-3.283,6.563-7.851,6.563
	c-5.112,0-7.658-2.333-7.658-4.33c0-0.805,0.698-1.603,1.966-1.603c0.464,0,2.76,0.249,3.565,0.249c2.278,0,3.937-0.675,3.937-4.582
	C56.966,59.848,57.215,59.306,58.165,59.306"/>
<path fill="#F5821F" d="M89.775,41.928c2.452,0,4.801,2.204,4.801,4.355c0,4.263-4.278,7.005-8.912,7.005
	c-4.567,0-6.081-1.922-6.081-2.59c0-0.36,0.419-0.768,1.484-0.768c4.671,0,9.056-2.682,7.401-6.519
	C88.027,42.407,88.443,41.928,89.775,41.928"/>
<path fill="#F5821F" d="M173.531,28.694c3.05,0,5.261,1.907,5.261,3.929c0,4.526-4.252,7.428-9.546,7.428
	c-4.271,0-6.589-2.033-6.589-3.447c0-0.312,0.349-1.027,1.398-1.143c4.314-0.464,7.78-1.306,7.364-4.998
	C171.312,29.514,172.184,28.694,173.531,28.694"/>
<path fill="#F5821F" d="M134.808,31.503c2.434,0,6.074,1.565,6.074,4.797c0,3.291-3.625,4.976-7.676,4.976
	c-4.642,0-7.265-2.233-7.265-3.091c0-0.367,0.382-0.486,1.172-0.601c1.877-0.274,7.209-0.341,7.309-2.667
	c0.037-1.05-0.579-1.61-0.579-2.705C133.844,31.618,134.278,31.503,134.808,31.503"/>
<path fill="#F5821F" d="M220.983,45.401c2.271,0,5.521,1.84,5.521,4.438c0,3.306-2.998,5.228-6.529,5.228
	c-3.918,0-6.441-1.937-6.441-3.358c0-0.631,0.416-1.291,1.321-1.351c4.363-0.282,5.966-0.716,5.943-1.899
	c0-0.457-0.616-1.302-0.854-1.606C219.276,46.017,220.315,45.401,220.983,45.401"/>
<path fill="#F5821F" d="M153.6,46.284c1.799,0,3.632,1.837,3.632,3.937c0,2.75-2.516,4.248-5.465,4.248
	c-3.135,0-4.337-1.744-4.337-2.79c0-0.527,0.319-0.731,1.132-0.797c3.572-0.275,4.626-0.92,4.08-3.473
	C152.483,46.714,152.992,46.284,153.6,46.284"/>
<path d="M57.245,104.158v1.826c-1.132,0-2.508,0.152-2.508,1.595v17.642c0,1.455,1.376,1.595,2.378,1.595v1.725H41.577v-1.725
	c1.232,0,2.508-0.141,2.508-1.595v-6.868h-9.309v6.868c0,1.455,1.276,1.595,2.508,1.595v1.725H21.616v-1.725
	c1.125,0,2.508-0.141,2.508-1.595v-17.642c0-1.443-1.384-1.595-2.508-1.595v-1.826h15.668v1.826c-1.232,0-2.508,0.152-2.508,1.595
	v6.708h9.309v-6.708c0-1.443-1.276-1.595-2.508-1.595v-1.826H57.245z"/>
<path d="M92.928,123.784l-8.511-19.626H67.429v1.803c1.647,0,2.111,0.531,2.111,1.146c0,0.531-0.197,1.351-0.716,2.493
	l-6.329,13.958c-1.243,2.727-1.937,3.228-3.599,3.228v1.755h11.631l0.007-1.732c-1.039,0-2.256-0.104-2.248-1.046
	c0.007-0.805,0.616-2.356,1.209-3.74h10.904c1.039,2.211,1.306,3.117,1.306,3.829c0,0.809-1.399,0.957-2.274,0.957l-0.007,1.732
	H96.46l0.007-1.755C94.531,126.786,93.849,125.762,92.928,123.784 M75.139,108.992l3.806,9.283h-7.932l3.914-9.283H75.139z"/>
<path d="M147.43,104.158l0.015,1.781c-1.436,0-2.196,0.5-2.196,1.365c0,1.08,0.411,2.059,1.072,3.747l4.3,10.47h0.215
	c0,0,3.488-8.767,4.208-10.6c0.716-1.822,1.009-2.857,1.009-3.632c0-0.95-0.59-1.328-2.074-1.328l-0.007-1.803h11.969v1.755
	c-1.028,0-2.145,0.123-3.365,2.724c-1.18,2.489-8.853,19.904-8.853,19.904H142.97c0,0-7.954-16.647-9.193-19.251
	c-1.239-2.616-1.992-3.35-3.335-3.35l0.015-1.781H147.43z"/>
<path d="M190.263,120.26h-1.959c-0.267-1.581-0.712-2.523-3.235-2.523h-4.081v6.982h8.452c3.176,0,5.172-0.79,5.372-3.417h1.899
	v7.238h-29.091v-1.755c1.124,0,2.497-0.145,2.497-1.595v-17.575c0-1.695-1.373-1.703-2.371-1.703v-1.755h27.459v6.53h-1.811
	c-0.074-1.157-1.336-2.935-4.297-2.935h-8.11v6.24h4.081c2.523,0,2.969-0.957,3.235-2.549h1.959V120.26z"/>
<path d="M213.266,104.158v1.781c-1.321,0-1.796,0.646-1.767,1.228c0.022,0.375,0.193,1.02,0.958,2.341
	c1.009,1.77,3.799,6.133,3.799,6.133h0.104c0,0,2.664-4.545,3.51-6.063c0.698-1.247,0.891-1.948,0.905-2.404
	c0.022-0.757-0.504-1.235-1.825-1.235v-1.781h10.923l-0.008,1.748c-0.72,0.063-1.699,0.49-2.396,1.636l-8.236,12.833v4.771
	c0,1.414,1.217,1.669,2.553,1.669v1.725h-16.384v-1.725c1.291,0,2.671-0.256,2.671-1.669v-4.667l-8.43-12.674
	c-1.009-1.632-1.632-1.821-2.679-1.821l0.022-1.826H213.266z"/>
<path d="M230.592,114.127c0.86-0.764,2.293-2.204,2.278-5.851v-4.119h5.98v1.978c0,2.516-0.757,4.853-3.132,6.845
	c-1.543,1.306-3.287,1.885-4.318,2.137L230.592,114.127z"/>
<path d="M240.075,120.649h2.182c0.26,3.076,4.267,4.916,9.327,4.916c3.681,0,6.211-0.876,6.211-2.579
	c0-1.276-1.937-1.996-7.131-3.328c-6.841-1.77-10.596-3.773-10.596-8.214c0-3.966,3.978-7.52,13.802-7.52
	c5.209,0,8.459,0.683,11.182,1.443v6.237h-2.025c-0.468-2.393-4.244-4.018-8.607-4.018c-3.087,0-5.238,0.594-5.238,2.152
	c0,1.358,1.914,2.2,7.071,3.402c7.873,1.811,10.796,4.059,10.796,8.069c0,5.554-6.024,8.266-15.122,8.266
	c-3.532,0-8.845-0.797-11.851-2.263V120.649z"/>
<path d="M113.854,118.946c2.211,2.909,4.255,6.077,6.526,9.594h12.362l0.007-1.725c-1.632,0-2.66-0.827-3.357-1.677
	c-2.059-2.545-4.345-5.432-6.344-7.795c3.554-0.928,6.526-3.131,6.526-6.27c0-2.712-2.241-4.742-4.99-5.699
	c-2.449-0.872-5.747-1.217-9.977-1.217H98.223v1.863c1.013,0,2.4,0.152,2.4,1.595v17.604c0,1.455-1.387,1.595-2.385,1.595v1.725
	h15.282v-1.725c-1.02,0-2.248-0.293-2.356-1.402v-6.467H113.854z M112.859,107.753c4.111,0,6.359,1.313,6.359,3.792
	c0,2.567-2.204,3.836-6.337,3.892h-1.725v-7.684H112.859z"/>
<path fill-rule="evenodd" clip-rule="evenodd" fill="#F5821F" d="M7.818,141.519c10.57-0.393,20.272,3.488,31.51,4.159
	c56.683,3.365,69.023-4.196,100.481-6.544c20.713-1.54,32.968,2.775,49.942,4.167c10.032,0.82,21.081,0.456,33.294,0
	c16.755-0.638,53.723-9.713,55.89,8.912c1.454,12.491-15.642,25.15-25.57,29.725c-20.933,9.665-50.487,3.866-77.289,1.792
	c-13.289-1.039-26.783-1.095-41.015-0.594c-44.685,1.544-93.057,12.311-117.729-10.711C10.471,166.009,1.693,153.64,7.818,141.519"
	/>
<path fill-rule="evenodd" clip-rule="evenodd" fill="#002764" d="M11.276,154.366c5.858,9.662,20.97,21.801,46.714,21.968
	c50.202-2.052,59.017-2.104,89.666-2.104c30.653,0,41.509,3.087,70.529,3.726c29.021,0.652,39.565-9.554,46.385-13.943
	c6.797-4.385,10.365-13.289,1.127-15.078c-9.237-1.777-25.94,4.857-51.733,5.677c-25.777,0.812-51.389-5.039-65.172-5.191
	c-13.783-0.167-44.109,5.35-81.723,6.8c-37.617,1.47-58.264-13.052-58.264-13.052S7.841,148.702,11.276,154.366"/>
<polygon fill="#F5821F" points="265.734,180.895 263.457,180.895 263.457,180.134 268.91,180.134 268.91,180.895 266.647,180.895 
	266.647,186.919 265.734,186.919 "/>
<polygon fill="#F5821F" points="269.674,180.134 270.921,180.134 273.058,185.847 275.195,180.134 276.449,180.134 276.449,186.919 
	275.581,186.919 275.581,181.265 275.566,181.265 273.444,186.919 272.672,186.919 270.565,181.265 270.52,181.265 270.52,186.919 
	269.674,186.919 "/>
<polygon fill="#F5821F" points="279.855,179.981 280.523,179.981 277.718,187.086 277.028,187.086 "/>
<polygon fill="#F5821F" points="281.138,180.134 282.363,180.134 284.5,185.847 286.652,180.134 287.906,180.134 287.906,186.919 
	287.038,186.919 287.038,181.265 287.008,181.265 284.901,186.919 284.129,186.919 282.007,181.265 281.977,181.265 
	281.977,186.919 281.138,186.919 "/>
<path fill="#F5821F" d="M289.405,180.134h2.322c2.093,0,3.25,1.042,3.25,3.254c0,2.248-0.994,3.531-3.25,3.531h-2.322V180.134z
	 M290.302,186.17h1.499c0.639,0,2.286-0.163,2.286-2.66c0-1.629-0.602-2.615-2.256-2.615h-1.529V186.17z"/>
</svg>
