<svg width="60" height="60" viewBox="0 0 60 60" fill="none" xmlns="http://www.w3.org/2000/svg">
<g clip-path="url(#clip0_3180_414)">
<path d="M26.8734 25.6218C26.8734 26.1398 27.293 26.5593 27.8109 26.5593C28.3289 26.5593 28.7484 26.1398 28.7484 25.6218C28.7484 22.9781 26.6004 20.7796 23.7984 20.373V18.5484C23.7984 18.0304 23.3789 17.6109 22.8609 17.6109C22.343 17.6109 21.9234 18.0304 21.9234 18.5484V20.373C19.1215 20.7796 16.9734 22.9781 16.9734 25.6218C16.9734 27.4324 17.6355 28.7871 18.941 29.6484C19.8129 30.2238 20.8629 30.5191 21.9223 30.757V37.7238C20.1609 37.3605 18.8473 35.9988 18.8473 34.3769C18.8473 33.8589 18.4277 33.4394 17.9098 33.4394C17.3918 33.4394 16.9723 33.8589 16.9723 34.3769C16.9723 37.0207 19.1203 39.2191 21.9223 39.6257V41.4503C21.9223 41.9683 22.3418 42.3878 22.8598 42.3878C23.3777 42.3878 23.7973 41.9683 23.7973 41.4503V39.6257C26.5992 39.2191 28.7473 37.0207 28.7473 34.3769C28.7473 32.5664 28.0852 31.2117 26.7797 30.3503C25.9078 29.775 24.8578 29.4796 23.7984 29.2417V22.275C25.5598 22.6382 26.8734 24.0011 26.8734 25.6218ZM18.8496 25.6218C18.8496 24.0011 20.1633 22.6382 21.9246 22.275V28.8281C19.9465 28.3394 18.8496 27.7078 18.8496 25.6218ZM26.8734 34.3781C26.8734 35.9988 25.5598 37.3617 23.7984 37.725V31.1718C25.7766 31.6605 26.8734 32.2921 26.8734 34.3781ZM59.9121 35.7421C59.8369 35.5802 59.7169 35.4431 59.5664 35.3469C59.4159 35.2508 59.2411 35.1997 59.0625 35.1996H53.3496V15.2132C53.3496 14.6953 52.9301 14.2757 52.4121 14.2757H39.4723C35.1633 9.71831 29.1352 7.11206 22.8621 7.11206C10.2551 7.11206 0 17.38 0 30.0011C0 42.621 10.2551 52.8878 22.8609 52.8878C29.1047 52.8878 35.0566 50.3308 39.3598 45.839L45.0211 52.555C45.1992 52.766 45.4617 52.8878 45.7383 52.8878C46.0148 52.8878 46.2773 52.766 46.4555 52.5539L59.7797 36.7406C60.0141 36.4628 60.0668 36.0726 59.9121 35.7421ZM31.698 36.7417L35.1527 40.8433C32.0379 44.3859 27.6023 46.4039 22.8621 46.4039C13.8293 46.4039 6.4793 39.0457 6.4793 30.0023C6.4793 20.9589 13.8281 13.5996 22.8609 13.5996C29.5758 13.5996 35.6883 17.789 38.127 24.0398V35.1996H32.4141C32.0496 35.1996 31.718 35.4105 31.5645 35.7421C31.4109 36.0738 31.4625 36.4628 31.698 36.7417ZM22.8609 51.0128C11.2898 51.0128 1.875 41.5875 1.875 30.0011C1.875 18.4136 11.2898 8.98589 22.8609 8.98589C28.6277 8.98589 34.1707 11.3859 38.127 15.5824V19.9675C36.8695 18.0515 35.2582 16.3816 33.3504 15.0398C30.2684 12.8707 26.6414 11.7246 22.8609 11.7246C12.7934 11.7246 4.60312 19.9242 4.60312 30.0011C4.60312 40.0781 12.7934 48.2777 22.8609 48.2777C28.05 48.2777 32.9121 46.1085 36.3727 42.2906L38.1445 44.3941C34.1836 48.6105 28.6594 51.0128 22.8609 51.0128ZM45.7383 50.496L39.7922 43.4425L34.4297 37.0757H39.0645C39.5824 37.0757 40.002 36.6562 40.002 36.1382V16.1507H51.4734V36.1382C51.4734 36.6562 51.893 37.0757 52.4109 37.0757H57.0457L45.7383 50.496Z" fill="#005AAB"/>
</g>
<defs>
<clipPath id="clip0_3180_414">
<rect width="60" height="60" fill="white"/>
</clipPath>
</defs>
</svg>
