<svg width="20" height="21" viewBox="0 0 20 21" fill="none" xmlns="http://www.w3.org/2000/svg">
<g clip-path="url(#clip0_3134_2036)">
<path d="M10 0.597168C8.01169 0.599814 6.10557 1.39084 4.69962 2.79679C3.29367 4.20274 2.50265 6.10886 2.5 8.09717C2.5 13.4815 9.4875 20.2253 9.78437 20.5097C9.84212 20.5658 9.91947 20.5972 10 20.5972C10.0805 20.5972 10.1579 20.5658 10.2156 20.5097C10.5125 20.2253 17.5 13.4815 17.5 8.09717C17.4974 6.10886 16.7063 4.20274 15.3004 2.79679C13.8944 1.39084 11.9883 0.599814 10 0.597168ZM10 11.5347C9.32013 11.5347 8.65552 11.3331 8.09023 10.9553C7.52493 10.5776 7.08434 10.0408 6.82416 9.41264C6.56399 8.78452 6.49591 8.09335 6.62855 7.42654C6.76119 6.75974 7.08858 6.14723 7.56932 5.66649C8.05006 5.18575 8.66257 4.85836 9.32938 4.72572C9.99619 4.59308 10.6874 4.66116 11.3155 4.92133C11.9436 5.18151 12.4805 5.6221 12.8582 6.1874C13.2359 6.75269 13.4375 7.41729 13.4375 8.09717C13.4369 9.00867 13.0746 9.88268 12.43 10.5272C11.7855 11.1717 10.9115 11.5341 10 11.5347Z" fill="black"/>
</g>
<defs>
<clipPath id="clip0_3134_2036">
<rect width="20" height="20" fill="white" transform="translate(0 0.597168)"/>
</clipPath>
</defs>
</svg>
