<svg width="60" height="60" viewBox="0 0 60 60" fill="none" xmlns="http://www.w3.org/2000/svg">
<path d="M38.6838 19.0814C32.8487 10.4968 25.0553 5.93417 20.9739 8.72978C20.5245 9.04626 20.134 9.43901 19.8201 9.89022C19.8201 9.92318 10.3717 29.0441 10.3717 29.0441L5.09702 32.6177C4.28727 33.1674 3.59376 33.8712 3.05609 34.689C2.51843 35.5067 2.14715 36.4224 1.96346 37.3837C1.77977 38.345 1.78728 39.3331 1.98555 40.2915C2.18382 41.2499 2.56897 42.1598 3.119 42.9693L3.35636 43.3188C4.46815 44.9383 6.1736 46.0543 8.10282 46.4246C10.032 46.7949 12.0295 46.3896 13.6619 45.2968L22.1344 57.7781C23.3805 59.3144 25.7739 60.8441 28.7278 59.0441C29.2511 58.7048 29.6975 58.2596 30.0382 57.7372C30.3788 57.2148 30.6063 56.6268 30.7058 56.0111C30.8251 55.3987 30.8219 54.7687 30.6963 54.1576C30.5707 53.5465 30.3252 52.9663 29.9739 52.4507L22.5102 41.4397C22.5102 41.4397 40.1542 40.0353 40.2201 40.0089C40.771 39.8936 41.2933 39.6694 41.7564 39.3496C43.8531 37.9254 44.6047 34.9386 43.8794 30.9364C43.2267 27.2507 41.3739 23.077 38.6838 19.0814ZM5.27504 42.0199L5.03768 41.6704C4.65819 41.1118 4.39261 40.4837 4.25614 39.8223C4.11967 39.1608 4.115 38.4789 4.24239 37.8157C4.36977 37.1524 4.62671 36.5208 4.99851 35.9569C5.37031 35.3931 5.84965 34.9081 6.40911 34.5298L10.9652 31.4309L16.9783 40.2858L12.4223 43.3847C11.8635 43.7647 11.2353 44.0308 10.5735 44.1679C9.91183 44.3049 9.22959 44.3103 8.56582 44.1835C7.90205 44.0568 7.26977 43.8004 6.70512 43.4292C6.14047 43.0579 5.65452 42.579 5.27504 42.0199ZM28.075 53.7496C28.4354 54.2858 28.5684 54.943 28.4448 55.5771C28.3211 56.2112 27.9511 56.7704 27.4157 57.132C26.8785 57.4927 26.2202 57.6258 25.585 57.5022C24.9498 57.3787 24.3895 57.0084 24.0267 56.4726L15.5805 44.0309L18.9761 41.7232L19.8728 41.6507L28.075 53.7496ZM19.1608 39.3891L12.6069 29.7364L18.8575 16.9913C19.4641 20.5715 21.2377 24.8243 24.0728 28.9979C26.908 33.1715 30.2047 36.3891 33.3036 38.2748L19.1608 39.3891ZM38.6113 37.8529C35.4597 37.6485 30.33 34.0946 25.9849 27.6924C21.6399 21.2902 20.2289 15.2309 21.1981 12.2177C21.3732 11.6521 21.7224 11.1563 22.1961 10.8011C22.6697 10.4458 23.2435 10.2493 23.8355 10.2397C26.9608 10.2397 32.2816 13.8133 36.752 20.4001C39.2706 24.1056 41.1036 27.9825 41.6047 31.3715C42.5871 37.8529 38.6113 37.8529 38.6113 37.8529Z" fill="#005AAB"/>
<path d="M30.4419 19.3253C29.6342 19.1667 28.8031 19.1708 27.997 19.3372C27.1909 19.5036 26.4261 19.8291 25.7474 20.2946C25.6222 20.3811 25.5154 20.4915 25.4329 20.6194C25.3505 20.7473 25.294 20.8901 25.2668 21.0398C25.2395 21.1895 25.242 21.3431 25.2741 21.4919C25.3063 21.6406 25.3674 21.7815 25.4539 21.9066C25.5405 22.0318 25.6509 22.1386 25.7788 22.2211C25.9067 22.3035 26.0495 22.36 26.1992 22.3872C26.3489 22.4145 26.5025 22.412 26.6512 22.3798C26.8 22.3477 26.9409 22.2866 27.066 22.2001C27.4959 21.9083 27.9791 21.704 28.4879 21.5989C28.9968 21.4939 29.5213 21.49 30.0316 21.5877C30.542 21.6854 31.028 21.8826 31.4621 22.1681C31.8962 22.4536 32.2698 22.8218 32.5616 23.2517C32.8534 23.6816 33.0577 24.1648 33.1628 24.6736C33.2678 25.1824 33.2716 25.707 33.174 26.2173C33.0763 26.7276 32.8791 27.2137 32.5936 27.6478C32.3081 28.0819 31.9399 28.4555 31.51 28.7473C31.3073 28.8873 31.1547 29.0885 31.0746 29.3214C30.9944 29.5544 30.9909 29.8068 31.0646 30.0419C31.1383 30.277 31.2853 30.4823 31.4841 30.6278C31.6829 30.7733 31.923 30.8514 32.1693 30.8506C32.4044 30.855 32.6349 30.7859 32.8287 30.6528C33.8542 29.9581 34.6505 28.9746 35.1166 27.827C35.5827 26.6794 35.6977 25.4192 35.4471 24.2062C35.1964 22.9931 34.5914 21.8818 33.7085 21.0129C32.8257 20.144 31.7049 19.5567 30.488 19.3253H30.4419ZM40.1078 11.0572H40.2199C40.5053 11.0571 40.7805 10.9512 40.9924 10.76C41.2043 10.5688 41.3378 10.3059 41.3671 10.022L42.2572 1.37148C42.2775 1.21852 42.2669 1.06304 42.226 0.914259C42.1851 0.765475 42.1148 0.626402 42.0192 0.50527C41.9236 0.384138 41.8047 0.283406 41.6695 0.209035C41.5343 0.134664 41.3856 0.0881644 41.2321 0.072287C41.0786 0.0564097 40.9235 0.0714773 40.776 0.116598C40.6284 0.16172 40.4914 0.235978 40.3731 0.334979C40.2547 0.433981 40.1574 0.555714 40.0869 0.692978C40.0165 0.830242 39.9742 0.980247 39.9627 1.13412L39.0792 9.79126C39.0479 10.0955 39.1386 10.3998 39.3315 10.6371C39.5243 10.8745 39.8036 11.0256 40.1078 11.0572ZM55.0221 9.27698C54.8527 9.0216 54.5891 8.8436 54.2889 8.78184C53.9888 8.72008 53.6764 8.77956 53.4199 8.94731L45.3825 14.222C45.1738 14.3598 45.0155 14.5617 44.9315 14.7973C44.8475 15.0328 44.8423 15.2893 44.9167 15.5281C44.9911 15.7669 45.141 15.975 45.344 16.1212C45.5469 16.2673 45.7918 16.3436 46.0419 16.3385C46.2751 16.3439 46.5047 16.2796 46.7012 16.1539L54.7386 10.8792C54.9879 10.7037 55.1577 10.4368 55.2108 10.1366C55.2639 9.83635 55.1961 9.52732 55.0221 9.27698ZM57.4814 23.3605L48.132 21.6792C47.8303 21.625 47.5195 21.6928 47.2679 21.8678C47.0162 22.0427 46.8444 22.3105 46.7902 22.6121C46.736 22.9138 46.8038 23.2246 46.9788 23.4762C47.1538 23.7279 47.4215 23.8997 47.7232 23.9539L57.066 25.6352H57.2704C57.5644 25.6438 57.8506 25.5398 58.0705 25.3445C58.2904 25.1491 58.4273 24.8772 58.4534 24.5842C58.4795 24.2913 58.3928 23.9994 58.2109 23.7683C58.029 23.5372 57.7657 23.3842 57.4748 23.3407L57.4814 23.3605Z" fill="#005AAB"/>
</svg>
