<svg width="60" height="60" viewBox="0 0 60 60" fill="none" xmlns="http://www.w3.org/2000/svg">
<path d="M18.3689 54.96H13.0655C12.8109 54.96 12.5667 54.8589 12.3866 54.6788C12.2066 54.4988 12.1055 54.2546 12.1055 54V38.67C12.1055 38.4154 12.2066 38.1712 12.3866 37.9912C12.5667 37.8111 12.8109 37.71 13.0655 37.71H18.3689C18.6235 37.71 18.8677 37.8111 19.0477 37.9912C19.2277 38.1712 19.3289 38.4154 19.3289 38.67V54C19.3289 54.2546 19.2277 54.4988 19.0477 54.6788C18.8677 54.8589 18.6235 54.96 18.3689 54.96ZM14.0255 53.04H17.4089V39.63H14.0255V53.04ZM27.8909 54.96H22.5875C22.3329 54.96 22.0887 54.8589 21.9086 54.6788C21.7286 54.4988 21.6275 54.2546 21.6275 54V32.8422C21.6275 32.5876 21.7286 32.3434 21.9086 32.1634C22.0887 31.9833 22.3329 31.8822 22.5875 31.8822H27.8909C28.1455 31.8822 28.3897 31.9833 28.5697 32.1634C28.7497 32.3434 28.8509 32.5876 28.8509 32.8422V54C28.8509 54.2546 28.7497 54.4988 28.5697 54.6788C28.3897 54.8589 28.1455 54.96 27.8909 54.96ZM23.5475 53.04H26.9309V33.8022H23.5475V53.04ZM37.4123 54.96H32.1095C31.8549 54.96 31.6107 54.8589 31.4306 54.6788C31.2506 54.4988 31.1495 54.2546 31.1495 54V35.6526C31.1495 35.398 31.2506 35.1538 31.4306 34.9738C31.6107 34.7937 31.8549 34.6926 32.1095 34.6926H37.4123C37.6669 34.6926 37.9111 34.7937 38.0911 34.9738C38.2711 35.1538 38.3723 35.398 38.3723 35.6526V54C38.3723 54.2546 38.2711 54.4988 38.0911 54.6788C37.9111 54.8589 37.6669 54.96 37.4123 54.96ZM33.0695 53.04H36.4523V36.6126H33.0695V53.04ZM46.9343 54.96H41.6315C41.3769 54.96 41.1327 54.8589 40.9526 54.6788C40.7726 54.4988 40.6715 54.2546 40.6715 54V27.0048C40.6715 26.7502 40.7726 26.506 40.9526 26.326C41.1327 26.1459 41.3769 26.0448 41.6315 26.0448H46.9343C47.1889 26.0448 47.4331 26.1459 47.6131 26.326C47.7931 26.506 47.8943 26.7502 47.8943 27.0048V54C47.8943 54.2546 47.7931 54.4988 47.6131 54.6788C47.4331 54.8589 47.1889 54.96 46.9343 54.96ZM42.5915 53.04H45.9743V27.9648H42.5915V53.04Z" fill="#005AAB"/>
<path d="M13.1401 34.5726C12.2322 34.5696 11.3618 34.2104 10.7161 33.5724C9.98776 32.8434 9.56612 31.8633 9.53767 30.8332C9.50922 29.8031 9.87611 28.8012 10.5631 28.0332L21.4669 16.1304C21.6265 15.9504 22.6633 14.838 24.0517 14.8374C24.6049 14.8374 25.4215 15.0174 26.1769 15.8898L26.3425 16.0818C26.5309 16.2996 26.7091 16.506 26.8927 16.7064L30.6727 20.8308C31.0085 21.1916 31.3225 21.5723 31.6129 21.9708L31.6537 21.9246L31.6591 21.918C31.7557 21.8052 31.8559 21.6888 31.9627 21.5718L40.5391 12.2118L38.3953 9.87176C38.2857 9.75239 38.2081 9.60722 38.1698 9.4498C38.1315 9.29237 38.1336 9.1278 38.176 8.97142C38.2184 8.81504 38.2997 8.67193 38.4123 8.55544C38.5249 8.43894 38.6652 8.35284 38.8201 8.30516L49.2205 5.08316C49.3761 5.03486 49.5415 5.02699 49.7011 5.06029C49.8607 5.0936 50.0091 5.16698 50.1325 5.27353C50.2558 5.38008 50.35 5.51628 50.4062 5.6693C50.4623 5.82232 50.4786 5.98712 50.4535 6.14816L48.5107 18.5724C48.4827 18.751 48.4049 18.9181 48.2862 19.0544C48.1674 19.1908 48.0126 19.2908 47.8395 19.3431C47.6664 19.3953 47.4821 19.3976 47.3077 19.3496C47.1334 19.3017 46.9761 19.2055 46.8541 19.0722L45.0349 17.0862L33.2005 30.006C32.7583 30.486 31.6405 31.1574 30.2557 30.603C29.8008 30.4165 29.3942 30.1293 29.0665 29.763L24.1507 24.3966C24.1404 24.3836 24.1278 24.3728 24.1133 24.3647C24.0989 24.3567 24.0831 24.3516 24.0667 24.3498C24.0502 24.3516 24.0342 24.3567 24.0197 24.3647C24.0052 24.3728 23.9924 24.3836 23.9821 24.3966L15.7201 33.4152C15.4061 33.765 15.0246 34.0478 14.5986 34.2465C14.1725 34.4452 13.7107 34.5557 13.2409 34.5714C13.2085 34.5726 13.1749 34.5726 13.1401 34.5726ZM12.0529 32.1942C12.2011 32.3427 12.3778 32.4598 12.5723 32.5385C12.7668 32.6171 12.9752 32.6557 13.1851 32.652C13.3981 32.6431 13.6072 32.5913 13.7998 32.4995C13.9923 32.4077 14.1642 32.278 14.3053 32.118L22.5661 23.1C22.755 22.8892 22.9862 22.7205 23.2446 22.6051C23.5031 22.4897 23.783 22.43 24.0661 22.43C24.3491 22.43 24.629 22.4897 24.8875 22.6051C25.1459 22.7205 25.3771 22.8892 25.5661 23.1L30.4801 28.4664C30.6143 28.619 30.7807 28.7399 30.9673 28.8204C31.4749 29.0238 31.7797 28.7124 31.7827 28.7088L44.3227 15.0168C44.4126 14.9185 44.522 14.8401 44.6439 14.7865C44.7658 14.7328 44.8975 14.7051 45.0307 14.7051C45.1638 14.7051 45.2956 14.7328 45.4174 14.7865C45.5393 14.8401 45.6487 14.9185 45.7387 15.0168L46.9201 16.3038L48.3157 7.37276L40.8337 9.69116L42.5485 11.5626C42.7107 11.7396 42.8007 11.971 42.8007 12.2112C42.8007 12.4513 42.7107 12.6827 42.5485 12.8598L33.3781 22.8708C33.2929 22.9638 33.2071 23.064 33.1171 23.1708L33.1111 23.178C32.5801 23.7972 32.0167 24.093 31.4359 24.0582C30.9415 24.0288 30.4993 23.7582 30.1897 23.292C29.909 22.8804 29.5969 22.4912 29.2561 22.128L25.4761 18.0036C25.2733 17.7822 25.0783 17.5554 24.8893 17.337L24.7261 17.1486C24.3883 16.7592 24.1375 16.7574 24.0553 16.7574H24.0511C23.5825 16.7574 23.0515 17.2374 22.9021 17.4036C22.8937 17.4138 22.8967 17.4096 22.8883 17.4192L11.9797 29.3298C11.2597 30.1176 11.2927 31.4562 12.0535 32.1942H12.0529Z" fill="#005AAB"/>
</svg>
