<svg width="50" height="50" viewBox="0 0 50 50" fill="none" xmlns="http://www.w3.org/2000/svg">
<g clip-path="url(#clip0_3268_37)">
<path d="M47.2756 25.765L47.7443 24.9998L47.2756 24.2342C47.197 24.1064 45.3109 21.0623 41.647 18.0116C36.7736 13.9547 31.0325 11.8101 25.0438 11.8101C19.0567 11.8101 13.3015 13.9536 8.40029 18.0086C4.71533 21.0577 2.80801 24.0995 2.72861 24.2277L2.25 24.9998L2.72871 25.7719C2.80811 25.9001 4.71543 28.9419 8.40049 31.991C13.3016 36.046 19.0567 38.1895 25.044 38.1895C31.0326 38.1895 36.7737 36.0449 41.6471 31.988C45.3111 28.9373 47.1971 25.8933 47.2757 25.765H47.2756ZM39.6945 29.8006C35.3107 33.423 30.3813 35.2595 25.0438 35.2595C19.7044 35.2595 14.7591 33.4219 10.3455 29.7972C8.06279 27.9227 6.51514 26.0244 5.75713 24.9998C6.51553 23.9744 8.06309 22.0766 10.3455 20.2021C14.7591 16.5777 19.7041 14.7397 25.0438 14.7397C30.3813 14.7397 35.3104 16.5767 39.6946 20.1986C41.9671 22.0762 43.5013 23.9771 44.2489 24.9998C43.5005 26.0229 41.9667 27.9237 39.6946 29.8006H39.6945Z" fill="#005AAB"/>
<path d="M25 16.1979C20.1465 16.1979 16.1979 20.1466 16.1979 25C16.1979 29.8534 20.1466 33.8021 25 33.8021C29.8534 33.8021 33.8021 29.8534 33.8021 25C33.8021 20.1466 29.8534 16.1979 25 16.1979ZM25 30.8724C21.7621 30.8724 19.1276 28.2379 19.1276 25C19.1276 21.7621 21.7621 19.1276 25 19.1276C28.2379 19.1276 30.8724 21.7621 30.8724 25C30.8724 28.2379 28.2379 30.8724 25 30.8724ZM2.92969 2.92969H9.04541V0H0V8.93555H2.92969V2.92969ZM40.9546 0V2.92969H47.0703V8.93555H50V0H40.9546ZM2.92969 41.0645H0V50H9.04541V47.0703H2.92969V41.0645ZM47.0703 47.0703H40.9546V50H50V41.0645H47.0703V47.0703Z" fill="#005AAB"/>
</g>
<defs>
<clipPath id="clip0_3268_37">
<rect width="50" height="50" fill="white"/>
</clipPath>
</defs>
</svg>
