<svg width="20" height="21" viewBox="0 0 20 21" fill="none" xmlns="http://www.w3.org/2000/svg">
<g clip-path="url(#clip0_3134_2060)">
<path d="M18.3952 13.7249C17.1707 13.7249 15.9684 13.5334 14.8291 13.1569C14.2708 12.9664 13.5845 13.1411 13.2438 13.4911L10.995 15.1887C8.38703 13.7965 6.78057 12.1906 5.40745 9.60222L7.0551 7.41201C7.48318 6.98451 7.63672 6.36003 7.45276 5.7741C7.07464 4.62878 6.88255 3.42706 6.88255 2.20206C6.8826 1.31712 6.16266 0.597168 5.27776 0.597168H1.60484C0.719948 0.597168 0 1.31712 0 2.20201C0 12.3452 8.25198 20.5972 18.3952 20.5972C19.2801 20.5972 20.0001 19.8772 20.0001 18.9923V15.3297C20 14.4448 19.2801 13.7249 18.3952 13.7249Z" fill="black"/>
</g>
<defs>
<clipPath id="clip0_3134_2060">
<rect width="20" height="20" fill="white" transform="translate(0 0.597168)"/>
</clipPath>
</defs>
</svg>
