<svg width="85" height="73" viewBox="0 0 85 73" fill="none" xmlns="http://www.w3.org/2000/svg">
<circle cx="61.3844" cy="48.9549" r="23.1422" fill="#005AAB" fill-opacity="0.1"/>
<path d="M59.5417 50.5H51.7917C51.4491 50.5 51.1206 50.3639 50.8783 50.1217C50.6361 49.8794 50.5 49.5509 50.5 49.2083C50.5 48.8658 50.6361 48.5372 50.8783 48.295C51.1206 48.0528 51.4491 47.9167 51.7917 47.9167H59.5417C61.6781 47.9167 63.4167 46.1781 63.4167 44.0417V25.9583C63.4167 23.8219 61.6781 22.0833 59.5417 22.0833H10.4583C8.32192 22.0833 6.58333 23.8219 6.58333 25.9583V44.0417C6.58333 46.1781 8.32192 47.9167 10.4583 47.9167H18.2083C18.5509 47.9167 18.8794 48.0528 19.1217 48.295C19.3639 48.5372 19.5 48.8658 19.5 49.2083C19.5 49.5509 19.3639 49.8794 19.1217 50.1217C18.8794 50.3639 18.5509 50.5 18.2083 50.5H10.4583C8.74611 50.4979 7.1046 49.8169 5.89387 48.6061C4.68314 47.3954 4.00205 45.7539 4 44.0417V25.9583C4 22.3985 6.89592 19.5 10.4583 19.5H59.5417C63.1041 19.5 66 22.3985 66 25.9583V44.0417C66 47.6015 63.1041 50.5 59.5417 50.5ZM41.4583 58.25H25.9583C25.6158 58.25 25.2872 58.1139 25.045 57.8717C24.8028 57.6294 24.6667 57.3009 24.6667 56.9583C24.6667 56.6158 24.8028 56.2872 25.045 56.045C25.2872 55.8027 25.6158 55.6667 25.9583 55.6667H41.4583C41.8009 55.6667 42.1294 55.8027 42.3717 56.045C42.6139 56.2872 42.75 56.6158 42.75 56.9583C42.75 57.3009 42.6139 57.6294 42.3717 57.8717C42.1294 58.1139 41.8009 58.25 41.4583 58.25ZM41.4583 53.0833H25.9583C25.6158 53.0833 25.2872 52.9472 25.045 52.705C24.8028 52.4628 24.6667 52.1342 24.6667 51.7917C24.6667 51.4491 24.8028 51.1206 25.045 50.8783C25.2872 50.6361 25.6158 50.5 25.9583 50.5H41.4583C41.8009 50.5 42.1294 50.6361 42.3717 50.8783C42.6139 51.1206 42.75 51.4491 42.75 51.7917C42.75 52.1342 42.6139 52.4628 42.3717 52.705C42.1294 52.9472 41.8009 53.0833 41.4583 53.0833Z" fill="#005AAB"/>
<path d="M31.125 47.9167H25.9583C25.6157 47.9167 25.2872 47.7806 25.0449 47.5383C24.8027 47.2961 24.6666 46.9676 24.6666 46.625C24.6666 46.2824 24.8027 45.9539 25.0449 45.7117C25.2872 45.4694 25.6157 45.3333 25.9583 45.3333H31.125C31.4675 45.3333 31.7961 45.4694 32.0383 45.7117C32.2805 45.9539 32.4166 46.2824 32.4166 46.625C32.4166 46.9676 32.2805 47.2961 32.0383 47.5383C31.7961 47.7806 31.4675 47.9167 31.125 47.9167ZM51.7916 22.0833C51.4491 22.0833 51.1205 21.9472 50.8783 21.705C50.636 21.4628 50.5 21.1342 50.5 20.7917V10.4583C50.5 8.32192 48.7614 6.58333 46.625 6.58333H23.375C21.2385 6.58333 19.5 8.32192 19.5 10.4583V20.7917C19.5 21.1342 19.3639 21.4628 19.1216 21.705C18.8794 21.9472 18.5509 22.0833 18.2083 22.0833C17.8657 22.0833 17.5372 21.9472 17.2949 21.705C17.0527 21.4628 16.9166 21.1342 16.9166 20.7917V10.4583C16.9166 6.8985 19.8125 4 23.375 4H46.625C50.1874 4 53.0833 6.8985 53.0833 10.4583V20.7917C53.0833 21.1342 52.9472 21.4628 52.705 21.705C52.4627 21.9472 52.1342 22.0833 51.7916 22.0833Z" fill="#005AAB"/>
<path d="M46.625 66.0002H23.375C21.6627 65.9981 20.0212 65.317 18.8105 64.1063C17.5998 62.8956 16.9187 61.2541 16.9166 59.5418V38.8752C16.9166 38.5326 17.0527 38.2041 17.2949 37.9618C17.5372 37.7196 17.8657 37.5835 18.2083 37.5835H51.7916C52.1342 37.5835 52.4627 37.7196 52.705 37.9618C52.9472 38.2041 53.0833 38.5326 53.0833 38.8752V59.5418C53.0833 63.1017 50.1874 66.0002 46.625 66.0002ZM19.5 40.1668V59.5418C19.5 61.6782 21.2385 63.4168 23.375 63.4168H46.625C48.7614 63.4168 50.5 61.6782 50.5 59.5418V40.1668H19.5Z" fill="#005AAB"/>
</svg>
