<svg width="50" height="50" viewBox="0 0 50 50" fill="none" xmlns="http://www.w3.org/2000/svg">
<path d="M49.468 31.0481C48.5169 29.6504 46.6017 29.2805 45.1997 30.2227L38.8188 34.493L38.8003 21.201L41.0171 23.2776C41.4859 23.7181 42.1052 23.9629 42.7484 23.9621H42.7522C43.0982 23.9611 43.4403 23.8895 43.7576 23.7518C44.0749 23.614 44.3608 23.4129 44.5978 23.1608C45.0604 22.667 45.303 22.0227 45.281 21.3463C45.2589 20.6699 44.9747 20.0427 44.4809 19.5801L40.2782 15.6432C40.1393 15.5185 39.957 15.4533 39.7705 15.4614C39.5841 15.4694 39.4082 15.5503 39.2806 15.6865C39.1529 15.8227 39.0837 16.0035 39.0878 16.1901C39.0919 16.3767 39.1689 16.5543 39.3023 16.6849L43.505 20.6218C43.6113 20.7208 43.6969 20.8399 43.7569 20.9723C43.8168 21.1046 43.8499 21.2476 43.8543 21.3928C43.8594 21.538 43.8357 21.6827 43.7845 21.8187C43.7333 21.9547 43.6556 22.0791 43.556 22.1849C43.4531 22.2956 43.3283 22.3839 43.1896 22.4441C43.0509 22.5043 42.9013 22.5351 42.7501 22.5347H42.7484C42.4669 22.5347 42.1986 22.4286 41.9929 22.2358L41.9928 22.2357L25.3051 6.60303C25.1726 6.47891 24.9977 6.40996 24.8162 6.41021C24.6346 6.41046 24.46 6.47991 24.3278 6.6044L7.6835 22.2839C7.57793 22.3837 7.45367 22.4616 7.31786 22.5132C7.18205 22.5647 7.03738 22.5889 6.89219 22.5843C6.74694 22.5803 6.60391 22.5476 6.4714 22.488C6.33888 22.4284 6.21952 22.3431 6.12021 22.237C6.0203 22.1316 5.9423 22.0073 5.89074 21.8715C5.83917 21.7357 5.81507 21.591 5.81982 21.4458C5.82376 21.3006 5.85646 21.1576 5.91603 21.0251C5.97561 20.8925 6.06087 20.7732 6.16689 20.6738L24.0553 3.82246C24.4793 3.42295 25.1445 3.42198 25.5696 3.82041L36.0352 13.6243C36.1036 13.6884 36.1839 13.7384 36.2716 13.7714C36.3593 13.8044 36.4527 13.8198 36.5464 13.8168C36.64 13.8137 36.7322 13.7923 36.8176 13.7536C36.9029 13.7149 36.9799 13.6598 37.0439 13.5914C37.108 13.523 37.158 13.4427 37.191 13.3549C37.224 13.2672 37.2395 13.1739 37.2364 13.0802C37.2334 12.9865 37.2119 12.8944 37.1732 12.809C37.1345 12.7236 37.0794 12.6467 37.011 12.5826L26.5456 2.77871C25.5717 1.86621 24.0479 1.86826 23.0766 2.7835L17.3501 8.17803L17.3485 7.21582C17.3488 7.06666 17.3194 6.91894 17.2621 6.78121C17.2048 6.64349 17.1208 6.5185 17.0148 6.41348C16.9097 6.30805 16.7847 6.22448 16.6472 6.16759C16.5096 6.1107 16.3621 6.08163 16.2132 6.08203H16.2115L12.1151 6.0878C11.966 6.08759 11.8183 6.11698 11.6805 6.17426C11.5428 6.23154 11.4178 6.31557 11.3128 6.42149C11.2072 6.52684 11.1235 6.65209 11.0666 6.79C11.0098 6.92791 10.9808 7.07573 10.9814 7.2249L10.9928 14.167L5.18818 19.6351C4.69561 20.099 4.41328 20.7271 4.39307 21.4034C4.37285 22.0798 4.61729 22.7235 5.08125 23.2159C5.54512 23.7085 6.17314 23.9909 6.84961 24.0111C6.87549 24.0119 6.90137 24.0123 6.92725 24.0123C7.5752 24.0123 8.18877 23.7691 8.66231 23.3229L10.8741 21.2393L10.8829 27.5177C10.1654 27.4125 9.44113 27.3594 8.71592 27.3588H7.49473V26.9309C7.49473 25.4942 6.32588 24.3254 4.88926 24.3254H2.60547C1.16885 24.3253 0 25.494 0 26.9308V38.1142C0 38.3034 0.0751902 38.485 0.20903 38.6188C0.342869 38.7526 0.524394 38.8278 0.713672 38.8278C0.902949 38.8278 1.08447 38.7526 1.21831 38.6188C1.35215 38.485 1.42734 38.3034 1.42734 38.1142V26.9308C1.42734 26.2812 1.95586 25.7526 2.60547 25.7526H4.88916C5.53877 25.7526 6.06729 26.2812 6.06729 26.9308V43.8313C6.06729 44.4809 5.53877 45.0094 4.88916 45.0094H2.60547C1.95586 45.0094 1.42734 44.4809 1.42734 43.8313V42.5824C1.42734 42.3931 1.35215 42.2116 1.21831 42.0778C1.08447 41.9439 0.902949 41.8688 0.713672 41.8688C0.524394 41.8688 0.342869 41.9439 0.20903 42.0778C0.0751902 42.2116 0 42.3931 0 42.5824L0 43.8313C0 45.2679 1.16885 46.4367 2.60547 46.4367H4.88916C6.32578 46.4367 7.49463 45.268 7.49463 43.8313V43.7343L17.9462 47.6921C17.9655 47.6994 17.9852 47.7059 18.0051 47.7114C18.4595 47.8398 18.9137 47.9041 19.3621 47.9041C19.6047 47.9041 19.8456 47.8853 20.0841 47.8476L35.4436 45.6335L35.4543 45.6318C36.7616 45.4227 37.9905 44.872 39.0168 44.0355C39.0257 44.0283 39.0345 44.0208 39.043 44.0131L48.9659 35.0885C50.1215 34.0626 50.3372 32.3256 49.468 31.0481ZM15.9216 7.50987L15.9249 9.52061L12.4179 12.8243L12.4092 7.51465L15.9216 7.50987ZM24.8185 8.10303L37.371 19.862L37.3928 35.4473L35.3722 36.7996L33.2324 36.6796L33.1759 36.1112C33.0814 35.1431 32.677 34.2313 32.0228 33.5113C31.3687 32.7913 30.4997 32.3016 29.545 32.1149L29.5321 22.843C29.5312 22.1314 28.9519 21.5532 28.2404 21.5532H28.2387L21.4365 21.5628C21.2668 21.5626 21.0988 21.596 20.9421 21.6611C20.7854 21.7263 20.6432 21.8219 20.5237 21.9424C20.4036 22.0622 20.3084 22.2046 20.2437 22.3615C20.1789 22.5183 20.146 22.6865 20.1467 22.8562L20.158 30.9402C18.809 30.6321 17.5152 30.1194 16.3213 29.4199C16.1713 29.3323 16.0198 29.2473 15.8668 29.1649C15.8072 29.1328 15.7467 29.1026 15.6866 29.0713C15.5937 29.0228 15.5009 28.9739 15.4069 28.9273C15.3321 28.8902 15.2564 28.8551 15.1811 28.8192C15.1011 28.7813 15.0212 28.7429 14.9406 28.7063C14.8586 28.669 14.7759 28.6336 14.6933 28.5979C14.6178 28.5652 14.5423 28.5324 14.4663 28.5011C14.3813 28.466 14.2959 28.4323 14.2104 28.3988C14.1345 28.3691 14.0585 28.3397 13.9822 28.3111C13.8976 28.2795 13.8125 28.2489 13.7272 28.2189C13.4795 28.1315 13.2294 28.0506 12.9773 27.9765C12.9017 27.9542 12.8261 27.9319 12.75 27.9108C12.6506 27.8834 12.5509 27.8571 12.451 27.8317C12.4042 27.8197 12.3577 27.8062 12.3106 27.7945L12.2996 19.8963L24.8185 8.10303ZM28.1175 31.9363L22.1482 31.2491L21.5858 31.1844L21.5743 22.9899L28.105 22.9808L28.1175 31.9363ZM48.0149 34.0243L38.1018 42.9401C37.2745 43.6106 36.2858 44.0525 35.2345 44.2216L19.8816 46.4347L19.8721 46.4361L19.8614 46.4378C19.3963 46.5114 18.9119 46.4804 18.4216 46.3458L7.49473 42.2079V28.786H8.71592C9.79035 28.7864 10.861 28.9139 11.9055 29.1657C12.029 29.1955 12.1522 29.2262 12.2749 29.2594L12.307 29.2684C12.43 29.302 12.5524 29.3374 12.6745 29.3744C12.6964 29.3811 12.7184 29.3876 12.7401 29.3943C12.87 29.4345 12.9993 29.4764 13.1279 29.5203L13.1677 29.5342C13.4504 29.6318 13.7298 29.7387 14.0055 29.8547C14.1396 29.911 14.2728 29.9696 14.4051 30.0302C14.5297 30.0874 14.6534 30.1468 14.7764 30.2078C14.7908 30.2149 14.8054 30.222 14.8198 30.2292C14.9399 30.2893 15.0591 30.3515 15.1775 30.4151C15.1999 30.4272 15.2222 30.4395 15.2445 30.4516C15.3641 30.5167 15.4829 30.5831 15.6006 30.652C17.2989 31.6454 19.1478 32.2889 21.0958 32.5646C21.102 32.5654 21.108 32.5662 21.1142 32.5669L29.1104 33.4875C29.7079 33.5725 30.2675 33.8304 30.7204 34.2293C31.1733 34.6283 31.4996 35.151 31.6593 35.733C31.7054 35.9008 31.7378 36.0744 31.7556 36.2524L31.7873 36.5718L16.801 35.2588C16.7076 35.2506 16.6136 35.2609 16.5242 35.2891C16.4348 35.3172 16.3518 35.3627 16.28 35.423C16.135 35.5446 16.0443 35.7189 16.0277 35.9074C16.0112 36.096 16.0703 36.2834 16.1919 36.4284C16.3135 36.5734 16.4878 36.6641 16.6764 36.6807L32.5203 38.0688C32.5241 38.0691 32.5278 38.069 32.5315 38.0693C32.5353 38.0696 32.5389 38.0702 32.5427 38.0705L35.5307 38.2382C35.544 38.239 35.5573 38.2393 35.5706 38.2393C35.5848 38.2393 35.5987 38.237 35.6128 38.2361C35.6287 38.2352 35.6446 38.2346 35.6604 38.2326C35.6817 38.2299 35.7025 38.2253 35.7234 38.2207C35.7384 38.2174 35.7534 38.2149 35.7681 38.2106C35.7909 38.2041 35.8129 38.1952 35.8351 38.1863C35.847 38.1815 35.8593 38.1779 35.871 38.1725C35.9043 38.157 35.9367 38.1393 35.9676 38.1186L38.5039 36.4212L38.5042 36.4209L45.9946 31.408C46.7482 30.9015 47.777 31.1002 48.2878 31.851C48.7548 32.5371 48.6389 33.4702 48.0149 34.0243Z" fill="#005AAB"/>
</svg>
