<svg width="75" height="75" viewBox="0 0 75 75" fill="none" xmlns="http://www.w3.org/2000/svg">
<g clip-path="url(#clip0_3184_1867)">
<path fill-rule="evenodd" clip-rule="evenodd" d="M37.4986 17.2427C41.6677 17.2412 45.7388 18.507 49.1719 20.8724C52.6051 23.2377 55.2382 26.5907 56.722 30.4868C58.2058 34.3829 58.4703 38.638 57.4803 42.6879C56.4904 46.7377 54.2927 50.391 51.1789 53.1632C50.5568 53.6965 50.0605 54.3609 49.7256 55.1088C49.3907 55.8566 49.2254 56.6693 49.2417 57.4885V58.9324C49.4601 58.8188 49.6802 58.7002 49.9019 58.5768C50.0769 58.4795 50.2766 58.4357 50.4762 58.4508C50.6759 58.466 50.8666 58.5394 51.0249 58.662L58.2495 63.8673L65.1146 57.0022L59.8881 49.7481C59.7748 49.5907 59.7086 49.4043 59.6973 49.2107C59.686 49.0171 59.73 48.8243 59.8242 48.6548C60.7726 46.9503 61.5218 45.1424 62.057 43.2667C62.1134 43.0688 62.2279 42.8925 62.3858 42.7606C62.5437 42.6288 62.7376 42.5474 62.9424 42.5272L71.6991 41.1045V31.398L62.8781 29.9649C62.6861 29.9339 62.507 29.8487 62.3617 29.7195C62.2165 29.5903 62.111 29.4224 62.0577 29.2354H62.0563C61.7899 28.3003 61.4697 27.3813 61.0974 26.4831C60.7233 25.5809 60.2978 24.7009 59.8229 23.8475C59.7256 23.6725 59.6818 23.4728 59.697 23.2732C59.7121 23.0736 59.7856 22.8828 59.9082 22.7245L65.1134 15.4999L58.2495 8.63526L50.9955 13.8618C50.8381 13.9751 50.6517 14.0413 50.4581 14.0526C50.2644 14.0639 50.0716 14.0199 49.9021 13.9256C49.0487 13.4511 48.1688 13.0258 47.2668 12.6519C46.3684 12.2795 45.4493 11.9593 44.514 11.6929C44.3161 11.6366 44.1397 11.5221 44.0078 11.3642C43.8759 11.2063 43.7946 11.0123 43.7745 10.8075L42.3519 2.05082H32.6453L31.2123 10.8718C31.1811 11.0636 31.0959 11.2426 30.9667 11.3877C30.8375 11.5329 30.6696 11.6382 30.4828 11.6914V11.6929C28.607 12.228 26.7992 12.9772 25.0948 13.9258C24.9199 14.0231 24.7202 14.0669 24.5205 14.0517C24.3209 14.0366 24.1301 13.9631 23.9718 13.8405L16.7477 8.63526L9.88259 15.5004L15.1091 22.7544C15.2224 22.9118 15.2886 23.0982 15.2999 23.2918C15.3112 23.4854 15.2672 23.6783 15.173 23.8478C14.2247 25.5523 13.4756 27.3602 12.9402 29.2359C12.8839 29.4337 12.7693 29.6101 12.6114 29.742C12.4535 29.8739 12.2596 29.9552 12.0548 29.9755L3.29419 31.3986V41.1042L12.1192 42.5379C12.3109 42.5691 12.4899 42.6543 12.635 42.7835C12.7801 42.9127 12.8855 43.0805 12.9387 43.2674H12.9402C13.4752 45.1431 14.2245 46.951 15.1731 48.6553C15.2704 48.8303 15.3142 49.03 15.2991 49.2296C15.2839 49.4293 15.2105 49.62 15.0879 49.7783L9.88259 57.0022L16.7477 63.8673L24.0017 58.6408C24.1591 58.5275 24.3455 58.4613 24.5391 58.45C24.7328 58.4387 24.9256 58.4827 25.0951 58.5769C25.3169 58.7004 25.537 58.819 25.7555 58.9326V57.4885C25.7717 56.6693 25.6065 55.8565 25.2715 55.1087C24.9365 54.3609 24.4402 53.6965 23.818 53.1632C20.7055 50.3904 18.5091 46.7372 17.5199 42.6878C16.5307 38.6384 16.7955 34.384 18.2791 30.4885C19.7627 26.5929 22.3951 23.2402 25.8273 20.8747C29.2596 18.5092 33.3297 17.2426 37.4982 17.2427H37.4986ZM49.2417 61.2118V62.4862C49.2419 63.1613 49.1086 63.8297 48.8497 64.4532C48.5908 65.0766 48.2112 65.6427 47.7329 66.1191C47.443 66.4091 47.1197 66.6636 46.7698 66.8773C46.6205 69.0769 45.643 71.1382 44.0343 72.6458C42.4256 74.1533 40.3052 74.995 38.1005 75.0013H36.8968C34.692 74.995 32.5716 74.1533 30.9628 72.6456C29.354 71.138 28.3765 69.0766 28.2273 66.8769C27.8775 66.6631 27.5542 66.4085 27.2643 66.1186C26.786 65.6423 26.4064 65.0761 26.1475 64.4527C25.8886 63.8293 25.7553 63.1608 25.7555 62.4858V61.2113C25.6276 61.1509 25.4985 61.0886 25.3682 61.0246C25.1323 60.9088 24.9015 60.7916 24.6757 60.673L17.3049 65.9836C17.1088 66.152 16.8563 66.2402 16.598 66.2304C16.3396 66.2207 16.0945 66.1137 15.9117 65.9308L7.81859 57.8382L7.82108 57.8355C7.64968 57.664 7.54485 57.4372 7.52531 57.1955C7.50578 56.9538 7.57281 56.7131 7.71443 56.5163L13.0759 49.0747C12.6845 48.332 12.3287 47.5752 12.0084 46.8042C11.6881 46.0332 11.404 45.2496 11.1561 44.4535L2.10867 42.9835V42.9823C1.86938 42.9433 1.65176 42.8205 1.49469 42.6358C1.33763 42.4511 1.25135 42.2165 1.25128 41.9741V30.5797C1.23869 30.3285 1.31916 30.0814 1.47732 29.8857C1.63547 29.69 1.8602 29.5595 2.10852 29.5192L11.1564 28.0492C11.4049 27.252 11.6892 26.4679 12.0093 25.6969C12.3294 24.9259 12.685 24.1696 13.076 23.428L7.76585 16.0576C7.59739 15.8615 7.50922 15.609 7.519 15.3506C7.52877 15.0923 7.63578 14.8472 7.81859 14.6644L15.9117 6.57126L15.9143 6.57375C16.0858 6.40235 16.3127 6.29752 16.5544 6.27798C16.796 6.25845 17.0368 6.32548 17.2336 6.46711L24.6751 11.8285C25.4173 11.4373 26.1742 11.0815 26.9457 10.7611C27.7153 10.4417 28.4988 10.1576 29.2962 9.90882L30.754 0.935173C30.7766 0.679779 30.894 0.442102 31.0832 0.268998C31.2723 0.0958935 31.5194 -7.89428e-05 31.7758 4.87225e-08H43.2214V0.00263681C43.4642 0.00271057 43.699 0.0891092 43.8839 0.246392C44.0688 0.403675 44.1918 0.621592 44.2308 0.861197L45.7007 9.90896C46.4976 10.1571 47.2813 10.4412 48.0518 10.7614C48.8223 11.0815 49.5792 11.4373 50.3224 11.8287L57.6923 6.51867C57.8884 6.35021 58.1409 6.26204 58.3992 6.27181C58.6576 6.28159 58.9027 6.3886 59.0855 6.5714L67.1782 14.6644L67.1757 14.667C67.3471 14.8385 67.4519 15.0654 67.4715 15.307C67.491 15.5487 67.424 15.7895 67.2823 15.9863L61.9209 23.4278C62.3122 24.1705 62.668 24.9273 62.9884 25.6984C63.3087 26.4694 63.5928 27.2529 63.8406 28.049L72.8143 29.5069C73.0696 29.5294 73.3073 29.6468 73.4804 29.8358C73.6536 30.0249 73.7496 30.272 73.7496 30.5283V41.9739H73.7469C73.7469 42.2167 73.6605 42.4515 73.5032 42.6364C73.3459 42.8214 73.128 42.9443 72.8884 42.9834L63.8406 44.4532C63.5922 45.2505 63.3078 46.0346 62.9876 46.8055C62.6674 47.5764 62.3118 48.3327 61.9209 49.0744L67.2311 56.4448C67.3995 56.6409 67.4877 56.8934 67.4779 57.1518C67.4681 57.4101 67.3611 57.6552 67.1783 57.838L59.0852 65.9311L59.0826 65.9287C58.9111 66.1 58.6842 66.2049 58.4425 66.2244C58.2009 66.244 57.9601 66.1769 57.7633 66.0353L50.3218 60.6739C50.0959 60.7924 49.865 60.9096 49.6292 61.0254C49.4988 61.0895 49.3698 61.1518 49.242 61.2122L49.2417 61.2118ZM55.8336 40.4149C55.594 42.1283 55.1133 43.7992 54.4057 45.378C53.3337 47.7628 51.7701 49.8943 49.8173 51.633C48.9818 52.3607 48.3143 53.2612 47.8609 54.2722C47.4075 55.2832 47.179 56.3806 47.1912 57.4885V59.6553H38.5199V52.8321C38.5285 52.6636 38.4953 52.4956 38.4232 52.3431C38.3512 52.1905 38.2425 52.0582 38.1069 51.9578C37.9713 51.8574 37.813 51.7921 37.6461 51.7677C37.4791 51.7433 37.3088 51.7606 37.1501 51.818C37.0005 51.8716 36.8465 51.912 36.6898 51.9389C36.5318 51.9662 36.3718 51.9797 36.2114 51.9794C35.8491 51.9821 35.4898 51.913 35.1543 51.7762C34.8188 51.6393 34.5137 51.4375 34.2565 51.1822C33.9994 50.9269 33.7953 50.6233 33.656 50.2888C33.5167 49.9543 33.445 49.5955 33.445 49.2332C33.445 48.8708 33.5167 48.5121 33.656 48.1776C33.7953 47.8431 33.9994 47.5394 34.2565 47.2841C34.5137 47.0289 34.8188 46.827 35.1543 46.6902C35.4898 46.5533 35.8491 46.4843 36.2114 46.4869C36.3718 46.4866 36.5318 46.5003 36.6898 46.5276C36.8465 46.5543 37.0005 46.5947 37.1501 46.6483V46.6475C37.3044 46.7033 37.4699 46.7211 37.6325 46.6995C37.7951 46.6778 37.9502 46.6173 38.0845 46.5231C38.2188 46.4289 38.3285 46.3037 38.4042 46.1582C38.48 46.0127 38.5195 45.851 38.5196 45.6869V40.4149H42.5523C42.5474 40.5017 42.5449 40.5889 42.5449 40.6766C42.5449 41.949 43.0504 43.1693 43.9501 44.069C44.8498 44.9686 46.07 45.4741 47.3424 45.4741C48.6147 45.4741 49.835 44.9686 50.7347 44.069C51.6344 43.1693 52.1398 41.949 52.1398 40.6766C52.1398 40.5888 52.1374 40.5015 52.1326 40.4149H55.8336ZM36.4774 40.4149V44.4433C36.3895 44.4383 36.301 44.4358 36.2117 44.4358C34.944 44.4428 33.7307 44.9513 32.8368 45.8502C31.9428 46.749 31.4411 47.9652 31.4411 49.2329C31.4411 50.5006 31.9428 51.7167 32.8368 52.6156C33.7307 53.5145 34.944 54.023 36.2117 54.03C36.3007 54.03 36.3893 54.0275 36.4774 54.0225V59.6553H27.8063V57.4885C27.8185 56.3806 27.5901 55.2832 27.1367 54.2722C26.6833 53.2612 26.0158 52.3608 25.1804 51.633C23.2276 49.8943 21.664 47.7628 20.592 45.378C19.8844 43.7992 19.4036 42.1283 19.164 40.4149H24.1088V40.4122C24.273 40.4121 24.4348 40.3723 24.5805 40.2965C24.7261 40.2206 24.8514 40.1108 24.9456 39.9763C25.0399 39.8418 25.1004 39.6866 25.1221 39.5238C25.1437 39.361 25.1259 39.1954 25.0701 39.041C25.0165 38.8913 24.9761 38.7373 24.9494 38.5807C24.922 38.4227 24.9085 38.2626 24.9088 38.1023C24.9088 37.3739 25.1981 36.6754 25.7131 36.1604C26.2281 35.6454 26.9266 35.3561 27.655 35.3561C28.3833 35.3561 29.0818 35.6454 29.5968 36.1604C30.1118 36.6754 30.4012 37.3739 30.4012 38.1023C30.4016 38.3997 30.3545 38.6954 30.2617 38.978C30.1933 39.134 30.1649 39.3047 30.1791 39.4745C30.1932 39.6443 30.2494 39.8079 30.3426 39.9505C30.4359 40.0931 30.5632 40.2103 30.713 40.2914C30.8629 40.3724 31.0306 40.4149 31.201 40.4149H36.4774ZM18.9913 38.3641C18.9858 38.18 18.9831 37.9951 18.9831 37.8095C18.983 33.0763 20.7956 28.5227 24.0484 25.0844C27.3012 21.646 31.7473 19.5839 36.4732 19.3216V25.9995C36.4732 26.1699 36.5156 26.3377 36.5967 26.4875C36.6777 26.6374 36.7949 26.7647 36.9375 26.858C37.0801 26.9512 37.2437 27.0075 37.4135 27.0216C37.5833 27.0357 37.754 27.0073 37.9101 26.9389C38.1927 26.8463 38.4883 26.7992 38.7858 26.7995C39.5141 26.7995 40.2126 27.0888 40.7276 27.6038C41.2426 28.1188 41.532 28.8174 41.532 29.5457C41.532 30.274 41.2426 30.9725 40.7276 31.4875C40.2126 32.0025 39.5141 32.2919 38.7858 32.2919C38.6253 32.2922 38.4652 32.2786 38.3071 32.2513C38.1505 32.2245 37.9966 32.1841 37.8471 32.1306C37.6884 32.0732 37.518 32.0559 37.3511 32.0802C37.1841 32.1046 37.0258 32.1699 36.8902 32.2703C36.7546 32.3707 36.6459 32.5031 36.5738 32.6556C36.5018 32.8082 36.4685 32.9762 36.4771 33.1447V38.3639H32.4447C32.4494 38.2771 32.4518 38.1899 32.4518 38.1023C32.4518 36.83 31.9464 35.6099 31.0468 34.7103C30.1472 33.8107 28.9271 33.3053 27.6548 33.3053C26.3826 33.3053 25.1624 33.8107 24.2628 34.7103C23.3632 35.6099 22.8578 36.83 22.8578 38.1023C22.8578 38.1902 22.8602 38.2774 22.865 38.3639L18.9913 38.3641ZM38.5202 38.3641V34.3357C38.6081 34.3405 38.6967 34.343 38.7861 34.343C40.0583 34.343 41.2785 33.8376 42.1781 32.938C43.0777 32.0384 43.5831 30.8182 43.5831 29.546C43.5831 28.2737 43.0777 27.0536 42.1781 26.154C41.2785 25.2544 40.0583 24.749 38.7861 24.749C38.6982 24.749 38.6109 24.7514 38.5243 24.7561V19.3216C43.2503 19.5838 47.6964 21.6458 50.9494 25.0842C54.2023 28.5225 56.0149 33.0761 56.0148 37.8093C56.0148 37.9949 56.0121 38.1797 56.0066 38.3639H50.8888C50.7184 38.3639 50.5506 38.4063 50.4007 38.4874C50.2508 38.5684 50.1234 38.6856 50.0302 38.8283C49.9369 38.9709 49.8807 39.1346 49.8666 39.3045C49.8525 39.4743 49.881 39.645 49.9494 39.8011C50.0421 40.0837 50.0891 40.3792 50.0889 40.6766C50.0889 41.405 49.7995 42.1035 49.2845 42.6185C48.7695 43.1335 48.071 43.4228 47.3427 43.4228C46.6143 43.4228 45.9158 43.1335 45.4008 42.6185C44.8858 42.1035 44.5965 41.405 44.5965 40.6766C44.5962 40.5163 44.6097 40.3562 44.6371 40.1982C44.6638 40.0415 44.7041 39.8875 44.7576 39.7378C44.8135 39.5834 44.8314 39.4177 44.8098 39.2549C44.7882 39.0921 44.7277 38.9369 44.6334 38.8024C44.5391 38.6679 44.4138 38.5581 44.2681 38.4823C44.1224 38.4064 43.9606 38.3668 43.7964 38.3667V38.3639L38.5202 38.3641ZM44.6116 67.6017C44.4437 67.6184 44.2736 67.6268 44.1012 67.6269H30.8963C30.724 67.6269 30.5538 67.6185 30.3858 67.6017C30.6896 69.1064 31.5033 70.4602 32.6894 71.4347C33.8756 72.4091 35.3616 72.9445 36.8967 72.9505H38.1005C39.6356 72.9446 41.1217 72.4092 42.3079 71.4347C43.4941 70.4602 44.3077 69.1063 44.6114 67.6015L44.6116 67.6017ZM47.1912 61.7063V62.4861C47.1893 63.305 46.8631 64.0898 46.284 64.6689C45.705 65.2479 44.9201 65.5741 44.1012 65.5761H30.8963C30.0774 65.5741 29.2925 65.2479 28.7135 64.6689C28.1344 64.0898 27.8082 63.305 27.8063 62.4861V61.7062L47.1912 61.7063Z" fill="#005AAB"/>
</g>
<defs>
<clipPath id="clip0_3184_1867">
<rect width="75" height="75" fill="white"/>
</clipPath>
</defs>
</svg>
