<svg width="50" height="50" viewBox="0 0 50 50" fill="none" xmlns="http://www.w3.org/2000/svg">
<g clip-path="url(#clip0_3268_2)">
<path d="M44.4313 4.20431C44.0806 3.85392 43.5122 3.85363 43.1614 4.20431L33.852 13.5135C33.7264 13.639 33.6408 13.799 33.6061 13.9732C33.5715 14.1474 33.5892 14.3279 33.6572 14.492C33.7252 14.6561 33.8403 14.7963 33.9879 14.895C34.1356 14.9936 34.3092 15.0462 34.4868 15.0462C34.6048 15.0464 34.7216 15.0232 34.8305 14.9781C34.9395 14.933 35.0385 14.8668 35.1218 14.7833L44.4313 5.47413C44.7818 5.12335 44.7818 4.5549 44.4313 4.20431ZM46.9629 6.69601C46.7945 6.5277 46.5661 6.43316 46.328 6.43316C46.0899 6.43316 45.8615 6.5277 45.6931 6.69601L36.3837 16.0054C36.2154 16.1738 36.1208 16.4022 36.1208 16.6403C36.1207 16.8784 36.2153 17.1068 36.3836 17.2752C36.4669 17.3587 36.5659 17.4249 36.6749 17.47C36.7838 17.5151 36.9006 17.5382 37.0186 17.5381C37.1365 17.5382 37.2533 17.5151 37.3623 17.47C37.4712 17.4249 37.5702 17.3587 37.6535 17.2752L46.9629 7.96573C47.0463 7.88237 47.1124 7.78339 47.1576 7.67446C47.2027 7.56553 47.2259 7.44878 47.2259 7.33087C47.2259 7.21296 47.2027 7.09621 47.1576 6.98728C47.1124 6.87835 47.0463 6.77937 46.9629 6.69601Z" fill="#005AAB"/>
<path d="M38.1804 22.4168L49.7368 10.8604C49.8202 10.777 49.8863 10.678 49.9315 10.5691C49.9766 10.4601 49.9998 10.3434 49.9998 10.2255C49.9998 10.1075 49.9766 9.99077 49.9315 9.88184C49.8863 9.7729 49.8202 9.67391 49.7368 9.59054C49.386 9.24015 48.8177 9.23986 48.467 9.59054L36.9107 21.147C35.487 22.5706 33.3101 22.9442 31.4937 22.0768C31.318 21.9928 31.1196 21.9683 30.9287 22.0069C30.7378 22.0455 30.5646 22.1452 30.4353 22.2909L26.5086 26.7151C26.507 26.7167 26.5053 26.7182 26.5037 26.7199C26.5021 26.7217 26.501 26.7235 26.4994 26.7253L9.52783 45.8461L9.51504 45.861C9.46331 45.9221 9.40917 45.9812 9.35273 46.038C8.23213 47.1585 6.40889 47.1584 5.28877 46.038C4.746 45.4953 4.44707 44.7735 4.44707 44.006C4.44707 43.2384 4.746 42.5167 5.28975 41.973C5.34617 41.9167 5.40491 41.8628 5.46582 41.8114C5.4709 41.8072 5.47578 41.8029 5.48066 41.7986L16.0908 32.3813C16.2689 32.2232 16.3769 32.0009 16.3911 31.7632C16.4052 31.5255 16.3244 31.2919 16.1663 31.1138C15.8371 30.7428 15.2695 30.7089 14.8988 31.0383L4.2957 40.4494C4.2001 40.5306 4.10781 40.6156 4.01904 40.7042C3.13711 41.5861 2.65137 42.7587 2.65137 44.006C2.65137 45.2531 3.13701 46.4258 4.01895 47.3077C4.92939 48.218 6.125 48.6732 7.3209 48.6731C8.51631 48.6731 9.71221 48.2181 10.622 47.3082C10.7108 47.2193 10.796 47.1268 10.8774 47.031L23.8103 32.4601L36.7433 47.0312C36.8244 47.1268 36.9094 47.2192 36.998 47.3079C37.9083 48.2182 39.104 48.6733 40.2997 48.6733C41.4955 48.6733 42.6913 48.2181 43.6017 47.3078C45.422 45.4872 45.422 42.5251 43.6021 40.705C43.5132 40.6162 43.4208 40.531 43.325 40.4496L28.4431 27.2406L31.3547 23.9602C33.7138 24.796 36.3831 24.2138 38.1804 22.4168ZM42.1398 41.7987L42.1547 41.8115C42.2158 41.8633 42.2749 41.9174 42.3317 41.9738C43.4521 43.0944 43.4521 44.9175 42.3318 46.0378C41.2112 47.1582 39.3881 47.1582 38.2672 46.0373C38.2062 45.9761 38.1478 45.9122 38.0924 45.8459L25.0106 31.1074L27.2508 28.5835L42.1398 41.7987Z" fill="#005AAB"/>
<path d="M41.7362 1.58951C41.5678 1.4212 41.3394 1.32666 41.1013 1.32666C40.8632 1.32666 40.6348 1.4212 40.4664 1.58951L28.9101 13.1461C27.1127 14.9433 26.5307 17.6124 27.3665 19.9719L23.8103 23.1284L20.3926 20.0948C22.16 16.617 21.5148 12.3945 18.7107 9.59029C15.9258 6.80533 12.7 4.84547 9.62763 4.07193C6.4203 3.26461 3.6705 3.80357 1.88397 5.59C0.0974506 7.37642 -0.441612 10.1266 0.365908 13.3337C1.13954 16.4059 3.09931 19.6317 5.88446 22.4166C8.68856 25.2209 12.911 25.8661 16.389 24.0985L19.7736 27.9118C19.8578 28.0068 19.9613 28.0829 20.0771 28.1349C20.1929 28.187 20.3185 28.2137 20.4455 28.2135C20.6651 28.2138 20.8772 28.1332 21.0412 27.9872L29.0359 20.8911C29.1816 20.7617 29.2813 20.5885 29.3199 20.3976C29.3585 20.2067 29.334 20.0084 29.2501 19.8326C28.3825 18.0161 28.7561 15.8393 30.1799 14.4158L41.7362 2.85933C41.8196 2.77596 41.8858 2.67698 41.9309 2.56804C41.976 2.4591 41.9992 2.34234 41.9992 2.22442C41.9992 2.1065 41.976 1.98974 41.9309 1.8808C41.8858 1.77187 41.8196 1.67288 41.7362 1.58951ZM20.5206 26.0484L17.2522 22.3662C17.112 22.2081 16.9205 22.1046 16.7115 22.0739C16.5025 22.0431 16.2893 22.0871 16.1095 22.198C13.2308 23.9731 9.54813 23.5412 7.15399 21.1469C4.59501 18.588 2.80272 15.6577 2.10712 12.8953C1.46015 10.3253 1.83183 8.1817 3.1538 6.85982C4.47558 5.53775 6.61913 5.16627 9.18905 5.81334C11.9515 6.50884 14.882 8.30103 17.4408 10.86C19.835 13.2541 20.267 16.9367 18.4918 19.8154C18.3809 19.9952 18.337 20.2084 18.3678 20.4174C18.3985 20.6264 18.502 20.8179 18.66 20.9582L22.4576 24.3289L20.5206 26.0484Z" fill="#005AAB"/>
</g>
<defs>
<clipPath id="clip0_3268_2">
<rect width="50" height="50" fill="white"/>
</clipPath>
</defs>
</svg>
