<svg width="20" height="16" viewBox="0 0 20 16" fill="none" xmlns="http://www.w3.org/2000/svg">
<path d="M17.793 9.36719H1.49609C0.740859 9.36719 0.128906 8.75523 0.128906 8C0.128906 7.24477 0.740859 6.63281 1.49609 6.63281H17.793C18.5482 6.63281 19.1602 7.24477 19.1602 8C19.1602 8.75523 18.5482 9.36719 17.793 9.36719Z" fill="white"/>
<path d="M11.5318 15.834C11.3435 15.8342 11.1572 15.7955 10.9846 15.7202C10.812 15.6449 10.6568 15.5347 10.5289 15.3965C10.0153 14.8431 10.0482 13.9779 10.6016 13.4644L16.4789 8.0137L10.4239 2.54823C9.86331 2.04237 9.81901 1.17776 10.3249 0.617214C10.8307 0.0566667 11.6953 0.01237 12.2559 0.518229L19.4199 6.98503C19.7049 7.24206 19.8684 7.60682 19.8711 7.99073C19.8739 8.37464 19.7153 8.74159 19.4336 9.00245L12.461 15.4692C12.2085 15.704 11.8765 15.8343 11.5318 15.834Z" fill="white"/>
</svg>
