<svg width="105" height="90" viewBox="0 0 105 90" fill="none" xmlns="http://www.w3.org/2000/svg">
<g clip-path="url(#clip0_3226_115)">
<path d="M30.8575 89.0609C32.543 87.6348 33.5669 85.3819 33.2984 83.1887C33.0299 80.9955 31.3669 78.9792 29.2097 78.5135C27.0525 78.0478 24.5935 79.337 23.9383 81.447C23.5777 77.379 23.1622 73.1406 21.0022 69.6763C19.0464 66.5395 15.6589 64.295 11.9876 63.8935C8.31631 63.492 4.45092 65.0085 2.16127 67.91C-0.12837 70.8115 -0.688978 75.0296 0.914629 78.3607C2.09595 80.8147 4.27236 82.6409 6.5527 84.1266C13.9213 88.8871 22.7589 90.8231 31.4396 89.5782" fill="#F2F2F2"/>
<path d="M5.7918 65.0926C8.82106 67.5632 11.6001 70.3264 14.0887 73.3421C17.9833 78.0456 21.1349 83.3191 23.4337 88.9789C23.6019 89.3918 22.9324 89.5715 22.766 89.1632C21.3041 85.5848 19.4956 82.1585 17.3662 78.9333C14.0457 73.8953 9.97763 69.3934 5.30216 65.5829C4.95647 65.301 5.44896 64.8131 5.7918 65.0926Z" fill="white"/>
<path d="M32.0217 89.0609C30.3361 87.6348 29.3123 85.3819 29.5808 83.1887C29.8493 80.9955 31.5123 78.9792 33.6695 78.5135C35.8266 78.0478 38.2857 79.337 38.9409 81.447C39.3015 77.379 39.717 73.1406 41.877 69.6763C43.8328 66.5395 47.2203 64.295 50.8916 63.8935C54.5629 63.492 58.4282 65.0085 60.7179 67.91C63.0075 70.8115 63.5681 75.0296 61.9645 78.3607C60.7832 80.8147 58.6068 82.6409 56.3265 84.1266C48.9579 88.8871 40.1202 90.8231 31.4396 89.5782" fill="#F2F2F2"/>
<path d="M57.0875 65.0926C54.0582 67.5632 51.2792 70.3264 48.7906 73.3421C44.8959 78.0456 41.7443 83.3191 39.4456 88.9789C39.2773 89.3918 39.9469 89.5715 40.1133 89.1632C43.8745 79.9649 49.8788 71.8577 57.5771 65.5829C57.9228 65.301 57.4303 64.8131 57.0875 65.0926Z" fill="white"/>
<path d="M37.0236 40.4864C40.1419 40.4864 42.6697 37.9553 42.6697 34.8329C42.6697 31.7106 40.1419 29.1794 37.0236 29.1794C33.9053 29.1794 31.3774 31.7106 31.3774 34.8329C31.3774 37.9553 33.9053 40.4864 37.0236 40.4864Z" fill="#F2F2F2"/>
<path d="M19.615 15.3442H58.5154V17.4753H24.581C22.5857 17.4753 20.6101 17.8688 18.7667 18.6333C16.9234 19.3978 15.2485 20.5184 13.8376 21.9311C12.4268 23.3438 11.3077 25.0208 10.5441 26.8666C9.7806 28.7123 9.38762 30.6906 9.38762 32.6884V56.8997H5.13106C4.94291 56.8997 4.76246 56.8248 4.62942 56.6916C4.49638 56.5584 4.42163 56.3777 4.42163 56.1893V30.5573C4.42163 28.5595 4.81462 26.5813 5.57815 24.7355C6.34169 22.8898 7.46083 21.2127 8.87166 19.8C10.2825 18.3874 11.9574 17.2668 13.8007 16.5023C15.6441 15.7377 17.6198 15.3442 19.615 15.3442Z" fill="#F2F2F2"/>
<path d="M27.0973 89.1794V56.8086H36.5683V89.1794C36.568 89.397 36.4816 89.6056 36.3279 89.7594C36.1743 89.9133 35.9659 89.9998 35.7486 90.0001H27.9169C27.6996 89.9998 27.4913 89.9133 27.3376 89.7594C27.184 89.6056 27.0975 89.397 27.0973 89.1794Z" fill="#3F3D56"/>
<path d="M2.41809 56.1701V29.8477C2.42282 25.6574 4.08736 21.64 7.04653 18.677C10.0057 15.7139 14.0179 14.0472 18.2028 14.0425H58.3332V57.082H3.32876C3.08732 57.0817 2.85585 56.9856 2.68513 56.8146C2.5144 56.6437 2.41837 56.4119 2.41809 56.1701ZM57.9689 14.4072H18.2028C14.1144 14.4119 10.1949 16.0401 7.30399 18.9348C4.41311 21.8294 2.78698 25.7541 2.78236 29.8477V56.1701C2.78252 56.3152 2.84013 56.4543 2.94257 56.5568C3.04501 56.6594 3.18389 56.7171 3.32876 56.7173H57.9689V14.4072Z" fill="#3F3D56"/>
<path d="M37.0235 37.7508C36.1544 37.7498 35.321 37.4036 34.7064 36.7882C34.0918 36.1728 33.7461 35.3384 33.7451 34.4681V10.9422C33.745 10.7972 33.6874 10.6581 33.5849 10.5556C33.4825 10.453 33.3436 10.3953 33.1987 10.3951H20.4494C20.2079 10.3949 19.9765 10.2987 19.8057 10.1278C19.635 9.95681 19.539 9.72504 19.5387 9.48328V0.911854C19.539 0.670101 19.635 0.438329 19.8057 0.267384C19.9765 0.0964389 20.2079 0.000279946 20.4494 0H39.3913C39.6327 0.000276575 39.8642 0.0964354 40.0349 0.267381C40.2056 0.438327 40.3017 0.6701 40.302 0.911854V34.4681C40.301 35.3384 39.9553 36.1728 39.3407 36.7882C38.726 37.4036 37.8927 37.7498 37.0235 37.7508Z" fill="#005AAB"/>
<path d="M59.7903 13.6778C62.5379 13.672 65.1753 14.7594 67.1222 16.7007C69.0692 18.642 70.1662 21.2782 70.1719 24.0294V53.9947H90.5709C91.3904 53.993 92.177 54.3173 92.7576 54.8963C93.3383 55.4752 93.6655 56.2615 93.6672 57.082H49.4087V24.0294C49.4145 21.2782 50.5115 18.642 52.4584 16.7007C54.4053 14.7594 57.0427 13.672 59.7903 13.6778Z" fill="#3F3D56"/>
<path d="M57.299 30.7418L59.4487 39.6335L101.5 29.4405L99.3503 20.5488C99.3243 20.4401 99.2713 20.3397 99.1963 20.2569C99.1212 20.1742 99.0265 20.1118 98.9209 20.0755C98.8429 20.0481 98.7605 20.0356 98.6779 20.0389L74.3705 7.43673C74.228 7.3639 74.0643 7.34445 73.9088 7.38188C73.7533 7.41931 73.6162 7.51116 73.5224 7.64085L61.8076 23.9984L57.3912 30.1667C57.3832 30.1775 57.3776 30.1899 57.3748 30.203C57.372 30.2162 57.3721 30.2298 57.375 30.2429C57.2851 30.3927 57.2578 30.572 57.299 30.7418Z" fill="white"/>
<path d="M57.3751 30.2429C57.3771 30.2545 57.3815 30.2656 57.3878 30.2754C57.3942 30.2853 57.4024 30.2939 57.412 30.3005C57.4235 30.3084 57.4363 30.3138 57.4499 30.3165C57.4635 30.3192 57.4775 30.319 57.491 30.3161C57.513 30.3103 57.5322 30.2969 57.5454 30.2783L57.5606 30.2573L57.7905 29.9353L61.9666 24.106L73.678 7.75219C73.7448 7.65952 73.8426 7.59391 73.9536 7.56726C74.0646 7.54062 74.1815 7.55471 74.283 7.60698L98.4022 20.1115L98.6186 20.224C98.6274 20.2277 98.6363 20.2309 98.6455 20.2334C98.6618 20.2305 98.6783 20.2289 98.6949 20.2287C98.7175 20.2211 98.7364 20.2051 98.7477 20.1841C98.7536 20.173 98.7572 20.1608 98.7584 20.1483C98.7595 20.1358 98.7582 20.1232 98.7545 20.1112C98.7508 20.0992 98.7448 20.088 98.7368 20.0783C98.7288 20.0687 98.7189 20.0607 98.7078 20.0548L98.6779 20.0389L74.3705 7.43673C74.2281 7.3639 74.0643 7.34445 73.9088 7.38188C73.7533 7.41931 73.6163 7.51116 73.5225 7.64085L61.8076 23.9984L57.3913 30.1667C57.3832 30.1775 57.3776 30.1899 57.3749 30.203C57.3721 30.2162 57.3721 30.2298 57.3751 30.2429Z" fill="#3F3D56"/>
<path d="M70.0044 31.1497L70.9405 31.2537L77.8875 32.0243L82.4929 32.5348L82.7649 32.565L88.5117 28.0706L88.7318 27.8984L90.0891 26.837L94.9182 23.0607L94.9471 22.7955L96.6647 7.27317C96.6882 7.05943 96.626 6.84511 96.4918 6.67721C96.3577 6.5093 96.1625 6.4015 95.9491 6.37745L73.0265 3.83488C72.8131 3.81154 72.5991 3.87385 72.4314 4.00815C72.2637 4.14246 72.1561 4.33782 72.132 4.55146L70.9207 15.5006L70.2488 21.5709L69.6477 27.0016L69.3691 29.5237L69.2878 30.2542C69.2646 30.468 69.327 30.6823 69.4614 30.8502C69.5957 31.018 69.7909 31.1257 70.0044 31.1497Z" fill="#E6E6E6"/>
<path d="M76.3035 17.5437L86.2329 18.6449L89.7541 19.0353C89.9096 19.0525 90.0669 19.0389 90.2172 18.9953C90.3674 18.9517 90.5075 18.8788 90.6297 18.7809C90.7518 18.683 90.8534 18.562 90.9288 18.4248C91.0042 18.2876 91.0519 18.1369 91.0691 17.9812C91.0863 17.8255 91.0728 17.668 91.0292 17.5176C90.9856 17.3671 90.9128 17.2268 90.8151 17.1045C90.7173 16.9823 90.5965 16.8805 90.4594 16.805C90.3224 16.7295 90.1718 16.6817 90.0164 16.6645L85.6366 16.1788L76.5665 15.1718C76.2524 15.137 75.9375 15.2286 75.6908 15.4263C75.4442 15.624 75.286 15.9117 75.2512 16.2262C75.2163 16.5406 75.3076 16.856 75.5049 17.1031C75.7023 17.3502 75.9895 17.5087 76.3035 17.5437Z" fill="white"/>
<path d="M75.7382 21.9417C75.7638 21.9462 75.7894 21.9508 75.8155 21.9533L87.3418 23.2319L89.2663 23.4458C89.5804 23.4806 89.8955 23.389 90.1421 23.1912C90.3888 22.9935 90.5469 22.7057 90.5817 22.3911C90.6164 22.0766 90.5249 21.7612 90.3274 21.5142C90.1299 21.2672 89.8424 21.1089 89.5283 21.0741L86.7456 20.7658L77.6152 19.7528L76.0787 19.5823C75.7714 19.548 75.4628 19.6347 75.2182 19.824C74.9736 20.0134 74.8121 20.2905 74.7679 20.5969C74.7236 20.9033 74.8002 21.215 74.9812 21.4659C75.1623 21.7169 75.4337 21.8875 75.7382 21.9417Z" fill="white"/>
<path d="M74.4336 25.8415C74.5281 25.9985 74.6574 26.1316 74.8116 26.2304C74.9658 26.3293 75.1406 26.3912 75.3225 26.4114L80.0469 26.9353L88.4609 27.8687L88.4628 27.8683L88.7318 27.8983L90.0891 26.8369C90.0975 26.7562 90.0976 26.675 90.0893 26.5943C90.0607 26.3236 89.9407 26.0707 89.749 25.8776C89.5573 25.6844 89.3056 25.5626 89.0354 25.5322L87.8666 25.4022L83.23 24.8884L79.8938 24.5179L75.5845 24.0397C75.3637 24.0152 75.1404 24.0531 74.9399 24.149C74.7394 24.2449 74.5697 24.3951 74.45 24.5825C74.3303 24.77 74.2653 24.9872 74.2624 25.2097C74.2595 25.4321 74.3188 25.651 74.4336 25.8415Z" fill="white"/>
<path d="M81.0693 12.1676L83.5399 12.4416L84.6311 12.563L86.2794 12.7456C86.5935 12.7804 86.9085 12.6888 87.1552 12.491C87.4019 12.2933 87.56 12.0054 87.5947 11.6909C87.6295 11.3764 87.538 11.061 87.3405 10.814C87.1429 10.567 86.8555 10.4087 86.5414 10.3739L81.3325 9.79661C81.0185 9.76167 80.7035 9.85305 80.4568 10.0507C80.21 10.2483 80.0518 10.5359 80.0169 10.8504C79.982 11.1648 80.0733 11.4802 80.2707 11.7272C80.468 11.9743 80.7553 12.1327 81.0693 12.1676Z" fill="white"/>
<path d="M60.8679 18.7717L63.8799 31.2302L68.907 32.1873L73.5572 33.0738L78.5465 34.0244L80.1407 34.3281C80.2341 34.3458 80.3301 34.3434 80.4224 34.321C80.5147 34.2986 80.6012 34.2568 80.6761 34.1984L81.9551 33.1982L82.7649 32.565L88.5116 28.0705L84.8576 12.9568C84.8215 12.8064 84.7428 12.6697 84.631 12.563C84.5329 12.4686 84.4127 12.4005 84.2814 12.3649C84.1501 12.3293 84.0119 12.3273 83.8797 12.3593L61.4646 17.7926C61.2558 17.8433 61.0758 17.9749 60.9639 18.1585C60.852 18.3421 60.8174 18.5627 60.8679 18.7717Z" fill="#005AAB"/>
<path d="M67.7744 28.6829C67.849 28.9902 68.0423 29.2554 68.312 29.4201C68.5816 29.5848 68.9055 29.6357 69.2125 29.5616L82.3652 26.3734C82.672 26.2986 82.9367 26.105 83.1012 25.8351C83.2657 25.5651 83.3166 25.2409 83.2427 24.9335C83.2394 24.9182 83.2351 24.9032 83.2299 24.8885C83.1459 24.5921 82.9506 24.3397 82.6849 24.1843C82.4192 24.0289 82.1038 23.9825 81.8047 24.0548L68.652 27.2429C68.345 27.3176 68.0803 27.5112 67.9157 27.7812C67.7512 28.0511 67.7004 28.3755 67.7744 28.6829Z" fill="white"/>
<path d="M68.907 32.1873L73.5572 33.0738L83.4079 30.6861C83.7149 30.6117 83.9799 30.4181 84.1444 30.1481C84.309 29.8781 84.3597 29.5536 84.2854 29.2461C84.211 28.9387 84.0178 28.6734 83.7481 28.5086C83.4784 28.3438 83.1544 28.293 82.8473 28.3675L69.6946 31.5556C69.4197 31.6217 69.1776 31.7842 69.0121 32.0136C68.9722 32.0685 68.937 32.1266 68.907 32.1873Z" fill="white"/>
<path d="M78.5466 34.0245L80.1408 34.3282C80.2342 34.3459 80.3302 34.3435 80.4225 34.3211C80.5148 34.2987 80.6013 34.2569 80.6762 34.1985L81.9552 33.1982L78.5466 34.0245Z" fill="white"/>
<path d="M70.4246 22.0025C70.4992 22.3098 70.6926 22.575 70.9622 22.7397C71.2318 22.9044 71.5557 22.9553 71.8627 22.8812L76.9571 21.6463C77.2639 21.5715 77.5286 21.3779 77.6931 21.1079C77.8576 20.838 77.9085 20.5138 77.8346 20.2064C77.7949 20.0412 77.7201 19.8865 77.6152 19.7529C77.4742 19.5724 77.2844 19.4363 77.0683 19.3609C76.8522 19.2855 76.619 19.274 76.3965 19.3277L71.3022 20.5625C70.9951 20.637 70.7302 20.8305 70.5656 21.1006C70.4011 21.3706 70.3504 21.695 70.4246 22.0025Z" fill="white"/>
<path d="M73.5569 33.0737L78.547 34.0245L80.1407 34.3284C80.234 34.3458 80.3299 34.3433 80.4221 34.3209C80.5144 34.2986 80.6008 34.2569 80.6758 34.1987L81.9557 33.1982L81.5066 33.3071L80.5585 34.0477C80.5049 34.0893 80.4431 34.119 80.3772 34.135C80.3113 34.151 80.2428 34.1528 80.1762 34.1403L78.9961 33.9156L74.006 32.9648L73.5569 33.0737ZM88.4623 27.869L88.5108 28.0699L88.7322 27.8976L88.4623 27.869ZM73.5569 33.0737L78.547 34.0245L80.1407 34.3284C80.234 34.3458 80.3299 34.3433 80.4221 34.3209C80.5144 34.2986 80.6008 34.2569 80.6758 34.1987L81.9557 33.1982L81.5066 33.3071L80.5585 34.0477C80.5049 34.0893 80.4431 34.119 80.3772 34.135C80.3113 34.151 80.2428 34.1528 80.1762 34.1403L78.9961 33.9156L74.006 32.9648L73.5569 33.0737ZM73.5569 33.0737L78.547 34.0245L80.1407 34.3284C80.234 34.3458 80.3299 34.3433 80.4221 34.3209C80.5144 34.2986 80.6008 34.2569 80.6758 34.1987L81.9557 33.1982L81.5066 33.3071L80.5585 34.0477C80.5049 34.0893 80.4431 34.119 80.3772 34.135C80.3113 34.151 80.2428 34.1528 80.1762 34.1403L78.9961 33.9156L74.006 32.9648L73.5569 33.0737ZM57.299 30.7417L62.9299 54.0323C62.9717 54.2044 63.0799 54.3529 63.2309 54.4452C63.3819 54.5374 63.5633 54.5659 63.7353 54.5244L104.49 44.6458C104.662 44.604 104.81 44.4955 104.902 44.3443C104.994 44.1931 105.023 44.0115 104.981 43.8393L99.3503 20.5487C99.3243 20.44 99.2713 20.3396 99.1963 20.2569C99.1212 20.1741 99.0265 20.1117 98.9209 20.0755C98.8429 20.048 98.7605 20.0356 98.6779 20.0388C98.5816 20.0416 98.4873 20.0665 98.4021 20.1115C98.3628 20.1302 98.3257 20.1532 98.2915 20.1802L94.9468 22.7954L90.0893 26.5948L88.4619 27.8676L88.4623 27.869L88.4609 27.8693L82.4931 32.534L81.5066 33.3071L80.5585 34.0477C80.5049 34.0893 80.4431 34.119 80.3772 34.135C80.3113 34.151 80.2428 34.1528 80.1762 34.1403L78.9961 33.9156L74.006 32.9648L69.0115 32.0136L58.0723 29.9292C57.9791 29.9107 57.8829 29.9127 57.7905 29.9353C57.6661 29.9657 57.553 30.0313 57.4648 30.1242C57.431 30.1607 57.4009 30.2004 57.375 30.2429C57.2851 30.3927 57.2578 30.5719 57.299 30.7417ZM73.5569 33.0737L78.547 34.0245L80.1407 34.3284C80.234 34.3458 80.3299 34.3433 80.4221 34.3209C80.5144 34.2986 80.6008 34.2569 80.6758 34.1987L81.9557 33.1982L81.5066 33.3071L80.5585 34.0477C80.5049 34.0893 80.4431 34.119 80.3772 34.135C80.3113 34.151 80.2428 34.1528 80.1762 34.1403L78.9961 33.9156L74.006 32.9648L73.5569 33.0737ZM73.5569 33.0737L78.547 34.0245L80.1407 34.3284C80.234 34.3458 80.3299 34.3433 80.4221 34.3209C80.5144 34.2986 80.6008 34.2569 80.6758 34.1987L81.9557 33.1982L81.5066 33.3071L80.5585 34.0477C80.5049 34.0893 80.4431 34.119 80.3772 34.135C80.3113 34.151 80.2428 34.1528 80.1762 34.1403L78.9961 33.9156L74.006 32.9648L73.5569 33.0737ZM73.5569 33.0737L78.547 34.0245L80.1407 34.3284C80.234 34.3458 80.3299 34.3433 80.4221 34.3209C80.5144 34.2986 80.6008 34.2569 80.6758 34.1987L81.9557 33.1982L81.5066 33.3071L80.5585 34.0477C80.5049 34.0893 80.4431 34.119 80.3772 34.135C80.3113 34.151 80.2428 34.1528 80.1762 34.1403L78.9961 33.9156L74.006 32.9648L73.5569 33.0737Z" fill="white"/>
<path d="M73.5569 33.0737L78.547 34.0245L80.1407 34.3284C80.234 34.3458 80.3299 34.3433 80.4221 34.3209C80.5144 34.2986 80.6008 34.2569 80.6758 34.1987L81.9557 33.1982L81.5066 33.3071L80.5585 34.0477C80.5049 34.0893 80.4431 34.119 80.3772 34.135C80.3113 34.151 80.2428 34.1528 80.1762 34.1403L78.9961 33.9156L74.006 32.9648L73.5569 33.0737ZM88.4623 27.869L88.5108 28.0699L88.7322 27.8976L88.4623 27.869ZM73.5569 33.0737L78.547 34.0245L80.1407 34.3284C80.234 34.3458 80.3299 34.3433 80.4221 34.3209C80.5144 34.2986 80.6008 34.2569 80.6758 34.1987L81.9557 33.1982L81.5066 33.3071L80.5585 34.0477C80.5049 34.0893 80.4431 34.119 80.3772 34.135C80.3113 34.151 80.2428 34.1528 80.1762 34.1403L78.9961 33.9156L74.006 32.9648L73.5569 33.0737ZM73.5569 33.0737L78.547 34.0245L80.1407 34.3284C80.234 34.3458 80.3299 34.3433 80.4221 34.3209C80.5144 34.2986 80.6008 34.2569 80.6758 34.1987L81.9557 33.1982L81.5066 33.3071L80.5585 34.0477C80.5049 34.0893 80.4431 34.119 80.3772 34.135C80.3113 34.151 80.2428 34.1528 80.1762 34.1403L78.9961 33.9156L74.006 32.9648L73.5569 33.0737ZM57.5605 30.2572L57.5853 30.2758C57.5894 30.269 57.5966 30.263 57.6021 30.2558C57.6573 30.1983 57.7259 30.1554 57.8017 30.131C57.8775 30.1066 57.9582 30.1013 58.0365 30.1158L68.9073 32.1865L73.5569 33.0737L78.547 34.0245L80.1407 34.3284C80.234 34.3458 80.3299 34.3433 80.4221 34.3209C80.5144 34.2986 80.6008 34.2569 80.6758 34.1987L81.9557 33.1982L81.5066 33.3071L80.5585 34.0477C80.5049 34.0893 80.4431 34.119 80.3772 34.135C80.3113 34.151 80.2428 34.1528 80.1762 34.1403L78.9961 33.9156L74.006 32.9648L69.0115 32.0136L58.0723 29.9292C57.9791 29.9106 57.8829 29.9127 57.7905 29.9353L57.5605 30.2572ZM57.299 30.7417L62.9299 54.0323C62.9717 54.2044 63.0799 54.3529 63.2309 54.4452C63.3819 54.5374 63.5633 54.5659 63.7353 54.5244L104.49 44.6458C104.662 44.604 104.81 44.4955 104.902 44.3443C104.994 44.1931 105.023 44.0115 104.981 43.8393L99.3503 20.5487C99.3243 20.44 99.2713 20.3396 99.1963 20.2569C99.1212 20.1741 99.0265 20.1117 98.9209 20.0755C98.8429 20.048 98.7605 20.0356 98.6779 20.0388C98.5816 20.0416 98.4873 20.0665 98.4021 20.1115C98.3628 20.1302 98.3257 20.1532 98.2915 20.1802L94.9468 22.7954L90.0893 26.5948L88.4619 27.8676L88.4623 27.869L88.4609 27.8693L82.4931 32.534L81.5066 33.3071L80.5585 34.0477C80.5049 34.0893 80.4431 34.119 80.3772 34.135C80.3113 34.151 80.2428 34.1528 80.1762 34.1403L78.9961 33.9156L74.006 32.9648L69.0115 32.0136L58.0723 29.9292C57.9791 29.9106 57.8829 29.9127 57.7905 29.9353C57.6661 29.9657 57.553 30.0313 57.4648 30.1242C57.431 30.1607 57.4009 30.2004 57.375 30.2429C57.2851 30.3927 57.2578 30.5719 57.299 30.7417ZM57.4847 30.6967C57.4681 30.6281 57.467 30.5565 57.4816 30.4874C57.4961 30.4183 57.5259 30.3533 57.5688 30.2972C57.5727 30.289 57.5783 30.2817 57.5853 30.2758C57.5894 30.269 57.5966 30.263 57.6021 30.2558C57.6573 30.1983 57.7259 30.1554 57.8017 30.131C57.8775 30.1066 57.9582 30.1013 58.0365 30.1158L68.9073 32.1865L73.5569 33.0737L78.547 34.0245L80.1407 34.3284C80.234 34.3458 80.3299 34.3433 80.4221 34.3209C80.5144 34.2986 80.6008 34.2569 80.6758 34.1987L81.9557 33.1982L82.7651 32.565L88.5108 28.0699L88.7322 27.8976L90.0884 26.8367L94.9183 23.0599L98.41 20.3295C98.4631 20.2881 98.5244 20.2584 98.5898 20.2425C98.6081 20.238 98.6267 20.235 98.6454 20.2334C98.6617 20.2304 98.6783 20.2288 98.6948 20.2286C98.7507 20.2281 98.8061 20.2372 98.8589 20.2554C98.9342 20.2817 99.0017 20.3263 99.0553 20.3854C99.1089 20.4444 99.147 20.5159 99.166 20.5934L104.797 43.884C104.812 43.945 104.814 44.0084 104.805 44.0705C104.795 44.1325 104.773 44.1921 104.741 44.2457C104.708 44.2993 104.665 44.3459 104.614 44.3829C104.564 44.4199 104.506 44.4465 104.445 44.4612L63.6907 54.3399C63.5677 54.3695 63.438 54.349 63.3302 54.2828C63.2224 54.2167 63.1452 54.1104 63.1156 53.9873L57.4847 30.6967ZM73.5569 33.0737L78.547 34.0245L80.1407 34.3284C80.234 34.3458 80.3299 34.3433 80.4221 34.3209C80.5144 34.2986 80.6008 34.2569 80.6758 34.1987L81.9557 33.1982L81.5066 33.3071L80.5585 34.0477C80.5049 34.0893 80.4431 34.119 80.3772 34.135C80.3113 34.151 80.2428 34.1528 80.1762 34.1403L78.9961 33.9156L74.006 32.9648L73.5569 33.0737ZM73.5569 33.0737L78.547 34.0245L80.1407 34.3284C80.234 34.3458 80.3299 34.3433 80.4221 34.3209C80.5144 34.2986 80.6008 34.2569 80.6758 34.1987L81.9557 33.1982L81.5066 33.3071L80.5585 34.0477C80.5049 34.0893 80.4431 34.119 80.3772 34.135C80.3113 34.151 80.2428 34.1528 80.1762 34.1403L78.9961 33.9156L74.006 32.9648L73.5569 33.0737ZM73.5569 33.0737L78.547 34.0245L80.1407 34.3284C80.234 34.3458 80.3299 34.3433 80.4221 34.3209C80.5144 34.2986 80.6008 34.2569 80.6758 34.1987L81.9557 33.1982L81.5066 33.3071L80.5585 34.0477C80.5049 34.0893 80.4431 34.119 80.3772 34.135C80.3113 34.151 80.2428 34.1528 80.1762 34.1403L78.9961 33.9156L74.006 32.9648L73.5569 33.0737Z" fill="#3F3D56"/>
<path d="M93.8678 40.07C93.776 39.6884 93.8391 39.2858 94.0434 38.9507C94.2476 38.6156 94.5762 38.3753 94.9571 38.2825L100.101 37.0357C100.482 36.9449 100.883 37.0088 101.216 37.2135C101.55 37.4181 101.789 37.7469 101.881 38.1277C101.973 38.5085 101.911 38.9103 101.707 39.2451C101.504 39.5799 101.177 39.8204 100.797 39.9139L95.653 41.1607C95.2718 41.2526 94.8698 41.1894 94.5352 40.985C94.2005 40.7805 93.9605 40.4514 93.8678 40.07Z" fill="#005AAB"/>
<path d="M37.0236 35.7446C37.7277 35.7446 38.2985 35.173 38.2985 34.468C38.2985 33.763 37.7277 33.1914 37.0236 33.1914C36.3195 33.1914 35.7487 33.763 35.7487 34.468C35.7487 35.173 36.3195 35.7446 37.0236 35.7446Z" fill="white"/>
</g>
<defs>
<clipPath id="clip0_3226_115">
<rect width="105" height="90" fill="white"/>
</clipPath>
</defs>
</svg>
