<svg width="124" height="90" viewBox="0 0 124 90" fill="none" xmlns="http://www.w3.org/2000/svg">
<g clip-path="url(#clip0_3226_146)">
<path d="M111.52 31.657H111.389C109.97 31.6554 108.609 31.0898 107.605 30.0843C106.601 29.0788 106.036 27.7156 106.034 26.2936V24.4622H90.1001V24.2006H106.296V26.2936C106.297 27.6235 106.817 28.9004 107.743 29.8528C108.67 30.8052 109.931 31.358 111.259 31.3937V24.2006H115.047C115.566 24.2 116.064 23.9931 116.431 23.6252C116.798 23.2574 117.005 22.7586 117.006 22.2384V2.22384C117.005 1.70361 116.798 1.20485 116.431 0.836996C116.064 0.469138 115.566 0.262216 115.047 0.261628H65.1537C64.6343 0.262216 64.1363 0.469138 63.769 0.836996C63.4018 1.20485 63.1952 1.70361 63.1946 2.22384V16.7442H62.9333V2.22384C62.934 1.63424 63.1682 1.06899 63.5844 0.65208C64.0007 0.235173 64.565 0.000663732 65.1537 0H115.047C115.635 0.000663732 116.2 0.235173 116.616 0.65208C117.032 1.06899 117.266 1.63424 117.267 2.22384V22.2384C117.266 22.828 117.032 23.3932 116.616 23.8101C116.2 24.227 115.635 24.4615 115.047 24.4622H111.52V31.657Z" fill="#CCCCCC"/>
<path d="M106.815 6.60745C106.799 6.1854 106.62 5.78609 106.316 5.49322C106.012 5.20034 105.607 5.03662 105.185 5.03638H75.0147C74.5817 5.03638 74.1664 5.20865 73.8603 5.51531C73.5541 5.82196 73.3821 6.23788 73.3821 6.67155C73.3821 7.10523 73.5541 7.52114 73.8603 7.82779C74.1664 8.13445 74.5817 8.30673 75.0147 8.30673H105.185C105.618 8.30613 106.033 8.13366 106.339 7.82713C106.645 7.52061 106.817 7.10504 106.818 6.67155C106.819 6.65015 106.818 6.62874 106.815 6.60745Z" fill="#CCCCCC"/>
<path d="M106.815 12.1016C106.799 11.6795 106.62 11.2802 106.316 10.9874C106.012 10.6945 105.607 10.5308 105.185 10.5305H75.0147C74.5817 10.5305 74.1664 10.7028 73.8603 11.0094C73.5541 11.3161 73.3821 11.732 73.3821 12.1657C73.3821 12.5994 73.5541 13.0153 73.8603 13.3219C74.1664 13.6286 74.5817 13.8009 75.0147 13.8009H105.185C105.618 13.8003 106.033 13.6278 106.339 13.3213C106.645 13.0147 106.817 12.5992 106.818 12.1657C106.819 12.1443 106.818 12.1229 106.815 12.1016Z" fill="#CCCCCC"/>
<path d="M106.816 17.5957C106.799 17.1737 106.62 16.7744 106.316 16.4815C106.012 16.1886 105.607 16.0249 105.185 16.0247H75.0147C74.7754 16.0247 74.539 16.0774 74.3223 16.1791C74.1056 16.2809 73.914 16.4291 73.7609 16.6133C73.6937 16.6948 73.6343 16.7824 73.5833 16.8749H88.0104C88.5298 16.8756 89.0277 17.0825 89.395 17.4504C89.7623 17.8182 89.9689 18.3169 89.9695 18.8372V19.295H105.185C105.618 19.2944 106.033 19.1219 106.339 18.8154C106.645 18.5089 106.818 18.0933 106.818 17.6598C106.819 17.6384 106.818 17.617 106.816 17.5957Z" fill="#CCCCCC"/>
<path d="M3.86896 89.569C3.94001 89.6275 4.01109 89.6834 4.08383 89.7384H22.0301C22.1638 89.6834 22.2969 89.6269 22.4294 89.569C24.324 88.7432 26.0874 87.6436 27.6634 86.3052C28.7098 85.4173 29.6725 84.5005 30.3704 83.6414C31.3441 82.4425 32.2409 81.1359 32.6579 79.6472C33.0741 78.1586 32.9498 76.4521 32.0201 75.2176C31.7322 74.8379 31.3783 74.5132 30.9753 74.2593C30.9085 74.217 30.8408 74.1763 30.7714 74.1382C29.6148 73.5146 28.2655 73.3521 26.9942 73.6832C25.1965 74.1483 23.7026 75.4472 22.6367 76.9707C21.5707 78.4932 20.8787 80.242 20.1969 81.9714C19.5049 78.8847 17.4094 76.12 14.5789 74.7143C11.7491 73.3087 8.23327 73.3256 5.46361 74.8482C4.59214 75.3302 3.80494 75.9512 3.13295 76.6868C3.06616 76.7588 3.00098 76.8326 2.93671 76.9071C1.58573 78.4737 0.74059 80.4801 0.671235 82.5492C0.640053 83.8852 0.911586 85.211 1.46543 86.4268C2.01928 87.6426 2.84103 88.7169 3.86896 89.569Z" fill="#F2F2F2"/>
<path d="M21.3127 89.7383H21.5665C21.5699 89.6816 21.5741 89.6256 21.5792 89.5689C21.6679 88.4606 21.8536 87.3622 22.1342 86.2865C22.7778 83.8305 23.8773 81.5178 25.3751 79.4692C26.8686 77.414 28.7514 75.6733 30.9161 74.3465C30.932 74.3374 30.9455 74.3248 30.9558 74.3097C30.966 74.2946 30.9727 74.2773 30.9753 74.2592C30.9795 74.2356 30.9768 74.2112 30.9676 74.189C30.9585 74.1668 30.9432 74.1476 30.9236 74.1338C30.9041 74.1199 30.8809 74.1119 30.857 74.1108C30.833 74.1096 30.8092 74.1152 30.7884 74.127C30.7825 74.1304 30.7769 74.1341 30.7715 74.1381C29.545 74.8868 28.4065 75.7712 27.3774 76.7748C25.5367 78.5733 24.0524 80.7044 23.003 83.0558C22.0771 85.1151 21.51 87.3179 21.3262 89.5689C21.3212 89.6256 21.317 89.6824 21.3127 89.7383Z" fill="white"/>
<path d="M2.93671 76.907C2.93855 76.9079 2.94056 76.9085 2.94262 76.9087C3.12788 76.9425 3.31401 76.9781 3.49845 77.0163C5.01231 77.3276 6.49424 77.7783 7.92538 78.3626C9.35274 78.946 10.7257 79.6549 12.0283 80.4808C13.3325 81.3063 14.5624 82.2441 15.704 83.2836C16.8456 84.3216 17.8928 85.4592 18.8332 86.683C19.5361 87.5998 20.1752 88.5641 20.7459 89.5688C20.7781 89.6247 20.8094 89.6815 20.8407 89.7383H21.1308C21.1004 89.6815 21.0691 89.6247 21.0369 89.5688C20.3464 88.3377 19.5547 87.1664 18.6699 86.067C17.6915 84.8503 16.6069 83.7232 15.429 82.699C14.2587 81.6806 13.0025 80.7655 11.6747 79.964C10.3413 79.1592 8.93943 78.4741 7.48546 77.9169C6.07449 77.3767 4.61776 76.9649 3.13296 76.6867C3.09153 76.679 3.05093 76.6714 3.00946 76.6638C2.85129 76.635 2.78359 76.8739 2.93671 76.907Z" fill="white"/>
<path d="M7.98328 85.7519C9.75054 85.5084 11.5453 85.5489 13.2998 85.8719C15.0491 86.1922 16.738 86.7836 18.3056 87.6248C19.1865 88.0989 20.0226 88.6522 20.8036 89.2778C20.9312 89.3799 20.7506 89.5587 20.6241 89.4576C19.2537 88.3657 17.7175 87.5008 16.0739 86.8958C14.4434 86.2917 12.7294 85.9435 10.9927 85.8633C10.0101 85.8181 9.02531 85.8628 8.05075 85.997C8.01834 86.0047 7.9842 85.9999 7.95522 85.9834C7.92624 85.967 7.90459 85.9401 7.89465 85.9082C7.88591 85.8757 7.89032 85.8411 7.90691 85.8118C7.9235 85.7825 7.95094 85.761 7.98328 85.7519Z" fill="white"/>
<path d="M87.8798 16.875H37.987C37.3983 16.8758 36.8341 17.1104 36.4178 17.5273C36.0016 17.9441 35.7674 18.5093 35.7666 19.0988V39.1134C35.7674 39.7029 36.0016 40.2681 36.4178 40.6849C36.8341 41.1018 37.3983 41.3364 37.987 41.3372H41.5134V48.532H41.644C43.0638 48.5305 44.425 47.9649 45.4289 46.9594C46.4328 45.9539 46.9975 44.5906 46.999 43.1686V41.3372H87.8798C88.4684 41.3364 89.0326 41.1018 89.4489 40.6849C89.8651 40.2681 90.0993 39.7029 90.1001 39.1134V19.0988C90.0993 18.5093 89.8651 17.9441 89.4489 17.5273C89.0326 17.1104 88.4684 16.8758 87.8798 16.875ZM89.8389 39.1134C89.8383 39.6336 89.6317 40.1323 89.2644 40.5002C88.8971 40.868 88.3992 41.0749 87.8798 41.0756H46.7378V43.1686C46.736 44.4985 46.2165 45.7753 45.2898 46.7277C44.363 47.6801 43.102 48.233 41.7746 48.269V41.0756H37.987C37.4676 41.0749 36.9696 40.868 36.6023 40.5002C36.2351 40.1323 36.0285 39.6336 36.0278 39.1134V19.0988C36.0285 18.5786 36.2351 18.0799 36.6023 17.712C36.9696 17.3442 37.4676 17.1373 37.987 17.1366H87.8798C88.3992 17.1373 88.8971 17.3442 89.2644 17.712C89.6317 18.0799 89.8383 18.5786 89.8389 19.0988V39.1134Z" fill="#3F3D56"/>
<path d="M78.0187 21.9114H47.8479C47.4262 21.9116 47.021 22.0753 46.7171 22.3682C46.4132 22.6611 46.2344 23.0604 46.2179 23.4825C46.2158 23.5037 46.2149 23.5252 46.2153 23.5466C46.2159 23.98 46.3881 24.3956 46.6942 24.7021C47.0002 25.0086 47.4151 25.1811 47.8479 25.1817H78.0187C78.4517 25.1817 78.867 25.0094 79.1731 24.7028C79.4793 24.3961 79.6513 23.9802 79.6513 23.5466C79.6513 23.1129 79.4793 22.697 79.1731 22.3903C78.867 22.0837 78.4517 21.9114 78.0187 21.9114Z" fill="#005AAB"/>
<path d="M78.0187 27.4055H47.8479C47.4262 27.4058 47.021 27.5695 46.7171 27.8624C46.4132 28.1552 46.2344 28.5545 46.2179 28.9766C46.2158 28.9979 46.2149 29.0193 46.2153 29.0407C46.2159 29.4742 46.3881 29.8897 46.6942 30.1963C47.0002 30.5028 47.4151 30.6753 47.8479 30.6759H78.0187C78.4517 30.6759 78.867 30.5036 79.1731 30.1969C79.4793 29.8903 79.6513 29.4744 79.6513 29.0407C79.6513 28.607 79.4793 28.1911 79.1731 27.8844C78.867 27.5778 78.4517 27.4055 78.0187 27.4055Z" fill="#005AAB"/>
<path d="M78.0187 32.8997H47.8479C47.4262 32.8999 47.021 33.0636 46.7171 33.3565C46.4132 33.6494 46.2344 34.0487 46.2179 34.4707C46.2158 34.492 46.2149 34.5134 46.2153 34.5348C46.2159 34.9683 46.3881 35.3839 46.6942 35.6904C47.0002 35.9969 47.4151 36.1694 47.8479 36.17H78.0187C78.4517 36.17 78.867 35.9977 79.1731 35.6911C79.4793 35.3844 79.6513 34.9685 79.6513 34.5348C79.6513 34.1012 79.4793 33.6852 79.1731 33.3786C78.867 33.0719 78.4517 32.8997 78.0187 32.8997Z" fill="#005AAB"/>
<path d="M30.018 61.8383C29.9592 61.8383 29.9005 61.8346 29.8422 61.8272C29.6412 61.8025 29.4477 61.7356 29.2744 61.6308C29.101 61.526 28.9518 61.3857 28.8364 61.2191C28.7209 61.0525 28.642 60.8633 28.6046 60.664C28.5673 60.4647 28.5724 60.2598 28.6197 60.0626C28.6309 60.0168 28.6444 59.9716 28.6602 59.9272L24.3025 54.3397C24.1106 54.0917 24.0037 53.7884 23.9976 53.4748C23.9915 53.1612 24.0865 52.854 24.2685 52.5987L25.7949 50.4753L27.79 52.0169L26.9885 53.396L30.1627 58.9685C30.2265 58.9744 30.2898 58.9848 30.3522 58.9995C30.6942 59.0818 30.9942 59.2868 31.1953 59.5758C31.3965 59.8648 31.4848 60.2176 31.4436 60.5675C31.4024 60.9173 31.2346 61.2399 30.9719 61.4741C30.7091 61.7083 30.3698 61.8379 30.018 61.8383Z" fill="#A0616A"/>
<path d="M37.5596 88.315L39.1609 88.3148L39.9226 82.1289L37.5593 82.129L37.5596 88.315Z" fill="#A0616A"/>
<path d="M42.249 89.8037L37.2165 89.8039L37.2165 87.8565L40.3046 87.8564C40.5599 87.8564 40.8127 87.9067 41.0487 88.0046C41.2846 88.1025 41.4989 88.2459 41.6795 88.4267C41.86 88.6075 42.0033 88.8222 42.101 89.0585C42.1987 89.2947 42.249 89.548 42.249 89.8037Z" fill="#2F2E41"/>
<path d="M24.3681 88.315L25.9693 88.3148L26.731 82.1289L24.3678 82.129L24.3681 88.315Z" fill="#A0616A"/>
<path d="M29.0574 89.8037L24.0249 89.8039L24.0248 87.8565L27.1129 87.8564C27.3683 87.8564 27.6211 87.9067 27.857 88.0046C28.0929 88.1025 28.3073 88.2459 28.4878 88.4267C28.6684 88.6075 28.8116 88.8222 28.9093 89.0585C29.0071 89.2947 29.0574 89.548 29.0574 89.8037Z" fill="#2F2E41"/>
<path d="M25.3508 50.7765L28.9458 52.1447L29.8235 49.7029C29.9401 49.3786 29.9384 49.0236 29.8189 48.7004C29.6993 48.3773 29.4696 48.1069 29.1702 47.937C28.8674 47.7651 28.5132 47.7073 28.1716 47.7741C27.8299 47.8409 27.5234 48.0279 27.3074 48.3012L25.3508 50.7765Z" fill="#005AAB"/>
<path d="M37.2749 83.3214C37.1314 83.3213 36.992 83.2733 36.8787 83.1851C36.7654 83.0968 36.6846 82.9733 36.649 82.834C34.8563 75.9648 33.0361 72.5218 31.0842 68.5405C31.0354 68.4412 30.9563 68.3601 30.8583 68.309C30.7603 68.2579 30.6486 68.2394 30.5394 68.2563C30.4302 68.2732 30.3292 68.3245 30.2512 68.4028C30.1731 68.4811 30.122 68.5823 30.1053 68.6917L27.6859 82.6952C27.6618 82.8514 27.5817 82.9935 27.4608 83.095C27.3398 83.1965 27.1861 83.2505 27.0283 83.247L23.4363 83.1593C23.3492 83.1575 23.2633 83.138 23.1839 83.102C23.1045 83.066 23.0332 83.0143 22.9743 82.9499C22.9121 82.8882 22.8645 82.8133 22.8351 82.7307C22.8056 82.6481 22.795 82.56 22.804 82.4728C24.4309 71.7271 25.7118 62.0003 28.1751 59.0329C28.2434 58.9681 28.3216 58.9148 28.4069 58.8751L28.3322 58.8636C28.3108 58.8603 28.2539 58.8515 28.2532 58.7943L28.2525 58.7389L28.3087 58.7282C28.3984 58.7251 28.4879 58.7386 28.5727 58.768L34.1947 59.6346C34.3504 59.6586 34.4922 59.7385 34.5934 59.8595C34.6947 59.9804 34.7486 60.134 34.7451 60.2918C35.0508 61.7239 35.5191 63.8854 35.561 63.9919C38.5606 69.7034 39.7245 74.201 40.9343 81.881C40.9594 82.0439 40.9219 82.2102 40.8296 82.3465C40.7372 82.4829 40.5968 82.5792 40.4364 82.6161L37.4214 83.3048C37.3733 83.3159 37.3242 83.3214 37.2749 83.3214Z" fill="#2F2E41"/>
<path d="M34.1199 60.571C34.0695 60.571 34.0192 60.5651 33.9701 60.5534L28.4351 59.2346C28.3503 59.2148 28.2704 59.1778 28.2004 59.1258C28.1304 59.0739 28.0718 59.0081 28.0282 58.9326C27.9832 58.8545 27.9544 58.768 27.9435 58.6785C27.9326 58.589 27.9399 58.4981 27.965 58.4115C28.5618 56.339 27.7792 53.7698 26.8445 51.3023C26.7256 50.5807 26.8421 49.8399 27.1766 49.1899C27.5111 48.5398 28.0459 48.015 28.7017 47.6933L28.7167 47.686L31.6227 47.8329C32.0999 47.9583 32.5425 48.1903 32.9173 48.5116C33.292 48.8328 33.5892 49.235 33.7865 49.6878C34.9066 52.3134 35.2273 55.6824 34.7669 59.9875C34.7499 60.1475 34.6745 60.2957 34.5551 60.4034C34.4357 60.5112 34.2807 60.5709 34.1199 60.571Z" fill="#005AAB"/>
<path d="M34.8645 54.5777C34.5691 54.5783 34.2808 54.4866 34.0399 54.3152L31.8961 52.7848L33.4257 50.7791L34.8065 51.5753L40.3549 48.3694C40.3605 48.3055 40.3705 48.242 40.3848 48.1795C40.4499 47.9024 40.5955 47.6509 40.8032 47.4567C41.011 47.2626 41.2715 47.1345 41.552 47.0886C41.8324 47.0428 42.1201 47.0812 42.3787 47.1992C42.6373 47.3171 42.8552 47.5092 43.0048 47.7511C43.1545 47.9931 43.2291 48.274 43.2193 48.5585C43.2094 48.8429 43.1156 49.118 42.9497 49.3491C42.7838 49.5801 42.5532 49.7566 42.2871 49.8564C42.0209 49.9562 41.7313 49.9747 41.4546 49.9096C41.4089 49.8986 41.3637 49.8852 41.3193 49.8696L35.7457 54.2735C35.4944 54.4712 35.184 54.5784 34.8645 54.5777Z" fill="#A0616A"/>
<path d="M31.216 53.4095L34.3962 51.2435L32.9016 49.1234C32.7032 48.8419 32.4117 48.6397 32.0788 48.5526C31.7459 48.4655 31.393 48.499 31.0824 48.6473C30.7682 48.7973 30.5179 49.0548 30.3767 49.3735C30.2355 49.6921 30.2128 50.0508 30.3125 50.3848L31.216 53.4095Z" fill="#005AAB"/>
<path d="M29.6865 46.5989C31.4582 46.5989 32.8944 45.1605 32.8944 43.386C32.8944 41.6116 31.4582 40.1731 29.6865 40.1731C27.9149 40.1731 26.4786 41.6116 26.4786 43.386C26.4786 45.1605 27.9149 46.5989 29.6865 46.5989Z" fill="#A0616A"/>
<path d="M29.9805 46.6732C29.499 46.6712 29.1276 46.1634 29.1492 45.6817C29.1708 45.1999 29.4938 44.7761 29.883 44.4922C30.2723 44.2083 30.7287 44.0354 31.1627 43.8267C31.5968 43.618 32.027 43.3577 32.295 42.957C32.4569 42.6948 32.5536 42.3975 32.5768 42.0901C32.6001 41.7826 32.5493 41.4741 32.4287 41.1905C32.1793 40.6231 31.7511 40.1533 31.2097 39.853C30.4054 39.3815 29.4533 39.2307 28.5431 39.4307C27.6328 39.6307 26.8312 40.1668 26.2978 40.9323L25.7482 42.4311C25.1882 43.1056 25.0994 44.1073 25.4436 44.9139C25.7879 45.7206 26.5209 46.3275 27.3481 46.616C28.1873 46.8861 29.0856 46.9131 29.9395 46.6938" fill="#2F2E41"/>
<path d="M26.5144 41.8626C26.2946 41.5232 25.9948 41.2432 25.6415 41.0472C25.2882 40.8512 24.8922 40.7453 24.4883 40.7388C24.0845 40.7323 23.6853 40.8255 23.3258 41.01C22.9664 41.1945 22.6578 41.4647 22.4273 41.7969C22.0414 42.3529 21.9013 43.0383 21.636 43.6611C21.1554 44.7765 20.2814 45.6754 19.1809 46.1862C20.1445 46.3559 21.1044 45.865 21.8747 45.2609C22.6451 44.6569 23.3225 43.9196 24.1853 43.4575C24.864 43.0954 25.6264 42.92 26.3949 42.9493" fill="#2F2E41"/>
<path d="M53.5156 89.9999H3.75341C3.71877 89.9999 3.68555 89.9861 3.66106 89.9616C3.63656 89.9371 3.6228 89.9038 3.6228 89.8691C3.6228 89.8344 3.63656 89.8011 3.66106 89.7766C3.68555 89.7521 3.71877 89.7383 3.75341 89.7383H53.5156C53.5502 89.7383 53.5835 89.7521 53.608 89.7766C53.6324 89.8011 53.6462 89.8344 53.6462 89.8691C53.6462 89.9038 53.6324 89.9371 53.608 89.9616C53.5835 89.9861 53.5502 89.9999 53.5156 89.9999Z" fill="#3F3D56"/>
<path d="M115.961 47.8779C120.217 47.8779 123.667 44.4225 123.667 40.1599C123.667 35.8974 120.217 32.4419 115.961 32.4419C111.705 32.4419 108.255 35.8974 108.255 40.1599C108.255 44.4225 111.705 47.8779 115.961 47.8779Z" fill="#E6E6E6"/>
<path d="M116.696 45.6609C116.382 45.6521 115.991 45.6411 115.69 45.4211C115.601 45.3529 115.527 45.2658 115.475 45.1661C115.422 45.0664 115.392 44.9564 115.387 44.8438C115.381 44.7638 115.394 44.6836 115.425 44.6095C115.456 44.5354 115.503 44.4694 115.563 44.4166C115.653 44.3496 115.758 44.3061 115.869 44.2902C115.979 44.2742 116.092 44.2863 116.197 44.3252L115.941 42.4499L116.129 42.4241L116.43 44.6288L116.273 44.5566C116.091 44.473 115.841 44.4304 115.686 44.5619C115.648 44.5962 115.618 44.6389 115.599 44.6866C115.58 44.7344 115.572 44.7858 115.576 44.837C115.581 44.9208 115.604 45.0027 115.643 45.077C115.682 45.1513 115.736 45.2163 115.802 45.2675C116.036 45.4388 116.348 45.4609 116.701 45.4709L116.696 45.6609Z" fill="#3F3D56"/>
<path d="M115.011 42.6116H113.988V42.8017H115.011V42.6116Z" fill="#3F3D56"/>
<path d="M118.238 42.6116H117.216V42.8017H118.238V42.6116Z" fill="#3F3D56"/>
<path d="M112.212 39.9859C111.389 39.8919 110.751 39.1017 110.681 38.3C110.598 37.3463 111.152 36.4404 111.913 35.9052C112.709 35.3455 113.7 35.1118 114.659 35.0603C116.53 34.9671 118.369 35.5741 119.818 36.7634C120.537 37.3612 121.208 38.1228 121.462 39.0426C121.683 39.8415 121.503 40.7465 120.862 41.306C120.703 41.4431 120.518 41.5458 120.318 41.6075C120.117 41.6693 119.906 41.6888 119.698 41.6649C119.2 41.6131 118.741 41.351 118.344 41.0615C117.57 40.4983 116.935 39.7138 115.993 39.4195C115.302 39.2037 114.406 39.3937 113.984 40.0194C113.888 40.1626 113.826 40.3257 113.802 40.4965C113.794 40.5329 113.799 40.5713 113.817 40.6039C113.836 40.6364 113.866 40.6608 113.902 40.6719C113.938 40.6817 113.977 40.6768 114.01 40.6581C114.043 40.6395 114.067 40.6087 114.077 40.5723C114.188 39.7842 115.155 39.4902 115.834 39.6701C116.824 39.9326 117.489 40.8173 118.301 41.3794C118.721 41.6933 119.216 41.8913 119.737 41.9536C120.189 41.9891 120.637 41.8512 120.99 41.568C121.684 41.0192 121.95 40.0754 121.796 39.2257C121.618 38.2417 120.957 37.3983 120.232 36.7454C118.761 35.4357 116.851 34.7291 114.883 34.7666C113.88 34.7896 112.832 34.9972 111.968 35.5285C111.129 36.0438 110.481 36.906 110.396 37.9083C110.322 38.7904 110.794 39.7131 111.605 40.0996C111.797 40.1903 112.002 40.2483 112.212 40.2711C112.394 40.2919 112.392 40.0065 112.212 39.9859Z" fill="#3F3D56"/>
</g>
<defs>
<clipPath id="clip0_3226_146">
<rect width="123" height="90" fill="white" transform="translate(0.666748)"/>
</clipPath>
</defs>
</svg>
