<svg width="201" height="90" viewBox="0 0 201 90" fill="none" xmlns="http://www.w3.org/2000/svg">
<g clip-path="url(#clip0_3226_21)">
<path d="M61.8542 0.837293C64.7585 -0.474698 68.3993 -0.330429 70.7754 1.88186C67.3973 2.51523 64.338 4.4027 62.139 7.21034C61.2946 8.29641 60.4614 9.59817 59.1629 9.86753C58.355 10.0352 57.5109 9.74667 56.8212 9.26764C56.1315 8.78855 55.57 8.13103 55.0167 7.48102L54.8241 7.40474C56.6812 4.68547 58.9499 2.14928 61.8542 0.837293Z" fill="#F0F0F0"/>
<path d="M70.739 1.94078C68.1826 1.3758 65.5243 1.68434 63.1417 2.82259C62.6247 3.05791 62.1458 3.37868 61.7224 3.7731C61.3217 4.17154 61.0282 4.67716 60.8726 5.23746C60.7177 5.75677 60.6156 6.3071 60.3451 6.77721C60.2032 7.01565 60.0157 7.21941 59.7949 7.37514C59.574 7.53087 59.3248 7.63504 59.0636 7.68082C58.4154 7.81297 57.7614 7.68881 57.1257 7.5437C56.42 7.38258 55.6894 7.20328 54.972 7.39225C54.8851 7.41514 54.8569 7.26995 54.9437 7.24709C56.1917 6.91832 57.3989 7.65051 58.6477 7.58444C59.2305 7.55361 59.808 7.33527 60.157 6.81188C60.4622 6.3542 60.5679 5.78679 60.7205 5.25953C60.8648 4.71057 61.1329 4.20765 61.5014 3.79469C61.9045 3.37855 62.3712 3.03862 62.8812 2.78946C64.0212 2.20899 65.2396 1.82332 66.4919 1.64656C67.9201 1.43638 69.3714 1.48833 70.7832 1.80017C70.8706 1.81951 70.8258 1.95999 70.739 1.94078Z" fill="white"/>
<path d="M63.8887 2.4079C63.7639 1.95558 63.794 1.47069 63.9734 1.03981C64.1529 0.608931 64.4701 0.260124 64.8684 0.055682C64.9491 0.0146103 65.0128 0.146489 64.9319 0.187615C64.5607 0.377261 64.2652 0.702205 64.0989 1.1038C63.9326 1.5054 63.9063 1.9572 64.0248 2.37765C64.0505 2.46905 63.9142 2.49877 63.8887 2.4079Z" fill="white"/>
<path d="M60.9187 4.96315C61.7081 5.43214 62.6342 5.56653 63.5124 5.33952C63.5994 5.31696 63.6277 5.46214 63.5408 5.48468C62.6265 5.71908 61.663 5.57714 60.8425 5.08718C60.7644 5.04043 60.841 4.91665 60.9187 4.96315Z" fill="white"/>
<path d="M67.8707 1.62584C67.8848 1.81158 67.9419 1.99068 68.0369 2.14706C68.1319 2.30343 68.2619 2.43219 68.4151 2.52176C68.4938 2.56744 68.4171 2.69117 68.3389 2.64579C68.1701 2.54599 68.0267 2.4036 67.9214 2.23108C67.816 2.05856 67.7519 1.86114 67.7346 1.65609C67.7314 1.63691 67.7353 1.61716 67.7453 1.60087C67.7553 1.58458 67.7707 1.57297 67.7885 1.56839C67.8065 1.56448 67.8253 1.56832 67.8407 1.57908C67.856 1.58984 67.8668 1.60664 67.8707 1.62584Z" fill="white"/>
<path d="M70.4912 13.2684C70.4413 13.2414 70.3914 13.2143 70.3404 13.1879C69.6679 12.8282 68.969 12.5273 68.2508 12.2883C68.1955 12.2689 68.1392 12.2501 68.0836 12.2324C66.3474 11.6763 64.5295 11.4689 62.7223 11.6206C62.0032 11.6817 61.2896 11.801 60.5875 11.9776C59.6179 12.2215 58.5848 12.5683 57.6245 12.4595C57.5242 12.4494 57.4246 12.4326 57.3262 12.4093L54.7518 7.66123C54.751 7.64731 54.7492 7.63395 54.7484 7.61998L54.6375 7.43542C54.6731 7.42362 54.7103 7.41219 54.7459 7.40038C54.7666 7.39344 54.7878 7.38757 54.8084 7.38063C54.8223 7.37634 54.8363 7.37209 54.8486 7.36737C54.8533 7.36593 54.8579 7.36453 54.8616 7.3637C54.8739 7.35898 54.8858 7.356 54.8972 7.3519C55.1048 7.28741 55.3132 7.22437 55.5224 7.16278C55.5234 7.16215 55.5234 7.16215 55.525 7.16258C57.1149 6.67698 58.7532 6.39426 60.4055 6.32035C60.4549 6.31886 60.5052 6.31669 60.5557 6.31736C61.295 6.2991 62.0344 6.34531 62.7666 6.45554C63.1673 6.51728 63.5649 6.60061 63.9577 6.70522C64.9723 6.97761 65.9404 7.41853 66.8265 8.0118C68.5928 9.19477 69.9848 10.9671 70.4566 13.1047C70.4687 13.1594 70.4802 13.2131 70.4912 13.2684Z" fill="#F0F0F0"/>
<path d="M70.4289 13.2926C68.7067 11.1998 66.41 9.739 63.8652 9.11774C63.3196 8.97362 62.7561 8.92213 62.1954 8.96519C61.6505 9.02595 61.1308 9.24123 60.6904 9.58868C60.2735 9.90383 59.8814 10.2777 59.4 10.4793C59.1522 10.5786 58.8874 10.6209 58.6232 10.6034C58.359 10.5859 58.1012 10.509 57.8667 10.3778C57.2746 10.067 56.8225 9.54791 56.3969 9.02385C55.9244 8.44198 55.4422 7.8296 54.7628 7.51981C54.6804 7.48227 54.7399 7.34822 54.8221 7.3857C56.0041 7.92469 56.5547 9.28453 57.5891 10.0338C58.0718 10.3834 58.6562 10.58 59.2303 10.3862C59.7323 10.2167 60.137 9.83159 60.5564 9.50859C60.9815 9.16293 61.4794 8.93355 62.0068 8.84047C62.5635 8.76711 63.128 8.79535 63.6759 8.92398C64.9137 9.19259 66.1043 9.66712 67.2039 10.3302C68.4629 11.0795 69.5924 12.0531 70.5435 13.2087C70.6024 13.2802 70.4873 13.3636 70.4289 13.2926Z" fill="white"/>
<path d="M64.6957 9.26639C64.8513 8.82512 65.149 8.45724 65.5355 8.22846C65.922 7.99968 66.3722 7.92488 66.8056 8.01744C66.8932 8.03648 66.8696 8.18265 66.7819 8.16359C66.3784 8.0766 65.9591 8.14631 65.5996 8.36014C65.2401 8.57397 64.9641 8.91782 64.8214 9.32965C64.7903 9.4191 64.6647 9.35533 64.6957 9.26639Z" fill="white"/>
<path d="M60.882 9.39925C61.2475 10.2807 61.9112 10.9827 62.7405 11.3654C62.8227 11.4033 62.7633 11.5373 62.6812 11.4995C61.8189 11.0996 61.1297 10.3675 60.7511 9.44937C60.7151 9.36183 60.8461 9.31219 60.882 9.39925Z" fill="white"/>
<path d="M68.3167 11.1992C68.223 11.3566 68.1675 11.5363 68.1551 11.7221C68.1427 11.908 68.1738 12.0943 68.2456 12.2642C68.2826 12.3512 68.1515 12.4007 68.1147 12.3143C68.0361 12.1262 68.002 11.9204 68.0153 11.715C68.0286 11.5096 68.0889 11.3108 68.1908 11.136C68.1992 11.1186 68.2134 11.1053 68.2306 11.0987C68.2478 11.0922 68.2667 11.0928 68.2834 11.1005C68.3 11.109 68.3129 11.1241 68.3191 11.1426C68.3253 11.1611 68.3244 11.1814 68.3167 11.1992Z" fill="white"/>
<path d="M171.636 87.5345H169.357L168.272 78.1575L171.636 78.1577L171.636 87.5345Z" fill="#A0616A"/>
<path d="M172.217 89.8912L164.868 89.8909V89.7917C164.868 88.9826 165.169 88.2066 165.706 87.6344C166.242 87.0622 166.97 86.7408 167.728 86.7407L172.217 86.7409L172.217 89.8912Z" fill="#2F2E41"/>
<path d="M189.382 86.4823L187.129 86.8456L184.742 77.7469L187.697 77.2107L189.382 86.4823Z" fill="#A0616A"/>
<path d="M190.287 88.7196L183.021 89.8911L183.007 89.7931C182.894 88.993 183.083 88.1777 183.533 87.5264C183.983 86.8751 184.657 86.4413 185.408 86.3203L189.846 85.6047L190.287 88.7196Z" fill="#2F2E41"/>
<path d="M124.372 89.8911H56.2693V17.25H124.372V89.8911Z" fill="white"/>
<path d="M124.372 89.8911H56.2693V17.25H124.372V89.8911ZM57.2756 88.8178H123.366V18.3233H57.2756V88.8178Z" fill="#F0F0F0"/>
<path d="M113.987 48.4775H70.3112V50.1221H113.987V48.4775Z" fill="#005AAB"/>
<path d="M113.987 52.7534H70.3112V54.398H113.987V52.7534Z" fill="#005AAB"/>
<path d="M113.987 57.0291H70.3112V58.6736H113.987V57.0291Z" fill="#005AAB"/>
<path d="M67.66 50.6141C68.2157 50.6141 68.6662 50.1335 68.6662 49.5408C68.6662 48.948 68.2157 48.4675 67.66 48.4675C67.1043 48.4675 66.6538 48.948 66.6538 49.5408C66.6538 50.1335 67.1043 50.6141 67.66 50.6141Z" fill="#005AAB"/>
<path d="M113.987 30.053H70.3112V31.6975H113.987V30.053Z" fill="#F0F0F0"/>
<path d="M113.987 34.3289H70.3112V35.9734H113.987V34.3289Z" fill="#F0F0F0"/>
<path d="M113.987 38.6047H70.3112V40.2493H113.987V38.6047Z" fill="#F0F0F0"/>
<path d="M67.66 32.0108C68.2157 32.0108 68.6662 31.5303 68.6662 30.9375C68.6662 30.3448 68.2157 29.8643 67.66 29.8643C67.1043 29.8643 66.6538 30.3448 66.6538 30.9375C66.6538 31.5303 67.1043 32.0108 67.66 32.0108Z" fill="#F0F0F0"/>
<path d="M113.987 67.0808H70.3112V68.7254H113.987V67.0808Z" fill="#F0F0F0"/>
<path d="M113.987 71.3564H70.3112V73.001H113.987V71.3564Z" fill="#F0F0F0"/>
<path d="M113.987 75.6323H70.3112V77.2769H113.987V75.6323Z" fill="#F0F0F0"/>
<path d="M67.66 69.0384C68.2157 69.0384 68.6662 68.5579 68.6662 67.9651C68.6662 67.3724 68.2157 66.8918 67.66 66.8918C67.1043 66.8918 66.6538 67.3724 66.6538 67.9651C66.6538 68.5579 67.1043 69.0384 67.66 69.0384Z" fill="#E5E5E5"/>
<path d="M160.929 61.1957H121.304C120.71 61.1941 120.229 60.1444 120.228 58.8483V27.4045C120.228 26.1087 120.71 25.0593 121.304 25.0571H160.929C161.523 25.0587 162.004 26.1084 162.005 27.4045V58.8481C162.004 60.1438 161.522 61.194 160.929 61.1957Z" fill="white"/>
<path d="M160.929 61.1957H121.304C120.71 61.1941 120.229 60.1444 120.228 58.8483V27.4045C120.228 26.1087 120.71 25.0593 121.304 25.0571H160.929C161.523 25.0587 162.004 26.1084 162.005 27.4045V58.8481C162.004 60.1438 161.522 61.194 160.929 61.1957ZM121.304 25.996C120.947 25.996 120.659 26.627 120.658 27.4044V58.8481C120.658 59.6255 120.947 60.2557 121.304 60.2565H160.929C161.285 60.2565 161.574 59.6257 161.575 58.8481V27.4045C161.575 26.6271 161.285 25.9968 160.929 25.996L121.304 25.996Z" fill="#E6E6E6"/>
<path d="M146.481 50.6956H135.815V51.5507H146.481V50.6956Z" fill="#005AAB"/>
<path d="M147.812 52.9177H134.388V53.7728H147.812V52.9177Z" fill="#005AAB"/>
<path d="M148.081 39.9086C148.08 41.1938 147.767 42.4569 147.173 43.5746C146.578 44.6923 145.721 45.6263 144.687 46.2854C143.652 46.9446 142.475 47.3063 141.271 47.3353C140.066 47.3643 138.875 47.0595 137.814 46.4508L137.813 46.4493C136.729 45.8264 135.819 44.9082 135.176 43.7881C134.533 42.6681 134.18 41.3862 134.153 40.0732C134.126 38.7602 134.425 37.463 135.021 36.3137C135.617 35.1644 136.488 34.2042 137.545 33.5308C138.602 32.8574 139.808 32.495 141.039 32.4804C142.27 32.4659 143.483 32.7997 144.554 33.4479C145.624 34.0962 146.515 35.0356 147.135 36.1705C147.754 37.3054 148.081 38.5952 148.081 39.9086Z" fill="#CACACA"/>
<path d="M141.152 39.5479C142.197 39.5479 143.045 38.6438 143.045 37.5285C143.045 36.4132 142.197 35.509 141.152 35.509C140.106 35.509 139.259 36.4132 139.259 37.5285C139.259 38.6438 140.106 39.5479 141.152 39.5479Z" fill="white"/>
<path d="M144.385 43.7206C142.268 44.5131 139.96 44.5035 137.849 43.6936L137.848 43.6927L139.259 40.7229H143.045L144.385 43.7206Z" fill="white"/>
<path d="M113.199 72.4392H142.932V58.5337H142.474V71.9511H113.199V72.4392Z" fill="#3F3D56"/>
<path d="M142.703 63.4702C144.092 63.4702 145.219 62.2688 145.219 60.7868C145.219 59.3047 144.092 58.1033 142.703 58.1033C141.313 58.1033 140.187 59.3047 140.187 60.7868C140.187 62.2688 141.313 63.4702 142.703 63.4702Z" fill="#3F3D56"/>
<path d="M58.221 41.9383H18.5955C18.0018 41.9367 17.5207 40.8871 17.5199 39.591V8.14713C17.5199 6.85136 18.0018 5.80196 18.5955 5.7998H58.221C58.8146 5.80142 59.2958 6.8511 59.2966 8.14713V39.5907C59.2958 40.8865 58.8138 41.9367 58.221 41.9383Z" fill="white"/>
<path d="M58.221 41.9383H18.5955C18.0018 41.9367 17.5207 40.8871 17.5199 39.591V8.14713C17.5199 6.85136 18.0018 5.80196 18.5955 5.7998H58.221C58.8146 5.80142 59.2958 6.8511 59.2966 8.14713V39.5907C59.2958 40.8865 58.8138 41.9367 58.221 41.9383ZM18.5955 6.73867C18.2391 6.73867 17.9505 7.36971 17.95 8.14711V39.5907C17.95 40.3681 18.2391 40.9984 18.5955 40.9992H58.221C58.5773 40.9992 58.8659 40.3684 58.8664 39.5907V8.14713C58.8664 7.36973 58.5773 6.73949 58.221 6.73869L18.5955 6.73867Z" fill="#E6E6E6"/>
<path d="M47.2051 15.623C45.4418 13.6262 43.0145 12.4469 40.4447 12.3386V22.834L47.2051 15.623Z" fill="#3F3D56"/>
<path d="M47.2051 16.9299L40.4447 24.1409H49.8926C49.8959 21.4588 48.934 18.8776 47.2051 16.9299Z" fill="#E4E4E4"/>
<path d="M49.9027 24.895C49.9031 25.5492 49.8464 26.2019 49.7332 26.8449C49.7244 26.8958 49.7152 26.9462 49.7054 26.9966C49.4921 28.1181 49.107 29.1944 48.5657 30.1824C48.5369 30.2354 48.5072 30.2884 48.4775 30.3404V30.3409C47.944 31.2773 47.2768 32.1192 46.4999 32.8363C46.4615 32.8721 46.423 32.9074 46.384 32.9422C44.7146 34.4403 42.6245 35.3018 40.4445 35.3903V24.895H49.9027Z" fill="#F0F0F0"/>
<path d="M39.4889 35.3995C39.6197 35.3995 39.7497 35.396 39.8793 35.3906V24.8948L32.7232 32.5277C34.5497 34.375 36.9719 35.4031 39.4889 35.3995Z" fill="#CACACA"/>
<path d="M39.5023 13.636C38.209 13.636 36.9283 13.9077 35.7335 14.4356C34.5386 14.9635 33.4529 15.7373 32.5384 16.7128C31.6239 17.6882 30.8985 18.8462 30.4035 20.1207C29.9086 21.3952 29.6539 22.7612 29.6539 24.1407H39.9028V13.6454C39.7699 13.6397 39.6365 13.636 39.5023 13.636Z" fill="#005AAB"/>
<path d="M37.1528 24.895L35.0822 27.1036L35.0145 27.1758L35.013 27.1774L33.2074 29.1028L33.1387 29.1761L31.1879 31.2568L31.1192 31.3301V31.3306L29.9965 32.5277C29.0216 31.5471 28.2452 30.364 27.7151 29.0514C27.1849 27.7388 26.9122 26.3243 26.9138 24.895H37.1528Z" fill="#005AAB"/>
<path d="M70.4247 53.6096H40.6925V39.7041H41.1499V53.1216H70.4247V53.6096Z" fill="#3F3D56"/>
<path d="M40.9212 44.6409C42.3106 44.6409 43.437 43.4395 43.437 41.9574C43.437 40.4754 42.3106 39.2739 40.9212 39.2739C39.5317 39.2739 38.4053 40.4754 38.4053 41.9574C38.4053 43.4395 39.5317 44.6409 40.9212 44.6409Z" fill="#3F3D56"/>
<path d="M182.355 41.0645L179.824 41.7717L179.993 46.1479L180.014 54.1157C179.764 54.2997 179.573 54.56 179.466 54.8623C179.358 55.1646 179.339 55.4946 179.411 55.8087C179.483 56.1228 179.643 56.4061 179.869 56.6212C180.095 56.8363 180.378 56.9731 180.678 57.0134C180.979 57.0537 181.284 56.9957 181.554 56.847C181.823 56.6983 182.043 56.4659 182.186 56.1806C182.329 55.8953 182.387 55.5705 182.353 55.2492C182.318 54.9279 182.194 54.6253 181.995 54.3813L182.772 46.3843L182.355 41.0645Z" fill="#A0616A"/>
<path d="M183.063 43.696L179.364 42.3674L179.355 42.308C179.35 42.2706 178.807 38.5338 178.814 35.9701C178.807 35.6845 178.858 35.4007 178.964 35.1383C179.07 34.876 179.228 34.6415 179.428 34.4511C179.706 34.1807 180.051 34.0027 180.423 33.939C180.794 33.8753 181.175 33.9286 181.518 34.0925C181.885 34.2538 182.201 34.5244 182.427 34.8719C182.654 35.2194 182.781 35.6291 182.795 36.052L183.063 43.696Z" fill="#E4E4E4"/>
<path d="M176.182 43.3294L170.524 41.7673L167.909 51.1621L167.816 86.1611L172.142 86.1322L173.951 57.8049L185.477 83.9798L190.124 83.3849L179.993 55.3262C179.993 55.3262 180.55 50.3689 178.784 47.8902L179.156 45.3124L176.182 43.3294Z" fill="#2F2E41"/>
<path d="M179.324 46.0064L178.895 45.9993L170.201 42.2925L174.361 32.411L176.335 32.7939L175.976 31.26L180.339 30.1223L181.098 33.3615L182.219 34.4476C182.501 34.7214 182.702 35.0767 182.799 35.4704C182.895 35.864 182.882 36.279 182.762 36.6651L180.181 44.923C180.203 45.0561 180.196 45.1925 180.163 45.3228C180.13 45.453 180.07 45.574 179.988 45.6771C179.907 45.7803 179.805 45.8632 179.69 45.9201C179.575 45.9769 179.45 46.0064 179.324 46.0064Z" fill="#E4E4E4"/>
<path d="M172.785 38.6071L170.498 37.2529L167.784 40.5402L162.637 46.3147C162.338 46.2639 162.031 46.3112 161.757 46.4504C161.484 46.5896 161.256 46.8141 161.105 47.0942C160.953 47.3744 160.885 47.6969 160.909 48.0193C160.934 48.3416 161.049 48.6484 161.24 48.8993C161.432 49.1501 161.69 49.3331 161.981 49.4241C162.272 49.515 162.582 49.5096 162.87 49.4085C163.157 49.3075 163.41 49.1156 163.593 48.8582C163.777 48.6008 163.883 48.2901 163.897 47.9671L169.64 42.76L172.785 38.6071Z" fill="#A0616A"/>
<path d="M171.592 41.0311L169.779 37.3443L169.811 37.2949C169.832 37.2639 171.86 34.1629 173.526 32.3148C173.706 32.1029 173.927 31.9354 174.173 31.8239C174.42 31.7125 174.686 31.6597 174.954 31.6693C175.33 31.6788 175.695 31.8051 176.005 32.0328C176.315 32.2605 176.555 32.5796 176.697 32.9511C176.858 33.338 176.911 33.7661 176.849 34.1842C176.788 34.6022 176.615 34.9926 176.351 35.3085L171.592 41.0311Z" fill="#E4E4E4"/>
<path d="M177.111 29.5195C179.026 29.5195 180.578 27.8638 180.578 25.8215C180.578 23.7792 179.026 22.1235 177.111 22.1235C175.196 22.1235 173.644 23.7792 173.644 25.8215C173.644 27.8638 175.196 29.5195 177.111 29.5195Z" fill="#A0616A"/>
<path d="M172.939 23.6533C173.522 22.54 173.745 22.075 174.497 21.398C175.161 20.7993 175.979 20.6234 176.639 21.1907C177.419 20.8312 178.287 20.7497 179.114 20.9583C179.941 21.1669 180.683 21.6545 181.229 22.3487C181.776 23.0429 182.098 23.9066 182.148 24.8116C182.197 25.7165 181.972 26.6145 181.505 27.372C181.039 28.1295 180.355 28.7062 179.556 29.0164C178.758 29.3266 177.887 29.3538 177.073 29.0939C176.258 28.8339 175.545 28.3008 175.037 27.5737C174.529 26.8466 174.255 25.9642 174.255 25.0577C174.256 24.8985 174.265 24.7394 174.282 24.5813C173.709 24.4955 173.512 23.7392 172.939 23.6533Z" fill="#2F2E41"/>
<path d="M19.608 55.9816C19.7712 55.8769 19.9109 55.7354 20.0173 55.567C20.1237 55.3985 20.1941 55.2072 20.2237 55.0066C20.2533 54.806 20.2412 54.6009 20.1884 54.4058C20.1357 54.2106 20.0434 54.0302 19.9182 53.8772L21.6107 35.7612L18.7845 35.9613L18.0016 53.8C17.7746 54.0414 17.6385 54.3633 17.6191 54.7046C17.5997 55.0459 17.6984 55.3829 17.8964 55.6518C18.0944 55.9208 18.378 56.1028 18.6935 56.1636C19.0089 56.2244 19.3343 56.1596 19.608 55.9816Z" fill="#FFB8B8"/>
<path d="M17.6396 35.0901L18.3805 41.0968L18.2777 44.7782L21.386 45.0817L22.0089 42.0199L22.3522 33.9139C22.378 33.3025 22.1857 32.7034 21.8139 32.2372C21.4421 31.7711 20.9184 31.4726 20.3485 31.4019C19.7572 31.3286 19.1626 31.5062 18.693 31.8964C18.2234 32.2866 17.9164 32.8581 17.8383 33.4875L17.6396 35.0901Z" fill="#2F2E41"/>
<path d="M29.5432 87.9414H31.4287L32.3256 80.1841H29.5428L29.5432 87.9414Z" fill="#FFB7B7"/>
<path d="M29.0623 87.2851L32.7755 87.2849C33.4031 87.2849 34.0051 87.5509 34.4489 88.0242C34.8926 88.4976 35.142 89.1395 35.142 89.8089V89.891L29.0624 89.8912L29.0623 87.2851Z" fill="#2F2E41"/>
<path d="M13.9743 87.9414H15.8598L16.7567 80.1841H13.9739L13.9743 87.9414Z" fill="#FFB7B7"/>
<path d="M13.4933 87.2851L17.2065 87.2849C17.8341 87.285 18.4361 87.5509 18.8799 88.0242C19.3237 88.4976 19.573 89.1395 19.573 89.8089V89.891L13.4934 89.8912L13.4933 87.2851Z" fill="#2F2E41"/>
<path d="M21.3063 28.5467C23.564 28.5467 25.3942 26.5945 25.3942 24.1863C25.3942 21.7781 23.564 19.8259 21.3063 19.8259C19.0486 19.8259 17.2183 21.7781 17.2183 24.1863C17.2183 26.5945 19.0486 28.5467 21.3063 28.5467Z" fill="#FFB8B8"/>
<path d="M21.8345 30.3169L18.9975 30.6627C18.3077 31.7063 17.8604 32.9098 17.6925 34.1741C17.5247 35.4384 17.6411 36.7271 18.0322 37.9339L20.1728 44.5391C20.1728 44.5391 17.2013 50.8933 17.2013 56.7928C17.2013 62.6923 11.5422 83.7505 11.5422 83.7505L19.5079 84.6368L22.9837 62.2038L27.7734 84.5463L33.2413 83.5969L30.2297 54.3034L28.2397 44.6616L28.1549 39.9596C28.1549 39.9596 29.0011 36.4314 26.8833 34.1725L24.2977 30.3295L21.8345 30.3169Z" fill="#2F2E41"/>
<path d="M41.834 45.8497C41.8257 45.6274 41.7718 45.4097 41.6761 45.212C41.5804 45.0142 41.4452 44.8413 41.2801 44.7053C41.1149 44.5693 40.9238 44.4736 40.7203 44.425C40.5167 44.3763 40.3056 44.3758 40.1018 44.4236L24.6751 33.1479L23.3668 36.1496L39.0229 46.347C39.1208 46.7068 39.339 47.0158 39.6363 47.2155C39.9335 47.4151 40.289 47.4915 40.6355 47.4302C40.982 47.3689 41.2954 47.1741 41.5163 46.8829C41.7372 46.5916 41.8502 46.224 41.834 45.8497Z" fill="#FFB8B8"/>
<path d="M21.9792 36.8642L27.78 39.2684L31.0419 41.3127L32.9524 38.2871L30.5225 36.0361L23.4017 31.4152C22.8646 31.0667 22.2236 30.9482 21.608 31.0838C20.9923 31.2193 20.4476 31.5987 20.0838 32.1456C19.7063 32.7129 19.5531 33.4159 19.6572 34.1026C19.7614 34.7894 20.1145 35.405 20.6404 35.8165L21.9792 36.8642Z" fill="#2F2E41"/>
<path d="M26.0716 22.629H20.0645V19.8361C21.3829 19.2773 22.6732 18.8022 23.4531 19.8361C24.1475 19.8361 24.8136 20.1303 25.3046 20.6541C25.7957 21.1779 26.0716 21.8883 26.0716 22.629Z" fill="#2F2E41"/>
<path d="M21.1361 19.5572C17.545 19.5741 16.5398 24.3585 16.5398 27.0672C16.5398 28.5778 17.1803 29.1181 18.1867 29.3009L18.5422 27.2789L19.3747 29.3879C19.6574 29.3894 19.9544 29.3836 20.2623 29.3775L20.5445 28.7576L21.174 29.3664C23.6949 29.3704 27.3583 29.1303 25.7324 27.0672C23.5543 24.3035 24.2663 19.5424 21.1361 19.5572Z" fill="#2F2E41"/>
<path d="M185.744 34.593C185.585 33.9518 185.561 33.2811 185.674 32.629C185.842 31.3697 186.218 30.1548 186.563 28.9371C186.908 27.7194 187.224 26.4778 187.264 25.2065C187.303 23.9353 187.045 22.6174 186.334 21.596C185.624 20.5746 184.412 19.9053 183.233 20.0973C182.107 20.2808 181.123 21.3645 181.118 22.5668C180.916 22.956 181.176 23.4873 181.547 23.7182C181.936 23.9603 182.405 23.9924 182.837 24.1301C183.26 24.2762 183.651 24.5141 183.984 24.8288C184.318 25.1435 184.587 25.5282 184.774 25.9589C185.144 26.8285 185.242 27.8018 185.055 28.7355C184.885 29.6404 184.494 30.4777 184.201 31.346C183.908 32.2143 183.712 33.1676 183.947 34.0556C184.143 34.7114 184.554 35.2697 185.105 35.6278C185.656 35.9859 186.31 36.1195 186.946 36.0041C186.655 35.8863 186.395 35.6971 186.186 35.4519C185.977 35.2067 185.826 34.9124 185.744 34.593Z" fill="#2F2E41"/>
<path d="M200.633 90H1.03391C0.980712 90 0.929688 89.9774 0.892068 89.9373C0.854448 89.8972 0.833313 89.8427 0.833313 89.786C0.833313 89.7292 0.854448 89.6748 0.892068 89.6347C0.929688 89.5946 0.980712 89.572 1.03391 89.572H200.633C200.686 89.572 200.737 89.5946 200.775 89.6347C200.812 89.6748 200.833 89.7292 200.833 89.786C200.833 89.8427 200.812 89.8972 200.775 89.9373C200.737 89.9774 200.686 90 200.633 90Z" fill="#CACACA"/>
<path d="M155.089 79.5977C154.7 76.2592 152.76 72.9698 149.775 71.8833C150.952 75.3196 150.952 79.0893 149.774 82.5254C149.315 83.8488 148.676 85.2698 149.107 86.6036C149.376 87.4335 150.033 88.0684 150.767 88.4655C151.501 88.8625 152.316 89.0517 153.12 89.2372L153.278 89.3768C154.556 86.3008 155.478 82.9362 155.089 79.5977Z" fill="#F0F0F0"/>
<path d="M149.745 71.9464C151.484 74.024 152.564 76.633 152.833 79.4028C152.901 79.998 152.88 80.6008 152.772 81.1892C152.649 81.7587 152.386 82.2828 152.009 82.7069C151.665 83.11 151.27 83.4797 151.024 83.9649C150.901 84.2153 150.83 84.4904 150.814 84.7723C150.798 85.0542 150.838 85.3364 150.932 85.6006C151.149 86.2652 151.577 86.8069 152.013 87.3212C152.497 87.8922 153.009 88.4771 153.214 89.234C153.239 89.3257 153.371 89.2791 153.346 89.1875C152.988 87.8706 151.79 87.1225 151.218 85.9363C150.952 85.3828 150.84 84.7402 151.09 84.1559C151.308 83.645 151.716 83.2633 152.067 82.8584C152.441 82.4504 152.715 81.9511 152.865 81.4041C153.001 80.8235 153.043 80.2225 152.99 79.6268C152.891 78.2836 152.594 76.9654 152.11 75.7207C151.566 74.2967 150.797 72.9826 149.837 71.8352C149.778 71.7642 149.686 71.8759 149.745 71.9464Z" fill="white"/>
<path d="M152.796 78.5055C153.225 78.3942 153.604 78.1237 153.863 77.7423C154.123 77.3609 154.248 76.8934 154.214 76.4233C154.207 76.3282 154.068 76.3354 154.075 76.4306C154.107 76.8684 153.991 77.3039 153.749 77.6585C153.506 78.0132 153.153 78.2636 152.752 78.3647C152.665 78.3867 152.709 78.5274 152.796 78.5055Z" fill="white"/>
<path d="M152.209 82.5271C151.433 82.033 150.86 81.2452 150.605 80.3207C150.58 80.2291 150.448 80.2757 150.473 80.3672C150.74 81.3287 151.338 82.1473 152.146 82.6596C152.223 82.7084 152.285 82.5757 152.209 82.5271Z" fill="white"/>
<path d="M151.437 74.4372C151.279 74.5172 151.105 74.5541 150.931 74.5446C150.756 74.5352 150.587 74.4797 150.437 74.3831C150.361 74.3333 150.299 74.466 150.375 74.5155C150.54 74.6214 150.728 74.6825 150.92 74.6934C151.113 74.7043 151.305 74.6647 151.48 74.578C151.498 74.5713 151.512 74.5579 151.52 74.5405C151.528 74.5231 151.53 74.503 151.525 74.4843C151.519 74.4657 151.506 74.4503 151.49 74.4415C151.473 74.4327 151.454 74.4311 151.437 74.4372Z" fill="white"/>
<path d="M140.676 77.8464C140.723 77.879 140.77 77.9115 140.817 77.9453C141.445 78.3862 142.04 78.8809 142.593 79.4245C142.636 79.4658 142.68 79.5083 142.722 79.5509C144.043 80.8755 145.121 82.4502 145.903 84.1948C146.213 84.8894 146.474 85.6081 146.682 86.3448C146.969 87.3622 147.205 88.4897 147.774 89.3219C147.832 89.4094 147.896 89.493 147.964 89.5722H153.106C153.118 89.5659 153.13 89.5609 153.142 89.5546L153.347 89.5646C153.339 89.5259 153.329 89.4858 153.321 89.447C153.316 89.4245 153.31 89.402 153.306 89.3794C153.302 89.3644 153.299 89.3494 153.296 89.3356C153.295 89.3306 153.294 89.3256 153.293 89.3219C153.291 89.3081 153.287 89.2956 153.285 89.2831C153.233 89.0591 153.18 88.8351 153.125 88.6111C153.125 88.6098 153.125 88.6098 153.124 88.6086C152.722 86.8974 152.131 85.2432 151.364 83.6805C151.341 83.6342 151.317 83.5867 151.291 83.5404C150.936 82.8486 150.528 82.189 150.072 81.5681C149.822 81.229 149.555 80.9036 149.273 80.5933C148.544 79.7928 147.702 79.1197 146.777 78.5985C144.932 77.5599 142.797 77.1619 140.826 77.7964C140.776 77.8126 140.726 77.8289 140.676 77.8464Z" fill="#F0F0F0"/>
<path d="M140.688 77.9161C143.248 78.4585 145.584 79.8478 147.362 81.8866C147.752 82.3182 148.076 82.8127 148.322 83.352C148.545 83.8855 148.631 84.4731 148.569 85.0538C148.522 85.5965 148.415 86.1457 148.492 86.6911C148.536 86.9697 148.634 87.2353 148.78 87.4705C148.927 87.7057 149.118 87.9053 149.342 88.056C149.891 88.4472 150.539 88.6048 151.177 88.7354C151.886 88.8804 152.624 89.019 153.216 89.4913C153.287 89.5485 153.366 89.4265 153.295 89.3694C152.266 88.5478 150.886 88.7202 149.76 88.1402C149.235 87.8695 148.783 87.4283 148.653 86.8012C148.539 86.2529 148.649 85.6864 148.701 85.1374C148.769 84.5719 148.706 83.9972 148.517 83.4637C148.298 82.9129 147.993 82.4059 147.614 81.9644C146.776 80.9559 145.795 80.0942 144.706 79.4108C143.468 78.6235 142.112 78.0679 140.698 77.7682C140.611 77.7497 140.601 77.8977 140.688 77.9161Z" fill="white"/>
<path d="M146.826 81.194C147.106 80.8293 147.256 80.3703 147.248 79.8989C147.24 79.4275 147.075 78.9744 146.783 78.6205C146.723 78.5491 146.617 78.6441 146.676 78.7156C146.949 79.0446 147.102 79.4667 147.109 79.9057C147.115 80.3447 146.974 80.7717 146.711 81.1096C146.654 81.1831 146.769 81.2671 146.826 81.194Z" fill="white"/>
<path d="M148.627 84.7819C147.729 84.8856 146.827 84.6243 146.101 84.0502C146.029 83.9932 145.95 84.1152 146.022 84.1721C146.778 84.768 147.717 85.0379 148.652 84.9278C148.741 84.9172 148.716 84.7714 148.627 84.7819Z" fill="white"/>
<path d="M143.444 78.8184C143.363 78.9836 143.245 79.1248 143.101 79.2293C142.956 79.3338 142.789 79.3983 142.616 79.4171C142.526 79.4265 142.552 79.5723 142.64 79.563C142.832 79.5413 143.016 79.4698 143.176 79.3547C143.336 79.2396 143.468 79.0845 143.559 78.9028C143.568 78.8865 143.572 78.8667 143.569 78.8475C143.566 78.8284 143.556 78.8113 143.541 78.7997C143.526 78.7886 143.507 78.7843 143.489 78.7878C143.471 78.7913 143.455 78.8023 143.444 78.8184Z" fill="white"/>
<path d="M39.3676 79.5977C39.7569 76.2592 41.6966 72.9698 44.6817 71.8833C43.5044 75.3196 43.5047 79.0893 44.6824 82.5254C45.1411 83.8488 45.7804 85.2698 45.349 86.6036C45.0805 87.4335 44.4238 88.0684 43.6897 88.4655C42.9556 88.8625 42.1409 89.0517 41.3364 89.2372L41.178 89.3768C39.9009 86.3008 38.9784 82.9362 39.3676 79.5977Z" fill="#F0F0F0"/>
<path d="M44.7113 71.9464C42.973 74.024 41.8926 76.633 41.6235 79.4028C41.5557 79.998 41.5762 80.6008 41.6844 81.1892C41.8071 81.7587 42.0705 82.2828 42.4474 82.7069C42.7913 83.11 43.1868 83.4797 43.4329 83.9649C43.5554 84.2153 43.6269 84.4904 43.6427 84.7723C43.6585 85.0542 43.6183 85.3364 43.5246 85.6006C43.3074 86.2652 42.8792 86.8069 42.4432 87.3212C41.9591 87.8922 41.4478 88.4771 41.242 89.234C41.2171 89.3257 41.0851 89.2791 41.11 89.1875C41.4681 87.8706 42.6666 87.1225 43.2382 85.9363C43.5049 85.3828 43.6169 84.7402 43.3669 84.1559C43.1482 83.645 42.7406 83.2633 42.3891 82.8584C42.0158 82.4504 41.7419 81.9511 41.5912 81.4041C41.4553 80.8235 41.4131 80.2225 41.4662 79.6268C41.5658 78.2836 41.8628 76.9654 42.3463 75.7207C42.8907 74.2967 43.6595 72.9826 44.6194 71.8352C44.6788 71.7642 44.7704 71.8759 44.7113 71.9464Z" fill="white"/>
<path d="M41.6609 78.5055C41.2314 78.3942 40.8529 78.1237 40.593 77.7423C40.3332 77.3609 40.2089 76.8934 40.2424 76.4233C40.2495 76.3282 40.3884 76.3354 40.3813 76.4306C40.3493 76.8684 40.4651 77.3039 40.7078 77.6585C40.9504 78.0132 41.304 78.2636 41.7045 78.3647C41.7915 78.3867 41.7475 78.5274 41.6609 78.5055Z" fill="white"/>
<path d="M42.2477 82.5271C43.0236 82.033 43.5963 81.2452 43.8517 80.3207C43.8769 80.2291 44.0089 80.2757 43.9837 80.3672C43.7162 81.3287 43.1187 82.1473 42.3103 82.6596C42.2332 82.7084 42.1711 82.5757 42.2477 82.5271Z" fill="white"/>
<path d="M43.0197 74.4372C43.1775 74.5172 43.3514 74.5541 43.5259 74.5446C43.7004 74.5352 43.8699 74.4797 44.0193 74.3831C44.0958 74.3333 44.1578 74.466 44.0818 74.5155C43.9163 74.6214 43.729 74.6825 43.5363 74.6934C43.3435 74.7043 43.1512 74.6647 42.9761 74.578C42.959 74.5713 42.9448 74.5579 42.9366 74.5405C42.9284 74.5231 42.9267 74.503 42.9319 74.4843C42.9378 74.4657 42.9503 74.4503 42.9667 74.4415C42.9831 74.4327 43.0022 74.4311 43.0197 74.4372Z" fill="white"/>
<path d="M53.7804 77.8464C53.7335 77.879 53.6866 77.9115 53.6396 77.9453C53.011 78.3862 52.417 78.8809 51.8634 79.4245C51.82 79.4658 51.7766 79.5083 51.7343 79.5509C50.4138 80.8755 49.3354 82.4502 48.5538 84.1948C48.2433 84.8894 47.9829 85.6081 47.7747 86.3448C47.4873 87.3622 47.2515 88.4897 46.6824 89.3219C46.624 89.4094 46.5605 89.493 46.4924 89.5722H41.3501C41.3384 89.5659 41.3267 89.5609 41.3149 89.5546L41.1096 89.5646C41.1179 89.5259 41.1272 89.4858 41.1355 89.447C41.1402 89.4245 41.146 89.402 41.1507 89.3794C41.1542 89.3644 41.1578 89.3494 41.1601 89.3356C41.1612 89.3306 41.1624 89.3256 41.1636 89.3219C41.1659 89.3081 41.1695 89.2956 41.1718 89.2831C41.2235 89.0591 41.2766 88.8351 41.3314 88.6111C41.3314 88.6098 41.3314 88.6098 41.3325 88.6086C41.7344 86.8974 42.3251 85.2432 43.0924 83.6805C43.1159 83.6342 43.1393 83.5867 43.1651 83.5404C43.5204 82.8486 43.9281 82.189 44.3841 81.5681C44.6348 81.229 44.9015 80.9036 45.1831 80.5933C45.9121 79.7928 46.7546 79.1197 47.6797 78.5985C49.524 77.5599 51.6592 77.1619 53.6303 77.7964C53.6807 77.8126 53.73 77.8289 53.7804 77.8464Z" fill="#F0F0F0"/>
<path d="M53.7689 77.9161C51.2083 78.4585 48.873 79.8478 47.0947 81.8866C46.7046 82.3182 46.3807 82.8127 46.135 83.352C45.9115 83.8855 45.826 84.4731 45.8875 85.0538C45.9346 85.5965 46.0417 86.1457 45.9643 86.6911C45.9208 86.9697 45.8226 87.2353 45.6761 87.4705C45.5296 87.7057 45.3381 87.9053 45.1143 88.056C44.5657 88.4472 43.918 88.6048 43.2796 88.7354C42.5708 88.8804 41.8324 89.019 41.2409 89.4913C41.1692 89.5485 41.0901 89.4265 41.1617 89.3694C42.1909 88.5478 43.5702 88.7202 44.6961 88.1402C45.2215 87.8695 45.6736 87.4283 45.8037 86.8012C45.9176 86.2529 45.8076 85.6864 45.7554 85.1374C45.6877 84.5719 45.7508 83.9972 45.9393 83.4637C46.1585 82.9129 46.464 82.4059 46.8427 81.9644C47.6804 80.9559 48.6615 80.0942 49.7502 79.4108C50.9886 78.6235 52.3442 78.0679 53.7582 77.7682C53.8457 77.7497 53.8559 77.8977 53.7689 77.9161Z" fill="white"/>
<path d="M47.6313 81.194C47.351 80.8293 47.2013 80.3703 47.2092 79.8989C47.217 79.4275 47.3818 78.9744 47.6741 78.6205C47.7334 78.5491 47.8403 78.6441 47.7808 78.7156C47.5081 79.0446 47.3546 79.4667 47.3482 79.9057C47.3417 80.3447 47.4827 80.7717 47.7457 81.1096C47.8027 81.1831 47.6881 81.2671 47.6313 81.194Z" fill="white"/>
<path d="M45.8296 84.7819C46.728 84.8856 47.63 84.6243 48.3557 84.0502C48.4276 83.9932 48.5067 84.1152 48.4349 84.1721C47.6786 84.768 46.7394 85.0379 45.8048 84.9278C45.7157 84.9172 45.741 84.7714 45.8296 84.7819Z" fill="white"/>
<path d="M51.0123 78.8184C51.0931 78.9836 51.2112 79.1248 51.3558 79.2293C51.5004 79.3338 51.6672 79.3983 51.841 79.4171C51.9301 79.4265 51.9047 79.5723 51.8161 79.563C51.6242 79.5413 51.4402 79.4698 51.2801 79.3547C51.12 79.2396 50.9889 79.0845 50.898 78.9028C50.8881 78.8865 50.8844 78.8667 50.8876 78.8475C50.8909 78.8284 50.9009 78.8113 50.9155 78.7997C50.9307 78.7886 50.9494 78.7843 50.9675 78.7878C50.9856 78.7913 51.0017 78.8023 51.0123 78.8184Z" fill="white"/>
</g>
<defs>
<clipPath id="clip0_3226_21">
<rect width="200" height="90" fill="white" transform="translate(0.833313)"/>
</clipPath>
</defs>
</svg>
