<svg width="261" height="222" viewBox="0 0 261 222" fill="none" xmlns="http://www.w3.org/2000/svg">
<g clip-path="url(#clip0_3226_3951)">
<path d="M77.073 219.682C81.2468 216.164 83.782 210.607 83.1172 205.197C82.4523 199.787 78.3344 194.814 72.9928 193.665C67.6512 192.516 61.5622 195.696 59.9398 200.901C59.0469 190.867 58.018 180.412 52.6695 171.867C47.8265 164.129 39.4384 158.593 30.3476 157.602C21.2568 156.612 11.6854 160.353 6.01579 167.51C0.346195 174.667 -1.04198 185.071 2.92886 193.288C5.85403 199.341 11.2432 203.846 16.8898 207.511C35.1358 219.253 57.0195 224.029 78.5145 220.958" fill="#F2F2F2"/>
<path d="M15.0039 160.562C22.505 166.656 29.3864 173.472 35.5486 180.91C45.1925 192.512 52.9964 205.52 58.6885 219.481C59.1052 220.5 57.4472 220.943 57.0352 219.936C53.4154 211.109 48.937 202.657 43.6643 194.702C35.4422 182.275 25.3688 171.17 13.7915 161.771C12.9355 161.076 14.155 159.872 15.0039 160.562Z" fill="white"/>
<path d="M79.9543 219.682C75.7805 216.164 73.2452 210.607 73.9101 205.197C74.575 199.787 78.6929 194.814 84.0345 193.665C89.3761 192.516 95.4651 195.696 97.0875 200.901C97.9804 190.867 99.0093 180.412 104.358 171.867C109.201 164.129 117.589 158.593 126.68 157.602C135.77 156.612 145.342 160.353 151.012 167.51C156.681 174.667 158.069 185.071 154.098 193.288C151.173 199.341 145.784 203.846 140.138 207.511C121.891 219.253 100.008 224.029 78.5128 220.958" fill="#F2F2F2"/>
<path d="M142.025 160.562C134.524 166.656 127.642 173.472 121.48 180.91C111.836 192.512 104.032 205.52 98.34 219.481C97.9234 220.5 99.5814 220.943 99.9934 219.936C109.307 197.247 124.175 177.249 143.237 161.771C144.093 161.076 142.874 159.872 142.025 160.562Z" fill="white"/>
<path d="M92.3403 99.8671C100.062 99.8671 106.321 93.6236 106.321 85.9219C106.321 78.2201 100.062 71.9766 92.3403 71.9766C84.6189 71.9766 78.3594 78.2201 78.3594 85.9219C78.3594 93.6236 84.6189 99.8671 92.3403 99.8671Z" fill="#F2F2F2"/>
<path d="M49.2349 37.8477H145.56V43.1043H61.5316C56.5911 43.1043 51.6989 44.0749 47.1345 45.9607C42.57 47.8465 38.4226 50.6107 34.9291 54.0952C31.4356 57.5798 28.6644 61.7166 26.7738 66.2694C24.8831 70.8222 23.91 75.7019 23.91 80.6299V140.351H13.37C12.9041 140.351 12.4572 140.166 12.1278 139.838C11.7984 139.509 11.6133 139.064 11.6133 138.599V75.3733C11.6133 70.4453 12.5864 65.5656 14.4771 61.0128C16.3677 56.46 19.1389 52.3232 22.6324 48.8386C26.1259 45.354 30.2733 42.5899 34.8377 40.7041C39.4022 38.8183 44.2944 37.8476 49.2349 37.8477Z" fill="#F2F2F2"/>
<path d="M67.7617 219.977V140.129H91.2136V219.977C91.213 220.514 90.999 221.028 90.6185 221.408C90.2381 221.787 89.7222 222.001 89.1841 222.001H69.7912C69.2531 222.001 68.7373 221.787 68.3568 221.408C67.9763 221.028 67.7623 220.514 67.7617 219.977Z" fill="#3F3D56"/>
<path d="M6.65234 138.552V73.623C6.66404 63.2868 10.7858 53.3773 18.1133 46.0685C25.4407 38.7596 35.3756 34.6484 45.7382 34.6367H145.109V140.801H8.90733C8.30948 140.8 7.73632 140.563 7.31358 140.141C6.89083 139.72 6.65303 139.148 6.65234 138.552ZM144.207 35.5364H45.7382C35.6147 35.5479 25.9092 39.5642 18.7508 46.7044C11.5924 53.8445 7.56578 63.5254 7.55434 73.623V138.552C7.55473 138.909 7.6974 139.252 7.95105 139.505C8.20471 139.758 8.54862 139.901 8.90733 139.901H144.207V35.5364Z" fill="#3F3D56"/>
<path d="M92.3427 93.1185C90.1904 93.1161 88.127 92.2622 86.6051 90.7442C85.0832 89.2262 84.2271 87.1681 84.2247 85.0213V26.9909C84.2243 26.6331 84.0817 26.29 83.828 26.037C83.5744 25.784 83.2304 25.6417 82.8717 25.6413H51.3019C50.704 25.6406 50.1309 25.4035 49.7081 24.9818C49.2854 24.5601 49.0476 23.9884 49.0469 23.3921V2.24924C49.0476 1.65292 49.2854 1.08121 49.7081 0.659547C50.1309 0.237883 50.704 0.000690535 51.3019 0H98.2057C98.8035 0.000682218 99.3767 0.237874 99.7994 0.65954C100.222 1.08121 100.46 1.65291 100.461 2.24924V85.0213C100.458 87.1681 99.6022 89.2262 98.0803 90.7442C96.5584 92.2622 94.495 93.1161 92.3427 93.1185Z" fill="#005AAB"/>
<path d="M148.715 33.7383C155.518 33.7241 162.049 36.4063 166.87 41.1949C171.691 45.9834 174.407 52.4861 174.422 59.2724V133.187H224.933C226.963 133.183 228.91 133.982 230.348 135.411C231.786 136.839 232.596 138.778 232.6 140.802H123.008V59.2724C123.022 52.4861 125.738 45.9834 130.559 41.1949C135.38 36.4063 141.911 33.7241 148.715 33.7383Z" fill="#3F3D56"/>
<path d="M142.546 75.831L147.869 97.7638L251.996 72.6211L246.673 50.6883C246.609 50.4201 246.478 50.1725 246.292 49.9684C246.106 49.7643 245.872 49.6104 245.61 49.5209C245.417 49.4532 245.213 49.4225 245.008 49.4306L184.819 18.3452C184.466 18.1656 184.06 18.1176 183.675 18.2099C183.29 18.3023 182.951 18.5288 182.719 18.8487L153.71 59.1973L142.775 74.4124C142.755 74.4391 142.741 74.4697 142.734 74.5021C142.727 74.5346 142.727 74.5682 142.735 74.6006C142.512 74.97 142.444 75.4122 142.546 75.831Z" fill="white"/>
<path d="M142.736 74.6006C142.741 74.6291 142.752 74.6563 142.768 74.6807C142.783 74.7051 142.804 74.7261 142.828 74.7426C142.856 74.762 142.888 74.7753 142.921 74.7819C142.955 74.7885 142.99 74.7883 143.023 74.7811C143.078 74.7667 143.125 74.7337 143.158 74.6879L143.195 74.636L143.765 73.8417L154.106 59.4627L183.105 19.1234C183.271 18.8948 183.513 18.7329 183.788 18.6672C184.063 18.6015 184.352 18.6363 184.603 18.7652L244.327 49.6098L244.863 49.8872C244.885 49.8963 244.907 49.9041 244.929 49.9105C244.97 49.9031 245.011 49.8992 245.052 49.8988C245.108 49.8801 245.155 49.8407 245.183 49.7887C245.197 49.7613 245.206 49.7313 245.209 49.7004C245.212 49.6696 245.209 49.6385 245.2 49.6089C245.19 49.5792 245.175 49.5517 245.156 49.5279C245.136 49.504 245.111 49.4843 245.084 49.4699L245.01 49.4306L184.82 18.3452C184.467 18.1656 184.062 18.1176 183.677 18.2099C183.292 18.3023 182.952 18.5288 182.72 18.8487L153.712 59.1973L142.776 74.4124C142.756 74.4391 142.742 74.4697 142.736 74.5021C142.729 74.5346 142.729 74.5682 142.736 74.6006Z" fill="#3F3D56"/>
<path d="M174.009 76.8376L176.327 77.0941L193.529 78.9948L204.933 80.2541L205.606 80.3288L219.836 69.2424L220.381 68.8177L223.742 66.1995L235.7 56.8849L235.772 56.2306L240.025 17.9422C240.083 17.415 239.929 16.8863 239.597 16.4721C239.265 16.058 238.781 15.7921 238.253 15.7327L181.492 9.46107C180.964 9.4035 180.434 9.55718 180.019 9.88847C179.603 10.2198 179.337 10.7016 179.277 11.2286L176.278 38.2364L174.614 53.21L173.126 66.6057L172.436 72.8268L172.234 74.6287C172.177 75.1562 172.332 75.6848 172.664 76.0988C172.997 76.5129 173.48 76.7785 174.009 76.8376Z" fill="#E6E6E6"/>
<path d="M189.604 43.2749L214.191 45.9911L222.911 46.9541C223.296 46.9966 223.685 46.9631 224.057 46.8554C224.429 46.7478 224.776 46.5681 225.079 46.3267C225.381 46.0852 225.633 45.7867 225.819 45.4482C226.006 45.1098 226.124 44.7379 226.167 44.3539C226.209 43.97 226.176 43.5814 226.068 43.2103C225.96 42.8393 225.78 42.4931 225.538 42.1915C225.296 41.8899 224.996 41.6389 224.657 41.4526C224.318 41.2664 223.945 41.1486 223.56 41.1061L212.715 39.9081L190.255 37.4241C189.478 37.3384 188.698 37.5642 188.087 38.0519C187.476 38.5396 187.085 39.2493 186.998 40.0249C186.912 40.8005 187.138 41.5786 187.627 42.188C188.115 42.7974 188.827 43.1884 189.604 43.2749Z" fill="white"/>
<path d="M188.206 54.123C188.27 54.1343 188.333 54.1456 188.398 54.1518L216.939 57.3057L221.705 57.8333C222.482 57.9191 223.263 57.6932 223.873 57.2054C224.484 56.7175 224.876 56.0075 224.962 55.2318C225.048 54.456 224.821 53.6778 224.332 53.0686C223.843 52.4593 223.131 52.0689 222.353 51.9831L215.463 51.2227L192.854 48.7238L189.05 48.3033C188.289 48.2186 187.525 48.4324 186.919 48.8995C186.313 49.3665 185.913 50.0502 185.804 50.806C185.694 51.5619 185.884 52.3305 186.332 52.9495C186.78 53.5685 187.453 53.9894 188.206 54.123Z" fill="white"/>
<path d="M184.975 63.7434C185.209 64.1307 185.529 64.4591 185.911 64.7029C186.293 64.9467 186.726 65.0995 187.176 65.1494L198.874 66.4417L219.709 68.744L219.714 68.7429L220.38 68.8169L223.741 66.1987C223.762 65.9999 223.762 65.7994 223.741 65.6005C223.671 64.9326 223.373 64.3089 222.899 63.8325C222.424 63.3561 221.801 63.0555 221.132 62.9806L218.237 62.6599L206.756 61.3926L198.495 60.4787L187.825 59.2991C187.278 59.2387 186.725 59.3321 186.229 59.5687C185.732 59.8054 185.312 60.1758 185.016 60.6381C184.719 61.1004 184.558 61.6362 184.551 62.185C184.544 62.7337 184.691 63.2736 184.975 63.7434Z" fill="white"/>
<path d="M201.405 30.015L207.523 30.6908L210.225 30.9901L214.306 31.4407C215.084 31.5265 215.864 31.3006 216.475 30.8127C217.086 30.3248 217.477 29.6149 217.563 28.8391C217.649 28.0633 217.423 27.2852 216.934 26.676C216.445 26.0667 215.733 25.6762 214.955 25.5904L202.057 24.1665C201.279 24.0803 200.499 24.3057 199.888 24.7931C199.277 25.2806 198.886 25.9901 198.799 26.7657C198.713 27.5413 198.939 28.3193 199.428 28.9287C199.916 29.538 200.628 29.9288 201.405 30.015Z" fill="white"/>
<path d="M151.384 46.3029L158.842 77.0337L171.291 79.3946L182.805 81.5812L195.16 83.926L199.107 84.6753C199.339 84.7189 199.576 84.7129 199.805 84.6577C200.033 84.6025 200.248 84.4994 200.433 84.3552L203.6 81.888L205.605 80.3262L219.835 69.2398L210.787 31.9592C210.698 31.5883 210.503 31.2511 210.226 30.988C209.983 30.7552 209.686 30.5871 209.361 30.4993C209.035 30.4115 208.693 30.4067 208.366 30.4854L152.862 43.8876C152.345 44.0127 151.899 44.3374 151.622 44.7902C151.345 45.2431 151.259 45.7871 151.384 46.3029Z" fill="#005AAB"/>
<path d="M168.485 70.7521C168.669 71.5101 169.148 72.1641 169.816 72.5705C170.483 72.9768 171.285 73.1023 172.046 72.9194L204.614 65.0554C205.374 64.8708 206.029 64.3932 206.437 63.7274C206.844 63.0616 206.97 62.2618 206.787 61.5035C206.779 61.4659 206.768 61.4288 206.755 61.3925C206.547 60.6614 206.064 60.0389 205.406 59.6555C204.748 59.2722 203.967 59.1577 203.226 59.3361L170.658 67.2002C169.898 67.3844 169.242 67.8618 168.834 68.5278C168.427 69.1937 168.301 69.9937 168.485 70.7521Z" fill="white"/>
<path d="M171.289 79.3956L182.804 81.5822L207.196 75.6925C207.956 75.5089 208.612 75.0316 209.02 74.3654C209.427 73.6993 209.553 72.899 209.369 72.1406C209.185 71.3822 208.706 70.7278 208.038 70.3213C207.371 69.9148 206.568 69.7896 205.808 69.9732L173.239 77.8373C172.559 78.0003 171.959 78.4011 171.549 78.9671C171.451 79.1023 171.364 79.2457 171.289 79.3956Z" fill="white"/>
<path d="M195.16 83.9286L199.108 84.6779C199.339 84.7215 199.577 84.7155 199.805 84.6603C200.034 84.6051 200.248 84.502 200.433 84.3578L203.6 81.8906L195.16 83.9286Z" fill="white"/>
<path d="M175.048 54.2736C175.232 55.0317 175.711 55.6857 176.379 56.0921C177.046 56.4984 177.848 56.6239 178.609 56.441L191.223 53.3951C191.983 53.2105 192.638 52.7329 193.046 52.0671C193.453 51.4013 193.579 50.6015 193.396 49.8432C193.298 49.4357 193.112 49.0541 192.853 48.7247C192.504 48.2795 192.034 47.9438 191.498 47.7578C190.963 47.5718 190.386 47.5433 189.835 47.6758L177.221 50.7217C176.46 50.9054 175.804 51.3828 175.397 52.0489C174.989 52.715 174.864 53.5152 175.048 54.2736Z" fill="white"/>
<path d="M182.804 81.5835L195.16 83.9288L199.107 84.6785C199.338 84.7215 199.575 84.7152 199.804 84.6601C200.032 84.6049 200.246 84.5022 200.432 84.3585L203.601 81.8907L202.489 82.1593L200.141 83.9861C200.009 84.0887 199.856 84.1621 199.692 84.2015C199.529 84.2409 199.36 84.2454 199.195 84.2147L196.272 83.6603L183.916 81.315L182.804 81.5835ZM219.713 68.7453L219.833 69.2409L220.381 68.8159L219.713 68.7453ZM182.804 81.5835L195.16 83.9288L199.107 84.6785C199.338 84.7215 199.575 84.7152 199.804 84.6601C200.032 84.6049 200.246 84.5022 200.432 84.3585L203.601 81.8907L202.489 82.1593L200.141 83.9861C200.009 84.0887 199.856 84.1621 199.692 84.2015C199.529 84.2409 199.36 84.2454 199.195 84.2147L196.272 83.6603L183.916 81.315L182.804 81.5835ZM182.804 81.5835L195.16 83.9288L199.107 84.6785C199.338 84.7215 199.575 84.7152 199.804 84.6601C200.032 84.6049 200.246 84.5022 200.432 84.3585L203.601 81.8907L202.489 82.1593L200.141 83.9861C200.009 84.0887 199.856 84.1621 199.692 84.2015C199.529 84.2409 199.36 84.2454 199.195 84.2147L196.272 83.6603L183.916 81.315L182.804 81.5835ZM142.546 75.8314L156.489 133.282C156.593 133.706 156.861 134.072 157.235 134.3C157.609 134.527 158.058 134.598 158.484 134.495L259.399 110.128C259.825 110.025 260.192 109.757 260.42 109.385C260.649 109.012 260.719 108.564 260.616 108.139L246.673 50.6886C246.609 50.4205 246.478 50.1729 246.292 49.9688C246.106 49.7647 245.872 49.6108 245.61 49.5213C245.417 49.4535 245.213 49.4229 245.008 49.4309C244.77 49.4378 244.536 49.4991 244.326 49.6101C244.228 49.6562 244.136 49.7131 244.052 49.7798L235.77 56.2305L223.741 65.6024L219.712 68.7419L219.713 68.7453L219.709 68.7461L204.932 80.2523L202.489 82.1593L200.141 83.9861C200.009 84.0887 199.856 84.1621 199.692 84.2015C199.529 84.2409 199.36 84.2454 199.195 84.2147L196.272 83.6603L183.916 81.315L171.549 78.9687L144.461 73.8271C144.23 73.7814 143.992 73.7865 143.763 73.8421C143.455 73.9172 143.175 74.0789 142.957 74.3081C142.873 74.3981 142.799 74.4962 142.735 74.6009C142.512 74.9704 142.444 75.4125 142.546 75.8314ZM182.804 81.5835L195.16 83.9288L199.107 84.6785C199.338 84.7215 199.575 84.7152 199.804 84.6601C200.032 84.6049 200.246 84.5022 200.432 84.3585L203.601 81.8907L202.489 82.1593L200.141 83.9861C200.009 84.0887 199.856 84.1621 199.692 84.2015C199.529 84.2409 199.36 84.2454 199.195 84.2147L196.272 83.6603L183.916 81.315L182.804 81.5835ZM182.804 81.5835L195.16 83.9288L199.107 84.6785C199.338 84.7215 199.575 84.7152 199.804 84.6601C200.032 84.6049 200.246 84.5022 200.432 84.3585L203.601 81.8907L202.489 82.1593L200.141 83.9861C200.009 84.0887 199.856 84.1621 199.692 84.2015C199.529 84.2409 199.36 84.2454 199.195 84.2147L196.272 83.6603L183.916 81.315L182.804 81.5835ZM182.804 81.5835L195.16 83.9288L199.107 84.6785C199.338 84.7215 199.575 84.7152 199.804 84.6601C200.032 84.6049 200.246 84.5022 200.432 84.3585L203.601 81.8907L202.489 82.1593L200.141 83.9861C200.009 84.0887 199.856 84.1621 199.692 84.2015C199.529 84.2409 199.36 84.2454 199.195 84.2147L196.272 83.6603L183.916 81.315L182.804 81.5835Z" fill="white"/>
<path d="M182.804 81.5835L195.16 83.9288L199.107 84.6784C199.338 84.7215 199.575 84.7152 199.804 84.6601C200.032 84.6049 200.246 84.5021 200.432 84.3585L203.601 81.8907L202.489 82.1592L200.141 83.9861C200.009 84.0887 199.856 84.1621 199.692 84.2015C199.529 84.2409 199.36 84.2454 199.195 84.2146L196.272 83.6602L183.916 81.3149L182.804 81.5835ZM219.713 68.7453L219.833 69.2409L220.381 68.8159L219.713 68.7453ZM182.804 81.5835L195.16 83.9288L199.107 84.6784C199.338 84.7215 199.575 84.7152 199.804 84.6601C200.032 84.6049 200.246 84.5021 200.432 84.3585L203.601 81.8907L202.489 82.1592L200.141 83.9861C200.009 84.0887 199.856 84.1621 199.692 84.2015C199.529 84.2409 199.36 84.2454 199.195 84.2146L196.272 83.6602L183.916 81.3149L182.804 81.5835ZM182.804 81.5835L195.16 83.9288L199.107 84.6784C199.338 84.7215 199.575 84.7152 199.804 84.6601C200.032 84.6049 200.246 84.5021 200.432 84.3585L203.601 81.8907L202.489 82.1592L200.141 83.9861C200.009 84.0887 199.856 84.1621 199.692 84.2015C199.529 84.2409 199.36 84.2454 199.195 84.2146L196.272 83.6602L183.916 81.3149L182.804 81.5835ZM143.194 74.6363L143.255 74.6822C143.266 74.6655 143.283 74.6504 143.297 74.6329C143.434 74.491 143.603 74.3852 143.791 74.3249C143.979 74.2647 144.179 74.2518 144.373 74.2875L171.291 79.3951L182.804 81.5835L195.16 83.9288L199.107 84.6784C199.338 84.7215 199.575 84.7152 199.804 84.6601C200.032 84.6049 200.246 84.5021 200.432 84.3585L203.601 81.8907L202.489 82.1592L200.141 83.9861C200.009 84.0887 199.856 84.1621 199.692 84.2015C199.529 84.2409 199.36 84.2454 199.195 84.2146L196.272 83.6602L183.916 81.3149L171.549 78.9687L144.461 73.8271C144.23 73.7814 143.992 73.7865 143.763 73.8421L143.194 74.6363ZM142.546 75.8314L156.489 133.282C156.593 133.706 156.861 134.072 157.235 134.3C157.609 134.527 158.058 134.598 158.484 134.495L259.399 110.128C259.825 110.025 260.192 109.757 260.42 109.385C260.649 109.012 260.719 108.564 260.616 108.139L246.673 50.6886C246.609 50.4205 246.478 50.1729 246.292 49.9688C246.106 49.7647 245.872 49.6108 245.61 49.5213C245.417 49.4535 245.213 49.4229 245.008 49.4309C244.77 49.4378 244.536 49.4991 244.326 49.6101C244.228 49.6562 244.136 49.7131 244.052 49.7798L235.77 56.2305L223.741 65.6024L219.712 68.7419L219.713 68.7453L219.709 68.7461L204.932 80.2523L202.489 82.1592L200.141 83.9861C200.009 84.0887 199.856 84.1621 199.692 84.2015C199.529 84.2409 199.36 84.2454 199.195 84.2146L196.272 83.6602L183.916 81.3149L171.549 78.9687L144.461 73.8271C144.23 73.7814 143.992 73.7865 143.763 73.8421C143.455 73.9172 143.175 74.0789 142.957 74.3081C142.873 74.3981 142.799 74.4962 142.735 74.6009C142.512 74.9704 142.444 75.4125 142.546 75.8314ZM143.006 75.7203C142.965 75.551 142.962 75.3746 142.998 75.2041C143.034 75.0336 143.108 74.8733 143.214 74.7349C143.224 74.7146 143.238 74.6966 143.255 74.6822C143.266 74.6655 143.283 74.6504 143.297 74.6329C143.434 74.491 143.603 74.3852 143.791 74.3249C143.979 74.2647 144.179 74.2518 144.373 74.2875L171.291 79.3951L182.804 81.5835L195.16 83.9288L199.107 84.6784C199.338 84.7215 199.575 84.7152 199.804 84.6601C200.032 84.6049 200.246 84.5021 200.432 84.3585L203.601 81.8907L205.605 80.3289L219.833 69.2409L220.381 68.8159L223.739 66.1989L235.699 56.8828L244.345 50.1479C244.477 50.0457 244.628 49.9725 244.79 49.9333C244.836 49.9223 244.882 49.9147 244.928 49.9108C244.968 49.9035 245.009 49.8996 245.05 49.8991C245.189 49.8978 245.326 49.9202 245.457 49.9652C245.643 50.0299 245.81 50.1401 245.943 50.2857C246.076 50.4313 246.17 50.6077 246.217 50.7988L260.16 108.249C260.197 108.4 260.203 108.556 260.179 108.709C260.155 108.862 260.101 109.009 260.021 109.141C259.94 109.273 259.833 109.388 259.708 109.48C259.582 109.571 259.44 109.637 259.289 109.673L158.373 134.04C158.069 134.113 157.748 134.063 157.481 133.899C157.214 133.736 157.023 133.474 156.949 133.17L143.006 75.7203ZM182.804 81.5835L195.16 83.9288L199.107 84.6784C199.338 84.7215 199.575 84.7152 199.804 84.6601C200.032 84.6049 200.246 84.5021 200.432 84.3585L203.601 81.8907L202.489 82.1592L200.141 83.9861C200.009 84.0887 199.856 84.1621 199.692 84.2015C199.529 84.2409 199.36 84.2454 199.195 84.2146L196.272 83.6602L183.916 81.3149L182.804 81.5835ZM182.804 81.5835L195.16 83.9288L199.107 84.6784C199.338 84.7215 199.575 84.7152 199.804 84.6601C200.032 84.6049 200.246 84.5021 200.432 84.3585L203.601 81.8907L202.489 82.1592L200.141 83.9861C200.009 84.0887 199.856 84.1621 199.692 84.2015C199.529 84.2409 199.36 84.2454 199.195 84.2146L196.272 83.6602L183.916 81.3149L182.804 81.5835ZM182.804 81.5835L195.16 83.9288L199.107 84.6784C199.338 84.7215 199.575 84.7152 199.804 84.6601C200.032 84.6049 200.246 84.5021 200.432 84.3585L203.601 81.8907L202.489 82.1592L200.141 83.9861C200.009 84.0887 199.856 84.1621 199.692 84.2015C199.529 84.2409 199.36 84.2454 199.195 84.2146L196.272 83.6602L183.916 81.3149L182.804 81.5835Z" fill="#3F3D56"/>
<path d="M233.098 98.838C232.871 97.8966 233.027 96.9037 233.533 96.0772C234.038 95.2506 234.852 94.6578 235.795 94.4289L248.532 91.3535C249.475 91.1294 250.468 91.287 251.294 91.7919C252.12 92.2967 252.712 93.1076 252.94 94.0469C253.168 94.9862 253.014 95.9773 252.51 96.8032C252.007 97.6291 251.196 98.2223 250.255 98.453L237.518 101.528C236.575 101.755 235.579 101.599 234.75 101.095C233.922 100.591 233.328 99.7789 233.098 98.838Z" fill="#005AAB"/>
<path d="M92.3406 88.169C94.0841 88.169 95.4976 86.7591 95.4976 85.02C95.4976 83.2809 94.0841 81.8711 92.3406 81.8711C90.597 81.8711 89.1836 83.2809 89.1836 85.02C89.1836 86.7591 90.597 88.169 92.3406 88.169Z" fill="white"/>
</g>
<defs>
<clipPath id="clip0_3226_3951">
<rect width="260" height="222" fill="white" transform="translate(0.664062)"/>
</clipPath>
</defs>
</svg>
