<svg width="252" height="224" viewBox="0 0 252 224" fill="none" xmlns="http://www.w3.org/2000/svg">
<g clip-path="url(#clip0_3226_3902)">
<path d="M49.2713 223.106C51.8025 220.968 53.34 217.593 52.9368 214.306C52.5336 211.02 50.0363 207.998 46.7969 207.3C43.5575 206.602 39.8649 208.534 38.881 211.696C38.3395 205.6 37.7155 199.249 34.4719 194.058C31.535 189.357 26.448 185.994 20.935 185.392C15.4219 184.791 9.6174 187.063 6.17912 191.411C2.74083 195.759 1.89897 202.08 4.30706 207.071C6.08102 210.749 9.34927 213.485 12.7736 215.712C23.6983 222.814 37.2504 225.214 50.1455 223.318L49.2713 223.106Z" fill="#F2F2F2"/>
<path d="M11.6308 187.188C16.1797 190.89 20.3529 195.031 24.09 199.55C27.8276 204.064 31.1182 208.93 33.9155 214.079C35.4791 216.968 36.8837 219.94 38.1231 222.981C38.3758 223.6 37.3703 223.869 37.1204 223.257C34.9252 217.895 32.2093 212.761 29.0117 207.928C25.8297 203.113 22.1876 198.617 18.1368 194.505C15.8456 192.18 13.4282 189.982 10.8955 187.922C10.3764 187.5 11.116 186.769 11.6308 187.188Z" fill="white"/>
<path d="M230.478 92.6821H195.853C195.331 92.6816 194.83 92.4739 194.461 92.1049C194.091 91.7358 193.883 91.2354 193.883 90.7134V86.5625C193.883 86.0405 194.091 85.5401 194.461 85.171C194.83 84.8019 195.331 84.5943 195.853 84.5938H230.478C231.001 84.5943 231.502 84.8019 231.871 85.171C232.24 85.5401 232.448 86.0405 232.449 86.5625V90.7134C232.448 91.2354 232.24 91.7358 231.871 92.1049C231.502 92.4739 231.001 92.6816 230.478 92.6821Z" fill="#005AAB"/>
<path d="M225.803 86.3348L211.046 73.0407C210.729 72.7541 210.32 72.5881 209.892 72.5717C209.464 72.5552 209.044 72.6894 208.705 72.9508L176.412 83.6048C175.951 83.7572 175.57 84.086 175.352 84.5189C175.134 84.9517 175.096 85.4534 175.248 85.9138L176.55 89.8556C176.625 90.0838 176.745 90.295 176.902 90.477C177.058 90.6591 177.25 90.8084 177.464 90.9164C177.679 91.0244 177.913 91.089 178.153 91.1065C178.393 91.1239 178.633 91.094 178.861 91.0182L208.485 81.2451L220.57 92.1332C220.905 92.4365 221.341 92.6043 221.793 92.6036C221.825 92.6036 221.858 92.6028 221.89 92.601C222.13 92.5893 222.365 92.5301 222.583 92.4269C222.8 92.3236 222.994 92.1784 223.154 91.9995L225.936 88.9167C226.261 88.5564 226.429 88.0822 226.404 87.5982C226.379 87.1141 226.163 86.6598 225.803 86.3348Z" fill="#005AAB"/>
<path d="M62.4037 185.746C61.9559 185.747 61.5267 185.925 61.21 186.241C60.8934 186.557 60.7153 186.986 60.7148 187.434V222.031C60.7153 222.478 60.8934 222.907 61.21 223.223C61.5267 223.54 61.9559 223.718 62.4037 223.718H66.5582C67.0059 223.718 67.4352 223.54 67.7518 223.223C68.0684 222.907 68.2465 222.478 68.247 222.031V187.434C68.2465 186.986 68.0684 186.557 67.7518 186.241C67.4352 185.925 67.0059 185.747 66.5582 185.746H62.4037Z" fill="#005AAB"/>
<path d="M75.3396 223.999H71.1852C70.6628 223.999 70.162 223.791 69.7926 223.422C69.4232 223.053 69.2154 222.553 69.2148 222.031V187.434C69.2154 186.912 69.4232 186.411 69.7926 186.042C70.162 185.673 70.6628 185.465 71.1852 185.465H75.3396C75.862 185.465 76.3628 185.673 76.7322 186.042C77.1015 186.411 77.3093 186.912 77.3099 187.434V222.031C77.3093 222.553 77.1015 223.053 76.7322 223.422C76.3628 223.791 75.862 223.999 75.3396 223.999Z" fill="#005AAB"/>
<path d="M82.1413 190.113C82.1413 190.113 83.7109 204.215 67.8652 203.736C52.0195 203.257 58.1845 189.4 58.1845 189.4C58.1845 189.4 61.4959 186.8 69.8665 189.315C78.2371 191.829 82.1413 190.113 82.1413 190.113Z" fill="#CCCCCC"/>
<path d="M75.3312 166.114C74.4609 166.115 73.6132 165.836 72.914 165.318C72.2148 164.8 71.7014 164.071 71.4499 163.238C71.1985 162.406 71.2223 161.514 71.518 160.697C71.8137 159.879 72.3654 159.178 73.0914 158.698L100.233 140.749C100.449 140.606 100.691 140.507 100.945 140.458C101.199 140.409 101.46 140.41 101.714 140.461C101.967 140.513 102.208 140.614 102.423 140.759C102.637 140.903 102.821 141.089 102.964 141.304L105.257 144.766C105.544 145.201 105.648 145.733 105.543 146.245C105.439 146.756 105.136 147.205 104.701 147.494L77.5591 165.443C76.8987 165.881 76.1237 166.114 75.3312 166.114Z" fill="#005AAB"/>
<path d="M70.402 149.499C78.3302 149.499 84.7572 143.078 84.7572 135.156C84.7572 127.234 78.3302 120.812 70.402 120.812C62.4739 120.812 56.0469 127.234 56.0469 135.156C56.0469 143.078 62.4739 149.499 70.402 149.499Z" fill="#005AAB"/>
<path d="M70.4141 141.177C71.3446 141.151 72.5027 141.119 73.3949 140.468C73.6606 140.266 73.8789 140.008 74.0344 139.713C74.19 139.418 74.2792 139.093 74.2956 138.76C74.3118 138.523 74.2729 138.286 74.1821 138.067C74.0912 137.847 73.9509 137.652 73.772 137.496C73.306 137.103 72.6256 137.01 71.8923 137.226L72.652 131.678L72.0943 131.602L71.2011 138.124L71.6669 137.91C72.2068 137.663 72.948 137.537 73.4086 137.926C73.5217 138.027 73.6098 138.154 73.6661 138.295C73.7224 138.436 73.7453 138.588 73.7331 138.74C73.7194 138.988 73.6525 139.23 73.5368 139.45C73.4212 139.669 73.2595 139.862 73.0628 140.013C72.3685 140.52 71.4454 140.585 70.3984 140.615L70.4141 141.177Z" fill="#2F2E41"/>
<path d="M78.4421 132.156H75.4102V132.719H78.4421V132.156Z" fill="#2F2E41"/>
<path d="M68.8718 132.156H65.8398V132.719H68.8718V132.156Z" fill="#2F2E41"/>
<path d="M55.9022 193.086C55.9022 193.086 54.6627 150.979 72.0148 153.869C89.3669 156.758 82.1369 197.42 82.1369 197.42C82.1369 197.42 78.4186 204.851 69.3294 196.594C60.2402 188.338 55.9022 193.086 55.9022 193.086Z" fill="#2F2E41"/>
<path d="M62.3058 123.038C65.0989 121.143 68.6242 122.43 71.3383 123.783C73.9741 125.096 76.9443 126.767 79.9267 125.502C81.0914 125.008 82.0381 124.041 82.2027 122.749C82.3987 121.208 81.4665 119.766 80.4298 118.719C79.303 117.642 77.9903 116.777 76.5552 116.168C75.1483 115.535 73.6662 115.085 72.1451 114.828C69.1319 114.308 66.0378 114.514 63.1207 115.431C60.2036 116.347 57.5479 117.946 55.3746 120.096C53.2722 122.238 51.6478 124.802 50.6084 127.617C49.5689 130.432 49.138 133.435 49.3439 136.428C49.5811 139.619 50.601 142.873 52.6471 145.377C54.5669 147.728 57.4415 149.38 60.5096 149.518C61.2614 149.553 62.0146 149.492 62.7508 149.336C63.2808 149.223 63.5073 150.036 62.9753 150.149C59.7799 150.83 56.4696 149.819 53.9352 147.827C51.2672 145.73 49.6303 142.556 48.9126 139.285C47.5391 133.026 49.2597 126.29 53.2027 121.279C55.1497 118.783 57.6719 116.795 60.5541 115.483C63.5309 114.155 66.7827 113.559 70.0374 113.744C73.2832 113.907 76.432 114.904 79.1794 116.638C81.6369 118.225 84.4065 121.589 82.4023 124.565C81.6529 125.678 80.4087 126.356 79.117 126.635C77.6347 126.923 76.1012 126.79 74.6911 126.25C71.4805 125.117 68.5111 122.586 64.9175 122.969C64.1342 123.05 63.3833 123.324 62.7319 123.766C62.2812 124.072 61.8582 123.342 62.3058 123.038Z" fill="#2F2E41"/>
<path d="M184.951 57.7099C184.301 57.2926 183.79 56.6921 183.481 55.9842C183.173 55.2763 183.081 54.493 183.218 53.7331C183.355 52.9733 183.715 52.2712 184.251 51.7155C184.788 51.1598 185.477 50.7756 186.232 50.6114L218.035 43.6938C218.509 43.5912 219.005 43.6807 219.413 43.9427C219.821 44.2047 220.108 44.6177 220.212 45.0912L221.096 49.1473C221.147 49.3819 221.151 49.6242 221.109 49.8605C221.066 50.0967 220.977 50.3223 220.847 50.5243C220.718 50.7263 220.549 50.9007 220.352 51.0376C220.154 51.1746 219.932 51.2713 219.697 51.3224L187.894 58.2399C187.756 58.2699 187.617 58.2926 187.477 58.3078C186.591 58.4043 185.699 58.1931 184.951 57.7099Z" fill="#005AAB"/>
<path d="M182.347 55.418C182.328 55.3426 182.311 55.2664 182.296 55.1893C182.035 53.8131 182.513 52.3641 183.641 51.1091C184.867 49.8058 186.468 48.9149 188.222 48.5595L202.721 45.3899C202.96 45.3377 203.207 45.3338 203.447 45.3786C203.688 45.4234 203.917 45.5158 204.121 45.6505C204.325 45.7852 204.5 45.9594 204.635 46.1628C204.771 46.3662 204.864 46.5946 204.91 46.8347L206.175 53.4928C206.266 53.9608 206.17 54.4459 205.907 54.8436C205.644 55.2414 205.235 55.5201 204.768 55.6196L190.178 58.809C189.52 58.9541 188.848 59.0279 188.174 59.0293C185.3 59.0293 182.907 57.6303 182.347 55.418Z" fill="#2F2E41"/>
<path d="M184.886 40.519C192.815 40.519 199.242 34.0972 199.242 26.1755C199.242 18.2538 192.815 11.832 184.886 11.832C176.958 11.832 170.531 18.2538 170.531 26.1755C170.531 34.0972 176.958 40.519 184.886 40.519Z" fill="#005AAB"/>
<path d="M197 31.3527C197.931 31.3269 199.089 31.2946 199.981 30.6434C200.247 30.4415 200.465 30.1841 200.62 29.889C200.776 29.594 200.865 29.2686 200.882 28.9355C200.898 28.6988 200.859 28.4615 200.768 28.2423C200.677 28.0231 200.537 27.8278 200.358 27.6718C199.892 27.2784 199.211 27.1861 198.478 27.4014L199.238 21.8537L198.68 21.7773L197.787 28.2994L198.253 28.0858C198.793 27.8384 199.534 27.7125 199.995 28.1014C200.108 28.203 200.196 28.3294 200.252 28.4706C200.308 28.6119 200.331 28.7642 200.319 28.9157C200.305 29.1636 200.238 29.4057 200.123 29.6254C200.007 29.8451 199.845 30.0374 199.649 30.1891C198.954 30.6959 198.031 30.7612 196.984 30.7905L197 31.3527Z" fill="#2F2E41"/>
<path d="M195.458 22.3359H192.426V22.8984H195.458V22.3359Z" fill="#2F2E41"/>
<path d="M183.882 11.7913C183.777 10.0958 183.308 8.44275 182.507 6.94409C181.707 5.44543 180.593 4.13617 179.242 3.10495C177.846 2.07204 176.235 1.3668 174.529 1.04164C172.822 0.716477 171.065 0.779764 169.386 1.2268C167.718 1.65979 166.171 2.46542 164.86 3.58294C163.549 4.70046 162.51 6.10072 161.819 7.67815C161.125 9.24384 160.778 10.9415 160.803 12.654C160.88 14.5164 161.343 16.3425 162.163 18.0166C163.009 19.8593 164.077 21.5882 165.004 23.3895C165.917 25.1659 166.705 27.0038 167.362 28.8898C168.699 32.7328 169.487 36.7446 169.704 40.8072C170.049 47.2114 169.436 56.5609 162.2 59.0187C160.36 59.6437 158.376 59.76 156.446 59.7549C154.415 59.7797 152.388 59.5425 150.417 59.0493C147.001 58.1379 143.759 55.9979 142.303 52.673C141.968 51.9052 141.743 51.0938 141.635 50.263C141.605 50.0352 141.851 49.8433 142.058 49.8411C142.169 49.8437 142.275 49.889 142.353 49.9676C142.432 50.0461 142.477 50.1519 142.48 50.263C142.951 53.8061 145.906 56.5232 149.114 57.7447C150.988 58.4235 152.958 58.8042 154.95 58.8728C156.934 58.9729 158.993 58.9574 160.935 58.5014C162.664 58.1276 164.237 57.2342 165.443 55.9413C166.518 54.7047 167.319 53.2555 167.796 51.6882C168.938 48.205 169.057 44.3752 168.857 40.7448C168.63 36.6955 167.824 32.6995 166.465 28.8781C165.778 26.9487 164.95 25.0726 163.987 23.2651C163.046 21.4971 162.001 19.7791 161.209 17.9363C160.435 16.2425 160.009 14.4107 159.958 12.5495C159.951 10.8306 160.294 9.1283 160.964 7.54527C161.623 5.95595 162.611 4.52388 163.863 3.34308C165.115 2.16227 166.603 1.25946 168.229 0.693908C169.883 0.118532 171.64 -0.104883 173.385 0.0380035C175.131 0.18089 176.828 0.686921 178.366 1.52362C179.83 2.36424 181.112 3.48637 182.139 4.82514C183.166 6.1639 183.917 7.69276 184.349 9.32334C184.559 10.131 184.686 10.9579 184.727 11.7913C184.755 12.334 183.91 12.3325 183.882 11.7913Z" fill="#2F2E41"/>
<path d="M181.075 12.0894C180.845 10.5245 180.06 9.09412 178.864 8.05834C177.592 6.9933 175.962 6.45265 174.305 6.5465C173.762 6.57365 173.764 5.72984 174.305 5.70277C176.106 5.62165 177.873 6.20464 179.272 7.34086C180.67 8.47707 181.602 10.0872 181.89 11.8651C181.971 12.3963 181.157 12.6253 181.075 12.0894Z" fill="#2F2E41"/>
<path d="M179.301 12.1357C179.172 11.7462 179.203 11.3215 179.388 10.9551C179.573 10.5887 179.896 10.3106 180.285 10.182L184.295 8.85925C184.684 8.73062 185.11 8.76201 185.476 8.94651C185.843 9.13101 186.121 9.45351 186.25 9.84305C186.379 10.2326 186.347 10.6573 186.163 11.0237C185.978 11.3901 185.655 11.6682 185.265 11.7968L181.256 13.1195C181.063 13.1833 180.859 13.2084 180.657 13.1935C180.454 13.1785 180.256 13.1238 180.074 13.0325C179.893 12.9411 179.731 12.8149 179.598 12.661C179.465 12.5072 179.364 12.3286 179.301 12.1357Z" fill="#2F2E41"/>
<path d="M210.61 31.6244C210.351 31.6791 210.113 31.8056 209.922 31.9894C209.732 32.1732 209.597 32.4069 209.533 32.6637C209.47 32.9205 209.48 33.19 209.563 33.4414C209.645 33.6927 209.797 33.9157 210.001 34.0847L216.196 39.2283C216.287 39.3048 216.362 39.3983 216.417 39.5033C216.468 39.6095 216.496 39.725 216.501 39.8427L216.888 49.2758C216.895 49.5844 217.005 49.8817 217.202 50.12C217.399 50.3582 217.669 50.5235 217.971 50.5893L217.982 50.5917C218.281 50.6646 218.595 50.6356 218.874 50.5095C219.154 50.3834 219.384 50.1673 219.527 49.8957L221.761 45.8235C221.836 45.6894 221.946 45.5782 222.08 45.5019C222.213 45.4255 222.364 45.3867 222.518 45.3898C222.631 45.3904 222.743 45.4143 222.846 45.4602C222.95 45.506 223.042 45.5727 223.119 45.6561L233.843 57.0901C233.998 57.2561 234.191 57.382 234.405 57.4568C234.619 57.5316 234.849 57.5532 235.073 57.5197C235.297 57.4864 235.509 57.3999 235.693 57.2674C235.876 57.1349 236.025 56.9603 236.127 56.7583L251.852 25.3232C251.971 25.0865 252.02 24.8211 251.995 24.5575C251.97 24.2939 251.87 24.0428 251.709 23.8331C251.547 23.6233 251.329 23.4635 251.08 23.3719C250.832 23.2804 250.562 23.2608 250.303 23.3155L249.794 23.4218L210.61 31.6244ZM210.359 33.6527C210.237 33.5509 210.146 33.4169 210.097 33.266C210.047 33.115 210.042 32.9532 210.08 32.7991C210.118 32.645 210.199 32.5048 210.314 32.3946C210.428 32.2844 210.571 32.2086 210.727 32.176L249.898 23.9763L250.42 23.867C250.575 23.835 250.736 23.8473 250.885 23.9024C251.034 23.9575 251.164 24.0532 251.261 24.1786C251.358 24.3041 251.417 24.4542 251.433 24.6119C251.449 24.7696 251.42 24.9285 251.349 25.0705L235.624 56.5057C235.563 56.6271 235.474 56.732 235.364 56.8114C235.253 56.8909 235.126 56.9426 234.991 56.9621C234.857 56.9816 234.719 56.9684 234.591 56.9236C234.463 56.8788 234.347 56.8037 234.254 56.7047L223.53 45.2707C223.425 45.1564 223.301 45.0609 223.164 44.9886L250.414 25.2357C250.521 25.1597 250.598 25.0486 250.632 24.9217C250.666 24.7948 250.654 24.6601 250.599 24.5408C250.544 24.4215 250.449 24.3252 250.331 24.2685C250.212 24.2119 250.078 24.1984 249.95 24.2304C249.919 24.2378 249.888 24.2483 249.859 24.2616L216.772 39.0188C216.708 38.9367 216.635 38.8621 216.555 38.7963L210.359 33.6527Z" fill="#CCCCCC"/>
<path d="M210.61 31.6244C210.351 31.6791 210.113 31.8056 209.922 31.9894C209.732 32.1732 209.597 32.4069 209.533 32.6637C209.47 32.9205 209.48 33.19 209.563 33.4414C209.645 33.6927 209.797 33.9157 210.001 34.0847L216.196 39.2283C216.287 39.3048 216.362 39.3983 216.417 39.5033C216.468 39.6095 216.496 39.725 216.501 39.8427L216.888 49.2758C216.895 49.5844 217.005 49.8817 217.202 50.12C217.399 50.3582 217.669 50.5235 217.971 50.5893L217.982 50.5917C218.281 50.6646 218.595 50.6356 218.874 50.5095C219.154 50.3834 219.384 50.1673 219.527 49.8957L221.761 45.8235C221.836 45.6894 221.946 45.5782 222.08 45.5019C222.213 45.4255 222.364 45.3867 222.518 45.3898C222.631 45.3904 222.743 45.4143 222.846 45.4602C222.95 45.506 223.042 45.5727 223.119 45.6561L233.843 57.0901C233.998 57.2561 234.191 57.382 234.405 57.4568C234.619 57.5316 234.849 57.5532 235.073 57.5197C235.297 57.4864 235.509 57.3999 235.693 57.2674C235.876 57.1349 236.025 56.9603 236.127 56.7583L251.852 25.3232C251.971 25.0865 252.02 24.8211 251.995 24.5575C251.97 24.2939 251.87 24.0428 251.709 23.8331C251.547 23.6233 251.329 23.4635 251.08 23.3719C250.832 23.2804 250.562 23.2608 250.303 23.3155L249.794 23.4218L210.61 31.6244ZM210.359 33.6527C210.237 33.5509 210.146 33.4169 210.097 33.266C210.047 33.115 210.042 32.9532 210.08 32.7991C210.118 32.645 210.199 32.5048 210.314 32.3946C210.428 32.2844 210.571 32.2086 210.727 32.176L249.898 23.9763L250.42 23.867C250.575 23.835 250.736 23.8473 250.885 23.9024C251.034 23.9575 251.164 24.0532 251.261 24.1786C251.358 24.3041 251.417 24.4542 251.433 24.6119C251.449 24.7696 251.42 24.9285 251.349 25.0705L235.624 56.5057C235.563 56.6271 235.474 56.7319 235.364 56.8114C235.253 56.8909 235.126 56.9426 234.991 56.9621C234.857 56.9816 234.719 56.9684 234.591 56.9236C234.463 56.8788 234.347 56.8037 234.254 56.7047L223.53 45.2707C223.425 45.1564 223.301 45.0609 223.164 44.9886C222.967 44.8833 222.748 44.8275 222.525 44.8261C222.494 44.8247 222.462 44.8261 222.43 44.8274L222.427 44.8268C222.188 44.8392 221.956 44.9124 221.753 45.0395C221.551 45.1665 221.384 45.3433 221.269 45.5529L219.033 49.6278C218.948 49.7914 218.81 49.9214 218.641 49.9967C218.473 50.072 218.283 50.0882 218.105 50.0426L218.099 50.0414C217.917 50.0032 217.754 49.9044 217.636 49.7612C217.518 49.618 217.453 49.439 217.45 49.2535L217.063 39.8205C217.06 39.7208 217.046 39.6217 217.021 39.5252L217.021 39.5225C216.997 39.4299 216.964 39.34 216.921 39.2545C216.88 39.1709 216.83 39.0919 216.772 39.0188C216.708 38.9367 216.635 38.8621 216.555 38.7963L210.359 33.6527Z" fill="#3F3D56"/>
<path d="M216.77 39.0203L249.857 24.2631C249.886 24.2497 249.916 24.2393 249.947 24.2318C250.075 24.1998 250.21 24.2133 250.328 24.27C250.447 24.3267 250.542 24.423 250.597 24.5422C250.652 24.6615 250.663 24.7963 250.63 24.9232C250.596 25.0501 250.518 25.1611 250.411 25.2372L223.161 44.99L222.68 45.3393L222.351 44.8838L222.424 44.8283L222.427 44.8289L250.079 24.781L217.019 39.524L217.018 39.5267L216.874 39.5892L216.645 39.0755L216.77 39.0203Z" fill="#3F3D56"/>
<path d="M175.431 83.8008C175.02 83.8012 174.627 83.9644 174.337 84.2544C174.047 84.5443 173.883 84.9375 173.883 85.3476V90.9725C173.883 91.3826 174.047 91.7758 174.337 92.0658C174.627 92.3558 175.02 92.5189 175.431 92.5194H193.445C193.856 92.5189 194.249 92.3558 194.539 92.0658C194.83 91.7758 194.993 91.3826 194.993 90.9725V85.3476C194.993 84.9375 194.83 84.5443 194.539 84.2544C194.249 83.9644 193.856 83.8012 193.445 83.8008H175.431Z" fill="#2F2E41"/>
<path d="M173.308 55.2677C172.448 57.7587 172.288 60.4375 172.845 63.0132C174.276 70.0259 173.743 78.3161 172.336 87.175C172.336 88.107 172.986 88.8625 173.787 88.8625H195.795C196.597 88.8625 197.246 88.1069 197.246 87.175V60.8786C197.246 53.1078 191.96 46.7489 185.347 46.4114C185.164 46.4002 184.977 46.3945 184.791 46.3945C179.633 46.3945 175.197 50.0592 173.308 55.2677Z" fill="#2F2E41"/>
<path d="M180.316 89.3978V56.8763C180.316 55.841 180.728 54.8481 181.461 54.116C182.193 53.3839 183.187 52.9727 184.223 52.9727C185.259 52.9727 186.253 53.3839 186.986 54.116C187.718 54.8481 188.13 55.841 188.13 56.8763V89.3978C188.13 89.8825 187.937 90.3471 187.594 90.6899C187.251 91.0326 186.786 91.2253 186.3 91.2259H182.146C181.661 91.2253 181.196 91.0326 180.853 90.6899C180.51 90.3471 180.317 89.8825 180.316 89.3978Z" fill="#005AAB"/>
<path d="M187.002 66.1023L181.097 65.8426C180.612 65.8207 180.156 65.6077 179.828 65.2502C179.501 64.8927 179.329 64.42 179.349 63.9358L179.764 54.5232C179.79 53.8949 179.94 53.278 180.206 52.7078C180.471 52.1376 180.846 51.6252 181.31 51.2C181.773 50.7749 182.316 50.4453 182.908 50.2301C183.499 50.0149 184.127 49.9184 184.756 49.946C185.384 49.9737 186.001 50.125 186.571 50.3913C187.141 50.6575 187.653 51.0336 188.078 51.4978C188.502 51.962 188.831 52.5054 189.045 53.0967C189.259 53.688 189.354 54.3157 189.325 54.9438L188.91 64.3564C188.89 64.8265 188.688 65.2705 188.348 65.596C188.008 65.9216 187.555 66.1035 187.085 66.1041C187.057 66.1041 187.03 66.1035 187.002 66.1023Z" fill="#2F2E41"/>
<path d="M197.247 72.1287C197.947 72.1287 198.514 70.3029 198.514 68.0507C198.514 65.7985 197.947 63.9727 197.247 63.9727C196.548 63.9727 195.98 65.7985 195.98 68.0507C195.98 70.3029 196.548 72.1287 197.247 72.1287Z" fill="#2F2E41"/>
<path d="M127.83 118.816C131.716 118.816 134.867 115.668 134.867 111.785C134.867 107.902 131.716 104.754 127.83 104.754C123.943 104.754 120.793 107.902 120.793 111.785C120.793 115.668 123.943 118.816 127.83 118.816Z" fill="#CCCCCC"/>
<path d="M197.42 118.816H143.377C142.78 118.816 142.207 118.579 141.785 118.157C141.362 117.735 141.125 117.163 141.125 116.566C141.125 115.97 141.362 115.397 141.785 114.975C142.207 114.553 142.78 114.316 143.377 114.316H197.42C198.017 114.316 198.59 114.553 199.012 114.975C199.434 115.397 199.672 115.97 199.672 116.566C199.672 117.163 199.434 117.735 199.012 118.157C198.59 118.579 198.017 118.816 197.42 118.816Z" fill="#CCCCCC"/>
<path d="M182.783 109.254H143.377C142.78 109.254 142.207 109.017 141.785 108.595C141.362 108.173 141.125 107.601 141.125 107.004C141.125 106.407 141.362 105.835 141.785 105.413C142.207 104.991 142.78 104.754 143.377 104.754H182.783C183.38 104.754 183.953 104.991 184.375 105.413C184.798 105.835 185.035 106.407 185.035 107.004C185.035 107.601 184.798 108.173 184.375 108.595C183.953 109.017 183.38 109.254 182.783 109.254Z" fill="#CCCCCC"/>
<path d="M127.83 145.531C131.716 145.531 134.867 142.383 134.867 138.5C134.867 134.617 131.716 131.469 127.83 131.469C123.943 131.469 120.793 134.617 120.793 138.5C120.793 142.383 123.943 145.531 127.83 145.531Z" fill="#CCCCCC"/>
<path d="M197.42 145.531H143.377C142.78 145.531 142.207 145.294 141.785 144.872C141.362 144.45 141.125 143.878 141.125 143.281C141.125 142.684 141.362 142.112 141.785 141.69C142.207 141.268 142.78 141.031 143.377 141.031H197.42C198.017 141.031 198.59 141.268 199.012 141.69C199.434 142.112 199.672 142.684 199.672 143.281C199.672 143.878 199.434 144.45 199.012 144.872C198.59 145.294 198.017 145.531 197.42 145.531Z" fill="#CCCCCC"/>
<path d="M182.783 135.969H143.377C142.78 135.969 142.207 135.732 141.785 135.31C141.362 134.888 141.125 134.315 141.125 133.719C141.125 133.122 141.362 132.55 141.785 132.128C142.207 131.706 142.78 131.469 143.377 131.469H182.783C183.38 131.469 183.953 131.706 184.375 132.128C184.798 132.55 185.035 133.122 185.035 133.719C185.035 134.315 184.798 134.888 184.375 135.31C183.953 135.732 183.38 135.969 182.783 135.969Z" fill="#CCCCCC"/>
<path d="M127.83 172.531C131.716 172.531 134.867 169.383 134.867 165.5C134.867 161.617 131.716 158.469 127.83 158.469C123.943 158.469 120.793 161.617 120.793 165.5C120.793 169.383 123.943 172.531 127.83 172.531Z" fill="#CCCCCC"/>
<path d="M197.42 172.531H143.377C142.78 172.531 142.207 172.294 141.785 171.872C141.362 171.45 141.125 170.878 141.125 170.281C141.125 169.684 141.362 169.112 141.785 168.69C142.207 168.268 142.78 168.031 143.377 168.031H197.42C198.017 168.031 198.59 168.268 199.012 168.69C199.434 169.112 199.672 169.684 199.672 170.281C199.672 170.878 199.434 171.45 199.012 171.872C198.59 172.294 198.017 172.531 197.42 172.531Z" fill="#CCCCCC"/>
<path d="M182.783 162.969H143.377C142.78 162.969 142.207 162.732 141.785 162.31C141.362 161.888 141.125 161.315 141.125 160.719C141.125 160.122 141.362 159.55 141.785 159.128C142.207 158.706 142.78 158.469 143.377 158.469H182.783C183.38 158.469 183.953 158.706 184.375 159.128C184.798 159.55 185.035 160.122 185.035 160.719C185.035 161.315 184.798 161.888 184.375 162.31C183.953 162.732 183.38 162.969 182.783 162.969Z" fill="#CCCCCC"/>
<path d="M216.245 185.19H104.219C102.95 185.188 101.734 184.684 100.837 183.788C99.9396 182.891 99.435 181.676 99.4336 180.408V96.8788C99.435 95.6112 99.9396 94.3959 100.837 93.4996C101.734 92.6033 102.95 92.0991 104.219 92.0977H216.245C217.514 92.0991 218.73 92.6033 219.627 93.4996C220.524 94.3959 221.029 95.6112 221.03 96.8788V180.408C221.029 181.676 220.524 182.891 219.627 183.788C218.73 184.684 217.514 185.188 216.245 185.19ZM104.219 92.6601C103.099 92.6614 102.026 93.1063 101.235 93.8972C100.443 94.688 99.9978 95.7603 99.9965 96.8788V180.408C99.9978 181.527 100.443 182.599 101.235 183.39C102.026 184.181 103.099 184.626 104.219 184.627H216.245C217.365 184.626 218.438 184.181 219.229 183.39C220.021 182.599 220.466 181.527 220.467 180.408V96.8788C220.466 95.7603 220.021 94.688 219.229 93.8972C218.438 93.1063 217.365 92.6614 216.245 92.6601H104.219Z" fill="#3F3D56"/>
<path d="M101.403 109.253C110.109 109.253 117.166 102.202 117.166 93.5036C117.166 84.8053 110.109 77.7539 101.403 77.7539C92.6978 77.7539 85.6406 84.8053 85.6406 93.5036C85.6406 102.202 92.6978 109.253 101.403 109.253Z" fill="#005AAB"/>
<path d="M99.8425 99.5094C99.4879 99.5101 99.1426 99.3955 98.8589 99.183L98.8413 99.1698L95.137 96.3359C94.9654 96.2046 94.8215 96.0408 94.7133 95.8539C94.6051 95.6669 94.5348 95.4605 94.5064 95.2464C94.4781 95.0324 94.4922 94.8148 94.548 94.6062C94.6038 94.3975 94.7001 94.2019 94.8316 94.0305C94.963 93.8591 95.127 93.7152 95.314 93.6071C95.5011 93.499 95.7077 93.4288 95.922 93.4005C96.1362 93.3721 96.354 93.3862 96.5628 93.442C96.7716 93.4977 96.9673 93.594 97.1389 93.7254L99.5382 95.5637L105.208 88.1751C105.34 88.0037 105.504 87.8599 105.691 87.7518C105.878 87.6438 106.085 87.5737 106.299 87.5454C106.513 87.5171 106.731 87.5313 106.94 87.5871C107.148 87.643 107.344 87.7393 107.516 87.8707L107.48 87.9186L107.517 87.8714C107.863 88.1371 108.089 88.529 108.146 88.9613C108.203 89.3935 108.086 89.8307 107.821 90.177L101.152 98.8677C100.998 99.068 100.799 99.23 100.572 99.3413C100.345 99.4526 100.095 99.5102 99.8425 99.5094Z" fill="white"/>
<path d="M101.284 187.672C101.007 187.672 100.733 187.613 100.481 187.5L70.7841 174.188C70.2987 173.971 69.861 173.661 69.4958 173.274C69.1306 172.888 68.8452 172.434 68.6559 171.937C68.4666 171.441 68.377 170.912 68.3923 170.381C68.4076 169.85 68.5275 169.327 68.7452 168.842C68.9628 168.357 69.274 167.92 69.6608 167.555C70.0476 167.191 70.5025 166.906 70.9996 166.717C71.4966 166.528 72.026 166.439 72.5575 166.455C73.0891 166.471 73.6123 166.591 74.0973 166.809L103.794 180.12C104.03 180.226 104.243 180.377 104.421 180.565C104.598 180.753 104.737 180.974 104.829 181.216C104.921 181.457 104.965 181.715 104.957 181.973C104.95 182.231 104.891 182.486 104.785 182.722L103.085 186.509C102.929 186.856 102.676 187.15 102.356 187.356C102.037 187.562 101.665 187.672 101.284 187.672Z" fill="#005AAB"/>
<path d="M107.523 224H0.281474C0.206822 224 0.135228 223.97 0.0824416 223.918C0.029655 223.865 0 223.793 0 223.719C0 223.644 0.029655 223.573 0.0824416 223.52C0.135228 223.467 0.206822 223.438 0.281474 223.438H107.523C107.598 223.438 107.669 223.467 107.722 223.52C107.775 223.573 107.804 223.644 107.804 223.719C107.804 223.793 107.775 223.865 107.722 223.918C107.669 223.97 107.598 224 107.523 224Z" fill="#3F3D56"/>
</g>
<defs>
<clipPath id="clip0_3226_3902">
<rect width="252" height="224" fill="white"/>
</clipPath>
</defs>
</svg>
