<svg width="495" height="224" viewBox="0 0 495 224" fill="none" xmlns="http://www.w3.org/2000/svg">
<g clip-path="url(#clip0_3226_3808)">
<path d="M150.927 2.08393C158.11 -1.18147 167.115 -0.822401 172.992 4.68375C164.637 6.26012 157.07 10.9578 151.631 17.9457C149.543 20.6488 147.482 23.8888 144.27 24.5592C142.272 24.9764 140.184 24.2584 138.479 23.0661C136.773 21.8737 135.384 20.2372 134.016 18.6194L133.539 18.4296C138.132 11.6616 143.744 5.34933 150.927 2.08393Z" fill="#F0F0F0"/>
<path d="M172.9 4.83239C166.578 3.42621 160.003 4.19414 154.11 7.0271C152.831 7.61279 151.647 8.41117 150.6 9.39283C149.608 10.3845 148.883 11.6429 148.498 13.0375C148.115 14.3299 147.862 15.6997 147.193 16.8697C146.842 17.4632 146.378 17.9703 145.832 18.3579C145.286 18.7455 144.669 19.0048 144.023 19.1187C142.42 19.4476 140.803 19.1386 139.23 18.7774C137.485 18.3764 135.678 17.9302 133.904 18.4005C133.689 18.4575 133.619 18.0961 133.833 18.0392C136.92 17.2209 139.906 19.0433 142.995 18.8788C144.436 18.8021 145.865 18.2587 146.728 16.956C147.483 15.8169 147.744 14.4047 148.121 13.0924C148.478 11.7261 149.141 10.4744 150.053 9.44655C151.05 8.41083 152.204 7.56478 153.466 6.94466C156.285 5.49993 159.299 4.54003 162.396 4.1001C165.928 3.57698 169.518 3.70628 173.01 4.48243C173.226 4.53056 173.115 4.88021 172.9 4.83239Z" fill="white"/>
<path d="M155.957 5.99498C155.648 4.86922 155.723 3.66238 156.167 2.58997C156.61 1.51756 157.395 0.649417 158.38 0.140583C158.58 0.03836 158.737 0.366593 158.537 0.468948C157.619 0.940956 156.888 1.74971 156.477 2.74924C156.065 3.74878 156 4.87325 156.294 5.9197C156.357 6.14719 156.02 6.22117 155.957 5.99498Z" fill="white"/>
<path d="M148.613 12.3537C150.566 13.5209 152.856 13.8554 155.028 13.2904C155.243 13.2343 155.313 13.5956 155.098 13.6517C152.837 14.2351 150.454 13.8818 148.425 12.6624C148.231 12.546 148.421 12.2379 148.613 12.3537Z" fill="white"/>
<path d="M165.804 4.04515C165.839 4.50744 165.98 4.9532 166.215 5.3424C166.45 5.7316 166.772 6.05206 167.151 6.27499C167.345 6.38867 167.156 6.69663 166.962 6.58368C166.545 6.33529 166.19 5.98091 165.929 5.55152C165.669 5.12213 165.51 4.63079 165.468 4.12043C165.46 4.07269 165.469 4.02355 165.494 3.983C165.519 3.94246 165.557 3.91355 165.601 3.90215C165.645 3.89242 165.692 3.90198 165.73 3.92876C165.768 3.95554 165.795 3.99737 165.804 4.04515Z" fill="white"/>
<path d="M172.286 33.0249C172.162 32.9576 172.039 32.8903 171.913 32.8244C170.249 31.9292 168.521 31.1804 166.744 30.5856C166.608 30.5373 166.468 30.4905 166.331 30.4465C162.037 29.0624 157.54 28.546 153.071 28.9237C151.292 29.0757 149.527 29.3728 147.79 29.8123C145.392 30.4194 142.837 31.2824 140.462 31.0117C140.214 30.9864 139.968 30.9447 139.724 30.8867L133.357 19.0693C133.355 19.0346 133.351 19.0014 133.349 18.9666L133.074 18.5072C133.162 18.4779 133.254 18.4494 133.342 18.42C133.393 18.4028 133.446 18.3881 133.497 18.3709C133.531 18.3602 133.566 18.3496 133.596 18.3379C133.608 18.3343 133.619 18.3308 133.628 18.3287C133.659 18.317 133.688 18.3096 133.716 18.2994C134.23 18.1389 134.745 17.982 135.263 17.8287C135.265 17.8271 135.265 17.8271 135.269 17.8282C139.202 16.6196 143.254 15.9159 147.34 15.732C147.463 15.7282 147.587 15.7228 147.712 15.7245C149.54 15.6791 151.369 15.7941 153.18 16.0684C154.171 16.2221 155.155 16.4295 156.126 16.6899C158.636 17.3678 161.03 18.4652 163.222 19.9418C167.59 22.8861 171.033 27.2972 172.2 32.6174C172.23 32.7536 172.258 32.8872 172.286 33.0249Z" fill="#F0F0F0"/>
<path d="M172.134 33.085C167.875 27.8763 162.194 24.2406 155.9 22.6943C154.551 22.3356 153.157 22.2075 151.77 22.3147C150.422 22.4659 149.137 23.0017 148.048 23.8665C147.017 24.6508 146.047 25.5813 144.856 26.0831C144.243 26.3302 143.588 26.4354 142.935 26.3919C142.281 26.3484 141.644 26.157 141.064 25.8305C139.599 25.0571 138.481 23.765 137.429 22.4607C136.26 21.0124 135.067 19.4883 133.387 18.7173C133.183 18.6238 133.33 18.2902 133.533 18.3835C136.457 19.725 137.819 23.1095 140.377 24.9743C141.571 25.8444 143.017 26.3337 144.436 25.8514C145.678 25.4296 146.679 24.471 147.716 23.6671C148.768 22.8068 149.999 22.2359 151.304 22.0043C152.681 21.8217 154.077 21.892 155.432 22.2121C158.493 22.8806 161.438 24.0617 164.158 25.712C167.272 27.577 170.065 30 172.418 32.8762C172.563 33.0543 172.279 33.2619 172.134 33.085Z" fill="white"/>
<path d="M157.953 23.0641C158.339 21.9659 159.075 21.0503 160.031 20.4809C160.987 19.9114 162.1 19.7253 163.172 19.9556C163.389 20.003 163.33 20.3668 163.113 20.3194C162.115 20.1029 161.078 20.2764 160.189 20.8086C159.3 21.3408 158.617 22.1966 158.264 23.2216C158.187 23.4442 157.877 23.2855 157.953 23.0641Z" fill="white"/>
<path d="M148.519 23.3945C149.423 25.5882 151.064 27.3355 153.115 28.2881C153.319 28.3823 153.172 28.7159 152.969 28.6218C150.836 27.6264 149.131 25.8043 148.195 23.5192C148.106 23.3013 148.43 23.1778 148.519 23.3945Z" fill="white"/>
<path d="M166.908 27.8746C166.677 28.2662 166.54 28.7134 166.509 29.1761C166.478 29.6387 166.555 30.1023 166.733 30.5251C166.824 30.7417 166.5 30.865 166.409 30.6498C166.215 30.1816 166.13 29.6696 166.163 29.1584C166.196 28.6471 166.345 28.1523 166.597 27.7172C166.618 27.674 166.653 27.6409 166.696 27.6245C166.738 27.6081 166.785 27.6097 166.826 27.629C166.867 27.6501 166.899 27.6877 166.914 27.7337C166.93 27.7796 166.928 27.8303 166.908 27.8746Z" fill="white"/>
<path d="M422.451 217.862H416.815L414.133 194.523L422.452 194.524L422.451 217.862Z" fill="#A0616A"/>
<path d="M423.887 223.728L405.711 223.727V223.48C405.711 221.466 406.457 219.535 407.783 218.111C409.11 216.687 410.909 215.887 412.786 215.887L423.888 215.887L423.887 223.728Z" fill="#2F2E41"/>
<path d="M466.343 215.244L460.769 216.148L454.867 193.503L462.174 192.168L466.343 215.244Z" fill="#A0616A"/>
<path d="M468.582 220.815L450.61 223.731L450.576 223.487C450.295 221.496 450.763 219.466 451.877 217.845C452.99 216.224 454.658 215.145 456.513 214.843L467.491 213.062L468.582 220.815Z" fill="#2F2E41"/>
<path d="M305.554 223.729H137.113V42.9336H305.554V223.729Z" fill="white"/>
<path d="M305.554 223.729H137.113V42.9336H305.554V223.729ZM139.602 221.058H303.065V45.6048H139.602V221.058Z" fill="#F0F0F0"/>
<path d="M279.87 120.656H171.844V124.749H279.87V120.656Z" fill="#005AAB"/>
<path d="M279.87 131.297H171.844V135.39H279.87V131.297Z" fill="#005AAB"/>
<path d="M279.87 141.938H171.844V146.031H279.87V141.938Z" fill="#005AAB"/>
<path d="M165.286 125.971C166.66 125.971 167.774 124.775 167.774 123.3C167.774 121.825 166.66 120.629 165.286 120.629C163.911 120.629 162.797 121.825 162.797 123.3C162.797 124.775 163.911 125.971 165.286 125.971Z" fill="#005AAB"/>
<path d="M279.87 74.7969H171.844V78.89H279.87V74.7969Z" fill="#F0F0F0"/>
<path d="M279.87 85.4414H171.844V89.5345H279.87V85.4414Z" fill="#F0F0F0"/>
<path d="M279.87 96.082H171.844V100.175H279.87V96.082Z" fill="#F0F0F0"/>
<path d="M165.286 79.6706C166.66 79.6706 167.774 78.4747 167.774 76.9994C167.774 75.5241 166.66 74.3281 165.286 74.3281C163.911 74.3281 162.797 75.5241 162.797 76.9994C162.797 78.4747 163.911 79.6706 165.286 79.6706Z" fill="#F0F0F0"/>
<path d="M279.87 166.957H171.844V171.05H279.87V166.957Z" fill="#F0F0F0"/>
<path d="M279.87 177.598H171.844V181.691H279.87V177.598Z" fill="#F0F0F0"/>
<path d="M279.87 188.242H171.844V192.335H279.87V188.242Z" fill="#F0F0F0"/>
<path d="M165.286 171.827C166.66 171.827 167.774 170.631 167.774 169.156C167.774 167.68 166.66 166.484 165.286 166.484C163.911 166.484 162.797 167.68 162.797 169.156C162.797 170.631 163.911 171.827 165.286 171.827Z" fill="#E5E5E5"/>
<path d="M395.972 152.308H297.965C296.497 152.304 295.307 149.692 295.305 146.466V68.2055C295.305 64.9805 296.497 62.3686 297.965 62.3633H395.972C397.44 62.3673 398.63 64.9798 398.632 68.2055V146.465C398.63 149.69 397.438 152.304 395.972 152.308Z" fill="white"/>
<path d="M395.972 152.308H297.965C296.497 152.304 295.307 149.692 295.305 146.466V68.2055C295.305 64.9805 296.497 62.3686 297.965 62.3633H395.972C397.44 62.3673 398.63 64.9798 398.632 68.2055V146.465C398.63 149.69 397.438 152.304 395.972 152.308ZM297.965 64.7C297.084 64.7 296.37 66.2706 296.368 68.2055V146.465C296.368 148.4 297.084 149.969 297.965 149.971H395.972C396.853 149.971 397.567 148.401 397.568 146.465V68.2055C397.568 66.2707 396.853 64.7021 395.972 64.7001L297.965 64.7Z" fill="#E6E6E6"/>
<path d="M360.237 126.176H333.855V128.304H360.237V126.176Z" fill="#005AAB"/>
<path d="M363.525 131.707H330.324V133.835H363.525V131.707Z" fill="#005AAB"/>
<path d="M364.191 99.3288C364.19 102.528 363.416 105.671 361.945 108.453C360.474 111.235 358.355 113.56 355.797 115.2C353.238 116.841 350.327 117.741 347.348 117.813C344.369 117.885 341.423 117.127 338.798 115.612L338.795 115.608C336.114 114.058 333.863 111.772 332.273 108.985C330.683 106.197 329.81 103.006 329.742 99.7385C329.675 96.4706 330.416 93.242 331.89 90.3815C333.364 87.5211 335.518 85.1311 338.132 83.4552C340.747 81.7792 343.729 80.8772 346.774 80.841C349.819 80.8048 352.819 81.6356 355.467 83.249C358.116 84.8623 360.318 87.2005 361.851 90.0251C363.384 92.8498 364.191 96.0601 364.191 99.3288Z" fill="#CACACA"/>
<path d="M347.054 98.4311C349.64 98.4311 351.736 96.1809 351.736 93.405C351.736 90.6292 349.64 88.3789 347.054 88.3789C344.468 88.3789 342.371 90.6292 342.371 93.405C342.371 96.1809 344.468 98.4311 347.054 98.4311Z" fill="white"/>
<path d="M355.05 108.817C349.815 110.789 344.107 110.765 338.886 108.749L338.883 108.747L342.371 101.355H351.737L355.05 108.817Z" fill="white"/>
<path d="M277.918 180.293H351.456V145.684H350.324V179.078H277.918V180.293Z" fill="#3F3D56"/>
<path d="M350.89 157.971C354.327 157.971 357.113 154.981 357.113 151.292C357.113 147.604 354.327 144.613 350.89 144.613C347.454 144.613 344.668 147.604 344.668 151.292C344.668 154.981 347.454 157.971 350.89 157.971Z" fill="#3F3D56"/>
<path d="M141.941 104.378H43.9337C42.4654 104.374 41.2753 101.762 41.2734 98.5362V20.2758C41.2734 17.0508 42.4654 14.439 43.9337 14.4336H141.941C143.409 14.4376 144.599 17.0501 144.601 20.2758V98.5355C144.599 101.761 143.407 104.374 141.941 104.378Z" fill="white"/>
<path d="M141.941 104.378H43.9337C42.4654 104.374 41.2753 101.762 41.2734 98.5362V20.2758C41.2734 17.0508 42.4654 14.439 43.9337 14.4336H141.941C143.409 14.4376 144.599 17.0501 144.601 20.2758V98.5355C144.599 101.761 143.407 104.374 141.941 104.378ZM43.9337 16.7703C43.0524 16.7703 42.3385 18.3409 42.3373 20.2758V98.5355C42.3373 100.47 43.0523 102.039 43.9337 102.041H141.941C142.822 102.041 143.536 100.471 143.537 98.5355V20.2758C143.537 18.341 142.822 16.7724 141.941 16.7704L43.9337 16.7703Z" fill="#E6E6E6"/>
<path d="M114.693 38.8855C110.332 33.9155 104.329 30.9803 97.9727 30.7109V56.8328L114.693 38.8855Z" fill="#3F3D56"/>
<path d="M114.693 42.1367L97.9727 60.084H121.34C121.349 53.4085 118.969 46.9842 114.693 42.1367Z" fill="#E4E4E4"/>
<path d="M121.366 61.9609C121.367 63.5891 121.227 65.2137 120.947 66.8139C120.925 66.9406 120.902 67.0661 120.878 67.1915C120.35 69.9828 119.398 72.6617 118.059 75.1207C117.988 75.2526 117.914 75.3845 117.841 75.5138V75.5151C116.521 77.8457 114.871 79.9411 112.95 81.7258C112.855 81.815 112.759 81.9029 112.663 81.9896C108.534 85.7181 103.365 87.8623 97.9727 88.0826V61.9609H121.366Z" fill="#F0F0F0"/>
<path d="M95.6089 88.1061C95.9324 88.1061 96.2539 88.0972 96.5743 88.0838V61.9609L78.875 80.9585C83.3926 85.5562 89.3834 88.115 95.6089 88.1061Z" fill="#CACACA"/>
<path d="M95.6396 33.9375C92.4409 33.9375 89.2734 34.6138 86.3181 35.9277C83.3628 37.2416 80.6775 39.1674 78.4157 41.5952C76.1538 44.023 74.3595 46.9052 73.1354 50.0773C71.9113 53.2494 71.2812 56.6492 71.2813 60.0826H96.6303V33.9608C96.3015 33.9467 95.9716 33.9375 95.6396 33.9375Z" fill="#005AAB"/>
<path d="M89.8284 61.9609L84.7071 67.4579L84.5397 67.6376L84.536 67.6415L80.0701 72.4337L79.9003 72.616L75.0754 77.7948L74.9055 77.9771V77.9784L72.1286 80.9577C69.7174 78.5172 67.7971 75.5727 66.4858 72.3057C65.1746 69.0387 64.5001 65.5182 64.5039 61.9609H89.8284Z" fill="#005AAB"/>
<path d="M172.124 133.43H98.5859V98.8203H99.7172V132.215H172.124V133.43Z" fill="#3F3D56"/>
<path d="M99.1521 111.108C102.589 111.108 105.375 108.118 105.375 104.429C105.375 100.74 102.589 97.75 99.1521 97.75C95.7156 97.75 92.9297 100.74 92.9297 104.429C92.9297 108.118 95.7156 111.108 99.1521 111.108Z" fill="#3F3D56"/>
<path d="M448.962 102.207L442.703 103.967L443.119 114.859L443.171 134.69C442.554 135.148 442.081 135.796 441.815 136.548C441.549 137.301 441.502 138.122 441.68 138.904C441.859 139.685 442.254 140.391 442.814 140.926C443.373 141.461 444.071 141.802 444.815 141.902C445.559 142.002 446.314 141.858 446.98 141.488C447.646 141.118 448.191 140.539 448.544 139.829C448.897 139.119 449.04 138.311 448.956 137.511C448.872 136.712 448.563 135.958 448.071 135.351L449.994 115.448L448.962 102.207Z" fill="#A0616A"/>
<path d="M450.714 108.756L441.565 105.449L441.544 105.301C441.53 105.208 440.188 95.9073 440.205 89.5265C440.187 88.8158 440.313 88.1093 440.575 87.4564C440.837 86.8034 441.229 86.2197 441.723 85.746C442.41 85.0729 443.266 84.6299 444.184 84.4713C445.103 84.3127 446.045 84.4455 446.894 84.8534C447.801 85.2549 448.581 85.9283 449.141 86.7932C449.701 87.6581 450.018 88.6778 450.052 89.7304L450.714 108.756Z" fill="#E4E4E4"/>
<path d="M433.695 107.841L419.702 103.953L413.234 127.336L413.004 214.444L423.704 214.372L428.177 143.869L456.685 209.015L468.181 207.535L443.121 137.7C443.121 137.7 444.501 125.361 440.132 119.192L441.052 112.776L433.695 107.841Z" fill="#2F2E41"/>
<path d="M441.465 114.506L440.406 114.489L418.902 105.263L429.19 80.669L434.074 81.6219L433.185 77.8042L443.977 74.9727L445.855 83.0345L448.626 85.7379C449.324 86.4194 449.822 87.3037 450.061 88.2834C450.299 89.2631 450.268 90.2961 449.97 91.2568L443.587 111.81C443.639 112.141 443.624 112.481 443.541 112.805C443.459 113.129 443.311 113.43 443.109 113.687C442.907 113.944 442.656 114.15 442.372 114.292C442.088 114.433 441.779 114.506 441.465 114.506Z" fill="#E4E4E4"/>
<path d="M425.294 96.089L419.637 92.7188L412.925 100.9L400.195 115.273C399.454 115.146 398.696 115.264 398.019 115.61C397.342 115.957 396.779 116.515 396.405 117.213C396.031 117.91 395.862 118.713 395.922 119.515C395.982 120.317 396.267 121.081 396.74 121.705C397.214 122.33 397.852 122.785 398.572 123.011C399.291 123.238 400.058 123.224 400.77 122.973C401.482 122.721 402.106 122.244 402.56 121.603C403.014 120.962 403.276 120.189 403.311 119.385L417.516 106.425L425.294 96.089Z" fill="#A0616A"/>
<path d="M422.343 102.123L417.859 92.9475L417.939 92.8246C417.989 92.7474 423.007 85.0293 427.127 80.4296C427.571 79.9023 428.118 79.4853 428.727 79.2079C429.337 78.9304 429.996 78.7991 430.658 78.8231C431.588 78.8467 432.492 79.1611 433.258 79.7278C434.024 80.2944 434.619 81.0887 434.97 82.0132C435.368 82.9763 435.498 84.0417 435.346 85.0822C435.194 86.1227 434.766 87.0943 434.114 87.8807L422.343 102.123Z" fill="#E4E4E4"/>
<path d="M435.993 73.4702C440.729 73.4702 444.568 69.3495 444.568 64.2664C444.568 59.1832 440.729 55.0625 435.993 55.0625C431.257 55.0625 427.418 59.1832 427.418 64.2664C427.418 69.3495 431.257 73.4702 435.993 73.4702Z" fill="#A0616A"/>
<path d="M425.676 58.8719C427.118 56.101 427.669 54.9435 429.529 53.2586C431.173 51.7685 433.195 51.3309 434.826 52.7428C436.756 51.8479 438.903 51.645 440.949 52.1642C442.994 52.6834 444.829 53.897 446.181 55.6248C447.533 57.3525 448.33 59.5023 448.453 61.7546C448.576 64.007 448.018 66.2419 446.864 68.1273C445.709 70.0126 444.019 71.448 442.043 72.22C440.068 72.9921 437.914 73.0597 435.9 72.4128C433.886 71.7659 432.12 70.439 430.865 68.6292C429.61 66.8195 428.932 64.6234 428.932 62.3671C428.934 61.9709 428.956 61.5751 428.999 61.1816C427.581 60.9678 427.094 59.0856 425.676 58.8719Z" fill="#2F2E41"/>
<path d="M46.4369 139.33C46.8405 139.07 47.1861 138.717 47.4492 138.298C47.7123 137.879 47.8865 137.403 47.9597 136.904C48.0328 136.404 48.003 135.894 47.8725 135.408C47.7419 134.922 47.5138 134.473 47.204 134.093L51.3902 89.0039L44.4002 89.5018L42.4637 133.9C41.9023 134.501 41.5656 135.302 41.5177 136.152C41.4697 137.001 41.7137 137.84 42.2034 138.509C42.6932 139.179 43.3946 139.632 44.1749 139.783C44.9551 139.934 45.76 139.773 46.4369 139.33Z" fill="#FFB8B8"/>
<path d="M41.5664 87.337L43.399 102.287L43.1446 111.449L50.8325 112.205L52.3733 104.584L53.2222 84.4095C53.2862 82.8878 52.8105 81.3966 51.8909 80.2365C50.9713 79.0763 49.6761 78.3334 48.2665 78.1575C46.804 77.975 45.3333 78.417 44.1718 79.3881C43.0103 80.3593 42.251 81.7817 42.058 83.3483L41.5664 87.337Z" fill="#2F2E41"/>
<path d="M71.0088 218.877H75.6722L77.8905 199.57H71.0078L71.0088 218.877Z" fill="#FFB7B7"/>
<path d="M69.8203 217.243L79.0044 217.242C80.5566 217.242 82.0456 217.904 83.1432 219.082C84.2408 220.26 84.8575 221.858 84.8576 223.524V223.728L69.8206 223.729L69.8203 217.243Z" fill="#2F2E41"/>
<path d="M32.501 218.877H37.1644L39.3827 199.57H32.5L32.501 218.877Z" fill="#FFB7B7"/>
<path d="M31.3125 217.243L40.4966 217.242C42.0488 217.242 43.5378 217.904 44.6354 219.082C45.733 220.26 46.3496 221.858 46.3498 223.524V223.728L31.3128 223.729L31.3125 217.243Z" fill="#2F2E41"/>
<path d="M50.6382 71.0488C56.2223 71.0488 60.7491 66.1899 60.7491 60.1963C60.7491 54.2026 56.2223 49.3438 50.6382 49.3438C45.0541 49.3438 40.5273 54.2026 40.5273 60.1963C40.5273 66.1899 45.0541 71.0488 50.6382 71.0488Z" fill="#FFB8B8"/>
<path d="M51.9446 75.457L44.9278 76.3178C43.2216 78.915 42.1152 81.9106 41.7001 85.0572C41.285 88.2039 41.573 91.4114 42.5403 94.415L47.8348 110.855C47.8348 110.855 40.4852 126.669 40.4852 141.353C40.4852 156.036 26.4883 208.447 26.4883 208.447L46.1903 210.653L54.7869 154.82L66.6335 210.428L80.1575 208.065L72.7088 135.157L67.7867 111.159L67.5771 99.4566C67.5771 99.4566 69.6699 90.6753 64.4319 85.0531L58.0369 75.4883L51.9446 75.457Z" fill="#2F2E41"/>
<path d="M101.41 114.113C101.389 113.56 101.256 113.018 101.019 112.526C100.783 112.034 100.448 111.603 100.04 111.265C99.6313 110.927 99.1587 110.688 98.6552 110.567C98.1517 110.446 97.6296 110.445 97.1256 110.564L58.9701 82.5L55.7344 89.9708L94.457 115.351C94.6992 116.247 95.239 117.016 95.9741 117.512C96.7092 118.009 97.5886 118.199 98.4456 118.047C99.3027 117.894 100.078 117.41 100.624 116.685C101.17 115.96 101.45 115.045 101.41 114.113Z" fill="#FFB8B8"/>
<path d="M52.3024 91.7496L66.6497 97.7334L74.7174 102.821L79.4427 95.2911L73.4327 89.6885L55.8206 78.1876C54.4922 77.3202 52.9069 77.0254 51.3841 77.3627C49.8613 77.7001 48.5142 78.6444 47.6143 80.0055C46.6807 81.4176 46.3018 83.1671 46.5593 84.8764C46.8169 86.5857 47.6902 88.1178 48.9909 89.142L52.3024 91.7496Z" fill="#2F2E41"/>
<path d="M62.424 56.3212H47.5664V49.3697C50.8275 47.9791 54.0186 46.7965 55.9476 49.3697C57.6652 49.3697 59.3125 50.1021 60.5271 51.4058C61.7416 52.7094 62.424 54.4775 62.424 56.3212Z" fill="#2F2E41"/>
<path d="M50.2159 48.6759C41.3339 48.7181 38.8477 60.6259 38.8477 67.3676C38.8477 71.1273 40.4318 72.472 42.9211 72.927L43.8002 67.8945L45.8592 73.1436C46.5585 73.1473 47.2931 73.1328 48.0546 73.1176L48.7527 71.5747L50.3095 73.09C56.5446 73.0999 65.6054 72.5023 61.584 67.3676C56.1969 60.4889 57.9578 48.6391 50.2159 48.6759Z" fill="#2F2E41"/>
<path d="M457.346 86.0973C456.953 84.5016 456.894 82.8323 457.174 81.2094C457.588 78.075 458.52 75.0512 459.373 72.0206C460.225 68.9899 461.007 65.8995 461.105 62.7355C461.204 59.5715 460.564 56.2915 458.807 53.7494C457.049 51.2072 454.052 49.5413 451.137 50.0193C448.351 50.476 445.918 53.1731 445.904 56.1656C445.405 57.1341 446.05 58.4567 446.967 59.0312C447.929 59.6337 449.089 59.7137 450.156 60.0563C451.204 60.42 452.17 61.0121 452.995 61.7953C453.819 62.5786 454.484 63.5362 454.948 64.6082C455.863 66.7724 456.106 69.1949 455.642 71.5189C455.222 73.771 454.255 75.855 453.53 78.0161C452.806 80.177 452.321 82.5498 452.903 84.7598C453.387 86.3921 454.404 87.7818 455.766 88.673C457.129 89.5642 458.746 89.8968 460.319 89.6095C459.601 89.3162 458.957 88.8453 458.441 88.2351C457.924 87.6248 457.549 86.8924 457.346 86.0973Z" fill="#2F2E41"/>
<path d="M494.17 223.999H0.496155C0.364567 223.999 0.238367 223.943 0.14532 223.843C0.052273 223.743 0 223.607 0 223.466C0 223.325 0.052273 223.189 0.14532 223.09C0.238367 222.99 0.364567 222.934 0.496155 222.934H494.17C494.302 222.934 494.428 222.99 494.521 223.09C494.614 223.189 494.667 223.325 494.667 223.466C494.667 223.607 494.614 223.743 494.521 223.843C494.428 223.943 494.302 223.999 494.17 223.999Z" fill="#CACACA"/>
<path d="M381.526 198.11C380.564 189.801 375.766 181.614 368.383 178.91C371.295 187.463 371.294 196.845 368.381 205.397C367.247 208.691 365.666 212.228 366.733 215.547C367.397 217.613 369.021 219.193 370.836 220.181C372.652 221.169 374.667 221.64 376.657 222.102L377.049 222.45C380.208 214.794 382.489 206.42 381.526 198.11Z" fill="#F0F0F0"/>
<path d="M368.309 179.068C372.608 184.239 375.281 190.732 375.946 197.626C376.114 199.107 376.063 200.608 375.796 202.072C375.492 203.489 374.84 204.794 373.908 205.849C373.058 206.852 372.08 207.773 371.471 208.98C371.168 209.603 370.991 210.288 370.952 210.99C370.913 211.691 371.012 212.394 371.244 213.051C371.781 214.706 372.84 216.054 373.919 217.334C375.116 218.755 376.381 220.211 376.89 222.095C376.951 222.323 377.278 222.207 377.216 221.979C376.331 218.701 373.366 216.839 371.952 213.887C371.293 212.509 371.016 210.91 371.634 209.456C372.175 208.184 373.183 207.234 374.052 206.227C374.976 205.211 375.653 203.968 376.026 202.607C376.362 201.162 376.467 199.666 376.335 198.183C376.089 194.84 375.354 191.559 374.158 188.461C372.812 184.917 370.91 181.647 368.536 178.791C368.389 178.614 368.163 178.892 368.309 179.068Z" fill="white"/>
<path d="M375.854 195.39C376.916 195.113 377.852 194.44 378.495 193.491C379.138 192.541 379.445 191.378 379.362 190.208C379.345 189.971 379.001 189.989 379.019 190.226C379.098 191.316 378.811 192.399 378.211 193.282C377.611 194.165 376.737 194.788 375.746 195.04C375.531 195.095 375.64 195.445 375.854 195.39Z" fill="white"/>
<path d="M374.403 205.4C372.484 204.171 371.068 202.21 370.436 199.909C370.373 199.681 370.047 199.797 370.109 200.025C370.771 202.418 372.249 204.455 374.248 205.73C374.439 205.852 374.593 205.521 374.403 205.4Z" fill="white"/>
<path d="M372.494 185.268C372.104 185.467 371.673 185.559 371.242 185.535C370.81 185.511 370.391 185.373 370.021 185.133C369.832 185.009 369.679 185.339 369.867 185.462C370.276 185.726 370.739 185.878 371.216 185.905C371.693 185.932 372.169 185.834 372.602 185.618C372.644 185.601 372.679 185.568 372.699 185.525C372.72 185.481 372.724 185.431 372.711 185.385C372.697 185.339 372.666 185.3 372.625 185.278C372.584 185.256 372.537 185.252 372.494 185.268Z" fill="white"/>
<path d="M345.879 193.751C345.995 193.832 346.111 193.913 346.227 193.997C347.782 195.094 349.251 196.325 350.62 197.678C350.728 197.781 350.835 197.887 350.94 197.993C354.206 201.29 356.873 205.209 358.806 209.551C359.574 211.28 360.218 213.069 360.733 214.902C361.444 217.434 362.027 220.241 363.435 222.312C363.579 222.53 363.736 222.738 363.905 222.935H376.623C376.652 222.919 376.681 222.907 376.71 222.891L377.218 222.916C377.198 222.819 377.175 222.72 377.154 222.623C377.143 222.567 377.128 222.511 377.116 222.455C377.108 222.418 377.099 222.38 377.093 222.346C377.09 222.334 377.087 222.321 377.085 222.312C377.079 222.278 377.07 222.246 377.064 222.215C376.937 221.658 376.805 221.1 376.67 220.543C376.67 220.54 376.67 220.54 376.667 220.536C375.673 216.278 374.212 212.16 372.314 208.271C372.256 208.156 372.198 208.037 372.134 207.922C371.255 206.201 370.247 204.559 369.119 203.014C368.499 202.17 367.839 201.36 367.143 200.587C365.34 198.595 363.256 196.92 360.968 195.623C356.406 193.037 351.125 192.047 346.25 193.626C346.126 193.667 346.004 193.707 345.879 193.751Z" fill="#F0F0F0"/>
<path d="M345.907 193.923C352.24 195.273 358.016 198.731 362.415 203.805C363.379 204.879 364.181 206.11 364.788 207.452C365.341 208.78 365.552 210.243 365.4 211.688C365.284 213.038 365.019 214.405 365.21 215.763C365.318 216.456 365.561 217.117 365.923 217.703C366.286 218.288 366.759 218.785 367.313 219.16C368.67 220.134 370.272 220.526 371.851 220.851C373.604 221.212 375.43 221.557 376.893 222.732C377.07 222.875 377.266 222.571 377.089 222.429C374.543 220.384 371.132 220.813 368.347 219.369C367.048 218.696 365.929 217.598 365.608 216.037C365.326 214.672 365.598 213.262 365.727 211.896C365.895 210.488 365.738 209.058 365.272 207.73C364.73 206.359 363.974 205.097 363.038 203.999C360.966 201.489 358.539 199.344 355.847 197.643C352.784 195.683 349.431 194.301 345.933 193.555C345.717 193.509 345.692 193.877 345.907 193.923Z" fill="white"/>
<path d="M361.089 202.081C361.782 201.174 362.152 200.031 362.133 198.858C362.113 197.685 361.706 196.557 360.983 195.676C360.836 195.499 360.572 195.735 360.719 195.913C361.394 196.732 361.773 197.782 361.789 198.875C361.805 199.967 361.456 201.03 360.806 201.871C360.665 202.054 360.948 202.263 361.089 202.081Z" fill="white"/>
<path d="M365.541 211.014C363.319 211.272 361.088 210.622 359.293 209.193C359.115 209.051 358.92 209.355 359.097 209.496C360.968 210.98 363.291 211.651 365.602 211.377C365.823 211.351 365.76 210.988 365.541 211.014Z" fill="white"/>
<path d="M352.726 196.169C352.526 196.58 352.234 196.931 351.876 197.192C351.519 197.452 351.106 197.612 350.676 197.659C350.456 197.682 350.519 198.045 350.738 198.022C351.213 197.968 351.668 197.79 352.064 197.504C352.46 197.217 352.784 196.831 353.009 196.379C353.033 196.338 353.042 196.289 353.034 196.241C353.026 196.194 353.002 196.151 352.965 196.122C352.928 196.095 352.882 196.084 352.837 196.093C352.792 196.102 352.752 196.129 352.726 196.169Z" fill="white"/>
<path d="M95.3086 198.11C96.2714 189.801 101.069 181.614 108.452 178.91C105.54 187.463 105.541 196.845 108.454 205.397C109.588 208.691 111.17 212.228 110.102 215.547C109.439 217.613 107.814 219.193 105.999 220.181C104.183 221.169 102.168 221.64 100.178 222.102L99.7864 222.45C96.6276 214.794 94.3459 206.42 95.3086 198.11Z" fill="#F0F0F0"/>
<path d="M108.524 179.068C104.225 184.239 101.552 190.732 100.887 197.626C100.719 199.107 100.77 200.608 101.038 202.072C101.341 203.489 101.993 204.794 102.925 205.849C103.775 206.852 104.754 207.773 105.362 208.98C105.665 209.603 105.842 210.288 105.881 210.99C105.92 211.691 105.821 212.394 105.589 213.051C105.052 214.706 103.993 216.054 102.914 217.334C101.717 218.755 100.452 220.211 99.9435 222.095C99.8819 222.323 99.5555 222.207 99.6171 221.979C100.503 218.701 103.467 216.839 104.881 213.887C105.54 212.509 105.817 210.91 105.199 209.456C104.658 208.184 103.65 207.234 102.781 206.227C101.857 205.211 101.18 203.968 100.807 202.607C100.471 201.162 100.367 199.666 100.498 198.183C100.744 194.84 101.479 191.559 102.675 188.461C104.021 184.917 105.923 181.647 108.297 178.791C108.444 178.614 108.67 178.892 108.524 179.068Z" fill="white"/>
<path d="M100.979 195.39C99.9163 195.113 98.9802 194.44 98.3375 193.491C97.6948 192.541 97.3875 191.378 97.4703 190.208C97.4878 189.971 97.8313 189.989 97.8138 190.226C97.7348 191.316 98.0212 192.399 98.6213 193.282C99.2215 194.165 100.096 194.788 101.087 195.04C101.302 195.095 101.193 195.445 100.979 195.39Z" fill="white"/>
<path d="M102.43 205.4C104.349 204.171 105.766 202.21 106.398 199.909C106.46 199.681 106.786 199.797 106.724 200.025C106.062 202.418 104.584 204.455 102.585 205.73C102.394 205.852 102.241 205.521 102.43 205.4Z" fill="white"/>
<path d="M104.342 185.268C104.732 185.467 105.162 185.559 105.594 185.535C106.025 185.511 106.445 185.373 106.814 185.133C107.003 185.009 107.157 185.339 106.969 185.462C106.559 185.726 106.096 185.878 105.619 185.905C105.143 185.932 104.667 185.834 104.234 185.618C104.191 185.601 104.156 185.568 104.136 185.525C104.116 185.481 104.112 185.431 104.124 185.385C104.139 185.339 104.17 185.3 104.211 185.278C104.251 185.256 104.298 185.252 104.342 185.268Z" fill="white"/>
<path d="M130.956 193.751C130.84 193.832 130.724 193.913 130.608 193.997C129.053 195.094 127.584 196.325 126.215 197.678C126.107 197.781 126 197.887 125.896 197.993C122.63 201.29 119.962 205.209 118.029 209.551C117.261 211.28 116.617 213.069 116.102 214.902C115.391 217.434 114.808 220.241 113.401 222.312C113.256 222.53 113.099 222.738 112.931 222.935H100.212C100.183 222.919 100.154 222.907 100.125 222.891L99.6172 222.916C99.6376 222.819 99.6607 222.72 99.6811 222.623C99.6927 222.567 99.7072 222.511 99.7188 222.455C99.7274 222.418 99.7362 222.38 99.742 222.346C99.7449 222.334 99.7478 222.321 99.7507 222.312C99.7565 222.278 99.7653 222.246 99.7711 222.215C99.8988 221.658 100.03 221.1 100.166 220.543C100.166 220.54 100.166 220.54 100.169 220.536C101.162 216.278 102.624 212.16 104.521 208.271C104.579 208.156 104.637 208.037 104.701 207.922C105.58 206.201 106.588 204.559 107.716 203.014C108.336 202.17 108.996 201.36 109.692 200.587C111.495 198.595 113.579 196.92 115.867 195.623C120.429 193.037 125.71 192.047 130.585 193.626C130.71 193.667 130.832 193.707 130.956 193.751Z" fill="#F0F0F0"/>
<path d="M130.927 193.923C124.594 195.273 118.818 198.731 114.42 203.805C113.455 204.879 112.654 206.11 112.046 207.452C111.493 208.78 111.282 210.243 111.434 211.688C111.55 213.038 111.815 214.405 111.624 215.763C111.516 216.456 111.273 217.117 110.911 217.703C110.549 218.288 110.075 218.785 109.521 219.16C108.165 220.134 106.563 220.526 104.984 220.851C103.231 221.212 101.404 221.557 99.9412 222.732C99.7639 222.875 99.5684 222.571 99.7454 222.429C102.291 220.384 105.702 220.813 108.487 219.369C109.787 218.696 110.905 217.598 111.227 216.037C111.508 214.672 111.236 213.262 111.107 211.896C110.94 210.488 111.096 209.058 111.562 207.73C112.104 206.359 112.86 205.097 113.796 203.999C115.868 201.489 118.295 199.344 120.988 197.643C124.051 195.683 127.403 194.301 130.901 193.555C131.117 193.509 131.142 193.877 130.927 193.923Z" fill="white"/>
<path d="M115.748 202.081C115.055 201.174 114.684 200.031 114.704 198.858C114.723 197.685 115.131 196.557 115.854 195.676C116.001 195.499 116.265 195.735 116.118 195.913C115.443 196.732 115.064 197.782 115.048 198.875C115.032 199.967 115.38 201.03 116.031 201.871C116.172 202.054 115.888 202.263 115.748 202.081Z" fill="white"/>
<path d="M111.292 211.014C113.514 211.272 115.745 210.622 117.54 209.193C117.718 209.051 117.914 209.355 117.736 209.496C115.866 210.98 113.543 211.651 111.231 211.377C111.011 211.351 111.073 210.988 111.292 211.014Z" fill="white"/>
<path d="M124.108 196.169C124.308 196.58 124.6 196.931 124.958 197.192C125.315 197.452 125.728 197.612 126.158 197.659C126.378 197.682 126.315 198.045 126.096 198.022C125.621 197.968 125.166 197.79 124.77 197.504C124.375 197.217 124.05 196.831 123.825 196.379C123.801 196.338 123.792 196.289 123.8 196.241C123.808 196.194 123.832 196.151 123.869 196.122C123.906 196.095 123.952 196.084 123.997 196.093C124.042 196.102 124.082 196.129 124.108 196.169Z" fill="white"/>
</g>
<defs>
<clipPath id="clip0_3226_3808">
<rect width="494.667" height="224" fill="white"/>
</clipPath>
</defs>
</svg>
