<svg width="16" height="16" viewBox="0 0 16 16" fill="none" xmlns="http://www.w3.org/2000/svg">
<g clip-path="url(#clip0_3129_1258)">
<path d="M0.424658 5.72266L5.34333 4.97133L7.54799 0.275329C7.71266 -0.0753376 8.28799 -0.0753376 8.45266 0.275329L10.6567 4.97133L15.5753 5.72266C15.6661 5.73661 15.7514 5.77532 15.8216 5.83453C15.8919 5.89374 15.9445 5.97116 15.9736 6.0583C16.0027 6.14544 16.0073 6.23892 15.9868 6.32848C15.9663 6.41805 15.9215 6.50022 15.8573 6.566L12.284 10.2287L13.1287 15.4067C13.1437 15.4993 13.1325 15.5942 13.0961 15.6807C13.0598 15.7672 12.9998 15.8418 12.9231 15.8958C12.8464 15.9498 12.756 15.9812 12.6624 15.9863C12.5687 15.9914 12.4754 15.97 12.3933 15.9247L7.99999 13.4967L3.60666 15.9253C3.52454 15.9707 3.43131 15.9921 3.33762 15.987C3.24394 15.9819 3.15358 15.9505 3.07687 15.8965C3.00017 15.8424 2.94022 15.7679 2.90387 15.6814C2.86752 15.5949 2.85624 15.4999 2.87132 15.4073L3.71599 10.2293L0.142659 6.56666C0.0783138 6.50091 0.0333567 6.41868 0.0127354 6.32902C-0.00788498 6.23937 -0.00337029 6.14576 0.0257845 6.0585C0.0549383 5.97124 0.107601 5.89372 0.177977 5.83447C0.248352 5.77522 0.333711 5.73653 0.424658 5.72266Z" fill="#FFC107"/>
</g>
<defs>
<clipPath id="clip0_3129_1258">
<rect width="16" height="16" fill="white" transform="matrix(-1 0 0 1 16 0)"/>
</clipPath>
</defs>
</svg>
