<svg width="60" height="60" viewBox="0 0 60 60" fill="none" xmlns="http://www.w3.org/2000/svg">
<path d="M4.7998 53.5201H55.1998V55.2001H4.7998V53.5201ZM8.1598 51.84H16.5598C16.7826 51.84 16.9962 51.7516 17.1538 51.594C17.3113 51.4365 17.3998 51.2228 17.3998 51V35.8801C17.3998 35.6573 17.3113 35.4436 17.1538 35.2861C16.9962 35.1285 16.7826 35.0401 16.5598 35.0401H8.1598C7.93702 35.0401 7.72337 35.1285 7.56583 35.2861C7.4083 35.4436 7.3198 35.6573 7.3198 35.8801V51C7.3198 51.2228 7.4083 51.4365 7.56583 51.594C7.72337 51.7516 7.93702 51.84 8.1598 51.84ZM8.9998 36.7201H15.7198V50.16H8.9998V36.7201ZM31.6798 51.84H40.0798C40.3026 51.84 40.5162 51.7516 40.6738 51.594C40.8313 51.4365 40.9198 51.2228 40.9198 51V25.8C40.9198 25.5773 40.8313 25.3636 40.6738 25.2061C40.5162 25.0485 40.3026 24.96 40.0798 24.96H31.6798C31.457 24.96 31.2434 25.0485 31.0858 25.2061C30.9283 25.3636 30.8398 25.5773 30.8398 25.8V51C30.8398 51.2228 30.9283 51.4365 31.0858 51.594C31.2434 51.7516 31.457 51.84 31.6798 51.84ZM32.5198 26.64H39.2398V50.16H32.5198V26.64ZM19.9198 51.84H28.3198C28.5426 51.84 28.7562 51.7516 28.9138 51.594C29.0713 51.4365 29.1598 51.2228 29.1598 51V15.72C29.1598 15.4973 29.0713 15.2836 28.9138 15.1261C28.7562 14.9685 28.5426 14.88 28.3198 14.88H19.9198C19.697 14.88 19.4834 14.9685 19.3258 15.1261C19.1683 15.2836 19.0798 15.4973 19.0798 15.72V51C19.0798 51.2228 19.1683 51.4365 19.3258 51.594C19.4834 51.7516 19.697 51.84 19.9198 51.84ZM20.7598 16.56H27.4798V50.16H20.7598V16.56ZM43.4398 51.84H51.8398C52.0626 51.84 52.2762 51.7516 52.4338 51.594C52.5913 51.4365 52.6798 51.2228 52.6798 51V5.64005C52.6798 5.41727 52.5913 5.20361 52.4338 5.04608C52.2762 4.88855 52.0626 4.80005 51.8398 4.80005H43.4398C43.217 4.80005 43.0034 4.88855 42.8458 5.04608C42.6883 5.20361 42.5998 5.41727 42.5998 5.64005V51C42.5998 51.2228 42.6883 51.4365 42.8458 51.594C43.0034 51.7516 43.217 51.84 43.4398 51.84ZM44.2798 6.48005H50.9998V50.16H44.2798V6.48005Z" fill="#005AAB"/>
</svg>
