<svg width="59" height="60" viewBox="0 0 59 60" fill="none" xmlns="http://www.w3.org/2000/svg">
<path d="M51.625 7.96875H7.375C4.32452 7.96875 1.84375 10.4916 1.84375 13.5938V39.8438C1.84375 41.5978 2.63933 43.2319 4.02583 44.325C4.12147 44.4005 4.23079 44.456 4.34755 44.4885C4.4643 44.5211 4.58622 44.5299 4.70632 44.5144C4.82642 44.499 4.94236 44.4597 5.04752 44.3987C5.15269 44.3378 5.24501 44.2563 5.31922 44.1591C5.39343 44.0618 5.44808 43.9506 5.48004 43.8319C5.512 43.7132 5.52065 43.5892 5.5055 43.467C5.49035 43.3449 5.45169 43.227 5.39173 43.1201C5.33177 43.0131 5.25169 42.9192 5.15605 42.8438C4.22219 42.1078 3.6875 41.0156 3.6875 39.8438V17.3438H55.3125V39.8438C55.3125 41.0147 54.7778 42.1078 53.844 42.8438C52.899 43.6106 54.0062 45.0675 54.9742 44.325C56.3607 43.2319 57.1562 41.5978 57.1562 39.8438V13.5938C57.1562 10.4916 54.6755 7.96875 51.625 7.96875ZM55.3125 15.4688H3.6875V13.5938C3.6875 11.5256 5.34134 9.84375 7.375 9.84375H51.625C53.6587 9.84375 55.3125 11.5256 55.3125 13.5938V15.4688Z" fill="#005AAB"/>
<path d="M8.29655 11.7188H6.4528C5.24146 11.7394 5.24053 13.5731 6.4528 13.5938H8.29655C9.50789 13.5731 9.50881 11.7394 8.29655 11.7188ZM12.9059 11.7188H11.0622C9.85083 11.7394 9.84991 13.5731 11.0622 13.5938H12.9059C14.1173 13.5731 14.1182 11.7394 12.9059 11.7188ZM17.5153 11.7188H15.6715C14.4602 11.7394 14.4593 13.5731 15.6715 13.5938H17.5153C18.7266 13.5731 18.7276 11.7394 17.5153 11.7188ZM24.5769 23.3531C23.8633 22.3669 22.3791 23.46 23.0843 24.4556L24.7096 26.7319C25.425 27.72 26.9055 26.6231 26.2012 25.6294L24.5769 23.3531ZM30.4215 24.8438V22.0312C30.4013 20.7994 28.5981 20.7984 28.5778 22.0312V24.8438C28.5981 26.0756 30.4013 26.0766 30.4215 24.8438ZM34.4225 23.3531L32.7981 25.6294C32.0947 26.6222 33.5725 27.7219 34.2897 26.7319L35.915 24.4547C36.6184 23.4609 35.1379 22.3641 34.4234 23.3541L34.4225 23.3531ZM23.0465 34.2188C23.0465 37.8375 25.9412 40.7812 29.4997 40.7812C38.0491 40.4513 38.0464 27.9844 29.4997 27.6562C25.9412 27.6562 23.0465 30.6 23.0465 34.2188ZM29.4997 29.5312C32.0413 29.5312 34.109 31.6341 34.109 34.2188C33.8924 40.4222 25.106 40.4212 24.8903 34.2188C24.8903 31.6341 26.9581 29.5312 29.4997 29.5312Z" fill="#005AAB"/>
<path d="M32.521 40.3687C32.0029 40.1709 31.3908 40.5394 31.3096 41.0962C31.2383 41.5319 31.0173 41.9278 30.686 42.2133C30.3546 42.4989 29.9343 42.6556 29.5 42.6556C29.0657 42.6556 28.6454 42.4989 28.314 42.2133C27.9827 41.9278 27.7617 41.5319 27.6904 41.0962C27.6102 40.5394 26.9971 40.1719 26.479 40.3687C24.6704 41.0071 23.102 42.2021 21.9914 43.788C20.8809 45.3738 20.2832 47.2718 20.2812 49.2187C20.2812 50.7694 21.5221 52.0312 23.0469 52.0312H35.9531C37.4779 52.0312 38.7188 50.7694 38.7188 49.2187C38.7188 45.2334 36.2278 41.6766 32.521 40.3687ZM35.9531 50.1562H23.0469C22.5389 50.1562 22.125 49.7362 22.125 49.2187C22.1263 47.8218 22.5113 46.453 23.2364 45.2665C23.9615 44.08 24.998 43.1231 26.2292 42.5034C27.471 45.1697 31.53 45.1687 32.7708 42.5034C34.002 43.1231 35.0385 44.08 35.7636 45.2665C36.4887 46.453 36.8737 47.8218 36.875 49.2187C36.875 49.7362 36.4611 50.1562 35.9531 50.1562Z" fill="#005AAB"/>
<path d="M39.1064 39.8438C38.1401 39.8518 37.203 39.5079 36.4643 38.8744C36.2771 38.7161 36.0358 38.6396 35.7933 38.6615C35.5507 38.6835 35.3266 38.8021 35.1698 38.9916C35.013 39.181 34.9362 39.4258 34.9563 39.6726C34.9764 39.9194 35.0916 40.1481 35.2769 40.3088C36.8008 41.64 39.0741 42.075 40.976 41.4113C40.8271 41.5444 40.7254 41.7236 40.6865 41.9213C40.6275 42.2697 40.4595 42.5895 40.2073 42.8329C39.9551 43.0764 39.6324 43.2304 39.2871 43.2722C39.1667 43.2862 39.0503 43.3241 38.9443 43.3839C38.8384 43.4437 38.7451 43.5241 38.6698 43.6206C38.5944 43.7171 38.5385 43.8277 38.5052 43.9461C38.472 44.0646 38.462 44.1886 38.4758 44.3109C38.97 46.2159 41.6683 44.43 42.132 43.3247C44.3675 44.4666 45.8066 46.8478 45.79 49.3781C45.79 49.5845 45.7094 49.7824 45.5659 49.9283C45.4224 50.0743 45.2278 50.1563 45.0248 50.1563H40.185C38.9773 50.175 38.9709 52.0106 40.185 52.0313H52.0864C52.739 52.0305 53.3646 51.7666 53.8261 51.2973C54.2875 50.828 54.5471 50.1918 54.5478 49.5281C54.5459 47.8742 54.0383 46.2617 53.0954 44.9141C52.1524 43.5665 50.8208 42.5504 49.2848 42.0066C55.7057 38.2875 50.6298 28.6622 44.0117 32.1347C42.5312 29.8688 39.2825 28.8394 36.7538 30.0319C36.6427 30.0813 36.5424 30.1526 36.4585 30.2415C36.3745 30.3305 36.3087 30.4354 36.2647 30.5502C36.2207 30.6651 36.1994 30.7876 36.202 30.9109C36.2046 31.0341 36.2311 31.1556 36.2799 31.2684C36.8819 32.4769 38.1467 31.2469 39.1064 31.4063C44.5879 31.5825 44.5879 39.6684 39.1064 39.8438ZM45.353 42.7341C45.3355 42.6309 45.2885 42.5419 45.2406 42.4528C46.2043 42.7234 47.2223 42.7215 48.185 42.4472C48.1313 42.5356 48.0926 42.6326 48.0707 42.7341C47.8366 44.2688 45.5881 44.2678 45.353 42.7341ZM49.5033 44.1413C50.4682 44.6582 51.2761 45.433 51.8401 46.3822C52.4041 47.3314 52.7028 48.4191 52.7041 49.5281C52.7041 49.875 52.4275 50.1563 52.0864 50.1563H47.5056C47.8615 48.6919 47.407 47.0906 46.852 45.7688C47.3931 45.747 47.9199 45.5863 48.3835 45.3018C48.8471 45.0172 49.2323 44.618 49.5033 44.1413ZM45.0986 35.625C45.0986 34.9941 45.0036 34.3847 44.8276 33.8119C47.1756 32.3006 50.4731 34.1925 50.3994 37.0313C50.4335 40.5375 45.9329 42.1256 43.831 39.36C44.6522 38.2941 45.0985 36.9791 45.0986 35.625ZM44.1546 42.0047C44.0126 42.0516 43.8965 42.1097 43.7766 42.1584C43.1037 41.7525 42.3993 41.2463 41.6093 41.1553C41.9181 41.0091 42.215 40.8422 42.4925 40.6472C42.9546 41.2051 43.5192 41.6662 44.1546 42.0047ZM4.45312 49.5281C4.45386 50.1918 4.71342 50.828 5.17486 51.2973C5.63631 51.7666 6.26195 52.0305 6.91453 52.0313H18.8159C20.0254 52.0106 20.03 50.1778 18.8159 50.1563H13.9761C13.7732 50.1563 13.5785 50.0743 13.435 49.9283C13.2916 49.7824 13.2109 49.5845 13.2109 49.3781C13.1943 46.845 14.6352 44.4647 16.8689 43.3247C17.3317 44.4291 20.031 46.2159 20.5251 44.3109C20.539 44.1886 20.529 44.0646 20.4957 43.9461C20.4624 43.8277 20.4065 43.7171 20.3312 43.6206C20.2558 43.5241 20.1625 43.4437 20.0566 43.3839C19.9507 43.3241 19.8342 43.2862 19.7138 43.2722C19.3686 43.2304 19.0458 43.0764 18.7937 42.8329C18.5415 42.5895 18.3734 42.2697 18.3144 41.9213C18.2755 41.7236 18.1738 41.5444 18.025 41.4113C19.9277 42.0741 22.1992 41.6409 23.724 40.3078C23.8175 40.2288 23.8947 40.1318 23.9511 40.0223C24.0076 39.9128 24.0422 39.7931 24.053 39.67C24.0637 39.5469 24.0505 39.4228 24.0139 39.3049C23.9774 39.187 23.9182 39.0777 23.84 38.9831C23.7617 38.8885 23.6658 38.8107 23.5578 38.7539C23.4498 38.6972 23.3319 38.6627 23.2107 38.6525C23.0896 38.6424 22.9677 38.6566 22.852 38.6945C22.7363 38.7324 22.6291 38.7932 22.5366 38.8734C19.9535 41.1656 15.6723 39.12 15.7461 35.625C15.7461 33.2991 17.6074 31.4063 19.8945 31.4063C20.8533 31.245 22.1218 32.4778 22.721 31.2684C23.2133 29.7422 20.8957 29.5903 19.8945 29.5313C17.8664 29.5313 16.0752 30.5625 14.9902 32.1347C8.36556 28.6613 3.29894 38.2922 9.71611 42.0066C8.18016 42.5504 6.8485 43.5665 5.90555 44.9141C4.96261 46.2617 4.45503 47.8742 4.45312 49.5281ZM13.6479 42.7341C13.4128 44.2688 11.1653 44.2678 10.9302 42.7341C10.9083 42.6326 10.8696 42.5356 10.8159 42.4472C11.7786 42.7215 12.7967 42.7235 13.7604 42.4528C13.7134 42.5419 13.6654 42.6309 13.6479 42.7341ZM16.5085 40.6472C16.7869 40.8422 17.0837 41.01 17.3935 41.1553C16.6025 41.2453 15.9 41.7525 15.2252 42.1584C15.1054 42.1097 14.9883 42.0516 14.8657 42.0075C15.4913 41.6617 16.0483 41.2007 16.5085 40.6481V40.6472ZM8.60156 37.0313C8.52781 34.1925 11.8254 32.2997 14.1734 33.8119C13.5732 35.6588 14.0028 37.8966 15.1699 39.36C13.0671 42.1256 8.56745 40.5366 8.60156 37.0313ZM9.49763 44.1413C9.76864 44.618 10.1539 45.0172 10.6175 45.3018C11.081 45.5863 11.6079 45.747 12.1489 45.7688C11.594 47.0897 11.1395 48.6919 11.4944 50.1563H6.91453C6.75072 50.1563 6.59362 50.0901 6.47778 49.9723C6.36195 49.8545 6.29688 49.6947 6.29688 49.5281C6.29812 48.4191 6.59683 47.3314 7.16083 46.3822C7.72483 45.433 8.53276 44.6582 9.49763 44.1413Z" fill="#005AAB"/>
</svg>
