<svg width="81" height="73" viewBox="0 0 81 73" fill="none" xmlns="http://www.w3.org/2000/svg">
<circle cx="57.3844" cy="48.9549" r="23.1422" fill="#005AAB" fill-opacity="0.1"/>
<path d="M17.67 55.9829C15.1657 55.9829 13.1283 53.9456 13.1283 51.4412C13.1283 48.9369 15.1657 46.8996 17.67 46.8996H35.0512C39.5587 46.8996 43.2258 43.2325 43.2258 38.7251C43.2258 34.2176 39.5587 30.5506 35.0512 30.5506H22.7934V34.1834H35.0512C37.5556 34.1834 39.593 36.2208 39.593 38.7252C39.593 41.2295 37.5556 43.2668 35.0512 43.2668H17.67C13.1626 43.2668 9.49548 46.9339 9.49548 51.4412C9.49548 55.9486 13.1626 59.6157 17.67 59.6157H47.2066V55.9829H17.67ZM20.8285 13.2716C16.9787 9.42182 10.7371 9.42182 6.88736 13.2716C3.03755 17.1214 3.03755 23.3631 6.88736 27.2128L13.858 34.1834L20.8285 27.2128C24.6783 23.363 24.6783 17.1213 20.8285 13.2716ZM13.7996 23.2251C12.1081 23.2251 10.7368 21.8538 10.7368 20.1622C10.7368 18.4707 12.1081 17.0993 13.7996 17.0993C15.4912 17.0993 16.8626 18.4706 16.8626 20.1622C16.8626 21.8538 15.4913 23.2251 13.7996 23.2251ZM63.1126 38.7039C59.2628 34.8541 53.0212 34.8541 49.1715 38.7039C45.3217 42.5537 45.3217 48.7953 49.1715 52.645L56.1421 59.6157L63.1128 52.645C66.9625 48.7953 66.9625 42.5537 63.1126 38.7039ZM56.0838 48.6574C54.3922 48.6574 53.0209 47.2861 53.0209 45.5946C53.0209 43.903 54.3922 42.5316 56.0838 42.5316C57.7753 42.5316 59.1467 43.9029 59.1467 45.5946C59.1467 47.2861 57.7754 48.6574 56.0838 48.6574Z" fill="#005AAB"/>
</svg>
