<svg width="75" height="75" viewBox="0 0 75 75" fill="none" xmlns="http://www.w3.org/2000/svg">
<path d="M0.585905 46.5784L8.8444 51.3463C8.9777 51.4232 9.12484 51.4731 9.27743 51.4932C9.43002 51.5132 9.58507 51.503 9.73372 51.4632C9.88237 51.4233 10.0217 51.3545 10.1438 51.2608C10.2659 51.1671 10.3683 51.0503 10.4452 50.917L10.7427 50.4016L15.5254 53.2018C15.4123 53.6084 15.355 54.0285 15.355 54.4506C15.3527 55.0567 15.4707 55.6572 15.702 56.2173C15.9333 56.7775 16.2734 57.2863 16.7027 57.7141C17.131 58.143 17.6397 58.4829 18.1998 58.7146C18.7599 58.9462 19.3602 59.0649 19.9662 59.0638C20.0551 59.0638 20.1442 59.0603 20.2331 59.0553C20.2281 59.1432 20.2249 59.2311 20.2249 59.3205C20.2236 59.9264 20.342 60.5266 20.5733 61.0866C20.8045 61.6467 21.1441 62.1555 21.5726 62.584C22.001 63.0124 22.5099 63.352 23.0699 63.5833C23.63 63.8146 24.2302 63.933 24.8361 63.9316C24.9255 63.9316 25.0144 63.9284 25.103 63.9234C25.0977 64.0123 25.0949 64.1013 25.0946 64.1903C25.0933 64.7963 25.2117 65.3965 25.4429 65.9566C25.6742 66.5166 26.0138 67.0255 26.4422 67.454C26.8707 67.8824 27.3796 68.222 27.9396 68.4533C28.4997 68.6846 29.0999 68.803 29.7058 68.8017C30.0303 68.8016 30.354 68.7677 30.6715 68.7006C30.8187 69.6046 31.2832 70.4267 31.9817 71.0192C32.6803 71.6117 33.567 71.936 34.483 71.9338C34.9462 71.9343 35.4057 71.8518 35.8399 71.6903L36.0726 71.9228C36.5748 72.4259 37.2061 72.7806 37.897 72.9479C38.5878 73.1152 39.3115 73.0887 39.9882 72.8712C40.665 72.6537 41.2686 72.2538 41.7326 71.7153C42.1967 71.1768 42.5031 70.5207 42.6183 69.8193C42.9356 69.887 43.259 69.9214 43.5835 69.9218C44.2119 69.9226 44.8339 69.7948 45.4112 69.5463C45.9884 69.2977 46.5087 68.9337 46.94 68.4766C47.3714 68.0195 47.7046 67.479 47.9193 66.8883C48.1339 66.2976 48.2254 65.6692 48.1882 65.0419C48.2761 65.0468 48.364 65.0499 48.4533 65.0499C49.0818 65.0512 49.7038 64.9237 50.2812 64.6755C50.8585 64.4272 51.3789 64.0634 51.8103 63.6064C52.2417 63.1494 52.575 62.609 52.7896 62.0183C53.0042 61.4277 53.0956 60.7993 53.0582 60.172C53.1461 60.177 53.234 60.18 53.3234 60.18C54.1684 60.1792 54.997 59.9464 55.7188 59.507C56.4407 59.0676 57.028 58.4384 57.4169 57.6881C57.8057 56.9378 57.9811 56.0952 57.9239 55.2521C57.8668 54.409 57.5792 53.5977 57.0927 52.9068L63.5575 49.1896L64.5548 50.917C64.7102 51.1861 64.9661 51.3825 65.2663 51.4629C65.5665 51.5434 65.8864 51.5013 66.1555 51.3459L74.414 46.5784C74.6832 46.423 74.8796 46.167 74.96 45.8668C75.0404 45.5666 74.9983 45.2467 74.8429 44.9776L64.0117 26.2175C63.8563 25.9484 63.6004 25.752 63.3002 25.6716C63.0001 25.5911 62.6802 25.6332 62.4111 25.7886L54.1526 30.5566C53.8835 30.7121 53.6871 30.968 53.6066 31.2682C53.5262 31.5684 53.5683 31.8883 53.7237 32.1574L54.6816 33.8165L53.3125 34.3349C52.6844 34.5863 51.9862 34.6004 51.3485 34.3746L42.2203 31.332C41.7138 31.1586 41.1777 31.0881 40.6436 31.1245C40.1095 31.161 39.588 31.3036 39.1097 31.5441L37.2933 32.4394C37.2761 32.4292 37.2596 32.4182 37.2416 32.4086L35.0778 31.2661C34.4949 30.9537 33.8444 30.7883 33.183 30.7842C32.5216 30.7802 31.8692 30.9377 31.2824 31.2429L28.3941 32.7224C28.175 32.8449 27.9289 32.9108 27.678 32.9142L20.7933 32.993L21.2758 32.157C21.4312 31.8878 21.4733 31.568 21.3929 31.2678C21.3124 30.9676 21.116 30.7116 20.8469 30.5562L12.5888 25.7886C12.3197 25.6332 11.9999 25.5911 11.6997 25.6716C11.3995 25.752 11.1436 25.9484 10.9882 26.2175L0.156999 44.9776C0.00160568 45.2467 -0.0405052 45.5666 0.0399298 45.8668C0.120365 46.167 0.316757 46.423 0.585905 46.5784ZM18.3599 56.0574C17.9362 55.6301 17.6985 55.0527 17.6985 54.451C17.6985 53.8493 17.9362 53.272 18.3599 52.8447L22.4808 48.7238C22.9073 48.3002 23.4844 48.0629 24.0856 48.0639C24.6867 48.065 25.263 48.3043 25.688 48.7294C26.1131 49.1545 26.3523 49.7308 26.3533 50.3319C26.3542 50.9331 26.1169 51.5101 25.6932 51.9366L21.5726 56.0574C21.1462 56.4827 20.5685 56.7216 19.9662 56.7216C19.364 56.7216 18.7863 56.4827 18.3599 56.0574ZM23.2299 60.9273C22.8064 60.5001 22.5687 59.9231 22.5685 59.3216C22.5684 58.7202 22.8057 58.143 23.2289 57.7156L23.2299 57.7146L27.3508 53.5938C27.7779 53.1731 28.354 52.9383 28.9535 52.9405C29.553 52.9428 30.1274 53.182 30.5513 53.6059C30.9752 54.0298 31.2144 54.6041 31.2166 55.2036C31.2189 55.8031 30.9841 56.3792 30.5633 56.8064L26.4425 60.9273C26.0161 61.3526 25.4384 61.5915 24.8362 61.5915C24.2339 61.5915 23.6563 61.3526 23.2299 60.9273ZM28.0998 65.7971C27.6743 65.3708 27.4354 64.7931 27.4354 64.1908C27.4354 63.5885 27.6743 63.0108 28.0998 62.5844L32.2205 58.4637C32.6466 58.0376 33.2244 57.7983 33.8269 57.7983C34.4294 57.7983 35.0072 58.0376 35.4332 58.4637C35.8593 58.8897 36.0986 59.4675 36.0986 60.07C36.0986 60.6725 35.8593 61.2503 35.4332 61.6764C35.3939 61.7162 35.3576 61.7589 35.3244 61.804C35.2014 61.8999 35.0843 62.0033 34.9737 62.1133L31.7493 65.3375C31.639 65.4483 31.5355 65.5657 31.4393 65.689C31.3945 65.7221 31.352 65.7583 31.3123 65.7974C30.8859 66.2228 30.3083 66.4616 29.706 66.4616C29.1037 66.4615 28.5261 66.2226 28.0998 65.7971ZM33.4069 69.148C33.1216 68.8623 32.9613 68.4751 32.9613 68.0713C32.9613 67.6675 33.1216 67.2803 33.4069 66.9946L36.631 63.7705C36.9166 63.485 37.3039 63.3245 37.7077 63.3245C38.1115 63.3245 38.4988 63.485 38.7843 63.7705C39.0699 64.0561 39.2303 64.4433 39.2303 64.8472C39.2303 65.251 39.0699 65.6383 38.7843 65.9238L35.5602 69.148C35.2737 69.4316 34.8868 69.5908 34.4836 69.5908C34.0804 69.5908 33.6934 69.4316 33.4069 69.148ZM39.8828 70.2661C39.5995 70.5487 39.2163 70.7084 38.8161 70.7107C38.4159 70.7131 38.0308 70.5579 37.7442 70.2787L39.8959 68.127C40.1752 68.4137 40.3304 68.7989 40.3279 69.1992C40.3255 69.5995 40.1656 69.9827 39.8828 70.2661ZM45.1904 66.9154C44.7641 67.3407 44.1864 67.5796 43.5842 67.5796C42.982 67.5796 42.4043 67.3407 41.978 66.9154C41.9381 66.8761 41.8954 66.8397 41.8503 66.8065C41.7543 66.6835 41.651 66.5664 41.5409 66.4559L41.3166 66.2316C41.5227 65.6963 41.6069 65.1217 41.5631 64.5498C41.5193 63.9778 41.3485 63.4228 41.0633 62.9252C40.7781 62.4275 40.3855 61.9996 39.9141 61.6727C39.4428 61.3458 38.9045 61.128 38.3384 61.0352C38.4666 60.4326 38.4737 59.8106 38.3594 59.2052C38.7908 58.9654 39.2885 58.8724 39.7774 58.9404C40.2662 59.0084 40.7197 59.2336 41.0694 59.5819L45.1904 63.7028C45.6158 64.1292 45.8547 64.7068 45.8547 65.3091C45.8547 65.9114 45.6158 66.4891 45.1904 66.9154ZM50.0604 62.0455C49.6331 62.469 49.0558 62.7066 48.4542 62.7066C47.8526 62.7066 47.2753 62.469 46.848 62.0455L42.727 57.9246C42.3135 57.4963 42.0847 56.9227 42.0898 56.3274C42.0949 55.7321 42.3335 55.1626 42.7543 54.7414C43.1751 54.3202 43.7443 54.0811 44.3396 54.0754C44.935 54.0696 45.5087 54.2979 45.9375 54.7109V54.7118L50.0584 58.8325C50.4841 59.2587 50.7233 59.8364 50.7235 60.4387C50.7238 61.0411 50.485 61.619 50.0597 62.0455H50.0604ZM54.9301 57.1756C54.5039 57.601 53.9262 57.8399 53.324 57.8399C52.7218 57.8399 52.1442 57.601 51.7179 57.1756L47.5968 53.0547C47.1761 52.6276 46.9413 52.0515 46.9436 51.452C46.9458 50.8525 47.185 50.2782 47.6089 49.8543C48.0328 49.4303 48.6072 49.1912 49.2067 49.1889C49.8062 49.1867 50.3823 49.4215 50.8094 49.8422L54.9297 53.9638C55.3533 54.3911 55.5909 54.9684 55.5909 55.5701C55.5909 56.1718 55.3533 56.7491 54.9297 57.1764L54.9301 57.1756ZM62.5689 28.4044L72.228 45.1345L65.9992 48.7307L56.3392 32.0004L62.5689 28.4044ZM40.1459 33.6464C40.3497 33.5398 40.5734 33.4766 40.8029 33.461C41.0323 33.4453 41.2626 33.4776 41.4789 33.5556L50.6072 36.5984C51.7572 36.9928 53.0097 36.9675 54.1428 36.5271L55.8691 35.873L62.3861 47.1604L55.437 51.1559L52.4661 48.1849C52.1515 47.8702 51.7928 47.6028 51.4013 47.3912L42.0593 40.3877C41.4656 39.9433 40.7568 39.6789 40.0172 39.6259L38.6444 39.5048C37.8758 39.4309 37.102 39.5782 36.4143 39.9294C35.7266 40.2806 35.1535 40.8209 34.7626 41.4869L32.9428 44.4794C32.916 44.5299 32.8737 44.5706 32.8221 44.5955C32.7706 44.6203 32.7124 44.6281 32.6562 44.6177L29.8876 44.2691C29.8458 44.2638 29.8056 44.2495 29.7698 44.2273C29.734 44.205 29.7034 44.1753 29.6801 44.1402C29.6569 44.1051 29.6414 44.0653 29.6349 44.0237C29.6284 43.982 29.631 43.9395 29.6424 43.8989L31.0926 38.7573C31.1542 38.5178 31.2682 38.2949 31.4264 38.1048C31.5846 37.9146 31.7829 37.762 32.0072 37.6578L40.1459 33.6464ZM27.705 35.2578C28.3185 35.251 28.9213 35.0969 29.4628 34.8085L32.3512 33.329C32.6025 33.1938 32.8837 33.1238 33.169 33.1255C33.4544 33.1273 33.7347 33.2006 33.9843 33.3388L34.7008 33.7169L30.9704 35.5557C30.451 35.8045 29.9914 36.1625 29.6231 36.6052C29.2547 37.048 28.9864 37.5651 28.8363 38.1211L27.3861 43.2627C27.2831 43.6279 27.2601 44.0111 27.3187 44.386C27.3774 44.761 27.5163 45.1188 27.7259 45.4352C27.9355 45.7515 28.211 46.0188 28.5334 46.2189C28.8559 46.4191 29.2177 46.5472 29.5942 46.5946L32.3628 46.9431C32.8678 47.0109 33.3816 46.9291 33.8405 46.7078C34.2995 46.4864 34.6834 46.1354 34.9448 45.698L36.7648 42.7056C36.9301 42.415 37.1761 42.1786 37.4731 42.025C37.7701 41.8714 38.1052 41.8072 38.4379 41.8402L39.8105 41.9613C40.1151 41.9761 40.4084 42.0813 40.6529 42.2637L47.2982 47.2455C46.4897 47.6107 45.804 48.2019 45.3236 48.9477C44.8433 49.6936 44.5888 50.5624 44.5907 51.4496C44.5907 51.5383 44.5939 51.6267 44.5987 51.7147C43.9714 51.6773 43.3431 51.7687 42.7524 51.9833C42.1618 52.1979 41.6213 52.5312 41.1643 52.9626C40.7074 53.394 40.3435 53.9143 40.0953 54.4917C39.847 55.069 39.7196 55.691 39.7208 56.3194C39.7208 56.4084 39.724 56.4965 39.7289 56.5846C38.9041 56.5366 38.0814 56.7103 37.3465 57.0878C37.2649 56.9908 37.1793 56.8973 37.09 56.8075C36.6298 56.3471 36.0772 55.9896 35.4686 55.7584C34.8601 55.5272 34.2095 55.4276 33.5597 55.4663C33.5647 55.3784 33.5677 55.2905 33.5677 55.2012C33.5692 54.5728 33.442 53.9508 33.1939 53.3734C32.9459 52.7961 32.5823 52.2756 32.1256 51.8441C31.6688 51.4125 31.1285 51.079 30.538 50.8642C29.9475 50.6493 29.3193 50.5576 28.692 50.5947C28.7292 49.9675 28.6375 49.3394 28.4228 48.7489C28.2081 48.1585 27.8748 47.6182 27.4434 47.1614C27.0121 46.7046 26.4918 46.341 25.9146 46.0928C25.3374 45.8446 24.7155 45.7172 24.0873 45.7184C23.4812 45.716 22.8807 45.834 22.3205 46.0653C21.7602 46.2966 21.2515 46.6368 20.8236 47.066L16.7102 51.1806L11.9146 48.3724L19.4313 35.3528L27.705 35.2578ZM12.4318 28.4044L18.6606 32.0004L9.00129 48.7307L2.77262 45.1345L12.4318 28.4044ZM37.5 29.4114C40.2161 29.4115 42.8713 28.6061 45.1297 27.0971C47.3881 25.5881 49.1483 23.4433 50.1878 20.9339C51.2272 18.4245 51.4992 15.6632 50.9693 12.9993C50.4394 10.3353 49.1315 7.88831 47.2109 5.96769C45.2903 4.04707 42.8433 2.73911 40.1794 2.20921C37.5154 1.6793 34.7541 1.95125 32.2447 2.99067C29.7353 4.03009 27.5905 5.79029 26.0815 8.04868C24.5725 10.3071 23.7671 12.9622 23.7671 15.6784C23.7712 19.3193 25.2194 22.8099 27.7939 25.3845C30.3684 27.959 33.859 29.4072 37.5 29.4114ZM37.5 4.28936C39.7526 4.28933 41.9546 4.95728 43.8276 6.20874C45.7006 7.46021 47.1604 9.23897 48.0224 11.3201C48.8845 13.4012 49.11 15.6913 48.6706 17.9006C48.2311 20.1099 47.1464 22.1393 45.5536 23.7321C43.9607 25.325 41.9313 26.4097 39.722 26.8491C37.5127 27.2886 35.2227 27.063 33.1415 26.201C31.0604 25.3389 29.2817 23.8791 28.0302 22.0061C26.7787 20.1332 26.1108 17.9311 26.1108 15.6785C26.1142 12.659 27.3152 9.76405 29.4504 7.62889C31.5855 5.49372 34.4804 4.29281 37.5 4.28936ZM32.2869 15.7336C32.1042 15.4822 32.0288 15.1685 32.0773 14.8615C32.1259 14.5545 32.2944 14.2794 32.5459 14.0966C32.7973 13.9139 33.111 13.8385 33.418 13.8871C33.725 13.9357 34.0001 14.1042 34.1828 14.3556L35.9765 16.8242L41.9477 11.9328C42.1883 11.7382 42.4962 11.6467 42.8041 11.6783C43.112 11.7099 43.3949 11.862 43.591 12.1014C43.7871 12.3409 43.8806 12.6481 43.851 12.9562C43.8213 13.2643 43.671 13.5481 43.4329 13.7458L36.5011 19.4241C36.3776 19.5253 36.2348 19.6001 36.0814 19.6441C35.928 19.6881 35.7672 19.7003 35.6089 19.6799C35.4506 19.6595 35.2981 19.607 35.1609 19.5257C35.0236 19.4443 34.9043 19.3357 34.8105 19.2066L32.2869 15.7336Z" fill="#005AAB"/>
</svg>
