<svg width="176" height="100" viewBox="0 0 176 100" fill="none" xmlns="http://www.w3.org/2000/svg">
<path fill-rule="evenodd" clip-rule="evenodd" d="M41 0.292969L67.7208 0.315295L88.3284 30.6123L96.6476 17.9281L100.628 24.3218L92.0804 36.8078L100.27 48.9785L86.9179 68.9998L41 0.292969ZM86.8502 55.7965L91.4428 48.9422L62.8658 6.30715L53.8385 6.30994L86.8502 55.7965Z" fill="#232323"/>
<path fill-rule="evenodd" clip-rule="evenodd" d="M91.9395 0L133.4 0.0306988L104.194 43.997L99.6239 36.9279L108.019 24.2353L91.9395 0ZM112.615 17.222L119.758 6.32117H105.159L112.615 17.222Z" fill="#24A1B3"/>
<path fill-rule="evenodd" clip-rule="evenodd" d="M4.38037 97.4259L0.136946 85.1619C-0.0380407 84.6679 -0.0453315 84.2563 0.115073 83.9269C0.275477 83.6012 0.594463 83.3631 1.07203 83.2128L1.43841 83.1C1.8941 82.964 2.28053 82.9819 2.59769 83.1537C2.9185 83.3256 3.16275 83.6513 3.33045 84.131L7.14734 95.0472C7.26035 95.3372 7.4481 95.4857 7.71058 95.4929C7.97305 95.5036 8.23553 95.3551 8.49801 95.0472L17.3294 83.8088C17.6684 83.3828 18.0329 83.1251 18.423 83.0356C18.8131 82.9425 19.2214 83.032 19.6479 83.3041L20.0034 83.535C20.3825 83.782 20.5703 84.1149 20.5666 84.5337C20.563 84.9561 20.3697 85.4161 19.987 85.9137L11.0955 97.4259C10.7127 97.9128 10.3007 98.269 9.85963 98.4945C9.41487 98.7164 8.9209 98.8256 8.37771 98.822H6.51301C5.4157 98.8256 4.70482 98.3602 4.38037 97.4259ZM22.1634 98.4569C21.8644 98.7003 21.4616 98.822 20.9549 98.822H20.4408C19.442 98.822 19.0501 98.3405 19.2651 97.3776L20.4244 92.0027C20.5703 91.3047 20.8601 90.7785 21.2939 90.4241C21.7314 90.0733 22.311 89.8979 23.0328 89.8979H34.921C35.4714 89.8979 35.9198 89.7779 36.2662 89.5381C36.6125 89.3018 36.8294 88.9474 36.9169 88.4749L37.0153 87.8574C37.0992 87.3885 37.0226 87.0341 36.7857 86.7943C36.5487 86.558 36.1568 86.4399 35.61 86.4399H23.1148C22.6154 86.4399 22.2636 86.3235 22.0595 86.0909C21.859 85.8582 21.8116 85.502 21.9173 85.0223L21.9993 84.6572C22.105 84.1775 22.3092 83.8195 22.6118 83.5833C22.9107 83.3506 23.3099 83.2361 23.8093 83.2396H36.5396C38.1546 83.2396 39.3066 83.6155 39.9956 84.3672C40.6809 85.1154 40.8705 86.2179 40.5643 87.6749L40.351 88.6629C40.0411 90.1377 39.4032 91.2456 38.4371 91.9866C37.471 92.7276 36.1386 93.0981 34.4397 93.0981H25.2858C24.7389 93.0981 24.3015 93.2305 23.9734 93.4954C23.6489 93.7603 23.4302 94.1631 23.3172 94.7036L22.7703 97.3561C22.6683 97.8466 22.4659 98.2135 22.1634 98.4569ZM55.6404 93.2216C55.4545 93.0462 55.1209 92.9603 54.6397 92.9639H45.9451C44.8478 92.9603 44.1916 93.4937 43.9765 94.564L43.4351 97.3132C43.2237 98.3191 42.6149 98.822 41.6087 98.822H41.0947C40.0958 98.8256 39.7039 98.337 39.919 97.3561L41.0728 91.8846C41.3681 90.467 42.2376 89.7583 43.6812 89.7583H55.6404C56.1873 89.7583 56.6247 89.6437 56.9528 89.4146C57.2773 89.1855 57.4814 88.8418 57.5653 88.3836L57.6692 87.8145C57.753 87.3563 57.6874 87.0126 57.4723 86.7835C57.2572 86.5544 56.8763 86.4399 56.3294 86.4399H43.7687C43.2656 86.4399 42.9138 86.3235 42.7133 86.0909C42.5128 85.8582 42.4654 85.502 42.5711 85.0223L42.6532 84.6572C42.7589 84.1775 42.9612 83.8195 43.2602 83.5833C43.5627 83.3506 43.9637 83.2361 44.4632 83.2396H57.188C58.8066 83.2325 59.9677 83.5708 60.6713 84.2545C61.3712 84.9346 61.5736 85.9978 61.2783 87.444L61.0705 88.432C60.8445 89.4629 60.4015 90.2236 59.7417 90.714C59.0855 91.2044 58.2306 91.4729 57.177 91.5194C58.1468 91.6125 58.7993 91.8184 59.1347 92.1369C59.4664 92.452 59.5539 92.9478 59.3972 93.6243L58.6207 97.3132C58.4056 98.3012 57.795 98.797 56.7888 98.8005H56.324C55.8209 98.797 55.4691 98.6663 55.2686 98.4086C55.0644 98.1508 55.0152 97.7696 55.1209 97.2648L55.7936 94.0592C55.8774 93.6726 55.8264 93.3934 55.6404 93.2216ZM64.9967 85.0062C66.4695 83.8249 68.5001 83.2361 71.0885 83.2396H76.8247C79.4131 83.2361 81.1903 83.8249 82.1563 85.0062C83.1261 86.1875 83.3539 87.963 82.8399 90.3328L82.5446 91.702C82.0524 94.0718 81.0736 95.8473 79.6081 97.0286C78.1389 98.2099 76.112 98.8005 73.5273 98.8005H67.7911C65.2027 98.8005 63.42 98.2099 62.443 97.0286C61.4697 95.8473 61.24 94.0718 61.754 91.702L62.0493 90.3328C62.5415 87.963 63.5239 86.1875 64.9967 85.0062ZM63.2906 96.3306C63.7664 96.8836 64.4116 97.2756 65.1663 97.485C66.0631 97.732 67.0146 97.8501 68.0043 97.834H73.757C74.6374 97.8448 75.5342 97.7481 76.4419 97.5602C77.3169 97.3722 78.3012 96.9803 79.0667 96.3574C80.5104 95.1922 81.2322 93.3505 81.5548 91.7557L81.8501 90.3596C82.211 88.7166 82.2876 86.8909 81.3142 85.7043C80.8385 85.1512 80.1932 84.7592 79.4441 84.5498C78.5472 84.3028 77.5958 84.1847 76.606 84.2008H70.8588C69.9784 84.1954 69.0761 84.2867 68.1684 84.4746C67.288 84.6626 66.3037 85.0599 65.5326 85.6828C64.089 86.848 63.3617 88.6843 63.0391 90.2845L62.7383 91.6913C62.3391 93.474 62.3227 95.1009 63.2906 96.3306ZM95.4553 86.7513C95.1491 86.9589 94.9504 87.2739 94.8593 87.6963L94.7554 88.1581C94.6606 88.5805 94.7299 88.8955 94.9632 89.1032C95.1965 89.3144 95.5865 89.4182 96.1334 89.4146H104.637C106.335 89.4146 107.515 89.7779 108.175 90.5046C108.838 91.2277 109.004 92.3213 108.672 93.7854L108.464 94.7251C108.144 96.1498 107.486 97.2326 106.49 97.9736C105.495 98.7182 104.192 99.0923 102.581 99.0959H90.6651C90.1656 99.0959 89.8193 98.9795 89.6261 98.7468C89.4329 98.5142 89.3891 98.158 89.4948 97.6783L89.5769 97.3132C89.6826 96.8335 89.8813 96.4773 90.1729 96.2446C90.4682 96.012 90.8656 95.8956 91.365 95.8956H103.111C103.654 95.8956 104.081 95.7882 104.391 95.5734C104.7 95.3551 104.908 95.0114 105.014 94.5425L105.14 93.968C105.242 93.5026 105.178 93.1607 104.948 92.9424C104.719 92.724 104.329 92.6166 103.778 92.6202H95.2749C93.576 92.6166 92.3912 92.2569 91.7204 91.5409C91.0497 90.8286 90.8783 89.7618 91.2064 88.3407L91.3978 87.5138C91.7186 86.1356 92.3748 85.0796 93.3664 84.3458C94.3544 83.6119 95.654 83.2432 97.2653 83.2396H108.596C109.095 83.2361 109.441 83.3506 109.635 83.5833C109.828 83.8195 109.872 84.1775 109.766 84.6572L109.684 85.0223C109.578 85.502 109.379 85.8582 109.088 86.0909C108.796 86.3235 108.399 86.4399 107.896 86.4399H96.7349C96.1881 86.4399 95.7615 86.5437 95.4553 86.7513ZM114.048 83.2343H114.562C115.561 83.2307 115.952 83.7193 115.737 84.7001L113.069 97.3561C112.865 98.337 112.263 98.8256 111.264 98.822H110.75C109.751 98.8256 109.359 98.337 109.575 97.3561L112.243 84.7001C112.447 83.7193 113.049 83.2307 114.048 83.2343ZM129.332 95.2298C129.605 94.9721 129.785 94.6284 129.873 94.1989L129.96 93.8767C130.041 93.4543 129.993 93.1357 129.818 92.9209C129.64 92.7061 129.335 92.5969 128.905 92.5934H123.305C122.817 92.5934 122.472 92.4734 122.272 92.2336C122.075 91.9938 122.03 91.634 122.135 91.1543L122.195 90.8322C122.407 89.8728 123.001 89.3931 123.978 89.3931H132.186C132.919 89.3931 133.431 89.5757 133.723 89.9408C134.011 90.3024 134.082 90.8447 133.936 91.5678L132.864 96.6474C132.551 98.0935 131.659 98.8184 130.19 98.822H121.917C119.328 98.822 117.549 98.2314 116.579 97.0501C115.606 95.8688 115.373 94.095 115.88 91.7289L116.175 90.3328C116.667 87.963 117.649 86.1875 119.122 85.0062C120.595 83.8249 122.626 83.2361 125.214 83.2396H134.209C135.19 83.2396 135.575 83.7193 135.363 84.6787L135.281 85.1136C135.175 85.5897 134.977 85.9298 134.685 86.1338C134.393 86.3414 134.003 86.4435 133.515 86.4399H124.448C123.059 86.447 121.982 86.7746 121.217 87.4225C120.455 88.074 119.952 88.9976 119.707 90.1932L119.352 91.8416C119.089 93.0408 119.208 93.968 119.707 94.623C120.207 95.2781 121.151 95.611 122.54 95.6218H128.271C128.705 95.6146 129.058 95.484 129.332 95.2298ZM147.722 98.5589C147.437 98.3835 147.195 98.1132 146.994 97.7481L141.192 87.6265C140.915 87.1719 140.646 86.9804 140.383 87.052C140.121 87.1236 139.926 87.4458 139.798 88.0185L137.851 97.3561C137.643 98.337 137.04 98.8256 136.041 98.822H135.527C134.532 98.8256 134.14 98.337 134.352 97.3561L136.872 85.4089C137.022 84.6894 137.286 84.1471 137.665 83.782C138.041 83.4204 138.591 83.2396 139.317 83.2396H141.274C141.745 83.2361 142.124 83.3238 142.412 83.5027C142.7 83.6782 142.942 83.9484 143.139 84.3135L148.925 94.4297C149.202 94.8844 149.475 95.0777 149.745 95.0096C150.011 94.9381 150.208 94.6141 150.335 94.0378L152.288 84.7001C152.492 83.7193 153.093 83.2325 154.092 83.2396H154.606C155.605 83.2325 155.997 83.7193 155.782 84.7001L153.261 96.6474C153.115 97.3776 152.855 97.9235 152.479 98.2851C152.107 98.643 151.553 98.822 150.817 98.822H148.859C148.389 98.822 148.01 98.7343 147.722 98.5589ZM160.906 86.7513C160.599 86.9589 160.403 87.2739 160.315 87.6963L160.206 88.1581C160.111 88.5805 160.18 88.8955 160.414 89.1032C160.647 89.3144 161.039 89.4182 161.589 89.4146H170.087C171.786 89.4146 172.967 89.7779 173.63 90.5046C174.29 91.2277 174.456 92.3213 174.128 93.7854L173.915 94.7251C173.594 96.1498 172.936 97.2326 171.941 97.9736C170.946 98.7182 169.642 99.0923 168.031 99.0959H156.121C155.621 99.0959 155.273 98.9795 155.076 98.7468C154.883 98.5142 154.839 98.158 154.945 97.6783L155.033 97.3132C155.135 96.8335 155.332 96.4773 155.623 96.2446C155.919 96.012 156.316 95.8956 156.815 95.8956H168.561C169.108 95.8956 169.537 95.7882 169.846 95.5734C170.156 95.3551 170.362 95.0114 170.464 94.5425L170.59 93.968C170.696 93.5026 170.632 93.1607 170.399 92.9424C170.169 92.724 169.781 92.6166 169.234 92.6202H160.731C159.028 92.6166 157.842 92.2569 157.171 91.5409C156.5 90.8286 156.331 89.7618 156.662 88.3407L156.854 87.5138C157.174 86.1356 157.829 85.0796 158.817 84.3458C159.805 83.6119 161.106 83.2432 162.721 83.2396H174.046C174.546 83.2361 174.894 83.3506 175.091 83.5833C175.284 83.8195 175.327 84.1775 175.222 84.6572L175.134 85.0223C175.032 85.502 174.834 85.8582 174.538 86.0909C174.247 86.3235 173.851 86.4399 173.352 86.4399H162.185C161.642 86.4399 161.216 86.5437 160.906 86.7513ZM9.56434 97.6622C9.85963 97.5011 10.1166 97.2756 10.3135 97.0071L19.2597 85.425C19.5495 85.0706 19.7135 84.6035 19.3472 84.3887C19.3253 84.378 19.3034 84.3637 19.2815 84.3458C19.0738 84.1954 18.8441 84.0719 18.598 83.9753C18.423 83.9162 18.2316 84.0612 18.1223 84.2115L9.25264 95.4983C8.54723 96.395 7.35513 96.787 6.60597 96.1534C6.41458 95.9869 6.26694 95.7775 6.18491 95.5359L2.35162 84.5659C2.286 84.335 2.14929 84.1417 1.94696 84.0075C1.83759 83.9592 1.70089 83.9538 1.56418 84.0021L1.16499 84.1256C1.11031 84.1399 1.05745 84.1614 1.00641 84.19C0.990004 84.3028 1.05562 84.5605 1.0939 84.6626L5.3592 96.9803C5.52325 97.5441 6.0482 97.8877 6.7044 97.8609H8.64566C8.94642 97.8716 9.26358 97.8018 9.56434 97.6622ZM22.3274 94.7358C22.6938 92.9316 24.039 92.3893 24.5421 92.2604C24.8702 92.1745 25.2037 92.1316 25.5209 92.1369H34.6858C35.6865 92.1423 36.988 91.992 37.9395 91.2832C39.137 90.3865 39.323 88.8615 39.5745 87.7017C40.1541 85.0599 38.623 84.1847 36.3154 84.2008H23.5797C23.4703 84.2008 23.2078 84.2115 23.1258 84.276C23.0656 84.3243 23.0055 84.5498 22.9891 84.6142C22.9599 84.7682 22.9253 84.9221 22.8852 85.076C22.8524 85.1834 22.8578 85.2908 22.9016 85.3821C23 85.4573 23.1313 85.4895 23.2734 85.4787H35.8123C37.3215 85.4358 38.3059 86.2734 38.0051 87.8145L37.9121 88.3783C37.7481 89.5649 36.8075 90.4831 35.6373 90.7516C35.3147 90.8268 34.992 90.8644 34.6804 90.859H22.7867C22.5297 90.859 22.0923 90.8912 21.8298 91.1006C21.6001 91.2886 21.4689 91.6859 21.4142 91.9544L20.233 97.4259C20.1346 97.8179 20.3096 97.8662 20.6596 97.8609C20.6814 97.8609 20.7033 97.8609 20.7252 97.8609C20.9986 97.877 21.2775 97.8609 21.5564 97.8179C21.5819 97.8108 21.6056 97.8 21.6275 97.7857C21.6986 97.7266 21.7642 97.485 21.7806 97.3991L22.3274 94.7358ZM56.7724 94.07L56.0943 97.2971C56.0506 97.4528 56.0615 97.6031 56.1271 97.7266C56.2201 97.8072 56.3459 97.8448 56.488 97.8394H57.0895C57.2153 97.8448 57.3466 97.8125 57.4723 97.7427C57.5434 97.689 57.6145 97.4313 57.6309 97.3508L58.4074 93.6512C58.4566 93.4364 58.5277 93.0605 58.3527 92.8994C58.0957 92.6578 57.3356 92.5182 56.8653 92.4752C56.3349 92.4323 56.0506 91.9651 56.2256 91.4389C56.3841 90.9556 56.8763 90.5744 57.3739 90.5583C57.959 90.5368 58.7136 90.4026 59.255 89.9999C60.0151 89.4414 60.1518 88.1366 60.294 87.4708C60.4854 86.5849 60.4854 85.5861 59.8784 85.0062C59.2222 84.3726 58.0301 84.19 56.9747 84.1954H44.2335C44.1241 84.1954 43.8562 84.2115 43.7796 84.276C43.7195 84.3243 43.6539 84.5498 43.6429 84.6142C43.6138 84.7682 43.5773 84.9203 43.5336 85.0706C43.5008 85.1834 43.5117 85.2908 43.5554 85.3767C43.6539 85.4519 43.7851 85.4895 43.9273 85.4787L56.5591 85.4734C58.0465 85.468 58.9761 86.2412 58.6535 87.7823L58.566 88.2924C58.391 89.4629 57.4887 90.365 56.324 90.6227C56.0123 90.6925 55.7061 90.7248 55.3998 90.7194H43.4406C43.1836 90.7194 42.7625 90.7516 42.5055 90.9449C42.2594 91.1275 42.1227 91.557 42.0626 91.8363L40.8869 97.3991C40.7885 97.8018 40.9416 97.8662 41.308 97.8609C41.5121 97.8537 41.7144 97.8537 41.9149 97.8609C42.0352 97.8716 42.1665 97.8394 42.2813 97.7696C42.3579 97.7105 42.429 97.4421 42.4508 97.3561L42.9922 94.6123C43.2 93.5169 43.8999 92.4752 45.1577 92.1369C45.5022 92.0403 45.8521 91.992 46.1912 91.9973H54.8694C55.0954 91.9938 55.3178 92.0117 55.5365 92.051C55.8701 92.1047 56.1654 92.2336 56.406 92.4376C56.8216 92.7974 56.9419 93.4686 56.7724 94.07ZM70.5635 85.4734H76.431C77.0216 85.468 77.5958 85.5324 78.1371 85.6667C79.4987 85.9835 80.3846 86.9392 80.5049 88.3138C80.5596 88.9099 80.5158 89.5274 80.3737 90.1502L80.0182 91.8255C79.7612 93.1142 79.2034 94.3492 78.0824 95.2889C77.4755 95.799 76.7591 96.1587 76.0264 96.3198C75.3647 96.4863 74.6975 96.5668 74.0523 96.5561H68.1902C67.5942 96.5614 67.02 96.497 66.4787 96.3681C65.1171 96.046 64.2312 95.0956 64.1109 93.7156C64.0562 93.1249 64.0999 92.5074 64.2421 91.8846L64.5976 90.2093C64.8546 88.9206 65.4123 87.6802 66.5333 86.7406C67.1403 86.2358 67.8567 85.8761 68.5894 85.7096C69.2511 85.5485 69.9182 85.468 70.5635 85.4734ZM67.0966 87.3957C66.331 88.0293 65.8279 88.9546 65.5873 90.1717L65.2264 91.8631C64.9676 93.0802 65.0879 94.0055 65.5873 94.6392C66.0831 95.2728 67.0255 95.5914 68.4144 95.5949H74.2929C75.6819 95.5914 76.7573 95.2728 77.5192 94.6392C78.2848 94.0055 78.7879 93.0802 79.0285 91.8631L79.3894 90.1717C79.6519 88.9546 79.5334 88.0293 79.0339 87.3957C78.5345 86.7621 77.5903 86.4435 76.2013 86.4399H70.3229C68.9339 86.4435 67.8585 86.7621 67.0966 87.3957ZM96.9755 85.4734H108.147C108.24 85.4787 108.492 85.4626 108.563 85.4089C108.618 85.3606 108.683 85.1243 108.694 85.0599C108.727 84.906 108.763 84.7521 108.803 84.5981C108.836 84.4907 108.831 84.378 108.787 84.2867C108.694 84.2169 108.574 84.1847 108.437 84.1954H97.0357C96.0185 84.1954 94.8046 84.3672 93.8476 85.0599C93.4867 85.3284 93.186 85.6667 92.9618 86.0372C92.6883 86.5043 92.4915 86.9983 92.3876 87.4869L92.1907 88.33C92.0814 88.7971 92.0376 89.2589 92.0704 89.7099C92.1032 90.1341 92.2618 90.5153 92.5352 90.8107C93.1641 91.4711 94.4327 91.6591 95.4991 91.6537H104.008C104.276 91.6537 104.538 91.6752 104.79 91.7235C105.96 91.949 106.397 92.8726 106.113 93.9841L105.998 94.5156C105.851 95.1976 105.495 95.8419 104.866 96.2876C104.527 96.5292 104.144 96.6957 103.762 96.7709C103.461 96.8299 103.16 96.8621 102.87 96.8568H91.1189C90.7471 96.8514 90.6487 96.8675 90.5666 97.2702C90.5375 97.4241 90.501 97.5781 90.4573 97.732C90.4245 97.8448 90.4299 97.9521 90.4737 98.0434C90.5666 98.1132 90.6924 98.1455 90.8236 98.1347H102.81C103.827 98.1347 105.047 97.9629 106.004 97.2648C106.829 96.6581 107.289 95.6433 107.48 94.7573L107.693 93.8015C107.803 93.3182 107.847 92.8404 107.819 92.3786C107.792 91.9329 107.633 91.5356 107.36 91.2295C106.742 90.5637 105.479 90.3704 104.418 90.3757H95.9311C95.2967 90.3972 94.5858 90.2576 94.1703 89.8549C93.7437 89.4414 93.5961 88.8078 93.7765 88.142L93.8695 87.75C94.1757 86.1821 95.5373 85.4573 96.9755 85.4734ZM110.57 97.775C110.652 97.8609 110.947 97.8609 110.963 97.8609C111.168 97.8537 111.37 97.8537 111.57 97.8609C111.691 97.8716 111.822 97.8394 111.937 97.775C112.002 97.6998 112.063 97.4904 112.079 97.4045L114.769 84.6572C114.808 84.523 114.802 84.3887 114.748 84.276C114.698 84.2115 114.447 84.19 114.348 84.1954C114.144 84.2026 113.942 84.2008 113.741 84.19C113.621 84.1847 113.495 84.2115 113.375 84.2813C113.309 84.3511 113.249 84.5605 113.233 84.6518L110.542 97.3991C110.504 97.5333 110.515 97.6676 110.57 97.775ZM128.019 96.5829H122.31C121.709 96.5829 121.129 96.5131 120.582 96.3735C118.45 95.8419 117.886 93.9787 118.368 91.8524L118.723 90.2308C118.986 88.9474 119.549 87.7232 120.648 86.7835C121.249 86.268 121.966 85.8976 122.693 85.7257C123.366 85.5539 124.038 85.468 124.689 85.4734L133.766 85.4787C133.887 85.4787 134.094 85.468 134.198 85.4197C134.242 85.3338 134.273 85.246 134.291 85.1566C134.317 84.9811 134.352 84.8075 134.395 84.6357C134.434 84.5068 134.423 84.378 134.373 84.276C134.33 84.2169 134.089 84.1954 133.996 84.1954H124.979C124.104 84.19 123.202 84.2867 122.294 84.4746C121.413 84.6626 120.429 85.0599 119.658 85.6774C118.22 86.8372 117.482 88.6843 117.165 90.2845L116.864 91.6966C116.514 93.3397 116.448 95.1654 117.427 96.3574C117.903 96.9051 118.543 97.3024 119.297 97.5065C120.189 97.7535 121.146 97.8716 122.13 97.8609H130.42C130.699 97.8609 131.125 97.8233 131.399 97.6192C131.661 97.4259 131.82 96.9803 131.88 96.6849L132.952 91.5946C133.138 90.7194 132.891 90.3489 131.967 90.3543H123.677C123.562 90.3435 123.437 90.3757 123.327 90.4402C123.267 90.4992 123.202 90.7087 123.185 90.7892C123.163 90.9252 123.134 91.063 123.098 91.2027C123.065 91.3208 123.076 91.4389 123.125 91.5356C123.213 91.6107 123.338 91.643 123.475 91.6376L129.107 91.6322C129.725 91.6161 130.365 91.804 130.693 92.2604C131.005 92.7007 131.092 93.2914 130.934 93.8982L130.863 94.172C130.764 94.7519 130.453 95.3318 129.982 95.799C129.457 96.3252 128.659 96.6098 128.019 96.5829ZM151.861 97.6837C151.949 97.587 152.02 97.4796 152.063 97.3669C152.156 97.1467 152.227 96.9212 152.271 96.701L154.814 84.6572C154.852 84.523 154.847 84.3887 154.792 84.2813C154.743 84.2169 154.497 84.1954 154.393 84.1954C154.189 84.2026 153.986 84.2026 153.786 84.1954C153.666 84.1847 153.54 84.2169 153.42 84.2813C153.354 84.3565 153.294 84.5659 153.277 84.6518L151.325 94.0055C151.161 94.7841 150.735 95.6701 149.805 95.9278C149.493 96.0138 149.182 96.003 148.919 95.8903C148.536 95.7345 148.219 95.3855 148.011 95.0311L142.231 84.9096C142.111 84.684 141.947 84.4907 141.734 84.3404C141.542 84.2384 141.318 84.19 141.072 84.1954H139.087C138.868 84.1954 138.447 84.2276 138.289 84.3833C138.07 84.5874 137.922 85.0706 137.862 85.3606L135.325 97.3991C135.221 97.8018 135.38 97.8662 135.74 97.8609C135.945 97.8537 136.149 97.8537 136.353 97.8609C136.468 97.8716 136.599 97.8394 136.714 97.775C136.785 97.6998 136.845 97.4904 136.861 97.4045L138.814 88.0507C138.972 87.2775 139.388 86.3969 140.307 86.1338C140.629 86.0425 140.946 86.0533 141.214 86.1714C141.378 86.2358 141.526 86.3325 141.646 86.4506C141.827 86.6171 141.98 86.8104 142.1 87.0252L147.907 97.1414C148.022 97.3722 148.192 97.5655 148.4 97.7159C148.591 97.8179 148.821 97.8662 149.061 97.8609H151.068C151.292 97.8609 151.675 97.8287 151.861 97.6837ZM162.426 85.4734H173.598C173.691 85.4787 173.942 85.4626 174.013 85.4089C174.068 85.3606 174.134 85.1243 174.15 85.0599C174.179 84.906 174.216 84.7521 174.259 84.5981C174.292 84.4907 174.287 84.378 174.243 84.2867C174.15 84.2169 174.024 84.1847 173.893 84.1954H162.486C161.474 84.1954 160.255 84.3672 159.298 85.0599C158.943 85.3284 158.636 85.6667 158.412 86.0372C158.139 86.5043 157.942 86.9983 157.838 87.4869L157.647 88.33C157.532 88.7971 157.488 89.2589 157.521 89.7099C157.554 90.1341 157.718 90.5153 157.986 90.8107C158.614 91.4711 159.883 91.6591 160.949 91.6537H169.458C169.726 91.6537 169.989 91.6752 170.24 91.7235C171.41 91.949 171.848 92.8726 171.569 93.9841L171.449 94.5156C171.306 95.1976 170.946 95.8419 170.322 96.2876C169.978 96.5292 169.595 96.6957 169.212 96.7709C168.911 96.8299 168.616 96.8621 168.321 96.8568H156.569C156.197 96.8514 156.099 96.8675 156.017 97.2702C155.988 97.4241 155.953 97.5781 155.913 97.732C155.875 97.8448 155.886 97.9521 155.924 98.0434C156.022 98.1132 156.143 98.1455 156.274 98.1347H168.266C169.283 98.1347 170.497 97.9629 171.454 97.2648C172.28 96.6581 172.739 95.6433 172.931 94.7573L173.144 93.8015C173.259 93.3182 173.302 92.8404 173.275 92.3786C173.242 91.9329 173.084 91.5356 172.81 91.2295C172.192 90.5637 170.929 90.3704 169.874 90.3757H161.387C160.742 90.4133 160.151 90.2522 159.692 89.914C159.183 89.5381 159.063 88.8132 159.232 88.142L159.32 87.75C159.626 86.1821 160.988 85.4573 162.426 85.4734Z" fill="#232323"/>
</svg>
